<?xml version="1.0" standalone="no"?>
<!DOCTYPE svg PUBLIC "-//W3C//DTD SVG 1.1//EN" "http://www.w3.org/Graphics/SVG/1.1/DTD/svg11.dtd" >
<svg xmlns="http://www.w3.org/2000/svg" xmlns:xlink="http://www.w3.org/1999/xlink" version="1.1">
<metadata>
Created by FontForge 20170731 at Mon Oct 20 12:31:09 2014
 By Aleksey,,,
Copyright (c) 2014 by Daniel Hernandez &#38; Miguel Hernandez. All rights reserved.
</metadata>
<defs>
<font id="Texta-BookItalic" horiz-adv-x="524" >
  <font-face 
    font-family="Texta Book"
    font-weight="400"
    font-style="italic"
    font-stretch="normal"
    units-per-em="1000"
    panose-1="2 0 0 0 0 0 0 0 0 0"
    ascent="800"
    descent="-200"
    x-height="420"
    cap-height="600"
    bbox="-17 -192 1075 812"
    underline-thickness="50"
    underline-position="-200"
    slope="-8"
    unicode-range="U+000D-25CA"
  />
<missing-glyph horiz-adv-x="564" 
 />
    <glyph glyph-name=".notdef" horiz-adv-x="564" 
 />
    <glyph glyph-name=".null" horiz-adv-x="0" 
 />
    <glyph glyph-name="nonmarkingreturn" horiz-adv-x="333" 
 />
    <glyph glyph-name="NUL" horiz-adv-x="0" 
 />
    <glyph glyph-name="NUL" horiz-adv-x="0" 
 />
    <glyph glyph-name="CR" unicode="&#xd;" horiz-adv-x="75" 
 />
    <glyph glyph-name="space" unicode=" " horiz-adv-x="229" 
 />
    <glyph glyph-name="exclam" unicode="!" horiz-adv-x="198" 
d="M217 600l-77 -442h-39l47 442h69zM62 31q0 19 14.5 33t33.5 14q16 0 26.5 -11t10.5 -26q0 -20 -14.5 -34.5t-34.5 -14.5q-16 0 -26 11t-10 28z" />
    <glyph glyph-name="quotedbl" unicode="&#x22;" horiz-adv-x="301" 
d="M227 684l-70 -209h-35l47 209h58zM358 684l-71 -209h-34l47 209h58z" />
    <glyph glyph-name="numbersign" unicode="#" horiz-adv-x="607" 
d="M574 583l-59 -165h118l-15 -39h-118l-64 -178h114l-13 -38h-114l-59 -163h-40l58 163h-166l-58 -163h-41l59 163h-120l13 38h120l64 178h-115l14 39h116l59 165h40l-59 -165h165l59 165h42zM293 379l-63 -178h165l63 178h-165z" />
    <glyph glyph-name="dollar" unicode="$" horiz-adv-x="506" 
d="M52 55l37 44q15 -17 64 -40q36 -16 82 -19l35 246q-86 28 -124 62t-38 87q0 76 56.5 123.5t151.5 53.5l15 104h48l-15 -104q50 -3 92 -16.5t58 -27.5l14 -12l-37 -48q-16 16 -58 33q-36 14 -77 17l-32 -225q88 -28 127.5 -65t39.5 -93q0 -80 -56.5 -130.5t-158.5 -57.5
l-13 -94h-48l13 94q-52 3 -97 19t-63 34zM432 166q0 36 -26.5 60t-89.5 46l-33 -231q74 5 111.5 38t37.5 87zM167 444q0 -32 25.5 -53.5t86.5 -42.5l29 210q-64 -5 -102.5 -35.5t-38.5 -78.5z" />
    <glyph glyph-name="percent" unicode="%" horiz-adv-x="649" 
d="M253 613q50 0 78.5 -35.5t28.5 -90.5q0 -69 -42 -122q-40 -52 -107 -52q-50 0 -78 35.5t-28 91.5q0 69 41 121q40 52 107 52zM247 566q-41 0 -66 -35.5t-25 -87.5q0 -38 16.5 -60.5t45.5 -22.5q40 0 65.5 35.5t25.5 87.5q0 38 -16.5 60.5t-45.5 22.5zM522 292
q50 0 79 -36t29 -91q0 -69 -42 -121t-108 -52q-49 0 -77.5 35.5t-28.5 91.5q0 69 41 121q42 52 107 52zM516 246q-40 0 -65.5 -35.5t-25.5 -87.5q0 -37 16.5 -60t45.5 -23q40 0 65.5 35.5t25.5 87.5q0 38 -16.5 60.5t-45.5 22.5zM613 600h64l-561 -600h-62z" />
    <glyph glyph-name="ampersand" unicode="&#x26;" horiz-adv-x="582" 
d="M516 285l52 -13q-31 -100 -84 -166l91 -106h-82l-51 61q-82 -72 -187 -72q-86 0 -136 40t-50 104q0 63 38 105t118 82l-10 12q-47 59 -47 120q0 68 49 114q50 47 123 47q60 0 97 -33t37 -87q0 -70 -51 -115q-48 -39 -110 -70l139 -163q43 59 64 140zM260 38q86 0 150 60
l-152 183q-67 -35 -96.5 -65.5t-29.5 -75.5t36.5 -73.5t91.5 -28.5zM226 456q0 -43 44 -96l11 -13q60 28 93 55q42 33 42 83q0 37 -22 58.5t-60 21.5q-46 0 -77 -30.5t-31 -78.5z" />
    <glyph glyph-name="quotesingle" unicode="'" horiz-adv-x="169" 
d="M227 684l-70 -209h-35l47 209h58z" />
    <glyph glyph-name="parenleft" unicode="(" horiz-adv-x="262" 
d="M141 287q-32 -225 92 -388l-39 -35q-146 178 -111 423q34 245 230 423l29 -35q-170 -165 -201 -388z" />
    <glyph glyph-name="parenright" unicode=")" horiz-adv-x="262" 
d="M208 360q0 184 -98 315l39 35q118 -142 118 -347q0 -149 -58 -270q-22 -49 -59 -98q-35 -48 -62 -75q-30 -32 -58 -56l-29 35q207 199 207 461z" />
    <glyph glyph-name="asterisk" unicode="*" horiz-adv-x="391" 
d="M149 440l106 101l-128 25l27 55l110 -64l2 136h56l-40 -137l131 65l11 -55l-138 -25l80 -101l-51 -33l-45 122l-80 -122z" />
    <glyph glyph-name="plus" unicode="+" horiz-adv-x="499" 
d="M345 507l-26 -187h181l-7 -48h-181l-25 -180h-49l25 180h-182l7 48h182l26 187h49z" />
    <glyph glyph-name="comma" unicode="," horiz-adv-x="199" 
d="M5 -83q34 7 58 27.5t29 46.5q-30 5 -30 35q0 19 14 33t33 14q17 0 27 -12t9 -30v-4l-1 -5q-10 -55 -45 -92t-89 -47z" />
    <glyph glyph-name="hyphen" unicode="-" horiz-adv-x="399" 
d="M90 205l7 48h277l-7 -48h-277z" />
    <glyph glyph-name="period" unicode="." horiz-adv-x="196" 
d="M97 -9q-16 0 -26 10t-10 25q0 19 14 33t33 14q15 0 25.5 -11t10.5 -26q0 -19 -14 -32t-33 -13z" />
    <glyph glyph-name="slash" unicode="/" horiz-adv-x="553" 
d="M67 -111l-61 -1l575 895h60z" />
    <glyph glyph-name="zero" unicode="0" horiz-adv-x="591" 
d="M294 -14q-98 0 -154 72q-54 74 -54 187q0 153 82 260q82 108 214 108q99 0 153 -73q54 -72 54 -186q0 -153 -82 -260q-83 -108 -213 -108zM301 40q104 0 167 91t63 217q0 95 -41.5 153t-115.5 58q-104 0 -167 -92t-63 -217q0 -93 40 -151q41 -59 117 -59z" />
    <glyph glyph-name="one" unicode="1" horiz-adv-x="283" 
d="M91 547l7 53h195l-84 -600h-57l77 547h-138z" />
    <glyph glyph-name="two" unicode="2" horiz-adv-x="486" 
d="M47 0l5 39l297 265q52 46 67 75q15 30 15 69q0 49 -32.5 80t-88.5 31q-68 0 -136 -48q-21 -15 -33 -27l-26 44q12 12 36 29t43 26q58 30 124 30q82 0 127 -42t45 -112q0 -49 -18 -90q-18 -39 -73 -88l-255 -228h304l-7 -53h-394z" />
    <glyph glyph-name="three" unicode="3" horiz-adv-x="492" 
d="M277 293h-79l7 37l229 217h-303l7 53h382l-7 -46l-218 -210q81 0 124.5 -38t43.5 -110q0 -87 -65 -149q-64 -61 -166 -61q-71 0 -115 24t-61 50l-5 8l41 41l1 -1q1 -2 3 -4.5t4.5 -6t6.5 -7.5t9 -8t11.5 -9t13.5 -9q40 -24 98 -24q73 0 119 43t46 107q0 49 -32.5 76
t-94.5 27z" />
    <glyph glyph-name="four" unicode="4" horiz-adv-x="538" 
d="M45 146l6 43l397 411h43l-57 -401h103l-7 -53h-103l-21 -146h-57l21 146h-325zM130 202l-1 -3h248l43 304l-278 -291z" />
    <glyph glyph-name="five" unicode="5" horiz-adv-x="478" 
d="M484 547h-275l-33 -200q44 12 100 12q89 0 138 -41.5t49 -114.5q0 -95 -66 -157q-65 -60 -171 -60q-66 0 -110 24.5t-60 49.5l-5 8l41 41q0 -1 4.5 -7t16.5 -17.5t27 -20.5q40 -24 94 -24q77 0 123.5 42t46.5 113q0 51 -36.5 81t-100.5 30q-71 0 -125 -18q-14 -4 -17 -7
l-12 10l53 309h326z" />
    <glyph glyph-name="six" unicode="6" horiz-adv-x="518" 
d="M86 229q0 184 82 284t203 100q45 0 81 -15.5t50.5 -30.5t23.5 -30l4 -9l-40 -41q-1 3 -4 8t-14 17t-24.5 21.5t-36 17.5t-48.5 8q-82 0 -138.5 -63t-77.5 -190q-2 -24 -2 -28q30 42 79.5 66.5t106.5 24.5q80 0 127 -47q46 -46 46 -117q0 -87 -67 -151t-164 -64
q-89 0 -138 60t-49 179zM322 315q-62 0 -110.5 -35t-65.5 -91q12 -145 135 -145q68 0 117 46t49 110q0 52 -33.5 83.5t-91.5 31.5z" />
    <glyph glyph-name="seven" unicode="7" horiz-adv-x="429" 
d="M104 547l7 53h388l-5 -39l-345 -561h-69l340 547h-316z" />
    <glyph glyph-name="eight" unicode="8" horiz-adv-x="511" 
d="M254 -14q-83 0 -133 45t-50 113q0 56 32 100.5t89 69.5q-67 37 -67 117q0 77 61 129q62 53 156 53q78 0 123 -40t45 -105q0 -104 -104 -154q79 -40 79 -130q0 -81 -65 -140q-64 -58 -166 -58zM427 178q0 48 -36 78.5t-95 30.5q-72 0 -119 -40q-47 -39 -47 -97
q0 -49 36 -79.5t95 -30.5q72 0 118 40q48 40 48 98zM303 337q67 0 108 36t41 89q0 43 -31.5 70t-86.5 27q-67 0 -108.5 -35t-41.5 -88q0 -44 32 -71.5t87 -27.5z" />
    <glyph glyph-name="nine" unicode="9" horiz-adv-x="517" 
d="M454 297q2 24 2 28q-30 -42 -79.5 -66.5t-106.5 -24.5q-77 0 -126 47q-47 47 -47 117q0 87 67 151t164 64q89 0 138 -60t49 -179q0 -188 -75 -288t-199 -100q-64 0 -106 24.5t-53 47.5l-5 9l41 41q1 -3 4 -7.5t14 -16t24 -20.5t35 -16.5t47 -7.5q83 0 140 66.5t72 190.5z
M279 288q62 0 110.5 35t65.5 91q-12 145 -135 145q-68 0 -117 -46t-49 -110q0 -51 34.5 -83t90.5 -32z" />
    <glyph glyph-name="colon" unicode=":" horiz-adv-x="205" 
d="M96 0q-27 3 -23 30q3 27 25 36q10 5 21 2q28 -5 23 -34q-4 -25 -26 -33q-10 -4 -20 -1zM145 350q-28 4 -23 33q4 27 27 34q9 4 19 1q14 -3 20.5 -15t1.5 -26t-18.5 -22t-26.5 -5z" />
    <glyph glyph-name="semicolon" unicode=";" horiz-adv-x="235" 
d="M168 33l-1 -9q-7 -55 -42.5 -91.5t-91.5 -47.5l-4 34q34 7 58 27.5t29 46.5q-14 2 -22.5 12t-8.5 23q0 19 14.5 33t33.5 14q17 0 27 -12.5t8 -29.5zM171 343q-16 0 -26.5 10.5t-10.5 25.5q0 19 14.5 32.5t33.5 13.5q15 0 25.5 -10.5t10.5 -25.5q0 -18 -14.5 -32
t-32.5 -14z" />
    <glyph glyph-name="less" unicode="&#x3c;" horiz-adv-x="375" 
d="M80 282l4 28l296 199l-9 -60l-227 -153l184 -154l-8 -60z" />
    <glyph glyph-name="equal" unicode="=" horiz-adv-x="463" 
d="M115 364l6 47h335l-6 -47h-335zM88 173l7 47h335l-7 -47h-335z" />
    <glyph glyph-name="greater" unicode="&#x3e;" horiz-adv-x="375" 
d="M380 310l-4 -28l-297 -200l8 60l228 154l-184 153l8 60z" />
    <glyph glyph-name="question" unicode="?" horiz-adv-x="414" 
d="M125 513l-16 47q20 18 76 37q45 14 88 14q80 0 125.5 -36t45.5 -99q0 -46 -19 -81.5t-47.5 -58t-57.5 -42.5t-52 -44.5t-28 -53.5l-7 -41h-40l7 50q4 32 24.5 60t47 48.5t52 41.5t43 48.5t17.5 60.5q0 42 -32 67.5t-86 25.5q-73 0 -124 -33zM155 28q0 19 14.5 33.5
t34.5 14.5q16 0 26.5 -11t10.5 -27q0 -19 -15 -33.5t-34 -14.5q-16 0 -26.5 10.5t-10.5 27.5z" />
    <glyph glyph-name="at" unicode="@" horiz-adv-x="1004" 
d="M759 51q-53 0 -82.5 28.5t-30.5 75.5h-3q-73 -97 -190 -97q-68 0 -108.5 43t-40.5 115q0 120 80 200t182 80q106 0 136 -85l30 76h40l-67 -254q-8 -34 -8 -59q0 -36 18.5 -56t53.5 -20q74 0 128 74t54 186q0 135 -92 236q-91 100 -251 100q-97 0 -188 -38t-156 -103
q-65 -64 -102.5 -149t-37.5 -174q0 -156 102 -263q104 -107 261 -107q54 0 112 14q52 13 81 28l27 15l15 -42q-5 -3 -30 -17q-20 -11 -82 -27q-65 -17 -129 -17q-121 0 -216 57q-93 56 -142 149q-48 92 -48 203q0 100 41 194.5t113 166.5q69 70 172 115q101 43 214 43
q172 0 281 -109q110 -110 110 -268q0 -131 -72 -223q-70 -91 -175 -91zM468 107q81 0 142 70q63 71 63 159q0 50 -30 81t-80 31q-78 0 -139 -64q-61 -62 -61 -157q0 -57 27 -88.5t78 -31.5z" />
    <glyph glyph-name="A" unicode="A" horiz-adv-x="589" 
d="M405 600l170 -600h-59l-41 145h-321l-81 -145h-58l337 600h53zM369 529l-185 -331h277z" />
    <glyph glyph-name="B" unicode="B" horiz-adv-x="601" 
d="M579 182q0 -86 -63 -134t-170 -48h-261l84 600h247q87 0 134.5 -35.5t47.5 -103.5q0 -118 -116 -155v-3q45 -12 71 -44t26 -77zM390 276h-209l-32 -223h205q75 0 120.5 33t45.5 94q0 44 -35.5 69t-94.5 27zM539 452q0 95 -130 95h-190l-31 -218h190q73 0 117 33t44 90z
" />
    <glyph glyph-name="C" unicode="C" horiz-adv-x="568" 
d="M522 108l26 -43q-11 -11 -35 -28q-17 -12 -43 -24q-60 -27 -131 -27q-118 0 -188 76t-70 195q0 149 100 252q101 104 246 104q70 0 115 -22.5t66 -47.5l6 -8l-38 -44q-7 10 -25 23q-14 11 -32 21q-42 24 -99 24q-106 0 -183 -76q-78 -75 -93 -184q-15 -107 41 -184
q57 -75 162 -75q45 0 90 17q42 16 65 34z" />
    <glyph glyph-name="D" unicode="D" horiz-adv-x="629" 
d="M630 343q0 -154 -101 -249q-100 -94 -253 -94h-191l84 600h191q122 0 196 -69t74 -188zM351 547h-132l-70 -494h132q121 0 206 77q84 76 84 204q0 98 -61 155q-61 58 -159 58z" />
    <glyph glyph-name="E" unicode="E" horiz-adv-x="542" 
d="M496 330l-7 -53h-308l-32 -224h358l-7 -53h-415l84 600h415l-7 -53h-358l-31 -217h308z" />
    <glyph glyph-name="F" unicode="F" horiz-adv-x="528" 
d="M496 330l-7 -53h-308l-39 -277h-57l84 600h415l-7 -53h-358l-31 -217h308z" />
    <glyph glyph-name="G" unicode="G" horiz-adv-x="640" 
d="M361 271l7 53h281l-5 -39q-18 -137 -101 -219q-83 -80 -206 -80q-119 0 -187 75q-68 77 -68 194q0 150 98 254q99 104 248 104q76 0 124 -23t70 -49l6 -8l-39 -43q0 3 -16.5 18t-58.5 33t-94 18q-122 0 -200 -88q-78 -89 -78 -210q0 -95 53 -159q54 -62 149 -62
q92 0 157 60q66 61 82 160l2 11h-224z" />
    <glyph glyph-name="H" unicode="H" horiz-adv-x="641" 
d="M640 600l-84 -600h-57l38 271h-357l-38 -271h-57l84 600h57l-38 -276h357l38 276h57z" />
    <glyph glyph-name="I" unicode="I" horiz-adv-x="228" 
d="M226 600l-84 -600h-57l84 600h57z" />
    <glyph glyph-name="J" unicode="J" horiz-adv-x="424" 
d="M23 32l34 44q38 -35 101 -35q134 0 157 158l57 401h57l-58 -411q-29 -203 -215 -203q-86 0 -130 44z" />
    <glyph glyph-name="K" unicode="K" horiz-adv-x="560" 
d="M226 600l-48 -344l381 344h64l-1 -11l-262 -236l184 -342l-2 -11h-53l-173 314l-149 -135l-25 -179h-57l84 600h57z" />
    <glyph glyph-name="L" unicode="L" horiz-adv-x="486" 
d="M462 0h-377l84 600h57l-77 -547h320z" />
    <glyph glyph-name="M" unicode="M" horiz-adv-x="723" 
d="M581 0l70 497l-247 -272h-20l-173 269l-69 -494h-57l84 600h37l195 -301l278 301h42l-84 -600h-56z" />
    <glyph glyph-name="N" unicode="N" horiz-adv-x="665" 
d="M663 600l-84 -600h-44l-322 503l-71 -503h-57l84 600h46l321 -500l70 500h57z" />
    <glyph glyph-name="O" unicode="O" horiz-adv-x="678" 
d="M337 -14q-118 0 -187 76q-68 77 -68 193q0 151 97 254q98 104 246 104q119 0 186 -75q68 -76 68 -194q0 -151 -97 -254q-98 -104 -245 -104zM344 40q120 0 198 87q79 88 79 209q0 97 -55 159q-54 64 -149 64q-119 0 -197 -88q-78 -87 -78 -209q0 -95 53 -159
q54 -63 149 -63z" />
    <glyph glyph-name="P" unicode="P" horiz-adv-x="574" 
d="M85 0l84 600h230q96 0 148.5 -45t52.5 -125q0 -108 -71 -171t-189 -63h-170l-28 -196h-57zM542 421q0 60 -40 93t-111 33h-172l-42 -298h172q89 0 141 45t52 127z" />
    <glyph glyph-name="Q" unicode="Q" horiz-adv-x="678" 
d="M337 -14q-118 0 -187 76q-68 77 -68 193q0 151 97 254q98 104 246 104q119 0 186 -75q68 -76 68 -194q0 -112 -58 -201q-58 -91 -154 -131l65 -134h-65l-56 116q-40 -8 -74 -8zM344 40q120 0 198 87q79 88 79 209q0 97 -55 159q-54 64 -149 64q-119 0 -197 -88
q-78 -87 -78 -209q0 -95 53 -159q54 -63 149 -63z" />
    <glyph glyph-name="R" unicode="R" horiz-adv-x="595" 
d="M169 600h229q97 0 149.5 -44t52.5 -125q0 -83 -46 -139.5t-126 -77.5v-2l126 -198l-2 -14h-55l-131 204h-195l-29 -204h-57zM541 422q0 60 -39.5 92.5t-110.5 32.5h-172l-41 -290h181q82 0 132 44t50 121z" />
    <glyph glyph-name="S" unicode="S" horiz-adv-x="507" 
d="M52 55l37 44q19 -21 73 -43q42 -16 94 -16q87 0 131.5 33.5t44.5 92.5q0 41 -32.5 66t-114.5 50q-94 29 -135.5 63.5t-41.5 89.5q0 81 64 129q64 49 169 49q58 0 105.5 -13.5t65.5 -29.5l16 -14l-37 -48q-51 51 -157 51q-74 0 -120.5 -31t-46.5 -84q0 -36 33 -59.5
t116 -48.5q94 -30 134.5 -66.5t40.5 -94.5q0 -85 -64 -137t-178 -52q-73 0 -121 20t-70 42z" />
    <glyph glyph-name="T" unicode="T" horiz-adv-x="513" 
d="M102 547l7 53h463l-7 -53h-203l-77 -547h-57l77 547h-203z" />
    <glyph glyph-name="U" unicode="U" horiz-adv-x="628" 
d="M312 -14q-110 0 -163.5 71.5t-36.5 192.5l49 350h57l-49 -350q-13 -97 26 -153.5t125 -56.5q87 0 141.5 56.5t67.5 153.5l49 350h57l-49 -350q-16 -121 -90 -193q-73 -71 -184 -71z" />
    <glyph glyph-name="V" unicode="V" horiz-adv-x="589" 
d="M268 0l-169 600h58l147 -529l296 529h59l-338 -600h-53z" />
    <glyph glyph-name="W" unicode="W" horiz-adv-x="796" 
d="M540 0l-71 511l-212 -511h-46l-107 600h59l79 -511l212 511h56l68 -511l224 511h58l-274 -600h-46z" />
    <glyph glyph-name="X" unicode="X" horiz-adv-x="519" 
d="M579 600l-236 -292l161 -308h-68l-122 234l-17 39l-28 -39l-186 -234h-67l245 308l-153 292h68l118 -225l14 -34l24 34l180 225h67z" />
    <glyph glyph-name="Y" unicode="Y" horiz-adv-x="533" 
d="M331 318l205 282h66l-275 -369l-32 -231h-57l32 231l-171 369h67l127 -282l12 -36h3z" />
    <glyph glyph-name="Z" unicode="Z" horiz-adv-x="518" 
d="M31 0l5 39l451 508h-370l7 53h447l-5 -39l-447 -508h366l-7 -53h-447z" />
    <glyph glyph-name="bracketleft" unicode="[" horiz-adv-x="304" 
d="M48 -130l117 830h222l-7 -48h-167l-103 -734h167l-7 -48h-222z" />
    <glyph glyph-name="backslash" unicode="\" horiz-adv-x="345" 
d="M235 -128l-88 926h58l87 -926h-57z" />
    <glyph glyph-name="bracketright" unicode="]" horiz-adv-x="304" 
d="M-2 -130l7 48h167l103 734h-167l7 48h222l-117 -830h-222z" />
    <glyph glyph-name="asciicircum" unicode="^" horiz-adv-x="423" 
d="M388 497l-86 146l-129 -146h-50l165 189h40l112 -189h-52z" />
    <glyph glyph-name="underscore" unicode="_" horiz-adv-x="543" 
d="M39 -88l7 48h442l-7 -48h-442z" />
    <glyph glyph-name="grave" unicode="`" horiz-adv-x="269" 
d="M224 497l-65 134l71 10l34 -144h-40z" />
    <glyph glyph-name="a" unicode="a" 
d="M452 341h3l19 79h39l-59 -420h-39l3 79h-3q-9 -15 -26 -31q-18 -16 -34 -27q-47 -31 -116 -31q-75 0 -123 52q-47 53 -47 136q0 107 68 180q69 72 162 72q66 0 103 -26.5t46 -53.5zM434 237q0 66 -36.5 105.5t-94.5 39.5q-71 0 -124 -57q-52 -55 -52 -140q0 -65 36 -106
t92 -41q71 0 125 58t54 141z" />
    <glyph glyph-name="b" unicode="b" 
d="M70 0l85 605h56l-36 -252h3q0 1 6 8.5t19.5 19t32 22.5t48 19t62.5 8q75 0 121 -52q47 -53 47 -136q0 -108 -68 -181q-68 -71 -162 -71q-66 0 -102.5 26.5t-45.5 52.5l-3 9h-2l-20 -78h-41zM149 184q0 -66 37 -106t95 -40q71 0 124 57q52 56 52 141q0 65 -35.5 105.5
t-91.5 40.5q-70 0 -126 -57q-55 -56 -55 -141z" />
    <glyph glyph-name="c" unicode="c" horiz-adv-x="415" 
d="M247 -10q-81 0 -130 50.5t-49 135.5q0 111 70 182q70 72 171 72q37 0 68.5 -8.5t43.5 -19.5l11 -9l-24 -43q-38 32 -103 32q-73 0 -127 -56q-53 -56 -53 -145q0 -67 36.5 -105t95.5 -38q60 0 97 24l14 8l10 -43q-21 -15 -57 -27q-33 -10 -74 -10z" />
    <glyph glyph-name="d" unicode="d" horiz-adv-x="525" 
d="M445 349h2l36 256h56l-85 -605h-39l3 79h-3q-9 -15 -26 -31q-18 -16 -34 -27q-47 -31 -116 -31q-75 0 -123 52q-47 53 -47 136q0 107 68 180q69 72 163 72q105 -1 142 -72zM434 237q0 66 -36.5 105.5t-94.5 39.5q-71 0 -124 -57q-52 -55 -52 -140q0 -65 36 -106t92 -41
q71 0 125 57q54 58 54 142z" />
    <glyph glyph-name="e" unicode="e" horiz-adv-x="458" 
d="M388 78l16 -41q-19 -17 -70 -35q-39 -13 -85 -13q-84 0 -132.5 50.5t-48.5 135.5q0 109 65 182q66 73 164 73q86 0 127 -57.5t28 -149.5l-2 -14h-322v-1q-12 -79 24.5 -124.5t106.5 -45.5q69 0 115 30zM290 382q-55 0 -94.5 -32.5t-57.5 -94.5h261q2 60 -26 93.5
t-83 33.5z" />
    <glyph glyph-name="f" unicode="f" horiz-adv-x="294" 
d="M338 373h-131l-52 -373h-56l52 373h-80l7 47h80l7 50q9 66 51.5 104t106.5 38q45 0 71 -12l7 -5l-23 -46q-25 13 -62 13q-38 0 -63 -24q-26 -23 -32 -67l-7 -51h131z" />
    <glyph glyph-name="g" unicode="g" 
d="M513 420l-55 -393q-13 -94 -73.5 -150t-155.5 -56q-59 0 -97.5 18t-51.5 37l-5 6l36 39q7 -8 16 -16.5t40 -21.5t67 -13q72 0 115 40.5t53 115.5l6 41h-2q1 -1 -5 -8.5t-20.5 -19.5t-33.5 -22q-48 -27 -109 -27q-75 0 -122 52t-47 136q0 110 69 180q69 72 163 72
q63 0 100.5 -27t46.5 -53l4 -9h3l19 79h39zM434 237q0 66 -36.5 105.5t-94.5 39.5q-71 0 -124 -57q-52 -55 -52 -140q0 -66 35.5 -106.5t92.5 -40.5q71 0 125 58t54 141z" />
    <glyph glyph-name="h" unicode="h" horiz-adv-x="508" 
d="M70 0l85 605h56l-34 -239h3q64 64 150 64q80 0 119 -53.5t27 -141.5l-33 -235h-56l32 229q9 70 -18 111.5t-88 41.5q-62 0 -103 -41t-48 -86l-36 -255h-56z" />
    <glyph glyph-name="i" unicode="i" horiz-adv-x="200" 
d="M174 525q-16 0 -26 10t-10 25q0 18 14 31.5t33 13.5q15 0 25 -10.5t10 -25.5q0 -18 -14 -31t-32 -13zM72 0l59 420h56l-59 -420h-56z" />
    <glyph glyph-name="j" unicode="j" horiz-adv-x="200" 
d="M-17 -156l7 47h9q55 0 66 63l65 466h57l-66 -468q-17 -108 -118 -108h-20zM174 525q-16 0 -26 10t-10 25q0 18 14 31.5t33 13.5q15 0 25 -10.5t10 -25.5q0 -18 -14 -31t-32 -13z" />
    <glyph glyph-name="k" unicode="k" horiz-adv-x="434" 
d="M403 420h75l-223 -181l166 -239h-65l-144 204l-65 -52l-21 -152h-56l85 605h56l-53 -380h1z" />
    <glyph glyph-name="l" unicode="l" horiz-adv-x="203" 
d="M73 0l85 605h56l-85 -605h-56z" />
    <glyph glyph-name="m" unicode="m" horiz-adv-x="820" 
d="M70 0l59 420h40l-4 -69h4q64 79 158 79q113 0 144 -90h4q17 22 33 40q16 16 52 32q38 18 83 18q80 0 118.5 -53t26.5 -142l-33 -235h-56l32 229q9 70 -18 111.5t-87 41.5q-63 0 -102 -41q-39 -40 -48 -91l-35 -250h-56l35 248q9 61 -20 97.5t-90 36.5q-63 0 -102 -41
q-39 -40 -46 -86l-36 -255h-56z" />
    <glyph glyph-name="n" unicode="n" horiz-adv-x="509" 
d="M70 0l59 420h40l-4 -69h4q61 79 161 79q81 0 120 -53.5t27 -141.5l-33 -235h-56l32 229q9 70 -18.5 111.5t-88.5 41.5q-62 0 -103 -41t-48 -86l-36 -255h-56z" />
    <glyph glyph-name="o" unicode="o" horiz-adv-x="502" 
d="M492 239q0 -109 -72 -180q-72 -69 -170 -69q-80 0 -131 51t-51 136q0 111 72 181q74 72 172 72q78 0 129 -53t51 -138zM257 36q71 0 125 55t54 143q0 67 -37 108.5t-94 41.5q-71 0 -126 -57q-55 -56 -55 -145q0 -66 37.5 -106t95.5 -40z" />
    <glyph glyph-name="p" unicode="p" 
d="M139 64h-3l-32 -220h-56l81 576h39l-3 -75h5q11 14 27 29q19 17 34 26q47 30 114 30q75 0 122 -52t47 -136q0 -107 -68 -180q-68 -72 -161 -72q-60 0 -95 21.5t-48 44.5zM149 184q0 -68 37 -107t95 -39q72 0 123 56q52 56 52 141q0 65 -35 106t-91 41q-71 0 -126 -58
q-55 -56 -55 -140z" />
    <glyph glyph-name="q" unicode="q" horiz-adv-x="525" 
d="M513 420l-81 -576h-56l32 222h-2q0 -1 -6 -8t-20.5 -19t-32.5 -23q-46 -26 -109 -26q-75 0 -122 52t-47 136q0 110 69 180q69 72 163 72q63 0 100.5 -27t46.5 -53l4 -9h3l19 79h39zM434 237q0 66 -36.5 105.5t-94.5 39.5q-71 0 -124 -57q-52 -55 -52 -140
q0 -66 35.5 -106.5t92.5 -40.5q71 0 125 58t54 141z" />
    <glyph glyph-name="r" unicode="r" horiz-adv-x="276" 
d="M324 421l-6 -46h-21q-50 0 -89 -36q-38 -37 -47 -87l-35 -252h-56l59 420h40l-5 -78h3q19 33 55.5 56t79.5 23h22z" />
    <glyph glyph-name="s" unicode="s" horiz-adv-x="404" 
d="M46 39l30 39q27 -17 62 -28q38 -11 74 -11q58 0 88.5 21t30.5 56q0 11 -5 20.5t-15 17t-20.5 13t-27.5 11t-29.5 9t-32.5 9t-31 8.5q-87 29 -87 96q0 58 45.5 94t126.5 36q91 0 137 -26l15 -8l-29 -48q-46 34 -126 34q-116 0 -116 -73q0 -24 25.5 -39t62 -23.5t73 -20
t62 -36.5t25.5 -63q0 -61 -46 -99t-133 -38q-47 0 -87.5 11t-57.5 25z" />
    <glyph glyph-name="t" unicode="t" horiz-adv-x="308" 
d="M74 420h81l18 128h55l-18 -128h127l-6 -46h-127l-37 -262q-11 -74 57 -74q22 0 56 14l8 5l13 -41q-37 -26 -89 -26q-116 0 -100 121l37 263h-81z" />
    <glyph glyph-name="u" unicode="u" horiz-adv-x="505" 
d="M494 420l-59 -420h-37v68h-2q-62 -78 -163 -78q-80 0 -117 53t-25 142l33 235h56l-32 -229q-10 -71 16 -112t85 -41q64 0 104 40q42 42 49 87l36 255h56z" />
    <glyph glyph-name="v" unicode="v" horiz-adv-x="455" 
d="M498 420l-251 -420h-39l-134 420h63l95 -328q4 -15 3 -27h3q2 7 12 27l187 328h61z" />
    <glyph glyph-name="w" unicode="w" horiz-adv-x="649" 
d="M173 0l-94 420h59l62 -328q3 -24 2 -27h6q4 12 11 27l141 328h49l50 -328q3 -24 2 -27h6q2 9 10 27l155 328h55l-211 -420h-51l-48 330q-1 6 -1 23h-2l-7 -23l-141 -330h-53z" />
    <glyph glyph-name="x" unicode="x" horiz-adv-x="424" 
d="M17 0l192 220l-121 200h66l93 -165h3l140 165h64l-177 -200l131 -220h-65l-103 185h-3l-157 -185h-63z" />
    <glyph glyph-name="y" unicode="y" horiz-adv-x="502" 
d="M435 420h57l-58 -412q-12 -87 -68.5 -137t-146.5 -50q-59 0 -96.5 18t-52.5 37l-4 7l36 38q7 -8 16 -16.5t40 -21.5t67 -13q132 0 152 137l7 49q-57 -66 -148 -66q-83 0 -121.5 52.5t-26.5 141.5l33 236h56l-32 -230q-9 -71 17 -112t85 -41q63 0 103 40q42 42 49 87z" />
    <glyph glyph-name="z" unicode="z" horiz-adv-x="418" 
d="M41 30l317 343h-268l7 47h343l-4 -28l-314 -345h266l-7 -47h-344z" />
    <glyph glyph-name="braceleft" unicode="{" horiz-adv-x="254" 
d="M63 313h21q31 0 52 25t28 70l27 193q15 104 118 114l2 -48q-30 -5 -43.5 -20.5t-18.5 -53.5l-27 -188q-14 -95 -73 -114l-1 -8q55 -21 41 -113l-27 -192q-5 -37 4.5 -53t37.5 -19l-16 -48q-101 9 -86 113l28 196q7 45 -7.5 70t-45.5 25h-21z" />
    <glyph glyph-name="bar" unicode="|" horiz-adv-x="185" 
d="M216 687l-115 -815h-53l115 815h53z" />
    <glyph glyph-name="braceright" unicode="}" horiz-adv-x="254" 
d="M258 313h21l-7 -51h-21q-30 0 -51 -25t-28 -70l-28 -196q-15 -104 -118 -113l-2 48q29 3 43 19t19 53l27 192q14 92 73 113l1 8q-54 20 -41 114l27 188q5 37 -4.5 53t-37.5 21l16 48q101 -11 86 -114l-28 -193q-7 -44 8 -69.5t45 -25.5z" />
    <glyph glyph-name="asciitilde" unicode="~" horiz-adv-x="469" 
d="M350 307q41 0 73 17l10 6l15 -34q-41 -35 -104 -35q-27 0 -69 15q-39 16 -71 16q-43 0 -72 -18l-11 -5l-14 34q41 35 103 35q29 0 68 -16q42 -15 72 -15z" />
    <glyph glyph-name="uni00A0" unicode="&#xa0;" horiz-adv-x="229" 
 />
    <glyph glyph-name="exclamdown" unicode="&#xa1;" horiz-adv-x="187" 
d="M150 266l-48 -443h-68l77 443h39zM105 383q0 19 14.5 33.5t33.5 14.5q16 0 27 -11t11 -27q0 -19 -15 -33.5t-35 -14.5q-16 0 -26 11t-10 27z" />
    <glyph glyph-name="cent" unicode="&#xa2;" horiz-adv-x="430" 
d="M180 0l23 86q-55 17 -87 64.5t-32 113.5q0 108 69 180q69 73 168 74l23 82h42l-23 -85q51 -7 79 -28l9 -7l-23 -42q-28 24 -79 30l-93 -342q5 -1 20 -1q59 0 98 25l14 8l10 -43q-49 -37 -132 -37q-18 0 -23 1l-21 -79h-42zM142 271q0 -48 20.5 -84t54.5 -51l91 333
q-68 -8 -117 -62q-49 -55 -49 -136z" />
    <glyph glyph-name="sterling" unicode="&#xa3;" horiz-adv-x="495" 
d="M444 53l-7 -53h-369l7 53h1v1q3 1 8.5 4t18.5 14t23 24.5t18.5 37t8.5 50.5q0 16 -9 86h-65l6 46h52q-2 38 -2 53q0 102 64 169q65 68 175 68q47 0 86.5 -15t53.5 -33l13 -15l-40 -42q-1 2 -4 5.5t-13.5 12.5t-23.5 15.5t-34 12t-45 5.5q-81 0 -125.5 -50t-44.5 -134
q0 -14 2 -52h228l-6 -46h-215q8 -58 8 -80q0 -78 -63 -137h293z" />
    <glyph glyph-name="yen" unicode="&#xa5;" horiz-adv-x="565" 
d="M347 318l205 282h66l-242 -325h144l-6 -47h-172l-12 -87h171l-6 -46h-171l-13 -95h-57l13 95h-171l6 46h171l12 87h-170l6 47h144l-150 325h67l127 -282l12 -36h3z" />
    <glyph glyph-name="brokenbar" unicode="&#xa6;" horiz-adv-x="192" 
d="M168 330h-52l48 343h52zM100 -153h-52l48 343h52z" />
    <glyph glyph-name="section" unicode="&#xa7;" horiz-adv-x="508" 
d="M48 43l39 47l20 -14q18 -10 58 -22q43 -13 95 -13q79 0 118.5 21.5t39.5 58.5q0 31 -28 47q-33 19 -109 43q-69 21 -101 46t-32 58q0 46 46 68q-72 36 -72 94q0 61 59.5 98.5t165.5 37.5q56 0 103 -10.5t67 -23.5l17 -11l-39 -47q-14 14 -67 29q-41 12 -88 12
q-153 0 -153 -79q0 -28 26.5 -46t90.5 -37q152 -42 152 -112q0 -42 -43 -72q69 -38 69 -93q0 -60 -59.5 -98t-169.5 -38q-60 0 -112.5 13t-73.5 29zM278 354l-40 12q-34 -12 -34 -44q0 -18 23 -32.5t80 -32.5q33 -11 60 -21q30 18 30 46q0 37 -119 72z" />
    <glyph glyph-name="dieresis" unicode="&#xa8;" horiz-adv-x="436" 
d="M189 706q0 18 15 32t33 14q15 0 25.5 -11.5t10.5 -26.5q0 -18 -15 -32t-33 -14q-14 0 -25 11.5t-11 26.5zM342 706q0 17 15 31.5t34 14.5q14 0 24.5 -11.5t10.5 -26.5q0 -18 -14.5 -32t-32.5 -14q-15 0 -26 11.5t-11 26.5z" />
    <glyph glyph-name="copyright" unicode="&#xa9;" horiz-adv-x="692" 
d="M432 604q122 0 191 -75t69 -189q0 -141 -98 -244q-98 -101 -247 -101q-121 0 -192 75q-69 75 -69 189q0 142 98 243q98 102 248 102zM427 568q-131 0 -217 -90q-85 -89 -85 -215q0 -100 60 -166q61 -66 167 -66q131 0 217 89q86 91 86 215q0 102 -61 167q-62 66 -167 66z
M515 425l-26 -32q-24 30 -76 30q-60 0 -98 -41t-38 -99q0 -47 27.5 -76t73.5 -29q44 0 76 22l10 8l16 -32q-13 -13 -48 -27q-27 -10 -60 -10q-64 0 -100.5 38t-36.5 100q0 76 50 131q51 54 132 54q30 0 55 -8.5t34 -19.5z" />
    <glyph glyph-name="ordfeminine" unicode="&#xaa;" horiz-adv-x="402" 
d="M93 359q0 53 42 85t110 32q75 0 106 -37l3 20q9 59 -10 86t-75 27q-39 0 -86 -18l-16 -5l-9 39q61 26 124 26q76 0 104 -39t16 -118l-26 -183h-34l-2 43h-3q-17 -22 -51.5 -36.5t-77.5 -14.5q-52 0 -83.5 25.5t-31.5 67.5zM140 363q0 -28 23 -44t62 -16q50 0 84 25
q35 26 35 51q0 26 -27 43.5t-69 17.5q-49 0 -78.5 -21t-29.5 -56z" />
    <glyph glyph-name="guillemotleft" unicode="&#xab;" horiz-adv-x="430" 
d="M72 198l3 21l140 180h50l-1 -10l-138 -177l-1 -5l88 -180l-1 -9h-50zM246 198l3 21l140 180h49l-1 -10l-138 -177l-1 -5l88 -180l-1 -9h-49z" />
    <glyph glyph-name="logicalnot" unicode="&#xac;" horiz-adv-x="549" 
d="M93 298l7 48h431l-49 -346h-49l42 298h-382z" />
    <glyph glyph-name="registered" unicode="&#xae;" horiz-adv-x="555" 
d="M560 411q0 -106 -74 -185q-74 -78 -188 -78q-92 0 -144 57q-52 58 -52 144q0 109 73 185q73 78 188 78q91 0 144 -57q53 -58 53 -144zM521 407q0 75 -44.5 122t-118.5 47q-94 0 -155 -64q-62 -65 -62 -158q0 -75 44 -122t118 -47q95 0 156 64q62 65 62 158zM262 485h90
q35 0 54 -16.5t19 -43.5q0 -48 -50 -71v-1l36 -62l-1 -8h-33l-38 63h-64l-9 -63h-32zM348 454h-58l-11 -78h56q26 0 41 12t15 34q0 32 -43 32z" />
    <glyph glyph-name="overscore" unicode="&#xaf;" horiz-adv-x="516" 
d="M217 668l5 39h280l-5 -39h-280z" />
    <glyph glyph-name="degree" unicode="&#xb0;" horiz-adv-x="305" 
d="M246 672q44 0 71 -26.5t27 -68.5q0 -51 -37 -85q-35 -34 -91 -34q-44 0 -70.5 25.5t-26.5 67.5q0 51 36 85q37 36 91 36zM242 638q-36 0 -61 -24.5t-25 -58.5q0 -27 18 -45t47 -18q38 0 62 24t24 58q0 28 -17.5 46t-47.5 18z" />
    <glyph glyph-name="plusminus" unicode="&#xb1;" horiz-adv-x="536" 
d="M320 175h-49l25 178h-177l7 47h177l25 181h49l-25 -181h173l-7 -47h-173zM483 102l-7 -48h-399l7 48h399z" />
    <glyph glyph-name="twosuperior" unicode="&#xb2;" horiz-adv-x="352" 
d="M103 342l5 36l166 127q50 38 50 80q0 54 -65 54q-13 0 -28 -3.5t-27 -9t-21.5 -10.5t-14.5 -9t-4 -5l-18 32q18 16 56 31q32 12 62 12q52 0 77.5 -23t25.5 -64q0 -34 -14 -59t-49 -51l-134 -100h179l-5 -38h-241z" />
    <glyph glyph-name="threesuperior" unicode="&#xb3;" horiz-adv-x="339" 
d="M144 630l5 38h223l-4 -31l-95 -101q84 -6 84 -81q0 -52 -39 -86.5t-104 -34.5q-70 0 -116 46l28 31q16 -16 42 -28q25 -11 50 -11q43 0 69 22t26 55q0 54 -67 54h-33l4 28l93 99h-166z" />
    <glyph glyph-name="acute" unicode="&#xb4;" horiz-adv-x="267" 
d="M280 631l-103 -134h-40l74 144z" />
    <glyph glyph-name="mu" unicode="&#xb5;" horiz-adv-x="496" 
d="M98 -145h-55l53 377h1l27 188h56l-32 -229q-10 -71 16 -112t85 -41q64 0 104 40q42 42 49 87l36 255h56l-59 -420h-37v68h-2q-62 -78 -163 -78q-73 0 -111 45z" />
    <glyph glyph-name="paragraph" unicode="&#xb6;" horiz-adv-x="508" 
d="M367 -82l32 227h-79q-110 0 -174 52.5t-64 147.5q0 120 83 188t217 68h138l-96 -683h-57z" />
    <glyph glyph-name="middot" unicode="&#xb7;" horiz-adv-x="202" 
d="M108 355q0 19 15.5 33.5t34.5 14.5q16 0 26.5 -11t10.5 -27q0 -20 -15 -34.5t-35 -14.5q-16 0 -26.5 11.5t-10.5 27.5z" />
    <glyph glyph-name="cedilla" unicode="&#xb8;" horiz-adv-x="206" 
d="M69 -62l-10 15l31 50h34l-20 -36q58 -1 58 -54q0 -34 -24 -56t-65 -22q-42 0 -60 20l-6 7l20 24q18 -20 51 -20q23 0 37 11.5t14 30.5q0 31 -41 31z" />
    <glyph glyph-name="onesuperior" unicode="&#xb9;" horiz-adv-x="206" 
d="M113 630l5 38h116l-45 -326h-43l40 288h-73z" />
    <glyph glyph-name="ordmasculine" unicode="&#xba;" horiz-adv-x="415" 
d="M293 613q65 0 104 -40t39 -107q0 -86 -55 -141t-136 -55q-64 0 -103 39.5t-39 105.5q0 88 55 143t135 55zM287 570q-60 0 -98 -42t-38 -108q0 -49 27 -78.5t73 -29.5q59 0 98 42q40 41 40 107q0 50 -27.5 79.5t-74.5 29.5z" />
    <glyph glyph-name="guillemotright" unicode="&#xbb;" horiz-adv-x="429" 
d="M244 219l-3 -21l-140 -180h-50l1 9l139 180v5l-88 177l2 10h50zM417 219l-3 -21l-140 -180h-51l1 9l140 180v5l-89 177l2 10h51z" />
    <glyph glyph-name="onequarter" unicode="&#xbc;" horiz-adv-x="616" 
d="M320 91l4 28l209 207l1 -1l1 1h29l-28 -198h61l-5 -37h-61l-13 -91h-40l13 91h-171zM87 0h-51l552 600h53zM118 562l5 38h116l-45 -326h-42l40 288h-74zM375 125l-1 -1l58 4h64l14 100l5 32h-1l-98 -97z" />
    <glyph glyph-name="onehalf" unicode="&#xbd;" horiz-adv-x="681" 
d="M87 0h-51l552 600h52zM407 36l-5 -36h242l5 38h-179l134 100q35 26 49 51t14 59q0 41 -25.5 64t-77.5 23q-29 0 -58.5 -10t-45.5 -22l-14 -11l18 -32q-1 1 4 5t14.5 9t21.5 10.5t27 9t28 3.5q65 0 65 -54q0 -42 -50 -80zM120 562l5 38h116l-45 -326h-42l40 288h-74z" />
    <glyph glyph-name="threequarters" unicode="&#xbe;" horiz-adv-x="712" 
d="M418 91l4 28l209 207l1 -1l1 1h29l-28 -198h61l-5 -37h-61l-13 -91h-40l13 91h-171zM129 562l5 38h222l-4 -31l-94 -101q40 -3 61.5 -24t21.5 -57q0 -52 -39 -86.5t-104 -34.5q-69 0 -115 46l28 31q16 -16 42 -28q25 -11 49 -11q44 0 69.5 22t25.5 55q0 54 -67 54h-33
l4 28l93 99h-165zM180 0h-51l552 600h52zM473 125v-1l57 4h64l14 100l5 32h-2l-97 -97z" />
    <glyph glyph-name="questiondown" unicode="&#xbf;" horiz-adv-x="407" 
d="M345 -90l17 -47q-20 -18 -77 -37q-44 -14 -87 -14q-80 0 -125.5 36t-45.5 99q0 45 19 81t47 58.5t56.5 42.5t52 45t29.5 53l8 41h38l-7 -50q-4 -32 -24.5 -60t-46.5 -48.5t-51.5 -41.5t-43 -48.5t-17.5 -60.5q0 -42 32 -67.5t87 -25.5q34 0 69.5 10.5t52.5 22.5zM316 395
q0 -19 -15 -33.5t-34 -14.5q-16 0 -26.5 11t-10.5 27q0 19 14.5 33.5t34.5 14.5q16 0 26.5 -11t10.5 -27z" />
    <glyph glyph-name="Agrave" unicode="&#xc0;" horiz-adv-x="589" 
d="M405 600l170 -600h-59l-41 145h-321l-81 -145h-58l337 600h53zM369 529l-185 -331h277zM362 635l-65 134l71 10l34 -144h-40z" />
    <glyph glyph-name="Aacute" unicode="&#xc1;" horiz-adv-x="589" 
d="M405 600l170 -600h-59l-41 145h-321l-81 -145h-58l337 600h53zM369 529l-185 -331h277zM508 769l-103 -134h-40l74 144z" />
    <glyph glyph-name="Acircumflex" unicode="&#xc2;" horiz-adv-x="589" 
d="M405 600l170 -600h-59l-41 145h-321l-81 -145h-58l337 600h53zM369 529l-185 -331h277zM445 668l-46 69l-67 -69h-52l98 108h50l71 -108h-54z" />
    <glyph glyph-name="Atilde" unicode="&#xc3;" horiz-adv-x="589" 
d="M405 600l170 -600h-59l-41 145h-321l-81 -145h-58l337 600h53zM369 529l-185 -331h277zM463 668q-30 0 -73 29q-41 29 -60 29q-22 -2 -32 -11.5t-19 -32.5l-6 -14l-39 5l8 23q26 75 90 75q30 0 71 -29t61 -29q37 0 52 44l5 14l40 -4l-7 -23q-22 -76 -91 -76z" />
    <glyph glyph-name="Adieresis" unicode="&#xc4;" horiz-adv-x="589" 
d="M405 600l170 -600h-59l-41 145h-321l-81 -145h-58l337 600h53zM369 529l-185 -331h277zM275 706q0 18 15 32t33 14q15 0 25.5 -11.5t10.5 -26.5q0 -18 -15 -32t-33 -14q-14 0 -25 11.5t-11 26.5zM428 706q0 17 15 31.5t34 14.5q14 0 24.5 -11.5t10.5 -26.5
q0 -18 -14.5 -32t-32.5 -14q-15 0 -26 11.5t-11 26.5z" />
    <glyph glyph-name="Aring" unicode="&#xc5;" horiz-adv-x="589" 
d="M405 600l170 -600h-59l-41 145h-321l-81 -145h-58l337 600h53zM369 529l-185 -331h277zM294 688q0 41 31.5 67t79.5 26q38 0 62 -20t24 -53q0 -41 -32 -67t-78 -26q-39 0 -63 20t-24 53zM451 704q0 40 -51 40q-30 0 -47.5 -14t-17.5 -38q0 -40 52 -40q30 0 47 13.5
t17 38.5z" />
    <glyph glyph-name="AE" unicode="&#xc6;" horiz-adv-x="875" 
d="M-3 0l499 600h421l-7 -53h-358l-31 -217h308l-7 -53h-308l-32 -224h358l-7 -53h-415l20 145h-253l-119 -145h-69zM483 508l-254 -310h217l43 310h-6z" />
    <glyph glyph-name="Ccedilla" unicode="&#xc7;" horiz-adv-x="568" 
d="M289 -62l-10 15l22 36q-101 12 -161 86q-59 74 -59 182q0 149 100 252q101 104 246 104q70 0 115 -22.5t66 -47.5l6 -8l-38 -44q-7 10 -25 23q-14 11 -32 21q-42 24 -99 24q-106 0 -183 -76q-78 -75 -93 -184q-15 -107 41 -184q57 -75 162 -75q45 0 90 17q42 16 65 34
l20 17l26 -43q-11 -11 -35 -28q-17 -12 -43 -24q-60 -27 -131 -27h-5l-10 -19q58 -1 58 -54q0 -34 -24 -56t-65 -22q-42 0 -60 20l-6 7l20 24q18 -20 51 -20q23 0 37 11.5t14 30.5q0 31 -41 31z" />
    <glyph glyph-name="Egrave" unicode="&#xc8;" horiz-adv-x="542" 
d="M496 330l-7 -53h-308l-32 -224h358l-7 -53h-415l84 600h415l-7 -53h-358l-31 -217h308zM370 635l-65 134l71 10l34 -144h-40z" />
    <glyph glyph-name="Eacute" unicode="&#xc9;" horiz-adv-x="542" 
d="M503 769l-103 -134h-40l74 144zM496 330l-7 -53h-308l-32 -224h358l-7 -53h-415l84 600h415l-7 -53h-358l-31 -217h308z" />
    <glyph glyph-name="Ecircumflex" unicode="&#xca;" horiz-adv-x="542" 
d="M447 668l-46 69l-67 -69h-52l98 108h50l71 -108h-54zM496 330l-7 -53h-308l-32 -224h358l-7 -53h-415l84 600h415l-7 -53h-358l-31 -217h308z" />
    <glyph glyph-name="Edieresis" unicode="&#xcb;" horiz-adv-x="542" 
d="M275 706q0 18 15 32t33 14q15 0 25.5 -11.5t10.5 -26.5q0 -18 -15 -32t-33 -14q-14 0 -25 11.5t-11 26.5zM428 706q0 17 15 31.5t34 14.5q14 0 24.5 -11.5t10.5 -26.5q0 -18 -14.5 -32t-32.5 -14q-15 0 -26 11.5t-11 26.5zM496 330l-7 -53h-308l-32 -224h358l-7 -53h-415
l84 600h415l-7 -53h-358l-31 -217h308z" />
    <glyph glyph-name="Igrave" unicode="&#xcc;" horiz-adv-x="228" 
d="M226 600l-84 -600h-57l84 600h57zM181 635l-65 134l71 10l34 -144h-40z" />
    <glyph glyph-name="Iacute" unicode="&#xcd;" horiz-adv-x="228" 
d="M226 600l-84 -600h-57l84 600h57zM327 769l-103 -134h-40l74 144z" />
    <glyph glyph-name="Icircumflex" unicode="&#xce;" horiz-adv-x="228" 
d="M226 600l-84 -600h-57l84 600h57zM265 668l-46 69l-67 -69h-52l98 108h50l71 -108h-54z" />
    <glyph glyph-name="Idieresis" unicode="&#xcf;" horiz-adv-x="228" 
d="M226 600l-84 -600h-57l84 600h57zM95 706q0 18 15 32t33 14q15 0 25.5 -11.5t10.5 -26.5q0 -18 -15 -32t-33 -14q-14 0 -25 11.5t-11 26.5zM248 706q0 17 15 31.5t34 14.5q14 0 24.5 -11.5t10.5 -26.5q0 -18 -14.5 -32t-32.5 -14q-15 0 -26 11.5t-11 26.5z" />
    <glyph glyph-name="Eth" unicode="&#xd0;" horiz-adv-x="630" 
d="M65 278l7 52h59l38 270h191q122 0 196 -69t74 -188q0 -154 -101 -249q-100 -94 -253 -94h-191l39 278h-59zM351 547h-132l-31 -217h187l-7 -52h-187l-32 -225h132q121 0 206 77q84 76 84 204q0 98 -61 155q-61 58 -159 58z" />
    <glyph glyph-name="Ntilde" unicode="&#xd1;" horiz-adv-x="665" 
d="M663 600l-84 -600h-44l-322 503l-71 -503h-57l84 600h46l321 -500l70 500h57zM503 668q-30 0 -73 29q-41 29 -60 29q-22 -2 -32 -11.5t-19 -32.5l-6 -14l-39 5l8 23q26 75 90 75q30 0 71 -29t61 -29q37 0 52 44l5 14l40 -4l-7 -23q-22 -76 -91 -76z" />
    <glyph glyph-name="Ograve" unicode="&#xd2;" horiz-adv-x="678" 
d="M337 -14q-118 0 -187 76q-68 77 -68 193q0 151 97 254q98 104 246 104q119 0 186 -75q68 -76 68 -194q0 -151 -97 -254q-98 -104 -245 -104zM344 40q120 0 198 87q79 88 79 209q0 97 -55 159q-54 64 -149 64q-119 0 -197 -88q-78 -87 -78 -209q0 -95 53 -159
q54 -63 149 -63zM415 668l-65 134l71 10l34 -144h-40z" />
    <glyph glyph-name="Oacute" unicode="&#xd3;" horiz-adv-x="678" 
d="M553 802l-103 -134h-40l74 144zM337 -14q-118 0 -187 76q-68 77 -68 193q0 151 97 254q98 104 246 104q119 0 186 -75q68 -76 68 -194q0 -151 -97 -254q-98 -104 -245 -104zM344 40q120 0 198 87q79 88 79 209q0 97 -55 159q-54 64 -149 64q-119 0 -197 -88
q-78 -87 -78 -209q0 -95 53 -159q54 -63 149 -63z" />
    <glyph glyph-name="Ocircumflex" unicode="&#xd4;" horiz-adv-x="678" 
d="M490 668l-46 69l-67 -69h-52l98 108h50l71 -108h-54zM337 -14q-118 0 -187 76q-68 77 -68 193q0 151 97 254q98 104 246 104q119 0 186 -75q68 -76 68 -194q0 -151 -97 -254q-98 -104 -245 -104zM344 40q120 0 198 87q79 88 79 209q0 97 -55 159q-54 64 -149 64
q-119 0 -197 -88q-78 -87 -78 -209q0 -95 53 -159q54 -63 149 -63z" />
    <glyph glyph-name="Otilde" unicode="&#xd5;" horiz-adv-x="678" 
d="M337 -14q-118 0 -187 76q-68 77 -68 193q0 151 97 254q98 104 246 104q119 0 186 -75q68 -76 68 -194q0 -151 -97 -254q-98 -104 -245 -104zM344 40q120 0 198 87q79 88 79 209q0 97 -55 159q-54 64 -149 64q-119 0 -197 -88q-78 -87 -78 -209q0 -95 53 -159
q54 -63 149 -63zM506 675q-30 0 -73 29q-41 29 -60 29q-22 -2 -32 -11.5t-19 -32.5l-6 -14l-39 5l8 23q25 75 90 75q30 0 71 -29t61 -29q37 0 52 44l5 14l40 -4l-7 -23q-22 -76 -91 -76z" />
    <glyph glyph-name="Odieresis" unicode="&#xd6;" horiz-adv-x="678" 
d="M319 706q0 18 15 32t33 14q15 0 25.5 -11.5t10.5 -26.5q0 -18 -15 -32t-33 -14q-14 0 -25 11.5t-11 26.5zM472 706q0 17 15 31.5t34 14.5q14 0 24.5 -11.5t10.5 -26.5q0 -18 -14.5 -32t-32.5 -14q-15 0 -26 11.5t-11 26.5zM337 -14q-118 0 -187 76q-68 77 -68 193
q0 151 97 254q98 104 246 104q119 0 186 -75q68 -76 68 -194q0 -151 -97 -254q-98 -104 -245 -104zM344 40q120 0 198 87q79 88 79 209q0 97 -55 159q-54 64 -149 64q-119 0 -197 -88q-78 -87 -78 -209q0 -95 53 -159q54 -63 149 -63z" />
    <glyph glyph-name="multiply" unicode="&#xd7;" horiz-adv-x="495" 
d="M111 107l-29 33l176 161l-131 161l39 33l129 -160l176 160l28 -33l-176 -161l131 -161l-38 -33l-130 160z" />
    <glyph glyph-name="Oslash" unicode="&#xd8;" horiz-adv-x="681" 
d="M337 -14q-117 0 -187 76l-69 -62h-66l108 98q-41 68 -41 157q0 151 97 254q98 104 246 104q115 0 186 -75l69 62h65l-108 -98q42 -67 42 -158q0 -151 -97 -254q-98 -104 -245 -104zM344 40q120 0 198 87q79 88 79 209q0 68 -30 124l-396 -357q55 -63 149 -63zM142 262
q0 -69 28 -122l395 356q-56 63 -148 63q-119 0 -197 -88q-78 -87 -78 -209z" />
    <glyph glyph-name="Ugrave" unicode="&#xd9;" horiz-adv-x="628" 
d="M312 -14q-110 0 -163.5 71.5t-36.5 192.5l49 350h57l-49 -350q-13 -97 26 -153.5t125 -56.5q87 0 141.5 56.5t67.5 153.5l49 350h57l-49 -350q-16 -121 -90 -193q-73 -71 -184 -71zM383 635l-65 134l71 10l34 -144h-40z" />
    <glyph glyph-name="Uacute" unicode="&#xda;" horiz-adv-x="628" 
d="M523 769l-103 -134h-40l74 144zM312 -14q-110 0 -163.5 71.5t-36.5 192.5l49 350h57l-49 -350q-13 -97 26 -153.5t125 -56.5q87 0 141.5 56.5t67.5 153.5l49 350h57l-49 -350q-16 -121 -90 -193q-73 -71 -184 -71z" />
    <glyph glyph-name="Ucircumflex" unicode="&#xdb;" horiz-adv-x="628" 
d="M460 634l-46 69l-67 -69h-52l98 108h50l71 -108h-54zM312 -14q-110 0 -163.5 71.5t-36.5 192.5l49 350h57l-49 -350q-13 -97 26 -153.5t125 -56.5q87 0 141.5 56.5t67.5 153.5l49 350h57l-49 -350q-16 -121 -90 -193q-73 -71 -184 -71z" />
    <glyph glyph-name="Udieresis" unicode="&#xdc;" horiz-adv-x="628" 
d="M296 706q0 18 15 32t33 14q15 0 25.5 -11.5t10.5 -26.5q0 -18 -15 -32t-33 -14q-14 0 -25 11.5t-11 26.5zM449 706q0 17 15 31.5t34 14.5q14 0 24.5 -11.5t10.5 -26.5q0 -18 -14.5 -32t-32.5 -14q-15 0 -26 11.5t-11 26.5zM312 -14q-110 0 -163.5 71.5t-36.5 192.5
l49 350h57l-49 -350q-13 -97 26 -153.5t125 -56.5q87 0 141.5 56.5t67.5 153.5l49 350h57l-49 -350q-16 -121 -90 -193q-73 -71 -184 -71z" />
    <glyph glyph-name="Yacute" unicode="&#xdd;" horiz-adv-x="533" 
d="M331 318l205 282h66l-275 -369l-32 -231h-57l32 231l-171 369h67l127 -282l12 -36h3zM482 793l-103 -134h-40l74 144z" />
    <glyph glyph-name="Thorn" unicode="&#xde;" horiz-adv-x="572" 
d="M226 600l-14 -99h173q96 0 148.5 -45t52.5 -125q0 -108 -71 -171t-189 -63h-170l-14 -97h-57l84 600h57zM527 322q0 60 -39.5 92.5t-110.5 32.5h-172l-42 -297h172q90 0 141 44.5t51 127.5z" />
    <glyph glyph-name="germandbls" unicode="&#xdf;" horiz-adv-x="486" 
d="M274 281l6 42q69 7 105.5 43.5t36.5 93.5q0 42 -27 69t-72 27q-53 0 -91 -36t-47 -97l-59 -423h-56l58 415q13 91 67.5 141t139.5 50q68 0 107.5 -38.5t39.5 -102.5q0 -53 -27 -93.5t-75 -60.5q41 -13 64.5 -48t23.5 -82q0 -85 -58.5 -137.5t-154.5 -52.5q-44 0 -66 8
l-8 3l14 44q24 -8 65 -8q63 0 106 39q43 40 43 99q0 48 -32 76.5t-84 28.5h-19z" />
    <glyph glyph-name="agrave" unicode="&#xe0;" 
d="M452 341h3l19 79h39l-59 -420h-39l3 79h-3q-9 -15 -26 -31q-18 -16 -34 -27q-47 -31 -116 -31q-75 0 -123 52q-47 53 -47 136q0 107 68 180q69 72 162 72q66 0 103 -26.5t46 -53.5zM434 237q0 66 -36.5 105.5t-94.5 39.5q-71 0 -124 -57q-52 -55 -52 -140q0 -65 36 -106
t92 -41q74 0 126 55q53 56 53 144zM305 497l-65 134l71 10l34 -144h-40z" />
    <glyph glyph-name="aacute" unicode="&#xe1;" 
d="M452 341h3l19 79h39l-59 -420h-39l3 79h-3q-9 -15 -26 -31q-18 -16 -34 -27q-47 -31 -116 -31q-75 0 -123 52q-47 53 -47 136q0 107 68 180q69 72 162 72q66 0 103 -26.5t46 -53.5zM434 237q0 66 -36.5 105.5t-94.5 39.5q-71 0 -124 -57q-52 -55 -52 -140q0 -65 36 -106
t92 -41q74 0 126 55q53 56 53 144zM441 631l-103 -134h-40l74 144z" />
    <glyph glyph-name="acircumflex" unicode="&#xe2;" 
d="M452 341h3l19 79h39l-59 -420h-39l3 79h-3q-9 -15 -26 -31q-18 -16 -34 -27q-47 -31 -116 -31q-75 0 -123 52q-47 53 -47 136q0 107 68 180q69 72 162 72q66 0 103 -26.5t46 -53.5zM434 237q0 66 -36.5 105.5t-94.5 39.5q-71 0 -124 -57q-52 -55 -52 -140q0 -65 36 -106
t92 -41q74 0 126 55q53 56 53 144zM382 530l-46 69l-67 -69h-52l98 108h50l71 -108h-54z" />
    <glyph glyph-name="atilde" unicode="&#xe3;" 
d="M452 341h3l19 79h39l-59 -420h-39l3 79h-3q-9 -15 -26 -31q-18 -16 -34 -27q-47 -31 -116 -31q-75 0 -123 52q-47 53 -47 136q0 107 68 180q69 72 162 72q66 0 103 -26.5t46 -53.5zM434 237q0 66 -36.5 105.5t-94.5 39.5q-71 0 -124 -57q-52 -55 -52 -140q0 -65 36 -106
t92 -41q74 0 126 55q53 56 53 144zM394 497q-30 0 -73 29q-41 29 -60 29q-22 -2 -32 -11.5t-19 -32.5l-6 -14l-39 5l8 23q25 75 90 75q30 0 71 -29t61 -29q37 0 52 44l5 14l40 -4l-7 -23q-22 -76 -91 -76z" />
    <glyph glyph-name="adieresis" unicode="&#xe4;" 
d="M452 341h3l19 79h39l-59 -420h-39l3 79h-3q-9 -15 -26 -31q-18 -16 -34 -27q-47 -31 -116 -31q-75 0 -123 52q-47 53 -47 136q0 107 68 180q69 72 162 72q66 0 103 -26.5t46 -53.5zM434 237q0 66 -36.5 105.5t-94.5 39.5q-71 0 -124 -57q-52 -55 -52 -140q0 -65 36 -106
t92 -41q74 0 126 55q53 56 53 144zM206 535q0 18 15 32t33 14q15 0 25.5 -11.5t10.5 -26.5q0 -18 -15 -32t-33 -14q-14 0 -25 11.5t-11 26.5zM359 535q0 17 15 31.5t34 14.5q14 0 24.5 -11.5t10.5 -26.5q0 -18 -14.5 -32t-32.5 -14q-15 0 -26 11.5t-11 26.5z" />
    <glyph glyph-name="aring" unicode="&#xe5;" 
d="M452 341h3l19 79h39l-59 -420h-39l3 79h-3q-9 -15 -26 -31q-18 -16 -34 -27q-47 -31 -116 -31q-75 0 -123 52q-47 53 -47 136q0 107 68 180q69 72 162 72q66 0 103 -26.5t46 -53.5zM434 237q0 66 -36.5 105.5t-94.5 39.5q-71 0 -124 -57q-52 -55 -52 -140q0 -65 36 -106
t92 -41q74 0 126 55q53 56 53 144zM231 569q0 41 31.5 67t79.5 26q38 0 62 -20t24 -53q0 -41 -32 -67t-78 -26q-39 0 -63 20t-24 53zM388 585q0 40 -51 40q-30 0 -47.5 -14t-17.5 -38q0 -40 52 -40q30 0 47 13.5t17 38.5z" />
    <glyph glyph-name="ae" unicode="&#xe6;" horiz-adv-x="762" 
d="M693 79l16 -42q-20 -17 -69 -35q-39 -13 -85 -13q-123 0 -167 95q-64 -94 -190 -94q-72 0 -110.5 32t-38.5 85q0 68 55 110t152 42q72 0 121 -21l3 18q19 124 -112 124q-61 0 -111 -26l-17 -8l-16 46q68 38 156 38q122 0 150 -85q64 85 170 85q88 0 129 -56.5t28 -150.5
l-2 -14h-324l-1 -1q-11 -79 26.5 -124.5t107.5 -45.5q33 0 65.5 9.5t48.5 20.5zM206 36q64 0 109 36t51 83l5 37q-51 24 -116 24q-149 0 -149 -104q0 -35 25.5 -55.5t74.5 -20.5zM593 382q-55 0 -95 -33t-58 -94h264q2 61 -26.5 94t-84.5 33z" />
    <glyph glyph-name="ccedilla" unicode="&#xe7;" horiz-adv-x="415" 
d="M212 -69l-10 15l27 45q-74 5 -117.5 55t-43.5 130q0 111 70 182q70 72 171 72q37 0 68.5 -8.5t43.5 -19.5l11 -9l-24 -43q-38 32 -103 32q-73 0 -127 -56q-53 -56 -53 -145q0 -67 36.5 -105t95.5 -38q60 0 97 24l14 8l10 -43q-36 -31 -114 -36l-17 -31q58 -1 58 -54
q0 -34 -24 -56t-65 -22q-40 0 -60 20l-6 7l20 24q18 -20 51 -20q23 0 37 11.5t14 30.5q0 31 -41 31z" />
    <glyph glyph-name="egrave" unicode="&#xe8;" horiz-adv-x="458" 
d="M388 78l16 -41q-19 -17 -70 -35q-39 -13 -85 -13q-84 0 -132.5 50.5t-48.5 135.5q0 109 65 182q66 73 164 73q86 0 127 -57.5t28 -149.5l-2 -14h-322v-1q-12 -79 24.5 -124.5t106.5 -45.5q69 0 115 30zM290 382q-55 0 -94.5 -32.5t-57.5 -94.5h261q2 60 -26 93.5
t-83 33.5zM284 497l-65 134l71 10l34 -144h-40z" />
    <glyph glyph-name="eacute" unicode="&#xe9;" horiz-adv-x="458" 
d="M426 631l-103 -134h-40l74 144zM388 78l16 -41q-19 -17 -70 -35q-39 -13 -85 -13q-84 0 -132.5 50.5t-48.5 135.5q0 109 65 182q66 73 164 73q86 0 127 -57.5t28 -149.5l-2 -14h-322v-1q-12 -79 24.5 -124.5t106.5 -45.5q69 0 115 30zM290 382q-55 0 -94.5 -32.5
t-57.5 -94.5h261q2 60 -26 93.5t-83 33.5z" />
    <glyph glyph-name="ecircumflex" unicode="&#xea;" horiz-adv-x="458" 
d="M360 496l-46 69l-67 -69h-52l98 108h50l71 -108h-54zM388 78l16 -41q-19 -17 -70 -35q-39 -13 -85 -13q-84 0 -132.5 50.5t-48.5 135.5q0 109 65 182q66 73 164 73q86 0 127 -57.5t28 -149.5l-2 -14h-322v-1q-12 -79 24.5 -124.5t106.5 -45.5q69 0 115 30zM290 382
q-55 0 -94.5 -32.5t-57.5 -94.5h261q2 60 -26 93.5t-83 33.5z" />
    <glyph glyph-name="edieresis" unicode="&#xeb;" horiz-adv-x="458" 
d="M192 535q0 18 15 32t33 14q15 0 25.5 -11.5t10.5 -26.5q0 -18 -15 -32t-33 -14q-14 0 -25 11.5t-11 26.5zM345 535q0 17 15 31.5t34 14.5q14 0 24.5 -11.5t10.5 -26.5q0 -18 -14.5 -32t-32.5 -14q-15 0 -26 11.5t-11 26.5zM388 78l16 -41q-19 -17 -70 -35
q-39 -13 -85 -13q-84 0 -132.5 50.5t-48.5 135.5q0 109 65 182q66 73 164 73q86 0 127 -57.5t28 -149.5l-2 -14h-322v-1q-12 -79 24.5 -124.5t106.5 -45.5q69 0 115 30zM290 382q-55 0 -94.5 -32.5t-57.5 -94.5h261q2 60 -26 93.5t-83 33.5z" />
    <glyph glyph-name="igrave" unicode="&#xec;" horiz-adv-x="200" 
d="M72 0l59 420h56l-59 -420h-56zM148 497l-65 134l71 10l34 -144h-40z" />
    <glyph glyph-name="iacute" unicode="&#xed;" horiz-adv-x="200" 
d="M293 631l-103 -134h-40l74 144zM72 0l59 420h56l-59 -420h-56z" />
    <glyph glyph-name="icircumflex" unicode="&#xee;" horiz-adv-x="200" 
d="M230 521l-46 69l-67 -69h-52l98 108h50l71 -108h-54zM72 0l59 420h56l-59 -420h-56z" />
    <glyph glyph-name="idieresis" unicode="&#xef;" horiz-adv-x="200" 
d="M62 558q0 18 15 32t33 14q15 0 25.5 -11.5t10.5 -26.5q0 -18 -15 -32t-33 -14q-14 0 -25 11.5t-11 26.5zM215 558q0 17 15 31.5t34 14.5q14 0 24.5 -11.5t10.5 -26.5q0 -18 -14.5 -32t-32.5 -14q-15 0 -26 11.5t-11 26.5zM72 0l59 420h56l-59 -420h-56z" />
    <glyph glyph-name="eth" unicode="&#xf0;" horiz-adv-x="499" 
d="M248 -10q-83 0 -131 50.5t-48 135.5q0 112 67 182q68 72 174 72q39 0 72 -12q-8 9 -18 33l-48 97l-131 -74l-16 35l130 74l-66 136l1 9h53l58 -119l133 75l16 -35l-132 -75l95 -193q37 -83 30 -162l-1 -9q-12 -98 -78 -160q-64 -60 -160 -60zM433 238q0 67 -36 105.5
t-94 38.5q-73 0 -125 -55q-51 -54 -51 -145q0 -66 35 -105t93 -39q73 0 125 54q53 56 53 146z" />
    <glyph glyph-name="ntilde" unicode="&#xf1;" horiz-adv-x="509" 
d="M70 0l59 420h40l-4 -69h4q61 79 161 79q81 0 120 -53.5t27 -141.5l-33 -235h-56l32 229q9 70 -18.5 111.5t-88.5 41.5q-62 0 -103 -41t-48 -86l-36 -255h-56zM401 521q-30 0 -73 29q-41 29 -60 29q-22 -2 -32 -11.5t-19 -32.5l-6 -14l-39 5l8 23q26 75 90 75q30 0 71 -29
t61 -29q37 0 52 44l5 14l40 -4l-7 -23q-22 -76 -91 -76z" />
    <glyph glyph-name="ograve" unicode="&#xf2;" horiz-adv-x="502" 
d="M492 239q0 -109 -72 -180q-72 -69 -170 -69q-80 0 -131 51t-51 136q0 111 72 181q74 72 172 72q78 0 129 -53t51 -138zM257 36q71 0 125 55t54 143q0 67 -37 108.5t-94 41.5q-71 0 -126 -57q-55 -56 -55 -145q0 -66 37.5 -106t95.5 -40zM300 497l-65 134l71 10l34 -144
h-40z" />
    <glyph glyph-name="oacute" unicode="&#xf3;" horiz-adv-x="502" 
d="M442 631l-103 -134h-40l74 144zM492 239q0 -109 -72 -180q-72 -69 -170 -69q-80 0 -131 51t-51 136q0 111 72 181q74 72 172 72q78 0 129 -53t51 -138zM257 36q71 0 125 55t54 143q0 67 -37 108.5t-94 41.5q-71 0 -126 -57q-55 -56 -55 -145q0 -66 37.5 -106t95.5 -40z
" />
    <glyph glyph-name="ocircumflex" unicode="&#xf4;" horiz-adv-x="502" 
d="M380 521l-46 69l-67 -69h-52l98 108h50l71 -108h-54zM492 239q0 -109 -72 -180q-72 -69 -170 -69q-80 0 -131 51t-51 136q0 111 72 181q74 72 172 72q78 0 129 -53t51 -138zM257 36q71 0 125 55t54 143q0 67 -37 108.5t-94 41.5q-71 0 -126 -57q-55 -56 -55 -145
q0 -66 37.5 -106t95.5 -40z" />
    <glyph glyph-name="otilde" unicode="&#xf5;" horiz-adv-x="502" 
d="M492 239q0 -109 -72 -180q-72 -69 -170 -69q-80 0 -131 51t-51 136q0 111 72 181q74 72 172 72q78 0 129 -53t51 -138zM257 36q71 0 125 55t54 143q0 67 -37 108.5t-94 41.5q-71 0 -126 -57q-55 -56 -55 -145q0 -66 37.5 -106t95.5 -40zM394 522q-30 0 -73 29
q-41 29 -60 29q-22 -2 -32 -11.5t-19 -32.5l-6 -14l-39 5l8 23q25 75 90 75q30 0 71 -29t61 -29q37 0 52 44l5 14l40 -4l-7 -23q-22 -76 -91 -76z" />
    <glyph glyph-name="odieresis" unicode="&#xf6;" horiz-adv-x="502" 
d="M210 559q0 18 15 32t33 14q15 0 25.5 -11.5t10.5 -26.5q0 -18 -15 -32t-33 -14q-14 0 -25 11.5t-11 26.5zM363 559q0 17 15 31.5t34 14.5q14 0 24.5 -11.5t10.5 -26.5q0 -18 -14.5 -32t-32.5 -14q-15 0 -26 11.5t-11 26.5zM492 239q0 -109 -72 -180q-72 -69 -170 -69
q-80 0 -131 51t-51 136q0 111 72 181q74 72 172 72q78 0 129 -53t51 -138zM257 36q71 0 125 55t54 143q0 67 -37 108.5t-94 41.5q-71 0 -126 -57q-55 -56 -55 -145q0 -66 37.5 -106t95.5 -40z" />
    <glyph glyph-name="divide" unicode="&#xf7;" horiz-adv-x="489" 
d="M222 149q0 20 15.5 35t35.5 15q16 0 26.5 -11.5t10.5 -28.5q0 -19 -15.5 -33.5t-34.5 -14.5q-16 0 -27 11t-11 27zM262 437q0 20 15.5 34.5t35.5 14.5q16 0 26.5 -11t10.5 -28q0 -19 -15 -33.5t-34 -14.5q-17 0 -28 11t-11 27zM100 272l7 47h365l-7 -47h-365z" />
    <glyph glyph-name="oslash" unicode="&#xf8;" horiz-adv-x="503" 
d="M492 239q0 -109 -72 -180q-72 -69 -170 -69q-80 0 -129 48l-41 -38h-49l69 63q-32 49 -32 114q0 111 72 181q74 72 172 72q74 0 124 -49l42 39h49l-70 -63q35 -50 35 -118zM257 36q71 0 125 55t54 143q0 46 -21 84l-254 -242q37 -40 96 -40zM124 182q0 -46 19 -80
l254 242q-37 40 -92 40q-71 0 -126 -57q-55 -56 -55 -145z" />
    <glyph glyph-name="ugrave" unicode="&#xf9;" horiz-adv-x="505" 
d="M494 420l-59 -420h-37v68h-2q-62 -78 -163 -78q-80 0 -117 53t-25 142l33 235h56l-32 -229q-10 -71 16 -112t85 -41q64 0 104 40q42 42 49 87l36 255h56zM298 497l-65 134l71 10l34 -144h-40z" />
    <glyph glyph-name="uacute" unicode="&#xfa;" horiz-adv-x="505" 
d="M439 631l-103 -134h-40l74 144zM494 420l-59 -420h-37v68h-2q-62 -78 -163 -78q-80 0 -117 53t-25 142l33 235h56l-32 -229q-10 -71 16 -112t85 -41q64 0 104 40q42 42 49 87l36 255h56z" />
    <glyph glyph-name="ucircumflex" unicode="&#xfb;" horiz-adv-x="505" 
d="M372 496l-46 69l-67 -69h-52l98 108h50l71 -108h-54zM494 420l-59 -420h-37v68h-2q-62 -78 -163 -78q-80 0 -117 53t-25 142l33 235h56l-32 -229q-10 -71 16 -112t85 -41q64 0 104 40q42 42 49 87l36 255h56z" />
    <glyph glyph-name="udieresis" unicode="&#xfc;" horiz-adv-x="505" 
d="M204 534q0 18 15 32t33 14q15 0 25.5 -11.5t10.5 -26.5q0 -18 -15 -32t-33 -14q-14 0 -25 11.5t-11 26.5zM357 534q0 17 15 31.5t34 14.5q14 0 24.5 -11.5t10.5 -26.5q0 -18 -14.5 -32t-32.5 -14q-15 0 -26 11.5t-11 26.5zM494 420l-59 -420h-37v68h-2q-62 -78 -163 -78
q-80 0 -117 53t-25 142l33 235h56l-32 -229q-10 -71 16 -112t85 -41q64 0 104 40q42 42 49 87l36 255h56z" />
    <glyph glyph-name="yacute" unicode="&#xfd;" horiz-adv-x="502" 
d="M435 420h57l-58 -412q-12 -87 -68.5 -137t-146.5 -50q-59 0 -96.5 18t-52.5 37l-4 7l36 38q7 -8 16 -16.5t40 -21.5t67 -13q132 0 152 137l7 49q-57 -66 -148 -66q-83 0 -121.5 52.5t-26.5 141.5l33 236h56l-32 -230q-9 -71 17 -112t85 -41q63 0 103 40q42 42 49 87z
M438 631l-103 -134h-40l74 144z" />
    <glyph glyph-name="thorn" unicode="&#xfe;" horiz-adv-x="525" 
d="M142 93h-3l-35 -249h-56l106 756h56l-38 -271h3q12 20 25 35q14 17 33 31q49 35 113 35q75 0 121.5 -51.5t46.5 -135.5q0 -108 -68 -181q-68 -72 -161 -72q-64 0 -98 30t-43 62zM151 184q0 -66 36.5 -106t93.5 -40q71 0 124 56q53 58 53 141q0 65 -36 106t-92 41
q-72 0 -126 -55q-53 -55 -53 -143z" />
    <glyph glyph-name="ydieresis" unicode="&#xff;" horiz-adv-x="502" 
d="M435 420h57l-58 -412q-12 -87 -68.5 -137t-146.5 -50q-59 0 -96.5 18t-52.5 37l-4 7l36 38q7 -8 16 -16.5t40 -21.5t67 -13q132 0 152 137l7 49q-57 -66 -148 -66q-83 0 -121.5 52.5t-26.5 141.5l33 236h56l-32 -230q-9 -71 17 -112t85 -41q63 0 103 40q42 42 49 87z
M204 535q0 18 15 32t33 14q15 0 25.5 -11.5t10.5 -26.5q0 -18 -15 -32t-33 -14q-14 0 -25 11.5t-11 26.5zM357 535q0 17 15 31.5t34 14.5q14 0 24.5 -11.5t10.5 -26.5q0 -18 -14.5 -32t-32.5 -14q-15 0 -26 11.5t-11 26.5z" />
    <glyph glyph-name="dotlessi" unicode="&#x131;" horiz-adv-x="200" 
d="M72 0l59 420h56l-59 -420h-56z" />
    <glyph glyph-name="Lslash" unicode="&#x141;" horiz-adv-x="488" 
d="M52 241l6 43l72 41l39 275h57l-34 -240l182 104l-6 -44l-182 -103l-37 -264h320l-7 -53h-377l39 282z" />
    <glyph glyph-name="lslash" unicode="&#x142;" horiz-adv-x="224" 
d="M53 226l6 40l69 39l42 300h56l-37 -265l70 41l-6 -40l-70 -40l-42 -301h-56l37 266z" />
    <glyph glyph-name="OE" unicode="&#x152;" horiz-adv-x="1033" 
d="M335 -14q-118 0 -187 76q-68 77 -68 193q0 151 97 254q98 104 246 104q153 0 221 -126l16 113h415l-7 -53h-358l-31 -217h308l-7 -53h-308l-32 -224h358l-7 -53h-415l14 101q-99 -115 -255 -115zM342 40q120 0 198 87q79 88 79 209q0 97 -55 159q-54 64 -149 64
q-119 0 -197 -88q-78 -87 -78 -209q0 -95 53 -159q54 -63 149 -63z" />
    <glyph glyph-name="oe" unicode="&#x153;" horiz-adv-x="818" 
d="M750 78l16 -41q-19 -17 -70 -35q-39 -13 -85 -13q-125 0 -167 104q-34 -49 -86 -76t-111 -27q-80 0 -131 51t-51 136q0 111 72 181q74 72 172 72q55 0 98 -27.5t64 -76.5q31 49 80.5 76.5t107.5 27.5q86 0 127 -57.5t28 -149.5l-2 -14h-322v-1q-12 -79 24.5 -124.5
t106.5 -45.5q69 0 115 30zM254 36q76 0 127 59q52 59 52 139q0 67 -37 108.5t-94 41.5q-70 0 -126 -57q-55 -56 -55 -145q0 -66 37.5 -106t95.5 -40zM652 382q-55 0 -94.5 -32.5t-57.5 -94.5h261q2 60 -26 93.5t-83 33.5z" />
    <glyph glyph-name="Scaron" unicode="&#x160;" horiz-adv-x="507" 
d="M303 777l46 -70l67 70h53l-99 -109h-50l-70 109h53zM52 55l37 44q19 -21 73 -43q42 -16 94 -16q87 0 131.5 33.5t44.5 92.5q0 41 -32.5 66t-114.5 50q-94 29 -135.5 63.5t-41.5 89.5q0 81 64 129q64 49 169 49q58 0 105.5 -13.5t65.5 -29.5l16 -14l-37 -48
q-51 51 -157 51q-74 0 -120.5 -31t-46.5 -84q0 -36 33 -59.5t116 -48.5q94 -30 134.5 -66.5t40.5 -94.5q0 -85 -64 -137t-178 -52q-73 0 -121 20t-70 42z" />
    <glyph glyph-name="scaron" unicode="&#x161;" horiz-adv-x="404" 
d="M235 606l46 -70l67 70h53l-99 -109h-50l-70 109h53zM46 39l30 39q27 -17 62 -28q38 -11 74 -11q58 0 88.5 21t30.5 56q0 11 -5 20.5t-15 17t-20.5 13t-27.5 11t-29.5 9t-32.5 9t-31 8.5q-87 29 -87 96q0 58 45.5 94t126.5 36q91 0 137 -26l15 -8l-29 -48q-46 34 -126 34
q-116 0 -116 -73q0 -24 25.5 -39t62 -23.5t73 -20t62 -36.5t25.5 -63q0 -61 -46 -99t-133 -38q-47 0 -87.5 11t-57.5 25z" />
    <glyph glyph-name="Ydieresis" unicode="&#x178;" horiz-adv-x="533" 
d="M331 318l205 282h66l-275 -369l-32 -231h-57l32 231l-171 369h67l127 -282l12 -36h3zM249 706q0 18 15 32t33 14q15 0 25.5 -11.5t10.5 -26.5q0 -18 -15 -32t-33 -14q-14 0 -25 11.5t-11 26.5zM402 706q0 17 15 31.5t34 14.5q14 0 24.5 -11.5t10.5 -26.5q0 -18 -14.5 -32
t-32.5 -14q-15 0 -26 11.5t-11 26.5z" />
    <glyph glyph-name="Zcaron" unicode="&#x17d;" horiz-adv-x="518" 
d="M307 777l46 -70l67 70h53l-99 -109h-50l-70 109h53zM31 0l5 39l451 508h-370l7 53h447l-5 -39l-447 -508h366l-7 -53h-447z" />
    <glyph glyph-name="zcaron" unicode="&#x17e;" horiz-adv-x="418" 
d="M235 606l46 -70l67 70h53l-99 -109h-50l-70 109h53zM41 30l317 343h-268l7 47h343l-4 -28l-314 -345h266l-7 -47h-344z" />
    <glyph glyph-name="florin" unicode="&#x192;" horiz-adv-x="507" 
d="M189 109l91 266h-86l6 45h96l12 35q52 154 197 154q43 0 65 -12l8 -4l-29 -47q-19 12 -57 12q-95 0 -129 -103l-12 -35h147l-6 -45h-156l-96 -279q-16 -49 -43.5 -72.5t-75.5 -23.5q-41 0 -63 16l-7 5l23 43q20 -14 45 -14q27 0 43 13.5t27 45.5z" />
    <glyph glyph-name="circumflex" unicode="&#x2c6;" horiz-adv-x="356" 
d="M333 668l-46 69l-67 -69h-52l98 108h50l71 -108h-54z" />
    <glyph glyph-name="caron" unicode="&#x2c7;" horiz-adv-x="325" 
d="M213 777l46 -70l67 70h53l-99 -109h-50l-70 109h53z" />
    <glyph glyph-name="breve" unicode="&#x2d8;" horiz-adv-x="383" 
d="M390 812h46q-11 -64 -54 -104t-99 -40q-57 0 -89 40.5t-24 103.5h46q-5 -42 15 -70t58 -28q37 0 65.5 27.5t35.5 70.5z" />
    <glyph glyph-name="dotaccent" unicode="&#x2d9;" horiz-adv-x="330" 
d="M243 550q-20 0 -33 13t-13 33q0 25 18 42t43 17q20 0 33 -13t13 -33q0 -24 -18.5 -41.5t-42.5 -17.5z" />
    <glyph glyph-name="ring" unicode="&#x2da;" horiz-adv-x="286" 
d="M143 688q0 41 31.5 67t79.5 26q38 0 62 -20t24 -53q0 -41 -32 -67t-78 -26q-39 0 -63 20t-24 53zM300 704q0 40 -51 40q-30 0 -47.5 -14t-17.5 -38q0 -40 52 -40q30 0 47 13.5t17 38.5z" />
    <glyph glyph-name="ogonek" unicode="&#x2db;" horiz-adv-x="192" 
d="M132 -88l16 -25q-25 -23 -63 -23q-29 0 -45 15t-16 41q0 35 25 60t51 34l26 8l4 -21q-29 -10 -50 -31q-19 -19 -19 -40q0 -32 32 -32q17 0 35 10z" />
    <glyph glyph-name="tilde" unicode="&#x2dc;" horiz-adv-x="465" 
d="M394 668q-30 0 -73 29q-41 29 -60 29q-22 -2 -32 -11.5t-19 -32.5l-6 -14l-39 5l8 23q25 75 90 75q30 0 71 -29t61 -29q37 0 52 44l5 14l40 -4l-7 -23q-22 -76 -91 -76z" />
    <glyph glyph-name="hungarumlaut" unicode="&#x2dd;" horiz-adv-x="395" 
d="M397 577l-100 -158h-39l71 158h68zM256 577l-100 -158h-39l70 158h69z" />
    <glyph glyph-name="pi" unicode="&#x3c0;" horiz-adv-x="478" 
d="M88 420h419l-7 -47h-65l-52 -373h-56l52 373h-176l-52 -373h-56l52 373h-66z" />
    <glyph glyph-name="endash" unicode="&#x2013;" horiz-adv-x="463" 
d="M100 264l7 48h329l-7 -48h-329z" />
    <glyph glyph-name="emdash" unicode="&#x2014;" horiz-adv-x="721" 
d="M100 264l7 48h587l-7 -48h-587z" />
    <glyph glyph-name="quoteleft" unicode="&#x2018;" horiz-adv-x="210" 
d="M114 452l2 9q11 56 45.5 92.5t87.5 46.5l5 -34q-35 -7 -59 -28.5t-28 -46.5q31 -5 31 -34q0 -19 -14.5 -33t-33.5 -14q-18 0 -29 12.5t-7 29.5z" />
    <glyph glyph-name="quoteright" unicode="&#x2019;" horiz-adv-x="215" 
d="M250 559l-1 -9q-7 -54 -42.5 -91.5t-90.5 -48.5l-5 34q34 7 58 27.5t29 46.5q-31 5 -31 36q0 19 14.5 32.5t33.5 13.5q17 0 27 -12t8 -29z" />
    <glyph glyph-name="quotesinglbase" unicode="&#x201a;" horiz-adv-x="199" 
d="M5 -83q34 7 58 27.5t29 46.5q-30 5 -30 35q0 19 14 33t33 14q17 0 27 -12t9 -30v-4l-1 -5q-10 -55 -45 -92t-89 -47z" />
    <glyph glyph-name="quotedblleft" unicode="&#x201c;" horiz-adv-x="352" 
d="M114 452l2 9q11 56 45.5 92.5t87.5 46.5l5 -34q-35 -7 -59.5 -28t-28.5 -46q32 -5 32 -36q0 -18 -15 -32t-33 -14t-29 12.5t-7 29.5zM257 452l2 9q12 56 45.5 92.5t86.5 46.5l5 -34q-35 -7 -59 -28t-28 -46q14 -1 23 -11t9 -24q0 -19 -15 -33t-34 -14q-17 0 -28 12.5
t-7 29.5z" />
    <glyph glyph-name="quotedblright" unicode="&#x201d;" horiz-adv-x="356" 
d="M392 559l-1 -9q-7 -55 -42.5 -92t-91.5 -48l-4 34q34 7 58 27.5t29 46.5q-31 5 -31 36q0 19 14.5 32.5t33.5 13.5q16 0 26.5 -12t8.5 -29zM249 559l-1 -9q-7 -55 -42 -92t-91 -48l-5 34q34 7 58 27.5t29 46.5q-13 1 -21.5 11.5t-8.5 24.5q0 18 14 32t33 14q17 0 27 -12
t8 -29z" />
    <glyph glyph-name="quotedblbase" unicode="&#x201e;" horiz-adv-x="401" 
d="M5 -83q34 7 58 27.5t29 46.5q-30 5 -30 35q0 19 14 33t33 14q17 0 27 -12t9 -30v-4l-1 -5q-10 -55 -45 -92t-89 -47zM207 -83q34 7 58 27.5t29 46.5q-30 5 -30 35q0 19 14 33t33 14q17 0 27 -12t9 -30v-4l-1 -5q-10 -55 -45 -92t-89 -47z" />
    <glyph glyph-name="dagger" unicode="&#x2020;" horiz-adv-x="389" 
d="M96 440l7 48h137l20 147h48l-20 -147h136l-7 -48h-136l-44 -273h-36l32 273h-137z" />
    <glyph glyph-name="daggerdbl" unicode="&#x2021;" horiz-adv-x="422" 
d="M117 466l7 48h136l21 154h49l-21 -154h136l-7 -48h-137l-24 -128l-12 -129h137l-7 -48h-136l-23 -161h-49l23 161h-136l7 48h136l23 129l13 128h-136z" />
    <glyph glyph-name="bullet" unicode="&#x2022;" horiz-adv-x="303" 
d="M193 290q25 0 41.5 -17t16.5 -42q0 -30 -23.5 -52.5t-53.5 -22.5q-25 0 -42 17t-17 42q0 30 23.5 52.5t54.5 22.5z" />
    <glyph glyph-name="ellipsis" unicode="&#x2026;" horiz-adv-x="659" 
d="M65 33q0 23 16.5 39.5t39.5 16.5q18 0 30.5 -13t12.5 -31q0 -22 -17 -38t-40 -16q-19 0 -30.5 12t-11.5 30zM285 33q0 22 17.5 39t39.5 17q18 0 30 -13t12 -31q0 -22 -17 -38t-39 -16q-19 0 -31 12t-12 30zM506 33q0 23 17 39.5t39 16.5q18 0 30.5 -13t12.5 -31
q0 -22 -17 -38t-40 -16q-19 0 -30.5 12t-11.5 30z" />
    <glyph glyph-name="perthousand" unicode="&#x2030;" horiz-adv-x="944" 
d="M253 613q50 0 78.5 -35.5t28.5 -90.5q0 -69 -42 -122q-40 -52 -107 -52q-50 0 -78 35.5t-28 91.5q0 69 41 121q40 52 107 52zM218 360q40 0 65.5 35.5t25.5 87.5q0 38 -16.5 60.5t-45.5 22.5q-41 0 -66 -35.5t-25 -87.5q0 -38 16.5 -60.5t45.5 -22.5zM613 600h64
l-561 -600h-62zM522 292q50 0 79 -36t29 -91q0 -69 -42 -121t-108 -52q-49 0 -77.5 35.5t-28.5 91.5q0 69 41 121q42 52 107 52zM516 246q-40 0 -65.5 -35.5t-25.5 -87.5q0 -37 16.5 -60t45.5 -23q40 0 65.5 35.5t25.5 87.5q0 38 -16.5 60.5t-45.5 22.5zM822 246
q-41 0 -66.5 -35.5t-25.5 -87.5q0 -37 17 -60t46 -23q39 0 64.5 35.5t25.5 87.5q0 38 -16 60.5t-45 22.5zM828 292q50 0 78.5 -35.5t28.5 -91.5q0 -69 -42 -121t-107 -52q-50 0 -78.5 35.5t-28.5 91.5q0 69 41 121q42 52 108 52z" />
    <glyph glyph-name="guilsinglleft" unicode="&#x2039;" horiz-adv-x="257" 
d="M72 198l3 21l140 180h50l-1 -10l-138 -177l-1 -5l88 -180l-1 -9h-50z" />
    <glyph glyph-name="guilsinglright" unicode="&#x203a;" horiz-adv-x="256" 
d="M244 219l-3 -21l-140 -180h-50l1 9l139 180v5l-88 177l2 10h50z" />
    <glyph glyph-name="fraction" unicode="&#x2044;" horiz-adv-x="560" 
d="M43 0h-50l617 673h53z" />
    <glyph glyph-name="Euro" unicode="&#x20ac;" horiz-adv-x="575" 
d="M433 252l-6 -44h-214q13 -166 162 -166q35 0 70.5 14t52.5 30l16 15l23 -40l-5 -5l-7.5 -7.5l-7.5 -7.5q-15 -13 -58 -32q-42 -19 -93 -19q-96 0 -151 59t-61 159h-83l6 44h76l1 18q2 17 4 31q1 12 10 52h-77l7 45h84q35 99 105.5 156t166.5 57q45 0 84.5 -17t53.5 -37
l14 -18l-36 -42l-1 1q-36 52 -107 58q-7 1 -15 1q-147 0 -206 -159h213l-7 -45h-221q-6 -26 -9 -52q-5 -48 -5 -49h221z" />
    <glyph glyph-name="trademark" unicode="&#x2122;" horiz-adv-x="704" 
d="M416 281h-42l45 319h34l92 -158l138 158h33l-45 -319h-41l35 245l-121 -139h-13l-80 137zM357 600l-5 -37h-100l-40 -282h-40l40 282h-100l5 37h240z" />
    <glyph glyph-name="Omega" unicode="&#x2126;" horiz-adv-x="711" 
d="M53 0l7 50h150q-54 30 -84.5 89.5t-30.5 131.5q0 89 41.5 165.5t120.5 125.5q81 51 185 51q125 0 193 -77q69 -76 69 -189q0 -95 -52 -175q-52 -82 -136 -122h150l-7 -50h-268l7 51q99 5 172 91q75 87 75 195q0 96 -55 158q-55 64 -155 64q-125 0 -205 -87
q-79 -85 -79 -201q0 -88 49 -152q49 -63 129 -68l-7 -51h-269z" />
    <glyph glyph-name="partialdiff" unicode="&#x2202;" horiz-adv-x="499" 
d="M248 -10q-83 0 -131 50.5t-48 135.5q0 112 67 182q68 72 174 72q39 0 72 -12q-8 9 -18 33l-131 268l1 9h53l170 -347q37 -83 30 -162l-1 -9q-12 -98 -78 -160q-64 -60 -160 -60zM433 238q0 67 -36 105.5t-94 38.5q-73 0 -125 -55q-51 -54 -51 -145q0 -66 35 -105t93 -39
q73 0 125 54q53 56 53 146z" />
    <glyph glyph-name="increment" unicode="&#x2206;" horiz-adv-x="612" 
d="M27 0l2 13l355 587h12l191 -587l-2 -13h-558zM512 50l-135 447h-3l-261 -447h399z" />
    <glyph glyph-name="product" unicode="&#x220f;" horiz-adv-x="607" 
d="M621 591l-83 -591h-56l77 550h-356l-77 -550h-57l83 591h2l1 9h465l-1 -9h2z" />
    <glyph glyph-name="summation" unicode="&#x2211;" horiz-adv-x="442" 
d="M126 600h353l-7 -50h-281l150 -237l-4 -26l-215 -237h280l-7 -50h-353l7 50l227 245l2 9l-159 246z" />
    <glyph glyph-name="minus" unicode="&#x2212;" horiz-adv-x="540" 
d="M103 275l7 48h412l-7 -48h-412z" />
    <glyph glyph-name="radical" unicode="&#x221a;" horiz-adv-x="596" 
d="M177 -192l-139 399h62l84 -253q14 -45 14 -54h2q4 18 27 54l396 646h63l-493 -792h-16z" />
    <glyph glyph-name="infinity" unicode="&#x221e;" horiz-adv-x="759" 
d="M228 118q-65 0 -102.5 41t-37.5 105q0 75 53 133q54 57 135 57q53 0 87 -32t62 -99q89 131 186 131q61 0 100.5 -40t39.5 -105q0 -76 -53 -134q-52 -57 -135 -57q-53 0 -88 32t-63 97q-45 -65 -88 -97t-96 -32zM601 408q-43 0 -79.5 -30t-75.5 -91q25 -64 51.5 -93.5
t69.5 -29.5q59 0 97 41q38 43 38 98q0 47 -28 76t-73 29zM238 164q43 0 79 30t76 91q-23 62 -50.5 92.5t-70.5 30.5q-60 0 -98 -42q-38 -43 -38 -97q0 -46 27.5 -75.5t74.5 -29.5z" />
    <glyph glyph-name="integral" unicode="&#x222b;" horiz-adv-x="290" 
d="M117 1l76 538q15 110 109 110q38 0 56 -14l7 -5l-23 -43q-16 12 -38 12q-45 0 -56 -65l-75 -538q-15 -110 -109 -110q-31 0 -56 14l-7 5l23 43q18 -12 38 -12q47 0 55 65z" />
    <glyph glyph-name="approxequal" unicode="&#x2248;" horiz-adv-x="439" 
d="M316 180q-30 0 -69 24q-38 25 -56 25q-31 0 -47 -37l-5 -12l-46 4l8 25q25 69 91 69q30 0 67 -25q38 -25 57 -25q33 0 46 37l5 13l47 -4l-8 -26q-23 -68 -90 -68zM343 368q-31 0 -69 25t-56 25q-31 0 -47 -37l-5 -13l-47 4l8 26q23 68 92 68q30 0 67 -25q39 -24 57 -24
q30 0 46 37l5 12l46 -4l-8 -25q-22 -69 -89 -69z" />
    <glyph glyph-name="notequal" unicode="&#x2260;" horiz-adv-x="453" 
d="M111 369l7 47h187l62 123l41 -16l-54 -107h99l-7 -47h-116l-83 -165h176l-7 -48h-194l-61 -123l-41 16l54 107h-93l7 48h110l83 165h-170z" />
    <glyph glyph-name="lessequal" unicode="&#x2264;" horiz-adv-x="388" 
d="M328 245l-39 -36l-159 176l2 13l209 181l29 -35l-176 -153zM354 139l-7 -48h-274l7 48h274z" />
    <glyph glyph-name="greaterequal" unicode="&#x2265;" horiz-adv-x="387" 
d="M159 209l-30 36l174 146l-132 153l39 35l157 -181l-2 -13zM67 91l7 48h273l-7 -48h-273z" />
    <glyph glyph-name="lozenge" unicode="&#x25ca;" horiz-adv-x="428" 
d="M316 600l119 -300l-203 -300h-36l-119 300l203 300h36zM142 299l80 -215h9l139 215l-79 217h-9z" />
    <glyph glyph-name="NULL" horiz-adv-x="0" 
 />
    <glyph glyph-name="CR.001" horiz-adv-x="333" 
 />
    </font>
</defs>
</svg>
