<?xml version="1.0" standalone="no"?>
<!DOCTYPE svg PUBLIC "-//W3C//DTD SVG 1.1//EN" "http://www.w3.org/Graphics/SVG/1.1/DTD/svg11.dtd" >
<svg xmlns="http://www.w3.org/2000/svg" xmlns:xlink="http://www.w3.org/1999/xlink" version="1.1">
<metadata>
Created by FontForge 20170731 at Mon Oct 20 12:30:55 2014
 By Aleksey,,,
Copyright (c) 2014 by Daniel Hernandez &#38; Miguel Hernandez. All rights reserved.
</metadata>
<defs>
<font id="Texta-BoldItalic" horiz-adv-x="522" >
  <font-face 
    font-family="Texta"
    font-weight="700"
    font-style="italic"
    font-stretch="normal"
    units-per-em="1000"
    panose-1="2 0 0 0 0 0 0 0 0 0"
    ascent="800"
    descent="-200"
    x-height="420"
    cap-height="600"
    bbox="-20 -192 1067 813"
    underline-thickness="50"
    underline-position="-200"
    slope="-8"
    unicode-range="U+000D-25CA"
  />
<missing-glyph horiz-adv-x="564" 
 />
    <glyph glyph-name=".notdef" horiz-adv-x="564" 
 />
    <glyph glyph-name=".null" horiz-adv-x="0" 
 />
    <glyph glyph-name="nonmarkingreturn" horiz-adv-x="333" 
 />
    <glyph glyph-name="NUL" horiz-adv-x="0" 
 />
    <glyph glyph-name="NUL" horiz-adv-x="0" 
 />
    <glyph glyph-name="CR" unicode="&#xd;" horiz-adv-x="105" 
 />
    <glyph glyph-name="space" unicode=" " horiz-adv-x="214" 
 />
    <glyph glyph-name="exclam" unicode="!" horiz-adv-x="222" 
d="M252 600l-82 -415h-67l33 415h116zM56 47q0 29 21.5 50t50.5 21q24 0 39 -16t15 -40q0 -28 -21.5 -49t-50.5 -21q-24 0 -39 15.5t-15 39.5z" />
    <glyph glyph-name="quotedbl" unicode="&#x22;" horiz-adv-x="329" 
d="M248 684l-75 -209h-59l46 209h88zM397 684l-75 -209h-59l45 209h89z" />
    <glyph glyph-name="numbersign" unicode="#" horiz-adv-x="635" 
d="M602 583l-55 -155h118l-22 -59h-118l-56 -156h116l-21 -59h-116l-56 -154h-63l55 154h-150l-55 -154h-64l56 154h-118l21 59h118l56 156h-116l22 59h116l55 155h62l-55 -155h151l55 155h64zM310 369l-55 -156h150l56 156h-151z" />
    <glyph glyph-name="dollar" unicode="$" horiz-adv-x="519" 
d="M44 61l65 75q24 -21 62 -38q33 -14 72 -19l26 186q-88 28 -128 64.5t-40 92.5q0 81 58 132t159 58l15 104h59l-15 -104q52 -3 95.5 -17.5t59.5 -29.5l15 -13l-65 -81q-41 39 -118 48l-24 -167q90 -28 130.5 -66t40.5 -96q0 -84 -59.5 -140t-162.5 -63l-13 -94h-59l13 94
q-54 3 -101.5 21t-67.5 36zM399 171q0 46 -74 75l-23 -166q47 6 72 30t25 61zM211 438q0 -21 16.5 -36.5t56.5 -30.5l21 148q-44 -5 -69 -26.5t-25 -54.5z" />
    <glyph glyph-name="percent" unicode="%" horiz-adv-x="663" 
d="M257 613q53 0 83.5 -35.5t30.5 -91.5q0 -68 -44 -121q-43 -51 -112 -51q-53 0 -83.5 36t-30.5 92q0 70 43 120q43 51 113 51zM248 549q-33 0 -53 -29t-20 -75q0 -66 49 -66q33 0 53 29t20 75q0 66 -49 66zM533 291q53 0 84 -36.5t31 -91.5q0 -67 -45 -120
q-43 -51 -112 -51q-53 0 -83.5 36t-30.5 92q0 68 44 120q43 51 112 51zM524 227q-33 0 -53 -29t-20 -75q0 -30 13 -48t36 -18q33 0 53 29t20 75q0 66 -49 66zM605 600h92l-561 -600h-91z" />
    <glyph glyph-name="ampersand" unicode="&#x26;" horiz-adv-x="614" 
d="M513 299l90 -22q-29 -95 -87 -162l101 -115h-138l-38 45q-79 -55 -174 -55q-97 0 -149 40.5t-52 109.5q0 62 35.5 104t108.5 78l-11 14q-39 48 -39 107q0 71 55 120q56 50 140 50q71 0 112.5 -35t41.5 -93q0 -63 -37 -104.5t-116 -80.5l103 -118q35 48 54 117zM278 74
q58 0 110 36l-123 147q-90 -44 -90 -104q0 -36 29 -57.5t74 -21.5zM295 371l7 -8q58 26 83 49t25 57q0 28 -18 45t-48 17q-59 0 -79.5 -49.5t30.5 -110.5z" />
    <glyph glyph-name="quotesingle" unicode="'" horiz-adv-x="181" 
d="M248 684l-74 -209h-60l46 209h88z" />
    <glyph glyph-name="parenleft" unicode="(" horiz-adv-x="275" 
d="M178 287q-31 -214 71 -359l-71 -65q-138 172 -102 424q36 255 221 424l53 -65q-142 -142 -172 -359z" />
    <glyph glyph-name="parenright" unicode=")" horiz-adv-x="276" 
d="M185 364q0 176 -78 282l72 65q109 -139 109 -343q0 -292 -228 -505l-54 65q179 179 179 436z" />
    <glyph glyph-name="asterisk" unicode="*" horiz-adv-x="387" 
d="M137 444l102 93l-121 20l34 71l102 -61l1 127h72l-40 -128l124 62l14 -71l-130 -20l78 -93l-67 -43l-42 115l-74 -115z" />
    <glyph glyph-name="plus" unicode="+" horiz-adv-x="508" 
d="M368 515l-26 -181h176l-11 -80h-176l-24 -173h-82l24 173h-176l11 80h176l26 181h82z" />
    <glyph glyph-name="comma" unicode="," horiz-adv-x="213" 
d="M172 49l-1 -7q-9 -64 -50 -108.5t-103 -56.5l-8 53q67 16 82 61q-19 4 -30 18t-11 33q0 27 21 47t48 20q25 0 40.5 -17.5t11.5 -42.5z" />
    <glyph glyph-name="hyphen" unicode="-" horiz-adv-x="388" 
d="M81 189l11 80h280l-11 -80h-280z" />
    <glyph glyph-name="period" unicode="." horiz-adv-x="210" 
d="M103 -10q-22 0 -37 15t-15 37q0 27 21 47t48 20q22 0 37 -15t15 -38q0 -27 -21 -46.5t-48 -19.5z" />
    <glyph glyph-name="slash" unicode="/" horiz-adv-x="591" 
d="M106 -111l-101 -1l575 895h99z" />
    <glyph glyph-name="zero" unicode="0" horiz-adv-x="610" 
d="M303 -14q-108 0 -165 74t-57 188q0 151 85 257q86 108 226 108q108 0 165 -74q58 -73 58 -188q0 -148 -86 -257q-85 -108 -226 -108zM317 82q90 0 142 75q53 76 53 185q0 80 -35 128t-99 48q-90 0 -142 -76q-53 -77 -53 -185q0 -80 35 -127.5t99 -47.5z" />
    <glyph glyph-name="one" unicode="1" horiz-adv-x="313" 
d="M87 512l12 88h230l-84 -600h-99l72 512h-131z" />
    <glyph glyph-name="two" unicode="2" horiz-adv-x="506" 
d="M44 0l10 69l275 242q40 35 55 59.5t15 58.5q0 39 -26.5 64t-71.5 25q-53 0 -106 -34q-30 -21 -34 -24l-10 -8l-42 79q9 9 38 28q20 13 45 25q60 29 130 29q90 0 141 -44.5t51 -118.5q0 -51 -19.5 -92t-71.5 -86l-210 -184h262l-12 -88h-419z" />
    <glyph glyph-name="three" unicode="3" horiz-adv-x="507" 
d="M273 280h-78l10 68l182 164h-266l14 88h399l-11 -76l-182 -167q146 -17 146 -152q0 -89 -66 -153q-65 -64 -190 -64q-61 0 -107 21t-63 41l-17 21l64 72q19 -25 59 -46q35 -18 75 -18q65 0 102 32t37 84q0 85 -108 85z" />
    <glyph glyph-name="four" unicode="4" horiz-adv-x="562" 
d="M41 135l10 73l381 392h86l-53 -377h99l-12 -88h-99l-19 -135h-99l19 135h-313zM179 227l-1 -4h188l33 230l-200 -209z" />
    <glyph glyph-name="five" unicode="5" horiz-adv-x="495" 
d="M497 512h-259l-24 -146q32 6 69 6q101 0 152.5 -41.5t51.5 -117.5q0 -97 -68 -162q-67 -63 -188 -63q-70 0 -116 24.5t-65 49.5l-6 9l64 72l3 -3q3 -4 8.5 -9.5t13.5 -12.5t19 -13.5t24 -12.5t30.5 -9.5t35.5 -3.5q65 0 102 32t37 86q0 42 -33 66t-95 24q-77 0 -132 -22
l-3 -1l-11 10l54 326h348z" />
    <glyph glyph-name="six" unicode="6" horiz-adv-x="538" 
d="M199 325l-1 -7q62 59 148 59q83 0 133 -45t50 -118q0 -96 -73 -160q-73 -65 -175 -65q-94 0 -148 59.5t-54 178.5q0 175 83 279q84 104 216 104q67 0 110 -23.5t58 -47.5l5 -8l-67 -76q-34 34 -48 43q-26 18 -70 18q-138 0 -167 -191zM324 293q-51 0 -88.5 -28t-50.5 -75
q8 -110 107 -110q56 0 94 36t38 87q0 40 -27.5 65t-72.5 25z" />
    <glyph glyph-name="seven" unicode="7" horiz-adv-x="455" 
d="M99 512l12 88h414l-9 -69l-334 -531h-116l328 512h-295z" />
    <glyph glyph-name="eight" unicode="8" horiz-adv-x="530" 
d="M264 -14q-92 0 -145 45.5t-53 118.5q0 108 105 164q-51 37 -51 109q0 79 62 135q62 55 170 55q86 0 134.5 -41.5t48.5 -108.5q0 -95 -87 -149q65 -41 65 -122q0 -84 -69 -146q-69 -60 -180 -60zM408 185q0 39 -28.5 63.5t-75.5 24.5q-57 0 -95 -32t-38 -78q0 -39 29 -64
t76 -25q56 0 94 32.5t38 78.5zM315 349q51 0 84 28t33 70q0 34 -25 56t-67 22q-52 0 -85.5 -28.5t-33.5 -69.5q0 -34 25.5 -56t68.5 -22z" />
    <glyph glyph-name="nine" unicode="9" horiz-adv-x="536" 
d="M261 80q134 0 160 194l1 7q-59 -59 -148 -59q-83 0 -133 45t-50 118q0 96 72 160q74 65 177 65q94 0 147.5 -59.5t53.5 -178.5q0 -175 -81 -280t-212 -105q-67 0 -110.5 23.5t-57.5 46.5l-5 8l67 77q1 -1 7 -7.5t11 -12t13.5 -12.5t16.5 -12q31 -18 71 -18zM296 306
q50 0 88 28t50 74q-6 111 -106 111q-56 0 -94 -36t-38 -87q0 -40 27.5 -65t72.5 -25z" />
    <glyph glyph-name="colon" unicode=":" horiz-adv-x="226" 
d="M95 81q14 12 31.5 11t28.5 -14q10 -13 6.5 -30.5t-18.5 -29.5q-14 -12 -31.5 -11t-27.5 14t-7 30.5t18 29.5zM140 398q14 12 31.5 11.5t27.5 -13.5q10 -14 7 -31t-18 -29q-14 -12 -31.5 -11t-27.5 14t-7 30t18 29z" />
    <glyph glyph-name="semicolon" unicode=";" horiz-adv-x="239" 
d="M188 49l-1 -7q-9 -64 -50 -108.5t-103 -56.5l-8 53q67 16 82 61q-19 4 -30 18t-11 33q0 27 21 47t48 20q26 0 41 -17.5t11 -42.5zM164 308q-22 0 -37 15t-15 37q0 27 21 47t48 20q23 0 37.5 -15.5t14.5 -37.5q0 -27 -20.5 -46.5t-48.5 -19.5z" />
    <glyph glyph-name="less" unicode="&#x3c;" horiz-adv-x="372" 
d="M74 268l9 63l297 180l-15 -105l-196 -107l166 -107l-14 -105z" />
    <glyph glyph-name="equal" unicode="=" horiz-adv-x="459" 
d="M107 348l11 80h344l-11 -80h-344zM80 157l11 81h344l-11 -81h-344z" />
    <glyph glyph-name="greater" unicode="&#x3e;" horiz-adv-x="372" 
d="M382 331l-9 -63l-297 -181l15 105l196 107l-166 107l15 105z" />
    <glyph glyph-name="question" unicode="?" horiz-adv-x="432" 
d="M142 477l-36 80q24 21 81 40q45 16 94 16q83 0 132 -38t49 -103q0 -45 -17.5 -80t-44.5 -57t-54 -40.5t-50 -41t-29 -47.5l-6 -23h-75l5 35q5 34 30 67t56 54q28 19 50 47q37 44 16 89.5t-83 42.5q-57 0 -103 -30zM146 46q0 28 21 48.5t49 20.5q23 0 38 -15.5t15 -38.5
q0 -28 -21 -48.5t-49 -20.5q-23 0 -38 15.5t-15 38.5z" />
    <glyph glyph-name="at" unicode="@" horiz-adv-x="1001" 
d="M759 51q-54 0 -86.5 27t-38.5 68h-6q-23 -39 -69.5 -64t-107.5 -25q-70 0 -114 44.5t-44 118.5q0 120 79 198q79 79 184 79q103 0 124 -83l27 73h79l-62 -242q-10 -44 -10 -61q0 -30 16.5 -47.5t48.5 -17.5q66 0 114 66q49 65 49 171q0 62 -21 120t-61 106t-106 77
t-147 29q-95 0 -184.5 -37.5t-154.5 -101.5q-64 -64 -101 -147.5t-37 -171.5q0 -153 101 -259q102 -106 256 -106q54 0 110 14q53 13 82 29l27 14l17 -51q-5 -3 -30 -17q-23 -12 -84 -28q-65 -17 -130 -17q-124 0 -218 58q-93 56 -143 150q-48 95 -48 205q0 101 41.5 196.5
t113.5 168.5q73 73 176 115.5t214 42.5q175 0 285 -110t110 -270q0 -133 -70 -224q-69 -90 -181 -90zM483 147q63 0 112 54q49 53 49 117q0 42 -24 66t-65 24q-60 0 -108 -49q-47 -49 -47 -120q0 -44 21.5 -68t61.5 -24z" />
    <glyph glyph-name="A" unicode="A" horiz-adv-x="596" 
d="M432 600l162 -600h-104l-32 123h-286l-65 -123h-105l330 600h100zM366 485l-149 -278h220z" />
    <glyph glyph-name="B" unicode="B" horiz-adv-x="602" 
d="M588 190q0 -90 -65 -140t-177 -50h-272l84 600h263q90 0 138 -36t48 -104q0 -53 -27.5 -92.5t-76.5 -58.5v-4q39 -11 62 -42t23 -73zM393 262h-183l-25 -174h175q53 0 88.5 27t35.5 70q0 33 -25.5 54t-65.5 23zM501 439q0 73 -93 73h-163l-24 -168h161q53 0 86 26.5
t33 68.5z" />
    <glyph glyph-name="C" unicode="C" horiz-adv-x="560" 
d="M503 138l46 -76q-8 -8 -35 -27q-13 -9 -43 -23q-62 -26 -134 -26q-121 0 -192 77t-71 194q0 149 100 252q101 104 251 104q118 0 185 -67l6 -8l-68 -77q-22 26 -59 42q-33 16 -75 16q-88 0 -154 -63t-79 -157q-14 -94 34 -156q50 -62 137 -62q37 0 75.5 13.5t58.5 29.5z
" />
    <glyph glyph-name="D" unicode="D" horiz-adv-x="633" 
d="M641 342q0 -150 -100 -246q-101 -96 -255 -96h-212l84 600h212q124 0 198 -71q73 -70 73 -187zM352 512h-107l-60 -424h107q103 0 175 66q72 68 72 177q0 84 -51.5 132.5t-135.5 48.5z" />
    <glyph glyph-name="E" unicode="E" horiz-adv-x="540" 
d="M501 346l-12 -84h-279l-25 -174h328l-12 -88h-427l84 600h427l-12 -88h-328l-23 -166h279z" />
    <glyph glyph-name="F" unicode="F" horiz-adv-x="533" 
d="M500 345l-11 -84h-279l-37 -261h-99l84 600h429l-12 -88h-330l-24 -167h279z" />
    <glyph glyph-name="G" unicode="G" horiz-adv-x="639" 
d="M541 252v3h-182l11 84h288l-8 -59q-18 -135 -103 -214q-86 -80 -213 -80q-121 0 -190 76t-69 194q0 148 99 252q100 105 251 105q76 0 126 -22.5t71 -46.5l6 -8l-69 -76q-59 59 -147 59q-99 0 -167 -74q-67 -73 -67 -178q0 -83 46 -134.5t123 -51.5q79 0 135 48
q54 47 59 123z" />
    <glyph glyph-name="H" unicode="H" horiz-adv-x="650" 
d="M660 600l-84 -600h-99l36 255h-304l-36 -255h-99l84 600h99l-36 -261h304l36 261h99z" />
    <glyph glyph-name="I" unicode="I" horiz-adv-x="248" 
d="M257 600l-84 -600h-99l84 600h99z" />
    <glyph glyph-name="J" unicode="J" horiz-adv-x="444" 
d="M20 38l58 78q35 -34 94 -34q57 0 91 32q33 32 44 104l54 382h99l-56 -401q-15 -100 -77 -156.5t-162 -56.5q-93 0 -145 52z" />
    <glyph glyph-name="K" unicode="K" horiz-adv-x="587" 
d="M257 600l-42 -301l324 301h117l-1 -12l-258 -240l180 -335l-2 -13h-109l-147 275l-123 -114l-23 -161h-99l84 600h99z" />
    <glyph glyph-name="L" unicode="L" horiz-adv-x="494" 
d="M468 0h-394l84 600h99l-72 -512h295z" />
    <glyph glyph-name="M" unicode="M" horiz-adv-x="726" 
d="M554 0l59 418l-205 -226h-36l-141 223l-58 -415h-99l84 600h76l174 -280l253 280h74l-83 -600h-98z" />
    <glyph glyph-name="N" unicode="N" horiz-adv-x="666" 
d="M676 600l-84 -600h-74l-285 426l-60 -426h-99l84 600h75l285 -424l59 424h99z" />
    <glyph glyph-name="O" unicode="O" horiz-adv-x="675" 
d="M335 -14q-119 0 -190 77q-70 76 -70 194q0 148 100 251q101 105 248 105q118 0 189 -77t71 -195q0 -147 -100 -251q-101 -104 -248 -104zM348 82q98 0 166 72q67 71 67 176q0 82 -47 135t-125 53q-98 0 -165 -73q-66 -73 -66 -177q0 -82 46 -134t124 -52z" />
    <glyph glyph-name="P" unicode="P" horiz-adv-x="577" 
d="M74 0l84 600h247q96 0 150.5 -46.5t54.5 -126.5q0 -108 -73 -171q-74 -62 -191 -62h-146l-27 -194h-99zM506 415q0 47 -31 72t-87 25h-143l-33 -231h144q70 0 110 34.5t40 99.5z" />
    <glyph glyph-name="Q" unicode="Q" horiz-adv-x="675" 
d="M335 -14q-119 0 -190 77q-70 76 -70 194q0 148 100 251q101 105 248 105q118 0 189 -77t71 -195q0 -103 -54 -189q-53 -86 -143 -131l59 -134h-110l-44 104q-33 -5 -56 -5zM348 82q98 0 166 72q67 71 67 176q0 82 -47 135t-125 53q-98 0 -165 -73q-66 -73 -66 -177
q0 -82 46 -134t124 -52z" />
    <glyph glyph-name="R" unicode="R" horiz-adv-x="599" 
d="M158 600h247q96 0 150.5 -46.5t54.5 -126.5q0 -77 -41.5 -131.5t-114.5 -81.5l-1 -5l117 -195l-2 -14h-109l-115 198h-143l-28 -198h-99zM505 415q0 47 -30.5 72t-86.5 25h-143l-32 -226h149q65 0 104 33.5t39 95.5z" />
    <glyph glyph-name="S" unicode="S" horiz-adv-x="518" 
d="M44 61l65 75q27 -24 75 -42q41 -16 86 -16q64 0 96.5 25t32.5 68q0 30 -27 50.5t-96 41.5q-93 30 -134 66t-41 93q0 85 65 138q67 53 181 53q61 0 112 -14.5t71 -31.5l17 -15l-65 -81q-18 18 -66 36q-39 14 -82 14q-57 0 -90 -22t-33 -61q0 -26 27 -44.5t94 -38.5
q95 -30 137 -68t42 -97q0 -88 -66 -146q-65 -58 -185 -58q-80 0 -134 22.5t-74 45.5z" />
    <glyph glyph-name="T" unicode="T" horiz-adv-x="523" 
d="M96 512l12 88h475l-12 -88h-188l-72 -512h-99l72 512h-188z" />
    <glyph glyph-name="U" unicode="U" horiz-adv-x="634" 
d="M315 -14q-114 0 -173 74q-57 75 -40 194l49 346h99l-49 -346q-11 -78 22.5 -125.5t105.5 -47.5q73 0 118.5 46.5t57.5 126.5l49 346h99l-49 -346q-17 -119 -95 -194q-77 -74 -194 -74z" />
    <glyph glyph-name="V" unicode="V" horiz-adv-x="596" 
d="M248 0l-162 600h105l123 -486l260 486h104l-330 -600h-100z" />
    <glyph glyph-name="W" unicode="W" horiz-adv-x="803" 
d="M522 0l-61 432l-180 -432h-77l-106 600h105l62 -425l178 425h83l59 -426l182 426h107l-275 -600h-77z" />
    <glyph glyph-name="X" unicode="X" horiz-adv-x="551" 
d="M618 600l-226 -292l148 -308h-120l-92 206l-18 45l-29 -45l-149 -206h-119l231 308l-142 292h120l90 -196l14 -45l29 45l144 196h119z" />
    <glyph glyph-name="Y" unicode="Y" horiz-adv-x="537" 
d="M342 365l167 235h110l-269 -370l-32 -230h-99l32 230l-165 370h111l101 -235l15 -49z" />
    <glyph glyph-name="Z" unicode="Z" horiz-adv-x="534" 
d="M30 0l10 71l401 441h-328l12 88h460l-10 -73l-395 -439h328l-12 -88h-466z" />
    <glyph glyph-name="bracketleft" unicode="[" horiz-adv-x="326" 
d="M41 -130l117 830h250l-12 -80h-156l-94 -670h156l-11 -80h-250z" />
    <glyph glyph-name="backslash" unicode="\" horiz-adv-x="375" 
d="M229 -128l-87 926h98l87 -926h-98z" />
    <glyph glyph-name="bracketright" unicode="]" horiz-adv-x="326" 
d="M-1 -130l11 80h155l94 670h-155l12 80h250l-117 -830h-250z" />
    <glyph glyph-name="asciicircum" unicode="^" horiz-adv-x="417" 
d="M362 497l-67 127l-104 -127h-77l163 196h57l109 -196h-81z" />
    <glyph glyph-name="underscore" unicode="_" horiz-adv-x="536" 
d="M30 -120l11 80h442l-11 -80h-442z" />
    <glyph glyph-name="grave" unicode="`" horiz-adv-x="279" 
d="M209 497l-72 134l115 17l24 -151h-67z" />
    <glyph glyph-name="a" unicode="a" 
d="M428 358h4l23 62h66l-59 -420h-66l-6 62h-4q-11 -21 -54 -47q-44 -25 -102 -25q-75 0 -121.5 51t-46.5 135q0 111 67 182q67 72 161 72q58 0 91.5 -21.5t42.5 -42.5zM402 233q0 53 -28 84.5t-74 31.5q-58 0 -98 -46t-40 -115q0 -52 27 -84.5t72 -32.5q59 0 99 45
q42 45 42 117z" />
    <glyph glyph-name="b" unicode="b" horiz-adv-x="521" 
d="M60 0l85 605h98l-34 -239h4l3 4q2 3 7 8.5t13 12.5t19.5 13.5t25 12.5t33 9.5t40.5 3.5q73 0 118.5 -51.5t45.5 -135.5q0 -112 -67 -182q-66 -71 -161 -71q-57 0 -91 23t-42 45l-3 8h-4l-23 -66h-67zM181 187q0 -53 27.5 -84.5t72.5 -31.5q57 0 97 46t40 115
q0 52 -27 84.5t-71 32.5q-58 0 -99 -45q-40 -44 -40 -117z" />
    <glyph glyph-name="c" unicode="c" horiz-adv-x="409" 
d="M249 -10q-86 0 -137 52q-51 53 -51 137q0 106 71 179q72 72 179 72q37 0 69.5 -8.5t44.5 -19.5l11 -9l-38 -72q-34 28 -92 28q-61 0 -103 -45t-42 -118q0 -54 29 -84.5t77 -30.5q50 0 87 21l13 7l16 -71q-23 -17 -59 -28q-33 -10 -75 -10z" />
    <glyph glyph-name="d" unicode="d" 
d="M413 371h4l32 234h98l-85 -605h-66l-6 62h-4q-11 -21 -54 -47q-44 -25 -102 -25q-75 0 -121.5 51t-46.5 135q0 110 67 181q67 73 160 73q42 0 74 -14t41 -30zM402 233q0 53 -28 84.5t-74 31.5q-58 0 -98 -46t-40 -115q0 -52 27 -84.5t72 -32.5q59 0 99 45q42 45 42 117z
" />
    <glyph glyph-name="e" unicode="e" horiz-adv-x="459" 
d="M388 105l26 -67q-18 -18 -72 -36q-44 -14 -89 -14q-89 0 -140.5 51.5t-51.5 137.5q0 106 68 180q67 73 170 73q78 0 121 -47t43 -128q0 -38 -5 -53l-2 -7h-298q-4 -62 25.5 -94.5t86.5 -32.5q30 0 60 8.5t44 19.5zM171 260h197q3 94 -82 94t-115 -94z" />
    <glyph glyph-name="f" unicode="f" horiz-adv-x="322" 
d="M359 343h-117l-48 -343h-98l48 343h-75l11 77h75l5 36q10 73 56 114.5t118 41.5q54 0 82 -15l10 -5l-41 -74q-22 11 -53 11q-29 0 -49 -18.5t-24 -49.5l-6 -41h117z" />
    <glyph glyph-name="g" unicode="g" horiz-adv-x="521" 
d="M520 420l-55 -392q-13 -95 -76 -151t-163 -56q-109 0 -159 65l58 62q37 -49 110 -49q56 0 90 32.5t42 93.5l4 29h-4l-1 -2q-1 -1 -3 -3.5t-4.5 -5.5t-6 -6.5t-8.5 -7.5t-11 -8.5t-13 -8.5q-40 -22 -94 -22q-74 0 -119.5 51.5t-45.5 135.5q0 112 67 182q68 71 163 71
q58 0 90.5 -22.5t41.5 -46.5l3 -8h5l23 67h66zM401 232q0 53 -28.5 85t-73.5 32q-57 0 -98 -47q-40 -46 -40 -114q0 -52 27 -84.5t72 -32.5q59 0 100 44q41 46 41 117z" />
    <glyph glyph-name="h" unicode="h" horiz-adv-x="512" 
d="M60 0l85 605h99l-32 -225h3q48 50 132 50q79 0 117.5 -51t26.5 -138l-34 -241h-98l32 231q7 51 -15 83t-67 32q-47 0 -79 -33t-37 -70l-34 -243h-99z" />
    <glyph glyph-name="i" unicode="i" horiz-adv-x="221" 
d="M180 497q-22 0 -37 14.5t-15 37.5q0 27 20.5 46.5t47.5 19.5q24 0 39 -15t15 -37q0 -27 -21 -46.5t-49 -19.5zM61 0l59 420h98l-59 -420h-98z" />
    <glyph glyph-name="j" unicode="j" horiz-adv-x="221" 
d="M-20 -156l12 82h15q43 0 50 45l63 449h99l-64 -454q-8 -58 -43.5 -90t-93.5 -32h-38zM180 497q-23 0 -38 14.5t-15 37.5q0 27 20.5 46.5t48.5 19.5q23 0 38.5 -15t15.5 -37q0 -27 -21 -46.5t-49 -19.5z" />
    <glyph glyph-name="k" unicode="k" horiz-adv-x="456" 
d="M382 420h122l-196 -183l140 -237h-119l-105 176l-47 -44l-19 -132h-98l85 605h98l-51 -365z" />
    <glyph glyph-name="l" unicode="l" horiz-adv-x="222" 
d="M62 0l85 605h98l-85 -605h-98z" />
    <glyph glyph-name="m" unicode="m" horiz-adv-x="806" 
d="M60 0l59 420h64l4 -60h6q55 70 148 70q103 0 139 -76h5q55 76 154 76q80 0 119 -51t27 -138l-34 -241h-98l33 232q7 52 -14.5 83t-67.5 31q-44 0 -74.5 -27t-39.5 -68l-35 -251h-98l34 242q6 47 -16 75.5t-68 28.5q-44 0 -74.5 -27.5t-39.5 -67.5l-35 -251h-98z" />
    <glyph glyph-name="n" unicode="n" horiz-adv-x="513" 
d="M60 0l59 420h64l4 -60h6q55 70 150 70q81 0 121 -51t28 -138l-34 -241h-98l33 232q7 51 -15.5 82.5t-68.5 31.5q-44 0 -75.5 -28.5t-40.5 -66.5l-35 -251h-98z" />
    <glyph glyph-name="o" unicode="o" horiz-adv-x="499" 
d="M497 238q0 -108 -74 -179q-73 -69 -175 -69q-82 0 -135 51q-52 52 -52 137q0 110 74 181t175 71q81 0 134 -53t53 -139zM259 68q58 0 100 45q42 47 42 119q0 54 -28.5 87t-73.5 33q-58 0 -100 -47t-42 -119q0 -54 28 -86t74 -32z" />
    <glyph glyph-name="p" unicode="p" horiz-adv-x="521" 
d="M169 49h-4l-29 -205h-98l81 576h65l6 -60h6q0 1 5.5 7t18.5 17.5t30 20.5q40 25 102 25q75 0 121 -51t46 -135q0 -109 -67 -182q-66 -72 -158 -72q-37 0 -65.5 11t-39.5 21.5t-17 20.5zM180 187q0 -53 28 -84.5t73 -31.5q58 0 98 46t40 115q0 52 -27 84.5t-72 32.5
q-58 0 -99 -45q-41 -46 -41 -117z" />
    <glyph glyph-name="q" unicode="q" 
d="M521 420l-81 -576h-98l30 210h-4l-1 -2q-1 -1 -3 -3.5t-4.5 -5.5t-6 -6.5t-8.5 -7.5t-11 -8.5t-13 -8.5q-40 -22 -94 -22q-74 0 -119.5 51.5t-45.5 135.5q0 112 67 182q68 71 163 71q58 0 90.5 -22.5t41.5 -46.5l3 -8h5l23 67h66zM402 232q0 53 -28 85t-74 32
q-57 0 -98 -47q-40 -46 -40 -114q0 -52 27 -84.5t72 -32.5q59 0 100 44q41 46 41 117z" />
    <glyph glyph-name="r" unicode="r" horiz-adv-x="296" 
d="M343 421l-11 -82h-23q-43 0 -76.5 -29t-41.5 -74l-33 -236h-98l59 420h64l3 -67h5q44 68 129 68h23z" />
    <glyph glyph-name="s" unicode="s" horiz-adv-x="418" 
d="M39 39l44 67q56 -41 134 -41q85 0 85 52q0 11 -8 20t-25.5 17t-31.5 13t-41.5 12.5t-39.5 11.5q-35 13 -57 39t-22 61q0 61 49 100t133 39q101 0 153 -27l17 -9l-44 -76q-49 36 -127 36q-82 0 -82 -49q0 -22 35 -36q33 -12 78 -22q42 -7 78 -37q36 -28 36 -76
q0 -65 -50 -104.5t-144 -39.5q-111 0 -165 44z" />
    <glyph glyph-name="t" unicode="t" horiz-adv-x="332" 
d="M74 420h75l18 128h98l-18 -128h113l-11 -77h-113l-30 -213q-8 -56 45 -56q21 0 47 12l7 4l20 -69q-49 -31 -106 -31q-65 0 -92.5 36.5t-18.5 101.5l30 215h-75z" />
    <glyph glyph-name="u" unicode="u" horiz-adv-x="510" 
d="M376 174l35 246h98l-59 -420h-64l-9 58h-4q-56 -68 -148 -68q-80 0 -118.5 51t-26.5 138l34 241h98l-33 -232q-7 -53 13.5 -84.5t66.5 -31.5q48 0 80 32q33 34 37 70z" />
    <glyph glyph-name="v" unicode="v" horiz-adv-x="459" 
d="M513 420l-249 -420h-69l-131 420h108l68 -273q6 -19 3 -31h5q1 5 13 31l144 273h108z" />
    <glyph glyph-name="w" unicode="w" horiz-adv-x="661" 
d="M710 420l-212 -420h-84l-38 262q-3 14 -1 39h-5q-2 -15 -13 -39l-111 -262h-83l-94 420h103l43 -273q2 -26 2 -31h7q2 8 12 33l113 271h83l37 -271q2 -14 2 -33h7q2 10 11 31l121 273h100z" />
    <glyph glyph-name="x" unicode="x" horiz-adv-x="446" 
d="M14 0l178 216l-112 204h112l70 -143h3l110 143h111l-174 -204l123 -216h-112l-75 156h-3l-121 -156h-110z" />
    <glyph glyph-name="y" unicode="y" horiz-adv-x="508" 
d="M377 176l34 244h96l-56 -402q-12 -91 -72.5 -144t-157.5 -53q-42 0 -80.5 13t-56.5 28q-15 13 -23 24l58 62q14 -22 52 -38q28 -11 58 -11q108 0 125 116l4 26q-51 -51 -130 -51q-83 0 -122.5 50.5t-27.5 138.5l34 241h98l-33 -232q-7 -53 13.5 -84.5t65.5 -31.5
q49 0 82 30.5t39 73.5z" />
    <glyph glyph-name="z" unicode="z" horiz-adv-x="425" 
d="M390 0h-356l7 53l270 288h-227l11 79h354l-7 -48l-264 -293h223z" />
    <glyph glyph-name="braceleft" unicode="{" horiz-adv-x="290" 
d="M61 326h25q61 0 73 86l23 162q20 131 164 141l2 -82q-34 -6 -47.5 -19.5t-18.5 -47.5l-24 -166q-12 -89 -76 -110l-1 -9q59 -20 46 -108l-24 -167q-5 -34 5.5 -48t42.5 -18l-26 -82q-144 9 -124 140l23 163q12 87 -49 87h-25z" />
    <glyph glyph-name="bar" unicode="|" horiz-adv-x="209" 
d="M247 687l-115 -815h-91l115 815h91z" />
    <glyph glyph-name="braceright" unicode="}" horiz-adv-x="290" 
d="M297 326h24l-11 -78h-24q-62 0 -74 -87l-23 -163q-20 -131 -163 -140l-3 82q33 4 47 17.5t19 48.5l24 167q14 89 77 108l1 9q-58 21 -46 110l23 166q5 34 -5 47.5t-43 19.5l27 82q143 -11 123 -141l-23 -162q-12 -86 50 -86z" />
    <glyph glyph-name="asciitilde" unicode="~" horiz-adv-x="477" 
d="M355 323q37 0 73 19l10 6l24 -61q-46 -39 -115 -39q-29 0 -70 16q-39 16 -72 16q-42 0 -71 -18l-11 -7l-24 60q47 40 115 40q30 0 69 -16t72 -16z" />
    <glyph glyph-name="uni00A0" unicode="&#xa0;" horiz-adv-x="214" 
 />
    <glyph glyph-name="exclamdown" unicode="&#xa1;" horiz-adv-x="211" 
d="M172 238l-34 -415h-116l83 415h67zM94 361q0 29 21.5 49.5t50.5 20.5q24 0 39 -15.5t15 -39.5q0 -29 -21 -50t-50 -21q-24 0 -39.5 16t-15.5 40z" />
    <glyph glyph-name="cent" unicode="&#xa2;" horiz-adv-x="428" 
d="M183 0l23 86q-60 16 -94 64.5t-34 116.5q0 107 70 177q71 72 176 74l22 82h51l-23 -86q47 -7 73 -26l8 -6l-37 -73q-24 18 -66 26l-75 -276h10q50 0 87 21l13 7l15 -72q-49 -37 -133 -37h-14l-21 -78h-51zM178 277q0 -76 52 -104l71 261q-53 -9 -88 -52.5t-35 -104.5z
" />
    <glyph glyph-name="sterling" unicode="&#xa3;" horiz-adv-x="505" 
d="M467 88l-12 -88h-396l12 88h1v1q3 1 8 3.5t18 12t22.5 21t17.5 31.5t8 43q0 20 -4 56h-63l10 72h44q-1 9 -1 50q0 98 68 163q68 66 182 66q60 0 101 -19t55 -38l6 -6l-70 -78q-13 18 -45 32q-25 13 -57 13q-63 0 -97.5 -37t-34.5 -101q0 -11 2 -45h196l-10 -72h-178
q2 -34 2 -44q0 -69 -46 -124h261z" />
    <glyph glyph-name="yen" unicode="&#xa5;" horiz-adv-x="592" 
d="M369 365l167 235h110l-219 -301h124l-10 -72h-165l-9 -68h164l-10 -71h-164l-12 -88h-99l12 88h-162l10 71h162l9 68h-161l10 72h121l-134 301h111l101 -235l15 -49z" />
    <glyph glyph-name="brokenbar" unicode="&#xa6;" horiz-adv-x="218" 
d="M200 330h-90l48 343h90zM132 -153h-90l48 343h90z" />
    <glyph glyph-name="section" unicode="&#xa7;" horiz-adv-x="528" 
d="M42 46l57 72q1 -1 8 -5.5t12 -7.5q16 -9 58 -22q43 -13 92 -13q121 0 121 56q0 23 -22 35.5t-93 33.5q-77 23 -114.5 50t-37.5 68q0 50 46 77q-49 28 -49 79q0 65 62 104.5t174 39.5q132 0 190 -42l6 -5l-56 -75q-28 17 -69 29q-41 11 -83 11q-109 0 -109 -53
q0 -21 20.5 -34t72.5 -28q174 -46 174 -125q0 -49 -45 -83q47 -32 47 -78q0 -63 -64 -103.5t-179 -40.5q-63 0 -118.5 14t-79.5 31zM284 348q-29 7 -40 11q-22 -7 -22 -34q0 -33 96 -62l62 -19q21 14 21 36q0 20 -27 35t-90 33z" />
    <glyph glyph-name="dieresis" unicode="&#xa8;" horiz-adv-x="455" 
d="M185 704q0 24 19.5 42.5t43.5 18.5q19 0 33 -14.5t14 -34.5q0 -24 -19.5 -42.5t-43.5 -18.5q-19 0 -33 14.5t-14 34.5zM356 704q0 24 19 42.5t43 18.5q20 0 33 -14t13 -35q0 -24 -19 -42.5t-43 -18.5q-19 0 -32.5 14.5t-13.5 34.5z" />
    <glyph glyph-name="copyright" unicode="&#xa9;" horiz-adv-x="681" 
d="M426 605q121 0 190 -75t69 -189q0 -144 -97 -245q-98 -102 -248 -102q-120 0 -191 75q-70 76 -70 190q0 141 98 244q97 102 249 102zM420 563q-131 0 -213 -88q-83 -89 -83 -212q0 -98 59 -163q58 -64 163 -64q128 0 212 88t84 211q0 99 -60 163q-59 65 -162 65zM511 424
l-41 -51q-21 25 -64 25q-47 0 -78 -32t-31 -80q0 -37 22 -60t60 -23q37 0 62 18l8 6l27 -50q-13 -13 -49 -27q-27 -10 -60 -10q-64 0 -101.5 38.5t-37.5 99.5q0 76 51 129q51 54 133 54q30 0 55.5 -9t34.5 -19z" />
    <glyph glyph-name="ordfeminine" unicode="&#xaa;" horiz-adv-x="395" 
d="M85 359q0 54 42.5 86t112.5 32q65 0 90 -25l1 10q6 48 -10 69t-62 21q-49 0 -96 -22l-13 58q63 26 128 26q77 0 106.5 -38.5t19.5 -115.5l-26 -186h-54l-6 36h-5q-35 -44 -118 -44q-49 0 -79.5 26t-30.5 67zM158 368q0 -23 18 -36.5t50 -13.5q38 0 65.5 19t27.5 44
q0 23 -20.5 35.5t-54.5 12.5q-41 0 -63.5 -16.5t-22.5 -44.5z" />
    <glyph glyph-name="guillemotleft" unicode="&#xab;" horiz-adv-x="476" 
d="M64 197l3 22l151 189h83l-2 -10l-146 -186l-1 -6l94 -188l-2 -10h-83zM261 197l3 22l151 189h82l-2 -10l-146 -186l-1 -6l94 -188l-2 -10h-82z" />
    <glyph glyph-name="logicalnot" unicode="&#xac;" horiz-adv-x="552" 
d="M81 266l11 80h447l-48 -346h-82l37 266h-365z" />
    <glyph glyph-name="registered" unicode="&#xae;" horiz-adv-x="541" 
d="M553 411q0 -107 -74 -186q-73 -78 -188 -78q-91 0 -143 57q-52 58 -52 145q0 109 73 186q74 78 187 78q92 0 144 -58q53 -58 53 -144zM508 406q0 73 -43 118.5t-115 45.5q-90 0 -150 -62q-59 -62 -59 -154q0 -72 43 -118t113 -46q91 0 151 62q60 63 60 154zM252 485h94
q36 0 56.5 -17.5t20.5 -46.5q0 -49 -46 -71l32 -57l-2 -10h-48l-31 56h-51l-8 -56h-45zM339 442h-48l-8 -61h48q44 0 44 35q0 26 -36 26z" />
    <glyph glyph-name="overscore" unicode="&#xaf;" horiz-adv-x="526" 
d="M215 668l9 61h295l-9 -61h-295z" />
    <glyph glyph-name="degree" unicode="&#xb0;" horiz-adv-x="293" 
d="M241 672q45 0 72.5 -26.5t27.5 -68.5q0 -50 -38 -85t-92 -35q-45 0 -73 26t-28 68q0 51 37 85q37 36 94 36zM234 622q-29 0 -47.5 -18.5t-18.5 -46.5q0 -21 13 -34.5t37 -13.5q28 0 47 18.5t19 44.5q0 22 -13.5 36t-36.5 14z" />
    <glyph glyph-name="plusminus" unicode="&#xb1;" 
d="M329 178h-82l22 160h-164l11 80h164l24 166h82l-24 -166h160l-11 -80h-160zM479 112l-11 -81h-406l11 81h406z" />
    <glyph glyph-name="twosuperior" unicode="&#xb2;" horiz-adv-x="341" 
d="M98 342l8 54l148 115q39 31 39 62q0 41 -48 41q-33 0 -83 -35l-28 53q21 18 58 32q30 13 64 13q53 0 81 -25t28 -68q0 -62 -57 -106l-102 -78h141l-8 -58h-241z" />
    <glyph glyph-name="threesuperior" unicode="&#xb3;" horiz-adv-x="328" 
d="M133 609l9 59h227l-7 -44l-76 -84q68 -14 68 -80q0 -55 -40 -90.5t-110 -35.5q-69 0 -114 45l43 49q27 -33 77 -33q35 0 54 16t19 42q0 40 -52 40h-40l5 36l74 80h-137z" />
    <glyph glyph-name="acute" unicode="&#xb4;" horiz-adv-x="279" 
d="M308 629l-118 -132h-67l72 145z" />
    <glyph glyph-name="mu" unicode="&#xb5;" horiz-adv-x="510" 
d="M137 -128h-98l38 269q0 19 3 38l34 241h98l-33 -232q-7 -53 13.5 -84.5t66.5 -31.5q48 0 80 32q33 34 37 70l35 246h98l-59 -420h-64l-9 58h-4q-56 -68 -148 -68q-41 0 -71 13z" />
    <glyph glyph-name="paragraph" unicode="&#xb6;" horiz-adv-x="536" 
d="M358 -82l29 204h-60q-115 0 -182 55.5t-67 155.5q0 127 88 197q89 71 226 71h161l-96 -683h-99z" />
    <glyph glyph-name="middot" unicode="&#xb7;" horiz-adv-x="217" 
d="M96 352q0 28 21.5 49.5t49.5 21.5q24 0 39.5 -16.5t15.5 -40.5q0 -28 -21.5 -49t-50.5 -21q-23 0 -38.5 16t-15.5 40z" />
    <glyph glyph-name="cedilla" unicode="&#xb8;" horiz-adv-x="206" 
d="M64 -69l-14 20l33 52h48l-19 -34q25 0 40.5 -14.5t15.5 -40.5q0 -36 -26 -59t-68 -23q-47 0 -69 22l-7 8l29 36q25 -20 50 -20q20 0 31.5 9t11.5 23q0 24 -33 24z" />
    <glyph glyph-name="onesuperior" unicode="&#xb9;" horiz-adv-x="215" 
d="M109 609l8 59h133l-46 -326h-67l38 267h-66z" />
    <glyph glyph-name="ordmasculine" unicode="&#xba;" horiz-adv-x="399" 
d="M287 613q63 0 102 -40t39 -108q0 -87 -55 -142q-55 -54 -135 -54q-65 0 -104 39.5t-39 106.5q0 88 55 143t137 55zM278 550q-49 0 -79.5 -36t-30.5 -92q0 -41 21 -65.5t58 -24.5q48 0 78.5 35.5t30.5 91.5q0 42 -21 66.5t-57 24.5z" />
    <glyph glyph-name="guillemotright" unicode="&#xbb;" horiz-adv-x="476" 
d="M275 219l-3 -22l-151 -189h-83l1 10l148 188l1 6l-95 186l1 10h83zM471 219l-3 -22l-151 -189h-83l1 10l148 188l1 6l-95 186l1 10h83z" />
    <glyph glyph-name="onequarter" unicode="&#xbc;" horiz-adv-x="637" 
d="M112 0h-81l555 600h81zM325 80l6 42l208 204h50l-27 -191h59l-8 -55h-59l-11 -80h-63l11 80h-166zM119 541l8 59h134l-45 -326h-67l37 267h-67zM441 160q-4 -5 -9.5 -10.5t-11 -10t-6.5 -5.5l-2 -2l39 3h48l10 73l4 25h-1z" />
    <glyph glyph-name="onehalf" unicode="&#xbd;" horiz-adv-x="695" 
d="M111 0h-80l554 600h82zM425 54l-8 -54h241l8 58h-141l102 78q57 44 57 106q0 41 -28 67t-80 26q-30 0 -60.5 -10.5t-47.5 -23.5l-14 -11l28 -53q47 35 82 35q49 0 49 -41q0 -31 -39 -62zM123 541l8 59h133l-45 -326h-67l37 267h-66z" />
    <glyph glyph-name="threequarters" unicode="&#xbe;" horiz-adv-x="706" 
d="M187 0h-81l555 600h82zM398 77l6 42l207 204h51l-27 -191h55l-8 -55h-55l-11 -77h-65l11 77h-164zM121 541l9 59h227l-7 -44l-76 -84q67 -13 67 -80q0 -55 -40.5 -90.5t-108.5 -35.5q-69 0 -114 45l43 49q27 -33 77 -33q34 0 53.5 16t19.5 42q0 40 -52 40h-40l5 36l74 80
h-137zM513 158q-19 -22 -30 -29l40 3h47l10 73l4 26h-1z" />
    <glyph glyph-name="questiondown" unicode="&#xbf;" horiz-adv-x="424" 
d="M345 -52l37 -80q-24 -21 -81 -40q-45 -16 -94 -16q-84 0 -133 38t-49 104q0 45 18 80t44.5 57t53.5 40.5t50 40.5t29 47l6 24h76l-5 -36q-4 -30 -22.5 -56.5t-41 -45t-44 -36.5t-36.5 -41t-15 -50q0 -32 24 -51t66 -19q58 0 102 30zM341 379q0 -28 -21 -48.5t-49 -20.5
q-23 0 -38 15.5t-15 38.5q0 28 21 48.5t49 20.5q23 0 38 -15.5t15 -38.5z" />
    <glyph glyph-name="Agrave" unicode="&#xc0;" horiz-adv-x="596" 
d="M432 600l162 -600h-104l-32 123h-286l-65 -123h-105l330 600h100zM366 485l-149 -278h220zM351 635l-72 134l115 17l24 -151h-67z" />
    <glyph glyph-name="Aacute" unicode="&#xc1;" horiz-adv-x="596" 
d="M432 600l162 -600h-104l-32 123h-286l-65 -123h-105l330 600h100zM366 485l-149 -278h220zM540 767l-118 -132h-67l72 145z" />
    <glyph glyph-name="Acircumflex" unicode="&#xc2;" horiz-adv-x="596" 
d="M432 600l162 -600h-104l-32 123h-286l-65 -123h-105l330 600h100zM366 485l-149 -278h220zM440 655l-40 62l-59 -62h-76l104 121h77l71 -121h-77z" />
    <glyph glyph-name="Atilde" unicode="&#xc3;" horiz-adv-x="596" 
d="M432 600l162 -600h-104l-32 123h-286l-65 -123h-105l330 600h100zM366 485l-149 -278h220zM468 657q-33 0 -73 25t-57 25q-29 0 -44 -36l-6 -16l-68 7l9 30q29 90 108 90q33 0 73 -25t57 -25q33 0 45 37l5 15l68 -6l-9 -30q-27 -91 -108 -91z" />
    <glyph glyph-name="Adieresis" unicode="&#xc4;" horiz-adv-x="596" 
d="M432 600l162 -600h-104l-32 123h-286l-65 -123h-105l330 600h100zM366 485l-149 -278h220zM257 704q0 24 19.5 42.5t43.5 18.5q19 0 33 -14.5t14 -34.5q0 -24 -19.5 -42.5t-43.5 -18.5q-19 0 -33 14.5t-14 34.5zM428 704q0 24 19 42.5t43 18.5q20 0 33 -14t13 -35
q0 -24 -19 -42.5t-43 -18.5q-19 0 -32.5 14.5t-13.5 34.5z" />
    <glyph glyph-name="Aring" unicode="&#xc5;" horiz-adv-x="596" 
d="M432 600l162 -600h-104l-32 123h-286l-65 -123h-105l330 600h100zM366 485l-149 -278h220zM288 693q0 44 33.5 71.5t88.5 27.5q44 0 70 -21.5t26 -55.5q0 -44 -33.5 -72t-87.5 -28q-45 0 -71 21t-26 57zM448 709q0 34 -45 34q-58 0 -58 -44q0 -34 47 -34q56 0 56 44z" />
    <glyph glyph-name="AE" unicode="&#xc6;" horiz-adv-x="887" 
d="M-10 0l495 600h448l-12 -88h-335l-24 -168h278l-11 -84h-278l-25 -172h335l-12 -88h-434l18 126h-223l-101 -126h-119zM474 454l-195 -243h166l34 243h-5z" />
    <glyph glyph-name="Ccedilla" unicode="&#xc7;" horiz-adv-x="560" 
d="M284 -69l-14 20l24 38q-103 13 -162 88q-58 73 -58 180q0 149 100 252q101 104 251 104q118 0 185 -67l6 -8l-68 -77q-22 26 -59 42q-33 16 -75 16q-88 0 -154 -63t-79 -157q-14 -94 34 -156q50 -62 137 -62q37 0 75.5 13.5t58.5 29.5l17 14l46 -76l-24 -21
q-17 -12 -70 -33q-53 -20 -114 -22l-9 -17q25 0 40.5 -14.5t15.5 -40.5q0 -36 -26 -59t-68 -23q-47 0 -69 22l-7 8l29 36q25 -20 50 -20q20 0 31.5 9t11.5 23q0 24 -33 24z" />
    <glyph glyph-name="Egrave" unicode="&#xc8;" horiz-adv-x="540" 
d="M501 346l-12 -84h-279l-25 -174h328l-12 -88h-427l84 600h427l-12 -88h-328l-23 -166h279zM356 635l-72 134l115 17l24 -151h-67z" />
    <glyph glyph-name="Eacute" unicode="&#xc9;" horiz-adv-x="540" 
d="M531 767l-118 -132h-67l72 145zM501 346l-12 -84h-279l-25 -174h328l-12 -88h-427l84 600h427l-12 -88h-328l-23 -166h279z" />
    <glyph glyph-name="Ecircumflex" unicode="&#xca;" horiz-adv-x="540" 
d="M438 655l-40 62l-59 -62h-76l104 121h77l71 -121h-77zM501 346l-12 -84h-279l-25 -174h328l-12 -88h-427l84 600h427l-12 -88h-328l-23 -166h279z" />
    <glyph glyph-name="Edieresis" unicode="&#xcb;" horiz-adv-x="540" 
d="M254 704q0 24 19.5 42.5t43.5 18.5q19 0 33 -14.5t14 -34.5q0 -24 -19.5 -42.5t-43.5 -18.5q-19 0 -33 14.5t-14 34.5zM425 704q0 24 19 42.5t43 18.5q20 0 33 -14t13 -35q0 -24 -19 -42.5t-43 -18.5q-19 0 -32.5 14.5t-13.5 34.5zM501 346l-12 -84h-279l-25 -174h328
l-12 -88h-427l84 600h427l-12 -88h-328l-23 -166h279z" />
    <glyph glyph-name="Igrave" unicode="&#xcc;" horiz-adv-x="248" 
d="M257 600l-84 -600h-99l84 600h99zM176 635l-72 134l115 17l24 -151h-67z" />
    <glyph glyph-name="Iacute" unicode="&#xcd;" horiz-adv-x="248" 
d="M257 600l-84 -600h-99l84 600h99zM365 767l-118 -132h-67l72 145z" />
    <glyph glyph-name="Icircumflex" unicode="&#xce;" horiz-adv-x="248" 
d="M257 600l-84 -600h-99l84 600h99zM267 655l-40 62l-59 -62h-76l104 121h77l71 -121h-77z" />
    <glyph glyph-name="Idieresis" unicode="&#xcf;" horiz-adv-x="248" 
d="M257 600l-84 -600h-99l84 600h99zM84 704q0 24 19.5 42.5t43.5 18.5q19 0 33 -14.5t14 -34.5q0 -24 -19.5 -42.5t-43.5 -18.5q-19 0 -33 14.5t-14 34.5zM255 704q0 24 19 42.5t43 18.5q20 0 33 -14t13 -35q0 -24 -19 -42.5t-43 -18.5q-19 0 -32.5 14.5t-13.5 34.5z" />
    <glyph glyph-name="Eth" unicode="&#xd0;" horiz-adv-x="634" 
d="M57 259l13 89h53l35 252h212q124 0 198 -71q73 -70 73 -187q0 -150 -100 -246q-101 -96 -255 -96h-212l36 259h-53zM352 512h-107l-24 -164h156l-13 -89h-155l-24 -171h107q103 0 175 66q72 68 72 177q0 84 -51.5 132.5t-135.5 48.5z" />
    <glyph glyph-name="Ntilde" unicode="&#xd1;" horiz-adv-x="666" 
d="M676 600l-84 -600h-74l-285 426l-60 -426h-99l84 600h75l285 -424l59 424h99zM503 657q-33 0 -73 25t-57 25q-29 0 -44 -36l-6 -16l-68 7l9 30q28 90 108 90q32 0 72 -25t58 -25q33 0 45 37l5 15l68 -6l-9 -30q-27 -91 -108 -91z" />
    <glyph glyph-name="Ograve" unicode="&#xd2;" horiz-adv-x="675" 
d="M335 -14q-119 0 -190 77q-70 76 -70 194q0 148 100 251q101 105 248 105q118 0 189 -77t71 -195q0 -147 -100 -251q-101 -104 -248 -104zM348 82q98 0 166 72q67 71 67 176q0 82 -47 135t-125 53q-98 0 -165 -73q-66 -73 -66 -177q0 -82 46 -134t124 -52zM396 655
l-72 134l115 17l24 -151h-67z" />
    <glyph glyph-name="Oacute" unicode="&#xd3;" horiz-adv-x="675" 
d="M577 787l-118 -132h-67l72 145zM335 -14q-119 0 -190 77q-70 76 -70 194q0 148 100 251q101 105 248 105q118 0 189 -77t71 -195q0 -147 -100 -251q-101 -104 -248 -104zM348 82q98 0 166 72q67 71 67 176q0 82 -47 135t-125 53q-98 0 -165 -73q-66 -73 -66 -177
q0 -82 46 -134t124 -52z" />
    <glyph glyph-name="Ocircumflex" unicode="&#xd4;" horiz-adv-x="675" 
d="M480 655l-40 62l-59 -62h-76l104 121h77l71 -121h-77zM335 -14q-119 0 -190 77q-70 76 -70 194q0 148 100 251q101 105 248 105q118 0 189 -77t71 -195q0 -147 -100 -251q-101 -104 -248 -104zM348 82q98 0 166 72q67 71 67 176q0 82 -47 135t-125 53q-98 0 -165 -73
q-66 -73 -66 -177q0 -82 46 -134t124 -52z" />
    <glyph glyph-name="Otilde" unicode="&#xd5;" horiz-adv-x="675" 
d="M335 -14q-119 0 -190 77q-70 76 -70 194q0 148 100 251q101 105 248 105q118 0 189 -77t71 -195q0 -147 -100 -251q-101 -104 -248 -104zM348 82q98 0 166 72q67 71 67 176q0 82 -47 135t-125 53q-98 0 -165 -73q-66 -73 -66 -177q0 -82 46 -134t124 -52zM504 657
q-33 0 -73 25t-57 25q-29 0 -44 -36l-6 -16l-68 7l9 30q29 90 108 90q33 0 73 -25t57 -25q33 0 45 37l5 15l68 -6l-9 -30q-27 -91 -108 -91z" />
    <glyph glyph-name="Odieresis" unicode="&#xd6;" horiz-adv-x="675" 
d="M297 704q0 24 19.5 42.5t43.5 18.5q19 0 33 -14.5t14 -34.5q0 -24 -19.5 -42.5t-43.5 -18.5q-19 0 -33 14.5t-14 34.5zM468 704q0 24 19 42.5t43 18.5q20 0 33 -14t13 -35q0 -24 -19 -42.5t-43 -18.5q-19 0 -32.5 14.5t-13.5 34.5zM335 -14q-119 0 -190 77
q-70 76 -70 194q0 148 100 251q101 105 248 105q118 0 189 -77t71 -195q0 -147 -100 -251q-101 -104 -248 -104zM348 82q98 0 166 72q67 71 67 176q0 82 -47 135t-125 53q-98 0 -165 -73q-66 -73 -66 -177q0 -82 46 -134t124 -52z" />
    <glyph glyph-name="multiply" unicode="&#xd7;" horiz-adv-x="502" 
d="M120 95l-48 56l166 149l-124 150l64 56l123 -149l166 149l48 -56l-167 -150l125 -149l-64 -56l-124 149z" />
    <glyph glyph-name="Oslash" unicode="&#xd8;" horiz-adv-x="685" 
d="M340 -14q-110 0 -180 67l-58 -53h-105l120 108q-37 65 -37 149q0 148 100 251q101 105 248 105q108 0 178 -66l59 53h104l-120 -108q39 -68 39 -151q0 -147 -100 -251q-101 -104 -248 -104zM353 82q99 0 166 72q67 71 67 176q0 50 -18 89l-329 -295q45 -42 114 -42z
M183 268q0 -51 16 -86l329 295q-47 41 -114 41q-98 0 -165 -73q-66 -73 -66 -177z" />
    <glyph glyph-name="Ugrave" unicode="&#xd9;" horiz-adv-x="634" 
d="M315 -14q-114 0 -173 74q-57 75 -40 194l49 346h99l-49 -346q-11 -78 22.5 -125.5t105.5 -47.5q73 0 118.5 46.5t57.5 126.5l49 346h99l-49 -346q-17 -119 -95 -194q-77 -74 -194 -74zM371 635l-72 134l115 17l24 -151h-67z" />
    <glyph glyph-name="Uacute" unicode="&#xda;" horiz-adv-x="634" 
d="M554 767l-118 -132h-67l72 145zM315 -14q-114 0 -173 74q-57 75 -40 194l49 346h99l-49 -346q-11 -78 22.5 -125.5t105.5 -47.5q73 0 118.5 46.5t57.5 126.5l49 346h99l-49 -346q-17 -119 -95 -194q-77 -74 -194 -74z" />
    <glyph glyph-name="Ucircumflex" unicode="&#xdb;" horiz-adv-x="634" 
d="M457 634l-40 62l-59 -62h-76l104 121h77l71 -121h-77zM315 -14q-114 0 -173 74q-57 75 -40 194l49 346h99l-49 -346q-11 -78 22.5 -125.5t105.5 -47.5q73 0 118.5 46.5t57.5 126.5l49 346h99l-49 -346q-17 -119 -95 -194q-77 -74 -194 -74z" />
    <glyph glyph-name="Udieresis" unicode="&#xdc;" horiz-adv-x="634" 
d="M278 704q0 24 19.5 42.5t43.5 18.5q19 0 33 -14.5t14 -34.5q0 -24 -19.5 -42.5t-43.5 -18.5q-19 0 -33 14.5t-14 34.5zM449 704q0 24 19 42.5t43 18.5q20 0 33 -14t13 -35q0 -24 -19 -42.5t-43 -18.5q-19 0 -32.5 14.5t-13.5 34.5zM315 -14q-114 0 -173 74
q-57 75 -40 194l49 346h99l-49 -346q-11 -78 22.5 -125.5t105.5 -47.5q73 0 118.5 46.5t57.5 126.5l49 346h99l-49 -346q-17 -119 -95 -194q-77 -74 -194 -74z" />
    <glyph glyph-name="Yacute" unicode="&#xdd;" horiz-adv-x="537" 
d="M342 365l167 235h110l-269 -370l-32 -230h-99l32 230l-165 370h111l101 -235l15 -49zM513 800l-118 -132h-67l72 145z" />
    <glyph glyph-name="Thorn" unicode="&#xde;" horiz-adv-x="581" 
d="M257 600l-13 -94h152q98 0 152 -45.5t54 -128.5q0 -114 -75 -178q-73 -63 -195 -63h-146l-13 -91h-99l84 600h99zM499 316q0 48 -32.5 74.5t-89.5 26.5h-145l-34 -239h145q73 0 114.5 35t41.5 103z" />
    <glyph glyph-name="germandbls" unicode="&#xdf;" horiz-adv-x="498" 
d="M274 263l10 70q112 18 112 115q0 33 -19.5 53t-54.5 20q-40 0 -69 -28.5t-36 -75.5l-59 -417h-98l57 406q14 96 71 147.5t151 51.5q73 0 117 -41t44 -107q0 -50 -23.5 -88.5t-65.5 -57.5q37 -12 57 -45.5t20 -78.5q0 -87 -59 -141t-156 -54q-45 0 -61 6l-6 2l16 68
q21 -3 46 -3q56 0 90 31t34 81q0 41 -25 63.5t-70 22.5h-23z" />
    <glyph glyph-name="agrave" unicode="&#xe0;" 
d="M428 358h4l23 62h66l-59 -420h-66l-6 62h-4q-11 -21 -54 -47q-44 -25 -102 -25q-75 0 -121.5 51t-46.5 135q0 111 67 182q67 72 161 72q58 0 91.5 -21.5t42.5 -42.5zM402 233q0 53 -28 84.5t-74 31.5q-58 0 -98 -46t-40 -115q0 -52 27 -84.5t72 -32.5q59 0 99 45
q42 45 42 117zM291 497l-72 134l116 17l23 -151h-67z" />
    <glyph glyph-name="aacute" unicode="&#xe1;" 
d="M428 358h4l23 62h66l-59 -420h-66l-6 62h-4q-11 -21 -54 -47q-44 -25 -102 -25q-75 0 -121.5 51t-46.5 135q0 111 67 182q67 72 161 72q58 0 91.5 -21.5t42.5 -42.5zM402 233q0 53 -28 84.5t-74 31.5q-58 0 -98 -46t-40 -115q0 -52 27 -84.5t72 -32.5q59 0 99 45
q42 45 42 117zM467 629l-118 -132h-67l72 145z" />
    <glyph glyph-name="acircumflex" unicode="&#xe2;" 
d="M428 358h4l23 62h66l-59 -420h-66l-6 62h-4q-11 -21 -54 -47q-44 -25 -102 -25q-75 0 -121.5 51t-46.5 135q0 111 67 182q67 72 161 72q58 0 91.5 -21.5t42.5 -42.5zM402 233q0 53 -28 84.5t-74 31.5q-58 0 -98 -46t-40 -115q0 -52 27 -84.5t72 -32.5q59 0 99 45
q42 45 42 117zM374 517l-40 62l-59 -62h-76l104 121h77l71 -121h-77z" />
    <glyph glyph-name="atilde" unicode="&#xe3;" 
d="M428 358h4l23 62h66l-59 -420h-66l-6 62h-4q-11 -21 -54 -47q-44 -25 -102 -25q-75 0 -121.5 51t-46.5 135q0 111 67 182q67 72 161 72q58 0 91.5 -21.5t42.5 -42.5zM402 233q0 53 -28 84.5t-74 31.5q-58 0 -98 -46t-40 -115q0 -52 27 -84.5t72 -32.5q59 0 99 45
q42 45 42 117zM395 499q-33 0 -73 25t-57 25q-29 0 -44 -36l-6 -16l-68 7l9 30q28 90 108 90q32 0 72 -25t58 -25q33 0 45 37l5 15l68 -6l-9 -30q-27 -91 -108 -91z" />
    <glyph glyph-name="adieresis" unicode="&#xe4;" 
d="M428 358h4l23 62h66l-59 -420h-66l-6 62h-4q-11 -21 -54 -47q-44 -25 -102 -25q-75 0 -121.5 51t-46.5 135q0 111 67 182q67 72 161 72q58 0 91.5 -21.5t42.5 -42.5zM402 233q0 53 -28 84.5t-74 31.5q-58 0 -98 -46t-40 -115q0 -52 27 -84.5t72 -32.5q59 0 99 45
q42 45 42 117zM185 545q0 24 19.5 42.5t43.5 18.5q19 0 33 -14.5t14 -34.5q0 -24 -19.5 -42.5t-43.5 -18.5q-19 0 -33 14.5t-14 34.5zM356 545q0 24 19 42.5t43 18.5q20 0 33 -14t13 -35q0 -24 -19 -42.5t-43 -18.5q-19 0 -32.5 14.5t-13.5 34.5z" />
    <glyph glyph-name="aring" unicode="&#xe5;" 
d="M428 358h4l23 62h66l-59 -420h-66l-6 62h-4q-11 -21 -54 -47q-44 -25 -102 -25q-75 0 -121.5 51t-46.5 135q0 111 67 182q67 72 161 72q58 0 91.5 -21.5t42.5 -42.5zM402 233q0 53 -28 84.5t-74 31.5q-58 0 -98 -46t-40 -115q0 -52 27 -84.5t72 -32.5q59 0 99 45
q42 45 42 117zM222 573q0 44 33.5 71.5t88.5 27.5q44 0 70 -21.5t26 -55.5q0 -44 -33.5 -72t-87.5 -28q-45 0 -71 21t-26 57zM382 589q0 34 -45 34q-58 0 -58 -44q0 -34 47 -34q56 0 56 44z" />
    <glyph glyph-name="ae" unicode="&#xe6;" horiz-adv-x="740" 
d="M669 106l26 -66q-19 -19 -72 -37q-44 -14 -89 -14q-110 0 -159 69q-66 -68 -179 -68q-75 0 -114.5 31t-39.5 84q0 71 53.5 112t155.5 41q54 0 99 -14l2 15q6 45 -19 68t-77 23q-59 0 -102 -26l-16 -8l-24 76q71 38 164 38q108 0 146 -62q68 62 156 62q78 0 121 -47
t43 -128q0 -35 -6 -53l-1 -7h-298q-4 -62 25.5 -94t86.5 -32q61 0 105 28zM215 60q50 0 83.5 28t39.5 71l3 22q-36 16 -90 16q-112 0 -112 -79q0 -58 76 -58zM452 260h198q1 94 -83 94q-85 0 -115 -94z" />
    <glyph glyph-name="ccedilla" unicode="&#xe7;" horiz-adv-x="409" 
d="M197 -73l-14 20l29 46q-70 11 -110.5 61t-40.5 125q0 106 71 179q72 72 179 72q37 0 69.5 -8.5t44.5 -19.5l11 -9l-38 -72q-34 28 -92 28q-61 0 -103 -45t-42 -118q0 -54 29 -84.5t77 -30.5q50 0 87 21l13 7l16 -71q-41 -35 -124 -38l-14 -25q25 0 40.5 -14.5t15.5 -40.5
q0 -36 -26 -59t-68 -23q-47 0 -69 22l-7 8l29 36q25 -20 50 -20q20 0 31.5 9t11.5 23q0 24 -33 24z" />
    <glyph glyph-name="egrave" unicode="&#xe8;" horiz-adv-x="459" 
d="M388 105l26 -67q-18 -18 -72 -36q-44 -14 -89 -14q-89 0 -140.5 51.5t-51.5 137.5q0 106 68 180q67 73 170 73q78 0 121 -47t43 -128q0 -38 -5 -53l-2 -7h-298q-4 -62 25.5 -94.5t86.5 -32.5q30 0 60 8.5t44 19.5zM171 260h197q3 94 -82 94t-115 -94zM267 497l-72 134
l115 17l24 -151h-67z" />
    <glyph glyph-name="eacute" unicode="&#xe9;" horiz-adv-x="459" 
d="M459 629l-118 -132h-67l72 145zM388 105l26 -67q-18 -18 -72 -36q-44 -14 -89 -14q-89 0 -140.5 51.5t-51.5 137.5q0 106 68 180q67 73 170 73q78 0 121 -47t43 -128q0 -38 -5 -53l-2 -7h-298q-4 -62 25.5 -94.5t86.5 -32.5q30 0 60 8.5t44 19.5zM171 260h197
q3 94 -82 94t-115 -94z" />
    <glyph glyph-name="ecircumflex" unicode="&#xea;" horiz-adv-x="459" 
d="M356 496l-40 62l-59 -62h-76l104 121h77l71 -121h-77zM388 105l26 -67q-18 -18 -72 -36q-44 -14 -89 -14q-89 0 -140.5 51.5t-51.5 137.5q0 106 68 180q67 73 170 73q78 0 121 -47t43 -128q0 -38 -5 -53l-2 -7h-298q-4 -62 25.5 -94.5t86.5 -32.5q30 0 60 8.5t44 19.5z
M171 260h197q3 94 -82 94t-115 -94z" />
    <glyph glyph-name="edieresis" unicode="&#xeb;" horiz-adv-x="459" 
d="M173 533q0 24 19.5 42.5t43.5 18.5q19 0 33 -14.5t14 -34.5q0 -24 -19.5 -42.5t-43.5 -18.5q-19 0 -33 14.5t-14 34.5zM344 533q0 24 19 42.5t43 18.5q20 0 33 -14t13 -35q0 -24 -19 -42.5t-43 -18.5q-19 0 -32.5 14.5t-13.5 34.5zM388 105l26 -67q-18 -18 -72 -36
q-44 -14 -89 -14q-89 0 -140.5 51.5t-51.5 137.5q0 106 68 180q67 73 170 73q78 0 121 -47t43 -128q0 -38 -5 -53l-2 -7h-298q-4 -62 25.5 -94.5t86.5 -32.5q30 0 60 8.5t44 19.5zM171 260h197q3 94 -82 94t-115 -94z" />
    <glyph glyph-name="igrave" unicode="&#xec;" horiz-adv-x="221" 
d="M61 0l59 420h98l-59 -420h-98zM142 497l-72 134l115 17l24 -151h-67z" />
    <glyph glyph-name="iacute" unicode="&#xed;" horiz-adv-x="221" 
d="M332 629l-118 -132h-67l72 145zM61 0l59 420h98l-59 -420h-98z" />
    <glyph glyph-name="icircumflex" unicode="&#xee;" horiz-adv-x="221" 
d="M234 517l-40 62l-59 -62h-76l104 121h77l71 -121h-77zM61 0l59 420h98l-59 -420h-98z" />
    <glyph glyph-name="idieresis" unicode="&#xef;" horiz-adv-x="221" 
d="M54 565q0 24 19.5 42.5t43.5 18.5q19 0 33 -14.5t14 -34.5q0 -24 -19.5 -42.5t-43.5 -18.5q-19 0 -33 14.5t-14 34.5zM225 565q0 24 19 42.5t43 18.5q20 0 33 -14t13 -35q0 -24 -19 -42.5t-43 -18.5q-19 0 -32.5 14.5t-13.5 34.5zM61 0l59 420h98l-59 -420h-98z" />
    <glyph glyph-name="eth" unicode="&#xf0;" horiz-adv-x="504" 
d="M250 -10q-89 0 -139.5 49.5t-50.5 136.5q0 112 70 182q71 71 182 71q20 0 37 -3l1 4q-11 15 -23 40l-28 59l-120 -68l-25 56l119 67l-62 133l2 11h94l46 -99l127 71l24 -55l-125 -71l91 -192q33 -72 33 -134q0 -118 -70 -188t-183 -70zM402 234q0 54 -27 84t-75 30
q-60 0 -100 -45q-40 -43 -40 -117q0 -53 28 -84.5t73 -31.5q59 0 100 45q41 46 41 119z" />
    <glyph glyph-name="ntilde" unicode="&#xf1;" horiz-adv-x="513" 
d="M60 0l59 420h64l4 -60h6q55 70 150 70q81 0 121 -51t28 -138l-34 -241h-98l33 232q7 51 -15.5 82.5t-68.5 31.5q-44 0 -75.5 -28.5t-40.5 -66.5l-35 -251h-98zM405 519q-33 0 -73 25t-57 25q-29 0 -44 -36l-6 -16l-68 7l9 30q28 90 108 90q32 0 72 -25t58 -25q33 0 45 37
l5 15l68 -6l-9 -30q-27 -91 -108 -91z" />
    <glyph glyph-name="ograve" unicode="&#xf2;" horiz-adv-x="499" 
d="M497 238q0 -108 -74 -179q-73 -69 -175 -69q-82 0 -135 51q-52 52 -52 137q0 110 74 181t175 71q81 0 134 -53t53 -139zM259 68q58 0 100 45q42 47 42 119q0 54 -28.5 87t-73.5 33q-58 0 -100 -47t-42 -119q0 -54 28 -86t74 -32zM284 497l-72 134l115 17l24 -151h-67z
" />
    <glyph glyph-name="oacute" unicode="&#xf3;" horiz-adv-x="499" 
d="M469 629l-118 -132h-67l72 145zM497 238q0 -108 -74 -179q-73 -69 -175 -69q-82 0 -135 51q-52 52 -52 137q0 110 74 181t175 71q81 0 134 -53t53 -139zM259 68q58 0 100 45q42 47 42 119q0 54 -28.5 87t-73.5 33q-58 0 -100 -47t-42 -119q0 -54 28 -86t74 -32z" />
    <glyph glyph-name="ocircumflex" unicode="&#xf4;" horiz-adv-x="499" 
d="M373 517l-40 62l-59 -62h-76l104 121h77l71 -121h-77zM497 238q0 -108 -74 -179q-73 -69 -175 -69q-82 0 -135 51q-52 52 -52 137q0 110 74 181t175 71q81 0 134 -53t53 -139zM259 68q58 0 100 45q42 47 42 119q0 54 -28.5 87t-73.5 33q-58 0 -100 -47t-42 -119
q0 -54 28 -86t74 -32z" />
    <glyph glyph-name="otilde" unicode="&#xf5;" horiz-adv-x="499" 
d="M497 238q0 -108 -74 -179q-73 -69 -175 -69q-82 0 -135 51q-52 52 -52 137q0 110 74 181t175 71q81 0 134 -53t53 -139zM259 68q58 0 100 45q42 47 42 119q0 54 -28.5 87t-73.5 33q-58 0 -100 -47t-42 -119q0 -54 28 -86t74 -32zM394 520q-33 0 -73 25t-57 25
q-29 0 -44 -36l-6 -16l-68 7l9 30q29 90 108 90q33 0 73 -25t57 -25q33 0 45 37l5 15l68 -6l-9 -30q-27 -91 -108 -91z" />
    <glyph glyph-name="odieresis" unicode="&#xf6;" horiz-adv-x="499" 
d="M191 566q0 24 19.5 42.5t43.5 18.5q19 0 33 -14.5t14 -34.5q0 -24 -19.5 -42.5t-43.5 -18.5q-19 0 -33 14.5t-14 34.5zM362 566q0 24 19 42.5t43 18.5q20 0 33 -14t13 -35q0 -24 -19 -42.5t-43 -18.5q-19 0 -32.5 14.5t-13.5 34.5zM497 238q0 -108 -74 -179
q-73 -69 -175 -69q-82 0 -135 51q-52 52 -52 137q0 110 74 181t175 71q81 0 134 -53t53 -139zM259 68q58 0 100 45q42 47 42 119q0 54 -28.5 87t-73.5 33q-58 0 -100 -47t-42 -119q0 -54 28 -86t74 -32z" />
    <glyph glyph-name="divide" unicode="&#xf7;" horiz-adv-x="487" 
d="M198 127q0 29 22 50t51 21q24 0 39.5 -16t15.5 -40q0 -29 -21.5 -49.5t-51.5 -20.5q-24 0 -39.5 16t-15.5 39zM244 455q0 29 22 50t51 21q24 0 39.5 -16t15.5 -40q0 -29 -21.5 -49.5t-51.5 -20.5q-24 0 -39.5 16t-15.5 39zM85 256l11 80h389l-11 -80h-389z" />
    <glyph glyph-name="oslash" unicode="&#xf8;" horiz-adv-x="500" 
d="M497 238q0 -108 -74 -179q-73 -69 -175 -69q-74 0 -125 42l-35 -32h-70l74 67q-31 46 -31 111q0 110 74 181t175 71q71 0 121 -41l34 31h70l-72 -66q34 -49 34 -116zM259 68q58 0 100 45q42 47 42 119q0 30 -11 57l-201 -194q29 -27 70 -27zM157 186q0 -30 9 -53l200 193
q-29 26 -67 26q-58 0 -100 -47t-42 -119z" />
    <glyph glyph-name="ugrave" unicode="&#xf9;" horiz-adv-x="510" 
d="M376 174l35 246h98l-59 -420h-64l-9 58h-4q-56 -68 -148 -68q-80 0 -118.5 51t-26.5 138l34 241h98l-33 -232q-7 -53 13.5 -84.5t66.5 -31.5q48 0 80 32q33 34 37 70zM286 497l-72 134l115 17l24 -151h-67z" />
    <glyph glyph-name="uacute" unicode="&#xfa;" horiz-adv-x="510" 
d="M470 629l-118 -132h-67l72 145zM376 174l35 246h98l-59 -420h-64l-9 58h-4q-56 -68 -148 -68q-80 0 -118.5 51t-26.5 138l34 241h98l-33 -232q-7 -53 13.5 -84.5t66.5 -31.5q48 0 80 32q33 34 37 70z" />
    <glyph glyph-name="ucircumflex" unicode="&#xfb;" horiz-adv-x="510" 
d="M368 496l-40 62l-59 -62h-76l104 121h77l71 -121h-77zM376 174l35 246h98l-59 -420h-64l-9 58h-4q-56 -68 -148 -68q-80 0 -118.5 51t-26.5 138l34 241h98l-33 -232q-7 -53 13.5 -84.5t66.5 -31.5q48 0 80 32q33 34 37 70z" />
    <glyph glyph-name="udieresis" unicode="&#xfc;" horiz-adv-x="510" 
d="M185 546q0 24 19.5 42.5t43.5 18.5q19 0 33 -14.5t14 -34.5q0 -24 -19.5 -42.5t-43.5 -18.5q-19 0 -33 14.5t-14 34.5zM356 546q0 24 19 42.5t43 18.5q20 0 33 -14t13 -35q0 -24 -19 -42.5t-43 -18.5q-19 0 -32.5 14.5t-13.5 34.5zM376 174l35 246h98l-59 -420h-64l-9 58
h-4q-56 -68 -148 -68q-80 0 -118.5 51t-26.5 138l34 241h98l-33 -232q-7 -53 13.5 -84.5t66.5 -31.5q48 0 80 32q33 34 37 70z" />
    <glyph glyph-name="yacute" unicode="&#xfd;" horiz-adv-x="508" 
d="M377 176l34 244h96l-56 -402q-12 -91 -72.5 -144t-157.5 -53q-42 0 -80.5 13t-56.5 28q-15 13 -23 24l58 62q14 -22 52 -38q28 -11 58 -11q108 0 125 116l4 26q-51 -51 -130 -51q-83 0 -122.5 50.5t-27.5 138.5l34 241h98l-33 -232q-7 -53 13.5 -84.5t65.5 -31.5
q49 0 82 30.5t39 73.5zM472 629l-118 -132h-67l72 145z" />
    <glyph glyph-name="thorn" unicode="&#xfe;" 
d="M172 71h-4l-32 -227h-98l106 756h98l-35 -248h4q0 1 5 8.5t16.5 19.5t27.5 23t41 19t53 8q75 0 120 -50.5t45 -134.5q0 -110 -67 -183q-66 -72 -159 -72q-37 0 -65 14.5t-38 28.5t-16 29zM181 187q0 -53 28 -84.5t73 -31.5q57 0 97 46t40 115q0 51 -27 84t-71 33
q-59 0 -99 -45q-41 -46 -41 -117z" />
    <glyph glyph-name="ydieresis" unicode="&#xff;" horiz-adv-x="508" 
d="M377 176l34 244h96l-56 -402q-12 -91 -72.5 -144t-157.5 -53q-42 0 -80.5 13t-56.5 28q-15 13 -23 24l58 62q14 -22 52 -38q28 -11 58 -11q108 0 125 116l4 26q-51 -51 -130 -51q-83 0 -122.5 50.5t-27.5 138.5l34 241h98l-33 -232q-7 -53 13.5 -84.5t65.5 -31.5
q49 0 82 30.5t39 73.5zM189 546q0 24 19.5 42.5t43.5 18.5q19 0 33 -14.5t14 -34.5q0 -24 -19.5 -42.5t-43.5 -18.5q-19 0 -33 14.5t-14 34.5zM360 546q0 24 19 42.5t43 18.5q20 0 33 -14t13 -35q0 -24 -19 -42.5t-43 -18.5q-19 0 -32.5 14.5t-13.5 34.5z" />
    <glyph glyph-name="dotlessi" unicode="&#x131;" horiz-adv-x="221" 
d="M61 0l59 420h98l-59 -420h-98z" />
    <glyph glyph-name="Lslash" unicode="&#x141;" horiz-adv-x="498" 
d="M46 216l13 94l67 38l36 252h99l-27 -192l147 83l-14 -94l-146 -83l-32 -226h295l-12 -88h-394l35 254z" />
    <glyph glyph-name="lslash" unicode="&#x142;" horiz-adv-x="239" 
d="M50 219l8 58l54 31l42 297h98l-34 -237l63 36l-8 -58l-63 -36l-43 -310h-98l35 250z" />
    <glyph glyph-name="OE" unicode="&#x152;" horiz-adv-x="1022" 
d="M335 -14q-119 0 -190 77q-70 76 -70 194q0 148 100 251q101 105 248 105q133 0 205 -96l12 83h427l-12 -88h-328l-23 -166h279l-12 -84h-279l-25 -174h328l-12 -88h-427l10 75q-98 -89 -231 -89zM348 82q98 0 166 72q67 71 67 176q0 82 -47 135t-125 53q-98 0 -165 -73
q-66 -73 -66 -177q0 -82 46 -134t124 -52z" />
    <glyph glyph-name="oe" unicode="&#x153;" horiz-adv-x="812" 
d="M743 105l26 -67q-18 -18 -72 -36q-44 -14 -89 -14q-119 0 -169 89q-73 -87 -191 -87q-82 0 -135 51q-52 52 -52 137q0 110 74 181t175 71q110 0 161 -88q70 88 183 88q78 0 121 -47t43 -128q0 -35 -6 -53l-1 -7h-298q-4 -62 25.5 -94.5t86.5 -32.5q64 0 105 28zM259 68
q58 0 100 45q42 47 42 119q0 54 -28.5 87t-73.5 33q-58 0 -100 -47t-42 -119q0 -54 28 -86t74 -32zM526 260h197q3 94 -82 94t-115 -94z" />
    <glyph glyph-name="Scaron" unicode="&#x160;" horiz-adv-x="518" 
d="M316 777l40 -62l59 62h76l-94 -109h-92l-66 109h77zM44 61l65 75q27 -24 75 -42q41 -16 86 -16q64 0 96.5 25t32.5 68q0 30 -27 50.5t-96 41.5q-93 30 -134 66t-41 93q0 85 65 138q67 53 181 53q61 0 112 -14.5t71 -31.5l17 -15l-65 -81q-18 18 -66 36q-39 14 -82 14
q-57 0 -90 -22t-33 -61q0 -26 27 -44.5t94 -38.5q95 -30 137 -68t42 -97q0 -88 -66 -146q-65 -58 -185 -58q-80 0 -134 22.5t-74 45.5z" />
    <glyph glyph-name="scaron" unicode="&#x161;" horiz-adv-x="418" 
d="M245 606l40 -62l59 62h76l-94 -109h-92l-66 109h77zM39 39l44 67q56 -41 134 -41q85 0 85 52q0 11 -8 20t-25.5 17t-31.5 13t-41.5 12.5t-39.5 11.5q-35 13 -57 39t-22 61q0 61 49 100t133 39q101 0 153 -27l17 -9l-44 -76q-49 36 -127 36q-82 0 -82 -49q0 -22 35 -36
q33 -12 78 -22q42 -7 78 -37q36 -28 36 -76q0 -65 -50 -104.5t-144 -39.5q-111 0 -165 44z" />
    <glyph glyph-name="Ydieresis" unicode="&#x178;" horiz-adv-x="537" 
d="M342 365l167 235h110l-269 -370l-32 -230h-99l32 230l-165 370h111l101 -235l15 -49zM230 704q0 24 19.5 42.5t43.5 18.5q19 0 33 -14.5t14 -34.5q0 -24 -19.5 -42.5t-43.5 -18.5q-19 0 -33 14.5t-14 34.5zM401 704q0 24 19 42.5t43 18.5q20 0 33 -14t13 -35
q0 -24 -19 -42.5t-43 -18.5q-19 0 -32.5 14.5t-13.5 34.5z" />
    <glyph glyph-name="Zcaron" unicode="&#x17d;" horiz-adv-x="534" 
d="M322 777l40 -62l59 62h76l-94 -109h-92l-66 109h77zM30 0l10 71l401 441h-328l12 88h460l-10 -73l-395 -439h328l-12 -88h-466z" />
    <glyph glyph-name="zcaron" unicode="&#x17e;" horiz-adv-x="425" 
d="M246 606l40 -62l59 62h76l-94 -109h-92l-66 109h77zM390 0h-356l7 53l270 288h-227l11 79h354l-7 -48l-264 -293h223z" />
    <glyph glyph-name="florin" unicode="&#x192;" horiz-adv-x="530" 
d="M189 131l73 212h-77l11 77h93l8 24q55 163 212 163q57 0 83 -14l10 -5l-52 -82q-20 13 -56 13q-74 0 -98 -74l-8 -25h136l-11 -77h-152l-79 -230q-21 -60 -55.5 -88.5t-94.5 -28.5q-50 0 -79 18l-10 7l42 76q20 -14 46 -14q23 0 36 11t22 37z" />
    <glyph glyph-name="circumflex" unicode="&#x2c6;" horiz-adv-x="371" 
d="M333 655l-40 62l-59 -62h-76l104 121h77l71 -121h-77z" />
    <glyph glyph-name="caron" unicode="&#x2c7;" horiz-adv-x="325" 
d="M220 777l40 -62l59 62h76l-94 -109h-92l-66 109h77z" />
    <glyph glyph-name="breve" unicode="&#x2d8;" horiz-adv-x="396" 
d="M381 813h78q-9 -61 -56 -105q-46 -43 -111 -43q-66 0 -100 43t-25 105h77q-5 -34 11 -55.5t47 -21.5q30 0 52.5 22t26.5 55z" />
    <glyph glyph-name="dotaccent" unicode="&#x2d9;" horiz-adv-x="331" 
d="M243 550q-25 0 -41.5 16.5t-16.5 42.5q0 31 23 53.5t54 22.5q26 0 42.5 -17t16.5 -43q0 -31 -23 -53t-55 -22z" />
    <glyph glyph-name="ring" unicode="&#x2da;" horiz-adv-x="288" 
d="M134 693q0 44 33.5 71.5t88.5 27.5q44 0 70 -21.5t26 -55.5q0 -44 -33.5 -72t-87.5 -28q-45 0 -71 21t-26 57zM294 709q0 34 -45 34q-58 0 -58 -44q0 -34 47 -34q56 0 56 44z" />
    <glyph glyph-name="ogonek" unicode="&#x2db;" horiz-adv-x="195" 
d="M138 -73l23 -36q-27 -30 -74 -30q-32 0 -51 17.5t-19 45.5q0 70 107 106l6 -30q-54 -27 -54 -60q0 -27 28 -27q14 0 34 14z" />
    <glyph glyph-name="tilde" unicode="&#x2dc;" horiz-adv-x="485" 
d="M405 657q-33 0 -73 25t-57 25q-29 0 -44 -36l-6 -16l-68 7l9 30q28 90 108 90q32 0 72 -25t58 -25q33 0 45 37l5 15l68 -6l-9 -30q-27 -91 -108 -91z" />
    <glyph glyph-name="hungarumlaut" unicode="&#x2dd;" horiz-adv-x="395" 
d="M425 577l-102 -158h-65l61 158h106zM262 577l-102 -158h-65l61 158h106z" />
    <glyph glyph-name="pi" unicode="&#x3c0;" horiz-adv-x="527" 
d="M86 420h473l-11 -79h-66l-48 -341h-98l48 341h-145l-48 -341h-98l48 341h-66z" />
    <glyph glyph-name="endash" unicode="&#x2013;" horiz-adv-x="458" 
d="M94 247l11 81h335l-11 -81h-335z" />
    <glyph glyph-name="emdash" unicode="&#x2014;" horiz-adv-x="711" 
d="M94 247l11 81h588l-11 -81h-588z" />
    <glyph glyph-name="quoteleft" unicode="&#x2018;" horiz-adv-x="220" 
d="M101 428l1 7q9 64 50 108.5t103 56.5l8 -53q-68 -15 -81 -61q18 -4 28.5 -18.5t10.5 -32.5q0 -28 -20.5 -47.5t-48.5 -19.5q-25 0 -40 17.5t-11 42.5z" />
    <glyph glyph-name="quoteright" unicode="&#x2019;" horiz-adv-x="222" 
d="M264 540l-1 -7q-9 -64 -50 -108.5t-103 -56.5l-8 53q66 13 81 61q-18 3 -29 17t-11 34q0 27 21 47t48 20q25 0 40.5 -17.5t11.5 -42.5z" />
    <glyph glyph-name="quotesinglbase" unicode="&#x201a;" horiz-adv-x="213" 
d="M172 49l-1 -7q-9 -64 -50 -108.5t-103 -56.5l-8 53q67 16 82 61q-19 4 -30 18t-11 33q0 27 21 47t48 20q25 0 40.5 -17.5t11.5 -42.5z" />
    <glyph glyph-name="quotedblleft" unicode="&#x201c;" horiz-adv-x="386" 
d="M267 428l1 7q9 64 50 108.5t103 56.5l8 -53q-68 -15 -81 -61q18 -4 28.5 -18.5t10.5 -32.5q0 -28 -20.5 -47.5t-48.5 -19.5q-25 0 -40 17.5t-11 42.5zM101 428l1 7q9 64 50 108.5t103 56.5l8 -53q-68 -15 -81 -61q18 -4 28.5 -18.5t10.5 -32.5q0 -28 -20.5 -47.5
t-48.5 -19.5q-25 0 -40 17.5t-11 42.5z" />
    <glyph glyph-name="quotedblright" unicode="&#x201d;" horiz-adv-x="382" 
d="M424 540l-1 -7q-9 -64 -50 -108.5t-103 -56.5l-8 53q66 13 81 61q-40 6 -40 50q0 28 20.5 48t48.5 20q25 0 40.5 -17.5t11.5 -42.5zM263 540l-1 -7q-9 -64 -49.5 -108.5t-102.5 -56.5l-9 53q67 13 82 61q-41 7 -41 51q0 27 21 47t48 20q25 0 40.5 -17.5t11.5 -42.5z" />
    <glyph glyph-name="quotedblbase" unicode="&#x201e;" horiz-adv-x="450" 
d="M172 49l-1 -7q-9 -64 -50 -108.5t-103 -56.5l-8 53q67 16 82 61q-19 4 -30 18t-11 33q0 27 21 47t48 20q25 0 40.5 -17.5t11.5 -42.5zM410 49l-1 -7q-9 -64 -50 -108.5t-103 -56.5l-8 53q67 16 82 61q-19 4 -30 18t-11 33q0 27 21 47t48 20q25 0 40.5 -17.5t11.5 -42.5z
" />
    <glyph glyph-name="dagger" unicode="&#x2020;" horiz-adv-x="410" 
d="M91 420l11 80h133l19 135h82l-19 -135h131l-11 -80h-131l-44 -256h-66l28 256h-133z" />
    <glyph glyph-name="daggerdbl" unicode="&#x2021;" horiz-adv-x="441" 
d="M113 453l11 80h133l19 135h82l-19 -135h131l-11 -80h-131l-24 -119l-10 -119h131l-11 -80h-131l-19 -135h-82l19 135h-133l11 80h133l23 119l11 119h-133z" />
    <glyph glyph-name="bullet" unicode="&#x2022;" horiz-adv-x="319" 
d="M202 308q32 0 53.5 -21.5t21.5 -53.5q0 -37 -30 -66q-29 -28 -69 -28q-32 0 -53 21t-21 53q0 39 29.5 67t68.5 28z" />
    <glyph glyph-name="ellipsis" unicode="&#x2026;" horiz-adv-x="732" 
d="M55 50q0 31 23.5 54t55.5 23q25 0 42 -17.5t17 -43.5q0 -30 -23.5 -52.5t-54.5 -22.5q-26 0 -43 16.5t-17 42.5zM305 50q0 30 24 53.5t54 23.5q26 0 43 -17.5t17 -43.5q0 -30 -24 -52.5t-55 -22.5q-26 0 -42.5 16.5t-16.5 42.5zM554 50q0 31 24 54t55 23q26 0 42.5 -17.5
t16.5 -43.5q0 -30 -23.5 -52.5t-54.5 -22.5q-26 0 -43 16.5t-17 42.5z" />
    <glyph glyph-name="perthousand" unicode="&#x2030;" horiz-adv-x="967" 
d="M257 613q53 0 83.5 -35.5t30.5 -91.5q0 -68 -44 -121q-43 -51 -112 -51q-53 0 -83.5 36t-30.5 92q0 70 43 120q43 51 113 51zM224 379q33 0 53 29t20 75q0 66 -49 66q-33 0 -53 -29t-20 -75q0 -66 49 -66zM605 600h92l-561 -600h-91zM533 291q53 0 84 -36.5t31 -91.5
q0 -67 -45 -120q-43 -51 -112 -51q-53 0 -83.5 36t-30.5 92q0 68 44 120q43 51 112 51zM524 227q-33 0 -53 -29t-20 -75q0 -30 13 -48t36 -18q33 0 53 29t20 75q0 66 -49 66zM836 227q-33 0 -53.5 -29t-20.5 -75q0 -30 13 -48t37 -18q33 0 52.5 29t19.5 75q0 66 -48 66z
M845 291q52 0 83 -36.5t31 -91.5q0 -67 -45 -120q-44 -51 -111 -51q-53 0 -84 36.5t-31 91.5q0 68 44 120q44 51 113 51z" />
    <glyph glyph-name="guilsinglleft" unicode="&#x2039;" horiz-adv-x="280" 
d="M64 197l3 22l151 189h83l-2 -10l-146 -186l-1 -6l94 -188l-2 -10h-83z" />
    <glyph glyph-name="guilsinglright" unicode="&#x203a;" horiz-adv-x="280" 
d="M275 219l-3 -22l-151 -189h-83l1 10l148 188l1 6l-95 186l1 10h83z" />
    <glyph glyph-name="fraction" unicode="&#x2044;" horiz-adv-x="576" 
d="M70 0h-81l610 661h81z" />
    <glyph glyph-name="Euro" unicode="&#x20ac;" horiz-adv-x="578" 
d="M439 267l-10 -71h-181q18 -115 134 -115q30 0 61.5 12.5t48.5 27.5l14 13l43 -74l-21 -20q-14 -12 -61 -32q-48 -20 -99 -20q-99 0 -157 56t-68 152h-78l10 71h67l10 72h-67l10 71h79q38 94 111 148.5t171 54.5q60 0 100.5 -21.5t54.5 -43.5l5 -7l-63 -76q-13 20 -49 38
q-28 15 -61 15q-113 0 -164 -108h180l-10 -71h-194q-9 -36 -10 -72h194z" />
    <glyph glyph-name="trademark" unicode="&#x2122;" horiz-adv-x="718" 
d="M442 281h-65l45 319h46l90 -144l134 144h44l-45 -319h-65l28 196l-95 -104h-24l-65 104zM367 600l-8 -57h-93l-37 -262h-64l37 262h-93l8 57h250z" />
    <glyph glyph-name="Omega" unicode="&#x2126;" horiz-adv-x="716" 
d="M49 0l12 86h122q-43 29 -67 81t-24 113q0 133 98 233q97 100 254 100q128 0 198 -75q71 -76 71 -187q0 -82 -41 -152.5t-115 -112.5h122l-12 -86h-274l13 89q82 7 144 80t62 163q0 81 -49 133q-50 53 -132 53q-103 0 -172 -71t-69 -170q0 -75 40 -128q40 -54 106 -60
l-13 -89h-274z" />
    <glyph glyph-name="partialdiff" unicode="&#x2202;" horiz-adv-x="505" 
d="M250 -10q-89 0 -139.5 49.5t-50.5 136.5q0 112 70 182q71 71 182 71q20 0 37 -3l1 4q-11 15 -23 40l-116 247l2 11h94l163 -346q33 -72 33 -134q0 -118 -70 -188t-183 -70zM402 234q0 54 -27 84t-75 30q-60 0 -100 -45q-40 -43 -40 -117q0 -53 28 -84.5t73 -31.5
q59 0 100 45q41 46 41 119z" />
    <glyph glyph-name="increment" unicode="&#x2206;" horiz-adv-x="640" 
d="M26 0l3 18l366 582h18l205 -582l-3 -18h-589zM485 86l-103 338h-5l-199 -338h307z" />
    <glyph glyph-name="product" unicode="&#x220f;" horiz-adv-x="626" 
d="M647 600l-84 -600h-99l72 514h-302l-72 -514h-99l84 600h500z" />
    <glyph glyph-name="summation" unicode="&#x2211;" horiz-adv-x="449" 
d="M129 600h360l-12 -86h-236l122 -191l-6 -49l-172 -188h232l-12 -86h-360l12 86l196 206l2 13l-138 209z" />
    <glyph glyph-name="minus" unicode="&#x2212;" horiz-adv-x="549" 
d="M94 258l11 81h434l-11 -81h-434z" />
    <glyph glyph-name="radical" unicode="&#x221a;" horiz-adv-x="614" 
d="M709 600l-508 -792h-21l-148 399h110l50 -150q19 -66 19 -78h10q2 10 17 36l24 42l336 543h111z" />
    <glyph glyph-name="infinity" unicode="&#x221e;" horiz-adv-x="757" 
d="M226 115q-65 0 -105 42.5t-40 106.5q0 75 56 134q55 58 137 58q51 0 86 -28t68 -87q91 115 183 115q63 0 103 -42q42 -41 42 -107q0 -76 -56 -135q-56 -57 -137 -57q-92 0 -154 113q-48 -57 -90 -85t-93 -28zM595 379q-60 0 -131 -92q25 -49 49 -72t56 -23q45 0 74.5 31
t29.5 74q0 36 -22 59t-56 23zM243 192q59 0 130 92q-25 49 -48.5 72t-55.5 23q-45 0 -74.5 -32t-29.5 -75q0 -35 21 -57.5t57 -22.5z" />
    <glyph glyph-name="integral" unicode="&#x222b;" horiz-adv-x="318" 
d="M113 21l71 503q17 125 131 125q43 0 69 -17l8 -5l-36 -73q-17 9 -34 9q-34 0 -41 -49l-71 -503q-18 -125 -131 -125q-42 0 -69 16l-8 6l37 73q17 -9 33 -9q34 0 41 49z" />
    <glyph glyph-name="approxequal" unicode="&#x2248;" horiz-adv-x="498" 
d="M350 163q-35 0 -77 21q-41 22 -58 22q-29 0 -42 -31l-6 -14l-84 6l12 38q30 84 118 84q36 0 76 -22q42 -21 59 -21q29 0 42 31l6 14l84 -6l-12 -39q-30 -83 -118 -83zM378 357q-35 0 -77 21q-41 22 -58 22q-30 0 -43 -31l-6 -14l-84 6l13 39q29 83 117 83q36 0 76 -22
q42 -21 59 -21q30 0 43 31l6 14l83 -6l-12 -38q-12 -39 -42.5 -61.5t-74.5 -22.5z" />
    <glyph glyph-name="notequal" unicode="&#x2260;" horiz-adv-x="474" 
d="M101 349l12 80h195l59 114l64 -24l-46 -90h98l-12 -80h-127l-66 -129h175l-11 -80h-204l-57 -111l-64 24l44 87h-89l11 80h118l66 129h-166z" />
    <glyph glyph-name="lessequal" unicode="&#x2264;" horiz-adv-x="388" 
d="M345 258l-65 -59l-166 183l2 19l219 188l49 -60l-162 -138zM363 145l-11 -81h-292l11 81h292z" />
    <glyph glyph-name="greaterequal" unicode="&#x2265;" horiz-adv-x="388" 
d="M165 199l-50 59l161 133l-124 138l67 60l165 -188l-2 -19zM55 64l11 81h291l-11 -81h-291z" />
    <glyph glyph-name="lozenge" unicode="&#x25ca;" horiz-adv-x="470" 
d="M353 600l128 -300l-212 -300h-68l-127 300l211 300h68zM184 299l63 -166h14l109 166l-63 168h-14z" />
    <glyph glyph-name="NULL" horiz-adv-x="0" 
 />
    <glyph glyph-name="CR.001" horiz-adv-x="333" 
 />
    </font>
</defs>
</svg>
