<?xml version="1.0" standalone="no"?>
<!DOCTYPE svg PUBLIC "-//W3C//DTD SVG 1.1//EN" "http://www.w3.org/Graphics/SVG/1.1/DTD/svg11.dtd" >
<svg xmlns="http://www.w3.org/2000/svg" xmlns:xlink="http://www.w3.org/1999/xlink" version="1.1">
<metadata>
Created by FontForge 20170731 at Mon Oct 20 12:30:50 2014
 By Aleksey,,,
Copyright (c) 2014 by Daniel Hernandez &#38; Miguel Hernandez. All rights reserved.
</metadata>
<defs>
<font id="Texta-HeavyItalic" horiz-adv-x="520" >
  <font-face 
    font-family="Texta Heavy"
    font-weight="900"
    font-style="italic"
    font-stretch="normal"
    units-per-em="1000"
    panose-1="2 0 0 0 0 0 0 0 0 0"
    ascent="800"
    descent="-200"
    x-height="420"
    cap-height="600"
    bbox="-24 -192 1066 818"
    underline-thickness="50"
    underline-position="-200"
    slope="-8"
    unicode-range="U+000D-25CA"
  />
<missing-glyph horiz-adv-x="564" 
 />
    <glyph glyph-name=".notdef" horiz-adv-x="564" 
 />
    <glyph glyph-name=".null" horiz-adv-x="0" 
 />
    <glyph glyph-name="nonmarkingreturn" horiz-adv-x="333" 
 />
    <glyph glyph-name="NUL" horiz-adv-x="0" 
 />
    <glyph glyph-name="NUL" horiz-adv-x="0" 
 />
    <glyph glyph-name="CR" unicode="&#xd;" horiz-adv-x="105" 
 />
    <glyph glyph-name="space" unicode=" " horiz-adv-x="206" 
 />
    <glyph glyph-name="exclam" unicode="!" horiz-adv-x="233" 
d="M270 600l-86 -401h-80l26 401h140zM52 56q0 33 25.5 58t58.5 25q27 0 45.5 -19t18.5 -46q0 -33 -25.5 -57.5t-59.5 -24.5q-27 0 -45 18.5t-18 45.5z" />
    <glyph glyph-name="quotedbl" unicode="&#x22;" horiz-adv-x="340" 
d="M258 684l-76 -209h-71l43 209h104zM413 684l-77 -209h-71l44 209h104z" />
    <glyph glyph-name="numbersign" unicode="#" horiz-adv-x="653" 
d="M618 583l-54 -149h120l-26 -70h-120l-52 -145h120l-26 -70h-119l-54 -149h-75l54 149h-142l-54 -149h-75l54 149h-118l25 70h118l52 145h-117l25 70h118l54 149h75l-54 -149h142l54 149h75zM321 364l-52 -145h142l52 145h-142z" />
    <glyph glyph-name="dollar" unicode="$" horiz-adv-x="530" 
d="M42 64l79 92q54 -45 131 -56l21 153q-90 28 -131.5 65.5t-41.5 95.5q0 84 59 137.5t165 60.5l15 104h59l-15 -104q56 -4 100.5 -18t61.5 -30l15 -13l-78 -99q-42 38 -115 48l-19 -138q93 -30 135 -68t42 -97q0 -84 -60 -144q-61 -59 -170 -65l-13 -95h-59l13 95
q-113 9 -187 69zM383 174q0 35 -53 59l-19 -133q72 12 72 74zM239 436q0 -33 52 -55l17 119q-69 -10 -69 -64z" />
    <glyph glyph-name="percent" unicode="%" horiz-adv-x="671" 
d="M258 613q55 0 86.5 -35.5t31.5 -91.5q0 -68 -45 -119t-115 -51q-54 0 -85.5 36.5t-31.5 92.5q0 69 45 118q45 50 114 50zM248 543q-65 0 -65 -97q0 -59 43 -59q32 0 49 25.5t17 71.5q0 59 -44 59zM541 289q55 0 86.5 -36.5t31.5 -92.5q0 -68 -46 -118q-45 -50 -114 -50
q-54 0 -86 36.5t-32 91.5q0 68 45 118q47 51 115 51zM531 219q-31 0 -48.5 -26t-17.5 -71q0 -59 44 -59q65 0 65 97q0 59 -43 59zM606 600h101l-561 -600h-102z" />
    <glyph glyph-name="ampersand" unicode="&#x26;" horiz-adv-x="637" 
d="M521 315l111 -26q-32 -97 -96 -171l105 -118h-167l-32 38q-83 -48 -167 -48q-103 0 -157.5 41t-54.5 113q0 63 35 105t106 77l-9 11q-39 47 -39 106q0 71 57 120q59 50 150 50q76 0 120.5 -36t44.5 -96q0 -63 -37 -105t-112 -78l87 -99q39 56 55 116zM291 93q45 0 86 23
l-108 131q-71 -38 -71 -87q0 -30 25.5 -48.5t67.5 -18.5zM275 444q0 -27 35 -68l3 -4q51 23 72.5 42t21.5 47q0 24 -15 38.5t-42 14.5q-35 0 -55 -19.5t-20 -50.5z" />
    <glyph glyph-name="quotesingle" unicode="'" horiz-adv-x="186" 
d="M258 684l-76 -209h-71l43 209h104z" />
    <glyph glyph-name="parenleft" unicode="(" horiz-adv-x="288" 
d="M196 287q-29 -211 68 -342l-89 -82q-139 171 -104 424q10 74 36 145q24 68 48 110q23 42 60 86q36 45 47 54q12 10 32 30l66 -82q-66 -69 -101 -138q-47 -93 -63 -205z" />
    <glyph glyph-name="parenright" unicode=")" horiz-adv-x="288" 
d="M178 363q0 160 -74 267l90 82q109 -146 109 -344q0 -299 -222 -499l-7 -6l-66 82l4 4q166 162 166 414z" />
    <glyph glyph-name="asterisk" unicode="*" horiz-adv-x="386" 
d="M132 443l99 91l-118 20l37 77l101 -57v123h80l-37 -124l120 58l14 -77l-124 -20l74 -91l-72 -47l-42 110l-73 -110z" />
    <glyph glyph-name="plus" unicode="+" horiz-adv-x="503" 
d="M373 515l-24 -172h168l-14 -98h-168l-23 -164h-99l23 164h-167l14 98h167l24 172h99z" />
    <glyph glyph-name="comma" unicode="," horiz-adv-x="221" 
d="M188 59l-1 -6q-10 -67 -53.5 -115.5t-108.5 -60.5l-9 63q62 14 76 52q-20 5 -32.5 21t-12.5 38q0 32 24 55t57 23q29 0 46.5 -20.5t13.5 -49.5z" />
    <glyph glyph-name="hyphen" unicode="-" horiz-adv-x="380" 
d="M75 180l14 98h280l-14 -98h-280z" />
    <glyph glyph-name="period" unicode="." horiz-adv-x="218" 
d="M108 -10q-27 0 -44 17.5t-17 43.5q0 32 24 55t57 23q27 0 43.5 -17.5t16.5 -44.5q0 -32 -23.5 -54.5t-56.5 -22.5z" />
    <glyph glyph-name="slash" unicode="/" horiz-adv-x="609" 
d="M125 -112h-121l575 895h119z" />
    <glyph glyph-name="zero" unicode="0" horiz-adv-x="620" 
d="M308 -13q-112 0 -171 74t-59 189q0 148 86 255q87 108 232 108q113 0 172 -74t59 -188q0 -207 -146 -312q-73 -52 -173 -52zM325 103q83 0 129 67q47 68 47 170q0 73 -31.5 115t-89.5 42q-81 0 -129 -68q-48 -67 -48 -168q0 -73 31.5 -115.5t90.5 -42.5z" />
    <glyph glyph-name="one" unicode="1" horiz-adv-x="327" 
d="M84 494l15 106h248l-84 -600h-121l69 494h-127z" />
    <glyph glyph-name="two" unicode="2" horiz-adv-x="517" 
d="M43 0l12 87l265 226q36 31 49 52.5t13 53.5q0 34 -23 55t-62 21q-25 0 -56.5 -11t-46.5 -22q-14 -8 -39 -27l-50 97l28 22q20 14 76 36q60 23 118 23q94 0 147.5 -46.5t53.5 -120.5q0 -54 -20.5 -96.5t-71.5 -85.5l-186 -158h239l-15 -106h-431z" />
    <glyph glyph-name="three" unicode="3" horiz-adv-x="514" 
d="M271 272h-78l8 72l160 150h-245l17 106h407l-12 -91l-160 -150q64 -7 99 -46.5t35 -103.5q0 -91 -71 -156q-70 -64 -197 -64q-118 0 -187 73l-6 9l75 88q16 -20 60 -43q33 -16 71 -16q58 0 90.5 26.5t32.5 69.5q0 76 -99 76z" />
    <glyph glyph-name="four" unicode="4" horiz-adv-x="572" 
d="M39 130l13 89l370 381h111l-51 -365h94l-15 -105h-94l-18 -130h-121l18 130h-307zM202 239v-4h159l27 195l-163 -170z" />
    <glyph glyph-name="five" unicode="5" horiz-adv-x="506" 
d="M506 494h-253l-19 -119q26 3 57 3q106 0 158.5 -41.5t52.5 -118.5q0 -99 -69 -164q-70 -65 -199 -65q-71 0 -119 24.5t-67 48.5l-7 9l75 88q16 -20 60 -43q33 -16 71 -16q58 0 90.5 26.5t32.5 72.5q0 78 -124 78q-76 0 -128 -18l-4 -2l-12 9l56 334h363z" />
    <glyph glyph-name="six" unicode="6" horiz-adv-x="552" 
d="M227 345l-2 -13q54 48 133 48q87 0 138 -43t51 -118q0 -99 -76 -165q-77 -65 -183 -65q-98 0 -155 60t-57 177q0 170 84 276t221 106q55 0 102.5 -18t64.5 -38l16 -19l-80 -96q-16 17 -18 17l-10 8q-6 5 -22 16q-24 15 -68 15q-117 0 -139 -148zM208 191h-1
q1 -44 25.5 -68.5t67.5 -24.5q50 0 83 30t33 75q0 36 -23.5 58t-64.5 22q-44 0 -77.5 -26t-42.5 -66z" />
    <glyph glyph-name="seven" unicode="7" horiz-adv-x="471" 
d="M96 494l15 106h430l-12 -86l-328 -514h-139l321 494h-287z" />
    <glyph glyph-name="eight" unicode="8" horiz-adv-x="543" 
d="M271 -13q-96 0 -151.5 46t-55.5 120q0 105 99 161q-46 39 -46 106q0 82 64 137q65 56 178 56q91 0 141 -41.5t50 -110.5q0 -91 -81 -147q60 -40 60 -119q0 -86 -71 -148q-70 -60 -187 -60zM400 189q0 34 -24.5 56t-65.5 22q-50 0 -83 -28.5t-33 -68.5q0 -34 25 -56
t66 -22q50 0 82.5 27.5t32.5 69.5zM322 354q44 0 73 24t29 60q0 30 -22 49.5t-58 19.5q-44 0 -73.5 -24.5t-29.5 -60.5q0 -30 22.5 -49t58.5 -19z" />
    <glyph glyph-name="nine" unicode="9" horiz-adv-x="551" 
d="M273 102q115 0 136 149l2 13q-59 -48 -133 -48q-87 0 -137.5 43t-50.5 118q0 101 75 165q77 66 183 66q98 0 155 -60.5t57 -177.5q0 -169 -83 -276t-220 -107q-120 0 -177 67l-5 8l79 96l8 -8l16 -15l10 -8q1 0 22 -13q29 -12 63 -12zM427 405q-1 45 -25 69t-67 24
q-50 0 -82.5 -30t-32.5 -75q0 -36 23.5 -58t64.5 -22q45 0 78 26t41 66z" />
    <glyph glyph-name="colon" unicode=":" horiz-adv-x="236" 
d="M69 45q-3 22 11.5 42t38.5 27q23 6 42 -5.5t22 -34.5t-11.5 -43t-37.5 -26q-24 -7 -43 5t-22 35zM161 412q23 6 42 -6t22 -34q3 -23 -12 -43.5t-38 -26.5q-24 -7 -42.5 5t-21.5 35t11.5 43.5t38.5 26.5z" />
    <glyph glyph-name="semicolon" unicode=";" horiz-adv-x="244" 
d="M201 59l-1 -6q-10 -67 -53 -115.5t-108 -60.5l-10 63q62 14 76 52q-20 4 -32 20t-12 38q0 32 24 55.5t56 23.5q29 0 46.5 -20.5t13.5 -49.5zM163 288q-27 0 -43.5 17t-16.5 44q0 31 23.5 54.5t55.5 23.5q27 0 44 -17.5t17 -44.5q0 -32 -23.5 -54.5t-56.5 -22.5z" />
    <glyph glyph-name="less" unicode="&#x3c;" horiz-adv-x="369" 
d="M71 255l13 89l295 166l-18 -130l-184 -81l161 -83l-19 -129z" />
    <glyph glyph-name="equal" unicode="=" horiz-adv-x="453" 
d="M103 339l13 98h344l-13 -98h-344zM76 149l14 97h344l-14 -97h-344z" />
    <glyph glyph-name="greater" unicode="&#x3e;" horiz-adv-x="369" 
d="M382 344l-12 -89l-296 -168l18 129l184 83l-161 81l18 130z" />
    <glyph glyph-name="question" unicode="?" horiz-adv-x="443" 
d="M152 458l-47 97q6 6 21 16q10 8 61 26q48 17 99 17q85 0 136.5 -39.5t51.5 -106.5q0 -45 -17 -79.5t-42.5 -55.5t-52 -38.5t-48.5 -37t-28 -41.5l-6 -22h-95l5 33q5 33 27.5 63t50.5 48q65 45 65 98q0 27 -20 43t-56 16q-47 0 -91 -28zM144 55q0 32 24 55t57 23
q27 0 44 -17.5t17 -44.5q0 -32 -24 -55.5t-57 -23.5q-27 0 -44 18t-17 45z" />
    <glyph glyph-name="at" unicode="@" horiz-adv-x="996" 
d="M745 51q-106 0 -127 88h-5q-67 -82 -174 -82q-69 0 -111 45.5t-42 119.5q0 116 79 195q80 80 181 80q98 0 117 -79l24 69h101l-60 -232q-10 -39 -10 -59q0 -33 18 -51t51 -18q60 0 106 64q47 65 47 165q0 62 -21 120t-61 106t-106 77t-147 29q-95 0 -184.5 -37.5
t-154.5 -101.5q-64 -64 -101 -147.5t-37 -171.5q0 -153 101 -259q102 -106 256 -106q54 0 110 14q53 13 82 29l27 14l17 -51q-5 -3 -30 -17q-23 -12 -84 -28q-65 -17 -130 -17q-124 0 -218 58q-93 56 -143 150q-48 95 -48 205q0 101 41.5 196.5t113.5 168.5q73 73 176 115.5
t214 42.5q175 0 285 -110t110 -270q0 -131 -74 -223q-73 -91 -189 -91zM492 171q52 0 91 44q39 43 39 97q0 34 -19 53.5t-55 19.5q-51 0 -90 -40q-38 -41 -38 -99q0 -35 19 -55t53 -20z" />
    <glyph glyph-name="A" unicode="A" horiz-adv-x="597" 
d="M446 600l154 -600h-129l-27 116h-259l-59 -116h-129l322 600h127zM363 466l-128 -252h187z" />
    <glyph glyph-name="B" unicode="B" horiz-adv-x="601" 
d="M590 194q0 -91 -65.5 -142.5t-178.5 -51.5h-278l84 600h271q91 0 139 -36.5t48 -103.5q0 -102 -96 -148l-1 -6q37 -12 57 -41.5t20 -70.5zM382 256h-157l-21 -150h158q42 0 70.5 23.5t28.5 59.5q0 29 -22 48t-57 19zM480 431q0 30 -19.5 46.5t-54.5 16.5h-148l-20 -144
h146q41 0 68.5 23t27.5 58z" />
    <glyph glyph-name="C" unicode="C" horiz-adv-x="556" 
d="M493 154l57 -93q-11 -11 -35 -26q-13 -9 -43 -23q-62 -26 -135 -26q-124 0 -195 77t-71 195q0 148 100 251q101 104 254 104q72 0 120 -22t65 -45l7 -7l-83 -93q-51 51 -125 51q-80 0 -139 -56q-58 -55 -70 -141q-12 -87 31 -142q44 -56 123 -56q35 0 70.5 12.5
t53.5 26.5z" />
    <glyph glyph-name="D" unicode="D" horiz-adv-x="635" 
d="M647 341q0 -147 -101 -245q-101 -96 -257 -96h-221l84 600h221q126 0 200 -72q74 -71 74 -187zM350 494h-92l-54 -388h92q95 0 159 61q66 61 66 162q0 77 -47 121t-124 44z" />
    <glyph glyph-name="E" unicode="E" horiz-adv-x="537" 
d="M501 353l-14 -98h-262l-21 -149h311l-15 -106h-432l84 600h432l-15 -106h-311l-19 -141h262z" />
    <glyph glyph-name="F" unicode="F" horiz-adv-x="535" 
d="M500 352l-13 -98h-262l-36 -254h-121l84 600h434l-15 -106h-313l-20 -142h262z" />
    <glyph glyph-name="G" unicode="G" horiz-adv-x="640" 
d="M357 249l14 99h293l-10 -73q-18 -131 -105 -210q-85 -78 -215 -78q-124 0 -194 76q-69 77 -69 194q0 147 99 251q100 105 254 105q86 0 138 -27q48 -25 60 -41l7 -8l-86 -93q-5 6 -15 15t-45.5 23.5t-76.5 14.5q-89 0 -149 -65q-60 -64 -60 -161q0 -75 42 -122t111 -47
q66 0 112 39t54 100l1 8h-160z" />
    <glyph glyph-name="H" unicode="H" horiz-adv-x="655" 
d="M671 600l-84 -601h-122l35 250h-276l-35 -250h-121l84 601h121l-35 -252h276l35 252h122z" />
    <glyph glyph-name="I" unicode="I" horiz-adv-x="258" 
d="M273 600l-84 -600h-121l84 600h121z" />
    <glyph glyph-name="J" unicode="J" horiz-adv-x="455" 
d="M18 41l72 97q33 -33 91 -33q54 0 83 29t39 94l53 372h121l-56 -396q-15 -99 -80.5 -158.5t-172.5 -59.5q-95 0 -150 55z" />
    <glyph glyph-name="K" unicode="K" horiz-adv-x="601" 
d="M273 600l-39 -278l295 278h146l-2 -13l-257 -242l178 -332l-2 -13h-127l-138 260l-117 -110l-21 -150h-121l84 600h121z" />
    <glyph glyph-name="L" unicode="L" horiz-adv-x="498" 
d="M471 0h-403l84 600h121l-69 -494h282z" />
    <glyph glyph-name="M" unicode="M" horiz-adv-x="728" 
d="M540 0l53 376l-180 -200h-48l-124 200l-53 -376h-120l84 600h96l163 -269l237 269h95l-83 -600h-120z" />
    <glyph glyph-name="N" unicode="N" horiz-adv-x="667" 
d="M683 600l-84 -600h-93l-262 389l-55 -389h-121l84 600h93l263 -385l54 385h121z" />
    <glyph glyph-name="O" unicode="O" horiz-adv-x="674" 
d="M334 -14q-119 0 -191 78t-72 195q0 145 102 249q102 105 250 105q121 0 192 -78q72 -77 72 -194q0 -145 -102 -250t-251 -105zM351 103q86 0 148 65t62 160q0 75 -43 121q-42 48 -112 48q-85 0 -147 -65q-61 -64 -61 -160q0 -74 42 -122q44 -47 111 -47z" />
    <glyph glyph-name="P" unicode="P" horiz-adv-x="578" 
d="M408 600q93 0 148.5 -48t55.5 -127q0 -105 -73 -168q-74 -62 -189 -62h-134l-27 -195h-121l84 600h256zM486 412q0 39 -27 60.5t-73 21.5h-128l-27 -194h128q59 0 93 29t34 83z" />
    <glyph glyph-name="Q" unicode="Q" horiz-adv-x="674" 
d="M334 -14q-119 0 -191 78t-72 195q0 145 102 249q102 105 250 105q121 0 192 -78q72 -77 72 -194q0 -101 -53 -187q-51 -84 -143 -131l52 -129h-134l-34 95q-19 -3 -41 -3zM351 103q86 0 148 65t62 160q0 75 -43 121q-42 48 -112 48q-85 0 -147 -65q-61 -64 -61 -160
q0 -74 42 -122q44 -47 111 -47z" />
    <glyph glyph-name="R" unicode="R" horiz-adv-x="599" 
d="M152 600h256q93 0 148.5 -48t55.5 -127q0 -73 -39 -127t-108 -81l-1 -8l112 -197l-2 -12h-126l-107 198h-124l-28 -198h-121zM486 412q0 39 -27 60.5t-73 21.5h-128l-27 -192h131q56 0 90 29t34 81z" />
    <glyph glyph-name="S" unicode="S" horiz-adv-x="525" 
d="M39 64l79 92q36 -26 78 -42q41 -16 82 -16q50 0 76 20t26 56q0 25 -23.5 43t-84.5 36q-91 28 -133 65.5t-42 95.5q0 89 67 144t185 55q64 0 117.5 -14.5t73.5 -32.5l17 -15l-78 -99q-18 18 -67 36q-39 14 -78 14q-47 0 -72.5 -17.5t-25.5 -48.5q0 -23 22.5 -38.5
t81.5 -33.5q95 -30 138.5 -68.5t43.5 -98.5q0 -89 -67 -150q-67 -60 -189 -60q-72 0 -128 19q-56 20 -78 39z" />
    <glyph glyph-name="T" unicode="T" horiz-adv-x="526" 
d="M93 494l15 106h478l-15 -106h-179l-69 -494h-121l69 494h-178z" />
    <glyph glyph-name="U" unicode="U" horiz-adv-x="637" 
d="M316 -14q-117 0 -177 76q-59 76 -43 194l48 344h121l-48 -344q-9 -70 20.5 -111.5t94.5 -41.5q67 0 108.5 41t50.5 112l48 344h121l-48 -344q-16 -117 -97 -195q-79 -75 -199 -75z" />
    <glyph glyph-name="V" unicode="V" horiz-adv-x="597" 
d="M235 0l-154 600h129l107 -466l238 466h129l-322 -600h-127z" />
    <glyph glyph-name="W" unicode="W" horiz-adv-x="801" 
d="M513 0l-60 386l-164 -386h-94l-99 600h131l47 -374l161 374h96l56 -375l154 375h132l-267 -600h-93z" />
    <glyph glyph-name="X" unicode="X" horiz-adv-x="570" 
d="M638 600l-219 -293l141 -307h-147l-77 192l-17 49l-31 -49l-130 -192h-146l224 307l-136 293h146l76 -182l15 -50l31 50l125 182h145z" />
    <glyph glyph-name="Y" unicode="Y" horiz-adv-x="542" 
d="M351 391l146 209h133l-266 -367l-32 -233h-121l32 231l-162 369h132l90 -209l16 -55z" />
    <glyph glyph-name="Z" unicode="Z" horiz-adv-x="544" 
d="M30 0l13 89l375 405h-308l15 106h468l-13 -93l-369 -401h311l-15 -106h-477z" />
    <glyph glyph-name="bracketleft" unicode="[" horiz-adv-x="330" 
d="M37 -130l117 830h258l-14 -98h-144l-89 -634h144l-14 -98h-258z" />
    <glyph glyph-name="backslash" unicode="\" horiz-adv-x="390" 
d="M226 -128l-87 926h119l87 -926h-119z" />
    <glyph glyph-name="bracketright" unicode="]" horiz-adv-x="330" 
d="M-1 -130l14 98h144l89 634h-144l14 98h258l-117 -830h-258z" />
    <glyph glyph-name="asciicircum" unicode="^" horiz-adv-x="402" 
d="M338 497l-53 111l-85 -111h-91l156 196h64l103 -196h-94z" />
    <glyph glyph-name="underscore" unicode="_" horiz-adv-x="525" 
d="M22 -138l14 98h442l-14 -98h-442z" />
    <glyph glyph-name="grave" unicode="`" horiz-adv-x="279" 
d="M201 497l-75 135l139 20l17 -155h-81z" />
    <glyph glyph-name="a" unicode="a" 
d="M413 362h5l28 58h79l-59 -420h-79l-11 58h-5q0 -1 -5 -7.5t-17 -16.5t-28 -20t-42 -17t-55 -7q-75 0 -121.5 51t-46.5 135q0 110 67 181q67 73 162 73q54 0 85 -20t40 -41zM384 231q0 46 -23.5 73t-63.5 27q-49 0 -83 -40t-34 -100q0 -45 22.5 -73.5t60.5 -28.5
q52 0 86.5 40t34.5 102z" />
    <glyph glyph-name="b" unicode="b" 
d="M54 0l85 605h120l-33 -232h5l2 3q2 3 2.5 4t3 4t4.5 5t6 5t9 6t11.5 6.5t14.5 7.5q32 16 75 16q74 0 117 -52q45 -52 45 -135q0 -113 -67 -183q-66 -70 -161 -70q-54 0 -85 21t-39 43l-3 7h-5l-26 -61h-81zM196 190q0 -46 23.5 -73.5t62.5 -27.5q48 0 83 41q34 40 34 101
q0 45 -22.5 72.5t-60.5 27.5q-52 0 -86 -39.5t-34 -101.5z" />
    <glyph glyph-name="c" unicode="c" horiz-adv-x="408" 
d="M250 -10q-88 0 -141 53q-52 52 -52 137q0 108 72 178q73 72 183 72q37 0 69 -9t45 -19l12 -10l-43 -86q-34 25 -86 25q-55 0 -93 -39q-37 -38 -37 -101q0 -48 26 -75t70 -27q43 0 81 19l12 6l18 -85q-22 -15 -61 -28q-36 -11 -75 -11z" />
    <glyph glyph-name="d" unicode="d" horiz-adv-x="521" 
d="M393 376h5l33 229h120l-85 -605h-79l-11 58h-5q0 -1 -5 -7.5t-17 -16.5t-28 -20t-42 -17t-55 -7q-75 0 -121.5 51t-46.5 135q0 109 66 181q67 73 160 73q46 0 74.5 -16.5t33.5 -31.5zM384 231q0 46 -23.5 73t-63.5 27q-49 0 -83 -40t-34 -100q0 -45 22.5 -73.5
t60.5 -28.5q52 0 86.5 40t34.5 102z" />
    <glyph glyph-name="e" unicode="e" horiz-adv-x="460" 
d="M388 118l31 -79q-22 -19 -75 -37q-44 -14 -90 -14q-92 0 -144.5 52.5t-52.5 138.5q0 106 69 178q70 73 173 73q80 0 124.5 -47t44.5 -128q0 -34 -6 -58l-2 -9h-287q-5 -105 102 -105q62 0 99 26zM283 340q-71 0 -97 -81h168q3 81 -71 81z" />
    <glyph glyph-name="f" unicode="f" horiz-adv-x="335" 
d="M371 327h-111l-46 -327h-120l46 327h-72l13 93h72l4 25q12 80 59 123.5t124 43.5q58 0 86 -15l11 -5l-49 -89q-16 9 -45 9q-26 0 -44 -16.5t-22 -44.5l-4 -31h111z" />
    <glyph glyph-name="g" unicode="g" 
d="M525 420l-55 -392q-13 -95 -78 -151t-168 -56q-111 0 -159 64l68 74q35 -45 102 -45q48 0 78 28.5t37 82.5l3 22h-5l-2 -3q-2 -3 -2.5 -4t-3 -4t-4.5 -5t-6 -5t-9 -6t-11.5 -6.5t-14.5 -7.5q-32 -16 -74 -16q-73 0 -119 52q-45 52 -45 136q0 111 67 181q68 71 163 71
q38 0 67.5 -13.5t41 -26.5t16.5 -26l3 -8h4l28 64h78zM384 230q0 47 -23 74t-63 27q-49 0 -84 -41q-34 -40 -34 -101q0 -45 23 -72.5t61 -27.5q50 0 85 42q35 43 35 99z" />
    <glyph glyph-name="h" unicode="h" horiz-adv-x="514" 
d="M55 0l85 605h121l-31 -224h4q44 50 125 50q76 0 114 -50.5t26 -136.5l-34 -243h-120l33 232q5 40 -14 66.5t-57 26.5q-36 0 -62.5 -23.5t-33.5 -56.5l-35 -246h-121z" />
    <glyph glyph-name="i" unicode="i" horiz-adv-x="231" 
d="M184 486q-27 0 -44 16.5t-17 42.5q0 33 24 55.5t57 22.5q27 0 44.5 -17t17.5 -43q0 -33 -24 -55t-58 -22zM55 0l59 420h120l-59 -420h-120z" />
    <glyph glyph-name="j" unicode="j" horiz-adv-x="232" 
d="M-24 -156l14 100h20q37 0 42 38l62 438h121l-62 -444q-8 -61 -47.5 -96.5t-99.5 -35.5h-50zM183 486q-27 0 -44 16.5t-17 43.5q0 33 23.5 55t56.5 22q28 0 46 -17t18 -44q0 -32 -24.5 -54t-58.5 -22z" />
    <glyph glyph-name="k" unicode="k" horiz-adv-x="468" 
d="M371 420h145l-180 -183l127 -237h-131l-88 166l-52 -49l-17 -117h-120l85 605h120l-50 -355z" />
    <glyph glyph-name="l" unicode="l" horiz-adv-x="231" 
d="M56 0l85 605h120l-85 -605h-120z" />
    <glyph glyph-name="m" unicode="m" horiz-adv-x="801" 
d="M498 241l-34 -241h-120l34 239q5 39 -14 63t-58 24q-38 0 -64 -23t-32 -57l-35 -246h-120l59 420h75l9 -59h7q53 69 144 69q103 0 137 -73h6q56 74 148 74q80 0 119 -51t27 -136l-34 -244h-120l33 234q5 41 -13.5 66.5t-56.5 25.5q-40 0 -66 -24t-31 -61z" />
    <glyph glyph-name="n" unicode="n" horiz-adv-x="515" 
d="M209 240l-34 -240h-120l59 420h75l9 -59h7q57 70 146 70q81 0 120.5 -51t27.5 -136l-34 -244h-120l33 234q5 40 -14.5 66t-57.5 26t-65 -25.5t-32 -60.5z" />
    <glyph glyph-name="o" unicode="o" horiz-adv-x="498" 
d="M500 237q0 -107 -75 -178q-73 -69 -177 -69q-85 0 -138 52q-54 52 -54 137q0 109 75 180q77 71 179 71q83 0 136 -53q54 -53 54 -140zM261 85q52 0 86.5 41t34.5 105q0 46 -24 75t-62 29q-52 0 -86 -42q-35 -41 -35 -105q0 -47 23 -75t63 -28z" />
    <glyph glyph-name="p" unicode="p" 
d="M186 44h-5l-28 -200h-120l81 576h77l10 -59h6l1 1q1 2 3 4.5t5 6t7.5 7.5t9.5 8t11.5 9t13.5 9q42 24 97 24q75 0 121.5 -50.5t46.5 -134.5q0 -110 -67 -183q-66 -72 -158 -72q-38 0 -67 12.5t-37 27.5zM196 189q0 -46 23 -73t62 -27q51 0 85 40t34 100q0 45 -23 73.5
t-62 28.5q-51 0 -85 -40t-34 -102z" />
    <glyph glyph-name="q" unicode="q" 
d="M525 420l-81 -576h-120l29 203h-5l-2 -3q-2 -3 -2.5 -4t-3 -4t-4.5 -5t-6 -5t-9 -6t-11.5 -6.5t-14.5 -7.5q-32 -16 -74 -16q-73 0 -119 52q-45 52 -45 136q0 111 67 181q68 71 163 71q38 0 67.5 -13.5t41 -26.5t16.5 -26l3 -8h4l28 64h78zM384 230q0 47 -23 74t-63 27
q-49 0 -84 -41q-34 -40 -34 -101q0 -45 23 -72.5t61 -27.5q52 0 86 39.5t34 101.5z" />
    <glyph glyph-name="r" unicode="r" horiz-adv-x="306" 
d="M352 420l-14 -101h-22q-43 0 -73.5 -27.5t-37.5 -74.5l-30 -217h-120l59 420h75l8 -62h6q42 62 126 62h23z" />
    <glyph glyph-name="s" unicode="s" horiz-adv-x="424" 
d="M35 37l51 82q58 -41 130 -41q69 0 69 39q0 31 -105 55q-43 10 -74 39.5t-31 73.5q0 64 50.5 104.5t136.5 40.5q108 0 160 -28l18 -9l-49 -89q-50 37 -127 37q-66 0 -66 -38q0 -15 22 -25t53.5 -18t63 -19.5t53.5 -37.5t22 -65q0 -68 -51.5 -108t-150.5 -40
q-52 0 -97 11.5t-63 24.5z" />
    <glyph glyph-name="t" unicode="t" horiz-adv-x="342" 
d="M73 420h73l18 128h120l-18 -128h103l-13 -93h-103l-26 -188q-6 -46 38 -46q21 0 41 11l6 3l22 -83q-49 -34 -112 -34q-68 0 -97 38t-19 107l27 192h-73z" />
    <glyph glyph-name="u" unicode="u" horiz-adv-x="513" 
d="M363 177l34 243h120l-59 -420h-80l-13 57h-5q-55 -67 -139 -67q-80 0 -119 50.5t-27 135.5l34 244h120l-33 -234q-6 -43 12 -69t56 -26t65.5 25.5t33.5 60.5z" />
    <glyph glyph-name="v" unicode="v" horiz-adv-x="461" 
d="M188 0l-129 420h131l55 -244q3 -21 2 -34h6q2 13 13 34l123 244h131l-247 -420h-85z" />
    <glyph glyph-name="w" unicode="w" horiz-adv-x="667" 
d="M722 420l-211 -420h-102l-33 226q-4 25 -2 47h-5q-2 -17 -15 -47l-97 -226h-101l-93 420h127l34 -244q2 -28 1 -34h6q0 4 13 37l98 241h103l29 -241q4 -25 3 -37h6q2 13 11 34l103 244h125z" />
    <glyph glyph-name="x" unicode="x" horiz-adv-x="457" 
d="M13 0l169 214l-105 206h135l57 -132h3l95 132h134l-170 -206l116 -214h-135l-60 142h-3l-102 -142h-134z" />
    <glyph glyph-name="y" unicode="y" horiz-adv-x="511" 
d="M400 420h116l-56 -397q-12 -92 -75.5 -147.5t-164.5 -55.5q-57 0 -98.5 18.5t-61.5 46.5l67 74q37 -45 103 -45q98 0 114 105l3 20q-50 -49 -125 -49q-82 0 -121.5 50t-27.5 137l34 243h120l-33 -234q-6 -43 12 -69t56 -26q40 0 67.5 23t36.5 60z" />
    <glyph glyph-name="z" unicode="z" horiz-adv-x="428" 
d="M395 0h-362l9 66l242 257h-204l14 97h360l-8 -60l-239 -263h202z" />
    <glyph glyph-name="braceleft" unicode="{" horiz-adv-x="304" 
d="M63 332h23q57 0 68 77l21 154q20 143 185 152l3 -100q-36 -6 -49.5 -17.5t-17.5 -42.5l-23 -163q-10 -82 -76 -102l-1 -9q58 -18 47 -101l-22 -163q-4 -30 6 -42t43 -17l-31 -100q-162 7 -141 152l21 153q12 78 -46 78h-23z" />
    <glyph glyph-name="bar" unicode="|" horiz-adv-x="220" 
d="M262 687l-115 -815h-110l115 815h110z" />
    <glyph glyph-name="braceright" unicode="}" horiz-adv-x="304" 
d="M312 332h23l-13 -91h-23q-56 0 -68 -78l-22 -153q-21 -145 -184 -152l-3 100q35 5 48.5 17t17.5 42l23 163q5 38 25 65t51 36l2 9q-59 20 -48 102l23 163q4 31 -6.5 42.5t-43.5 17.5l31 100q162 -9 142 -152l-22 -154q-11 -77 47 -77z" />
    <glyph glyph-name="asciitilde" unicode="~" horiz-adv-x="474" 
d="M354 331q41 0 70 18l10 6l28 -74q-14 -14 -55 -30q-31 -11 -62 -11q-28 0 -70 16t-73 16q-41 0 -70 -18l-9 -7l-28 74q15 15 56 30q31 12 62 12q30 0 69 -16q41 -16 72 -16z" />
    <glyph glyph-name="uni00A0" unicode="&#xa0;" horiz-adv-x="206" 
 />
    <glyph glyph-name="exclamdown" unicode="&#xa1;" horiz-adv-x="223" 
d="M182 225l-26 -401h-139l86 401h79zM87 350q0 33 26 57.5t59 24.5q27 0 45 -19t18 -46q0 -33 -25 -57.5t-58 -24.5q-28 0 -46.5 19t-18.5 46z" />
    <glyph glyph-name="cent" unicode="&#xa2;" horiz-adv-x="428" 
d="M187 0l23 85q-63 16 -99 65t-36 118q0 105 72 177q72 71 181 73l22 82h51l-23 -86q46 -7 72 -26l7 -6l-43 -88q-27 17 -63 23l-65 -240h8q43 0 81 19l12 6l18 -87q-49 -37 -135 -37h-11l-21 -78h-51zM197 279q0 -63 42 -88l60 225q-46 -11 -74 -48t-28 -89z" />
    <glyph glyph-name="sterling" unicode="&#xa3;" horiz-adv-x="513" 
d="M481 106l-15 -106h-414l15 106q7 2 22 11t34 35t19 58q0 6 -2 40h-61l12 83h42q-2 32 -2 44q0 101 69 165q71 65 187 65q60 0 102.5 -18.5t59.5 -38.5l6 -6l-85 -99q-12 17 -43 32q-23 13 -52 13q-53 0 -81.5 -32t-28.5 -90q0 -29 1 -35h179l-12 -83h-162q2 -34 -1 -54
q-6 -44 -38 -90h249z" />
    <glyph glyph-name="yen" unicode="&#xa5;" horiz-adv-x="606" 
d="M383 391l146 209h133l-210 -290h116l-12 -84h-161l-8 -54h162l-12 -83h-161l-12 -89h-121l12 89h-158l12 83h158l7 54h-158l12 84h112l-127 290h132l90 -209l16 -55z" />
    <glyph glyph-name="brokenbar" unicode="&#xa6;" horiz-adv-x="230" 
d="M216 330h-110l48 343h110zM148 -153h-110l48 342h110z" />
    <glyph glyph-name="section" unicode="&#xa7;" horiz-adv-x="541" 
d="M40 46l64 83q21 -16 80 -33q45 -12 92 -12q100 0 100 45q0 18 -21 30t-81 30q-55 16 -83.5 28.5t-52.5 35.5q-26 26 -26 60q0 53 46 81q-38 24 -38 70q0 70 62.5 109.5t179.5 39.5q59 0 111.5 -11.5t73.5 -24.5l19 -12l-64 -87q-29 16 -71 28q-42 11 -83 11
q-88 0 -88 -43q0 -17 18 -28t64 -24q40 -12 66 -21q28 -10 57 -25q62 -30 62 -83q0 -52 -45 -89q37 -28 37 -69q0 -66 -66.5 -107.5t-186.5 -41.5q-70 0 -127 15q-56 15 -77 30zM290 345q-14 2 -41 11q-16 -4 -16 -29q0 -33 93 -61q22 -6 62 -19q17 17 17 33q0 20 -26.5 34
t-88.5 31z" />
    <glyph glyph-name="dieresis" unicode="&#xa8;" horiz-adv-x="455" 
d="M177 700q0 26 21 46.5t47 20.5q22 0 37.5 -16t15.5 -39q0 -26 -21.5 -46t-48.5 -20q-21 0 -36 16t-15 38zM353 700q0 26 21 46.5t47 20.5q22 0 37.5 -16t15.5 -38q0 -27 -21.5 -47t-48.5 -20q-21 0 -36 16t-15 38z" />
    <glyph glyph-name="copyright" unicode="&#xa9;" horiz-adv-x="675" 
d="M423 605q121 0 190 -75t69 -189q0 -144 -97 -245q-97 -102 -248 -102q-121 0 -191 75q-70 76 -70 190q0 141 98 244q98 102 249 102zM417 563q-131 0 -213 -88q-83 -89 -83 -212q0 -98 59 -163q58 -64 163 -64q128 0 212 88t84 211q0 99 -60 163q-59 65 -162 65zM512 423
l-50 -59q-20 21 -57 21q-42 0 -69 -27.5t-27 -69.5q0 -33 19.5 -53t52.5 -20q36 0 55 17l8 5l33 -60q-13 -13 -50 -27q-27 -10 -62 -10q-65 0 -103.5 39t-38.5 100q0 76 52 128q53 54 135 54q31 0 57 -9t36 -20z" />
    <glyph glyph-name="ordfeminine" unicode="&#xaa;" horiz-adv-x="390" 
d="M80 359q0 54 44 86.5t115 32.5q59 0 80 -21l1 8q5 40 -11 59t-57 19q-47 0 -92 -21l-16 65q62 27 130 27q79 0 109.5 -37.5t20.5 -113.5l-27 -189h-61l-8 35h-6q-33 -43 -113 -43q-48 0 -78.5 26t-30.5 67zM166 370q0 -21 16 -33t45 -12t52.5 14.5t28.5 35.5l1 8
q1 21 -17 32t-49 11q-36 0 -56.5 -15.5t-20.5 -40.5z" />
    <glyph glyph-name="guillemotleft" unicode="&#xab;" horiz-adv-x="495" 
d="M60 197l3 22l154 189h100l-2 -9l-149 -186l-1 -8l97 -188l-2 -9h-100zM264 197l3 22l154 189h100l-2 -9l-149 -186l-1 -8l97 -188l-2 -9h-100z" />
    <glyph glyph-name="logicalnot" unicode="&#xac;" horiz-adv-x="558" 
d="M76 248l14 98h459l-49 -346h-99l35 248h-360z" />
    <glyph glyph-name="registered" unicode="&#xae;" horiz-adv-x="535" 
d="M550 411q0 -107 -74 -186q-74 -78 -188 -78q-90 0 -143 57q-52 58 -52 145q0 109 73 186q74 78 187 78q92 0 144 -58q53 -58 53 -144zM505 406q0 73 -43 118.5t-115 45.5q-90 0 -150 -62q-59 -62 -59 -154q0 -72 43 -118t113 -46q91 0 151 62q60 63 60 154zM246 485h97
q37 0 58 -17.5t21 -47.5q0 -46 -45 -71l31 -55l-2 -11h-55l-29 53h-43l-8 -53h-53zM336 436h-43l-8 -53h43q37 0 37 30q0 23 -29 23z" />
    <glyph glyph-name="overscore" unicode="&#xaf;" horiz-adv-x="526" 
d="M215 668l10 73h295l-10 -73h-295z" />
    <glyph glyph-name="degree" unicode="&#xb0;" horiz-adv-x="288" 
d="M238 673q47 0 74.5 -26.5t27.5 -68.5q0 -50 -38 -86q-38 -35 -94 -35q-47 0 -74.5 26.5t-27.5 68.5q0 50 38 85q38 36 94 36zM230 613q-24 0 -40 -16t-16 -38q0 -18 11.5 -29.5t31.5 -11.5q24 0 40 15.5t16 37.5q0 18 -11.5 30t-31.5 12z" />
    <glyph glyph-name="plusminus" unicode="&#xb1;" 
d="M337 185h-99l21 151h-159l13 97h159l23 158h99l-23 -158h155l-13 -97h-155zM483 122l-14 -98h-413l14 98h413z" />
    <glyph glyph-name="twosuperior" unicode="&#xb2;" horiz-adv-x="336" 
d="M96 342l9 62l139 109q34 25 34 52q0 36 -41 36q-31 0 -74 -33l-35 63q21 18 58 33q32 13 66 13q53 0 82.5 -26.5t29.5 -69.5q0 -65 -54 -105l-85 -65h123l-10 -69h-242z" />
    <glyph glyph-name="threesuperior" unicode="&#xb3;" horiz-adv-x="322" 
d="M128 598l10 70h229l-8 -52l-69 -75q61 -16 61 -78q0 -56 -40.5 -92.5t-111.5 -36.5q-68 0 -112 44l50 58q22 -28 69 -28q29 0 45 12.5t16 33.5q0 34 -45 34h-43l6 39l67 71h-124z" />
    <glyph glyph-name="acute" unicode="&#xb4;" horiz-adv-x="279" 
d="M323 629l-127 -132h-79l70 145z" />
    <glyph glyph-name="mu" unicode="&#xb5;" horiz-adv-x="517" 
d="M156 -128h-120l53 376l24 172h120l-33 -234q-6 -43 12 -69t56 -26t65.5 25.5t33.5 60.5l34 243h120l-59 -420h-80l-13 57h-5q-55 -67 -139 -67q-26 0 -53 7z" />
    <glyph glyph-name="paragraph" unicode="&#xb6;" horiz-adv-x="547" 
d="M349 -82l29 204h-56q-112 0 -178.5 55.5t-66.5 154.5q0 128 87 198q89 71 224 71h178l-96 -683h-121z" />
    <glyph glyph-name="middot" unicode="&#xb7;" horiz-adv-x="225" 
d="M89 350q0 33 25.5 58t58.5 25q27 0 45 -19t18 -46q0 -34 -25 -58t-59 -24q-27 0 -45 18.5t-18 45.5z" />
    <glyph glyph-name="cedilla" unicode="&#xb8;" horiz-adv-x="206" 
d="M61 -73l-17 22l34 54h56l-18 -33q25 -1 40.5 -15.5t15.5 -40.5q0 -37 -27 -60.5t-72 -23.5q-53 0 -73 24l-8 8l33 42q22 -21 52 -21q38 0 38 28q0 20 -28 20z" />
    <glyph glyph-name="onesuperior" unicode="&#xb9;" horiz-adv-x="220" 
d="M105 598l10 70h143l-46 -326h-79l36 256h-64z" />
    <glyph glyph-name="ordmasculine" unicode="&#xba;" horiz-adv-x="391" 
d="M282 613q63 0 102.5 -40.5t39.5 -108.5q0 -85 -56 -141q-56 -54 -135 -54q-63 0 -103 40t-40 106q0 86 56 142q58 56 136 56zM272 541q-43 0 -70 -33.5t-27 -84.5q0 -37 18 -59.5t50 -22.5q43 0 70 33t27 84q0 39 -18 61t-50 22z" />
    <glyph glyph-name="guillemotright" unicode="&#xbb;" horiz-adv-x="495" 
d="M290 219l-3 -22l-153 -189h-101l1 9l150 188l1 8l-97 186l1 9h101zM494 219l-3 -22l-154 -189h-100l1 9l150 188l1 8l-97 186l1 9h100z" />
    <glyph glyph-name="onequarter" unicode="&#xbc;" horiz-adv-x="650" 
d="M126 -1l-96 1l559 600h96zM327 74l7 50l208 202h61l-26 -187h56l-10 -65h-56l-10 -74h-76l10 74h-164zM120 530l10 70h144l-45 -326h-79l35 256h-65zM429 137v-1l33 3h39l8 58l3 24h-1l-56 -61z" />
    <glyph glyph-name="onehalf" unicode="&#xbd;" horiz-adv-x="704" 
d="M125 0h-95l557 600h97zM434 62l-9 -62h243l10 69h-123l85 65q54 40 54 105q0 43 -29.5 69.5t-82.5 26.5q-31 0 -62 -11t-48 -24l-14 -11l35 -63q43 33 74 33q40 0 40 -35q0 -28 -33 -53zM124 530l10 70h143l-45 -326h-79l35 256h-64z" />
    <glyph glyph-name="threequarters" unicode="&#xbe;" horiz-adv-x="703" 
d="M188 0h-96l559 600h96zM387 69l7 51l209 201h60l-27 -187h52l-9 -65h-52l-10 -69h-77l10 69h-163zM118 530l10 70h229l-8 -52l-69 -75q61 -16 61 -78q0 -56 -40.5 -92.5t-111.5 -36.5q-68 0 -112 44l50 58q22 -28 68 -28q30 0 46 12.5t16 33.5q0 34 -45 34h-43l6 39
l67 71h-124zM489 132v-1l32 3h38l9 59l3 23h-1l-56 -61z" />
    <glyph glyph-name="questiondown" unicode="&#xbf;" horiz-adv-x="435" 
d="M346 -34l48 -97l-21 -16q-10 -8 -61 -26q-45 -16 -98 -16q-86 0 -137.5 39t-51.5 106q0 45 17 79.5t43 56t52 38.5t48 37t28 42l6 21h95l-4 -32q-5 -36 -28.5 -66t-48.5 -46.5t-45.5 -41.5t-20.5 -55q0 -27 20 -43.5t56 -16.5q49 0 89 28zM355 370q0 -33 -24 -56t-57 -23
q-27 0 -44 17.5t-17 44.5q0 33 24 56.5t57 23.5q27 0 44 -18t17 -45z" />
    <glyph glyph-name="Agrave" unicode="&#xc0;" horiz-adv-x="597" 
d="M446 600l154 -600h-129l-27 116h-259l-59 -116h-129l322 600h127zM363 466l-128 -252h187zM343 635l-75 135l139 20l17 -155h-81z" />
    <glyph glyph-name="Aacute" unicode="&#xc1;" horiz-adv-x="597" 
d="M446 600l154 -600h-129l-27 116h-259l-59 -116h-129l322 600h127zM363 466l-128 -252h187zM555 767l-127 -132h-79l70 145z" />
    <glyph glyph-name="Acircumflex" unicode="&#xc2;" horiz-adv-x="597" 
d="M446 600l154 -600h-129l-27 116h-259l-59 -116h-129l322 600h127zM363 466l-128 -252h187zM436 646l-37 62l-55 -62h-85l103 131h93l67 -131h-86z" />
    <glyph glyph-name="Atilde" unicode="&#xc3;" horiz-adv-x="597" 
d="M446 600l154 -600h-129l-27 116h-259l-59 -116h-129l322 600h127zM363 466l-128 -252h187zM467 649q-35 0 -72 21q-37 22 -53 22q-25 0 -37 -31l-6 -16l-84 8l11 34q32 96 114 96q33 0 70 -22t54 -22q28 0 38 31l6 16l84 -8l-10 -33q-13 -45 -43 -70.5t-72 -25.5z" />
    <glyph glyph-name="Adieresis" unicode="&#xc4;" horiz-adv-x="597" 
d="M446 600l154 -600h-129l-27 116h-259l-59 -116h-129l322 600h127zM363 466l-128 -252h187zM250 700q0 26 21 46.5t47 20.5q22 0 37.5 -16t15.5 -39q0 -26 -21.5 -46t-48.5 -20q-21 0 -36 16t-15 38zM426 700q0 26 21 46.5t47 20.5q22 0 37.5 -16t15.5 -38
q0 -27 -21.5 -47t-48.5 -20q-21 0 -36 16t-15 38z" />
    <glyph glyph-name="Aring" unicode="&#xc5;" horiz-adv-x="597" 
d="M446 600l154 -600h-129l-27 116h-259l-59 -116h-129l322 600h127zM363 466l-128 -252h187zM283 694q0 45 34.5 73t92.5 28q48 0 74.5 -21.5t26.5 -57.5q0 -45 -34.5 -73t-92.5 -28q-48 0 -74.5 21t-26.5 58zM445 710q0 31 -43 31q-51 0 -51 -41q0 -31 41 -31q53 0 53 41z
" />
    <glyph glyph-name="AE" unicode="&#xc6;" horiz-adv-x="894" 
d="M-14 0l494 600h463l-15 -106h-324l-20 -144h262l-14 -98h-262l-20 -146h324l-15 -106h-445l17 121h-204l-96 -121h-145zM470 427l-164 -206h139l29 206h-4z" />
    <glyph glyph-name="Ccedilla" unicode="&#xc7;" horiz-adv-x="556" 
d="M281 -73l-17 22l25 41q-103 15 -161 88q-57 74 -57 180q0 148 100 251q101 104 254 104q72 0 120 -22t65 -45l7 -7l-83 -93q-51 51 -125 51q-80 0 -139 -56q-58 -55 -70 -141q-12 -87 31 -142q44 -56 123 -56q35 0 70.5 12.5t53.5 26.5l15 13l57 -93q-9 -9 -24 -20
q-15 -12 -69 -33q-51 -20 -113 -22l-8 -16q25 -1 40.5 -15.5t15.5 -40.5q0 -37 -27 -60.5t-72 -23.5q-53 0 -73 24l-8 8l33 42q23 -21 52 -21q38 0 38 28q0 20 -28 20z" />
    <glyph glyph-name="Egrave" unicode="&#xc8;" horiz-adv-x="537" 
d="M501 353l-14 -98h-262l-21 -149h311l-15 -106h-432l84 600h432l-15 -106h-311l-19 -141h262zM347 635l-75 135l139 20l17 -155h-81z" />
    <glyph glyph-name="Eacute" unicode="&#xc9;" horiz-adv-x="537" 
d="M546 767l-127 -132h-79l70 145zM501 353l-14 -98h-262l-21 -149h311l-15 -106h-432l84 600h432l-15 -106h-311l-19 -141h262z" />
    <glyph glyph-name="Ecircumflex" unicode="&#xca;" horiz-adv-x="537" 
d="M431 646l-37 62l-55 -62h-85l103 131h93l67 -131h-86zM501 353l-14 -98h-262l-21 -149h311l-15 -106h-432l84 600h432l-15 -106h-311l-19 -141h262z" />
    <glyph glyph-name="Edieresis" unicode="&#xcb;" horiz-adv-x="537" 
d="M245 700q0 26 21 46.5t47 20.5q22 0 37.5 -16t15.5 -39q0 -26 -21.5 -46t-48.5 -20q-21 0 -36 16t-15 38zM421 700q0 26 21 46.5t47 20.5q22 0 37.5 -16t15.5 -38q0 -27 -21.5 -47t-48.5 -20q-21 0 -36 16t-15 38zM501 353l-14 -98h-262l-21 -149h311l-15 -106h-432
l84 600h432l-15 -106h-311l-19 -141h262z" />
    <glyph glyph-name="Igrave" unicode="&#xcc;" horiz-adv-x="258" 
d="M273 600l-84 -600h-121l84 600h121zM173 635l-75 135l139 20l17 -155h-81z" />
    <glyph glyph-name="Iacute" unicode="&#xcd;" horiz-adv-x="258" 
d="M273 600l-84 -600h-121l84 600h121zM385 767l-127 -132h-79l70 145z" />
    <glyph glyph-name="Icircumflex" unicode="&#xce;" horiz-adv-x="258" 
d="M273 600l-84 -600h-121l84 600h121zM268 646l-37 62l-55 -62h-85l103 131h93l67 -131h-86z" />
    <glyph glyph-name="Idieresis" unicode="&#xcf;" horiz-adv-x="258" 
d="M273 600l-84 -600h-121l84 600h121zM81 700q0 26 21 46.5t47 20.5q22 0 37.5 -16t15.5 -39q0 -26 -21.5 -46t-48.5 -20q-21 0 -36 16t-15 38zM257 700q0 26 21 46.5t47 20.5q22 0 37.5 -16t15.5 -38q0 -27 -21.5 -47t-48.5 -20q-21 0 -36 16t-15 38z" />
    <glyph glyph-name="Eth" unicode="&#xd0;" horiz-adv-x="636" 
d="M53 250l15 108h50l34 242h221q126 0 200 -72q74 -71 74 -187q0 -147 -101 -245q-101 -96 -257 -96h-221l35 250h-50zM350 494h-92l-19 -136h136l-15 -108h-136l-20 -144h92q95 0 159 61q66 61 66 162q0 77 -47 121t-124 44z" />
    <glyph glyph-name="Ntilde" unicode="&#xd1;" horiz-adv-x="667" 
d="M683 600l-84 -600h-93l-262 389l-55 -389h-121l84 600h93l263 -385l54 385h121zM502 649q-34 0 -72 21q-37 22 -53 22q-25 0 -37 -31l-6 -16l-84 8l11 34q31 96 114 96q33 0 70 -22t54 -22q28 0 38 31l6 16l84 -8l-10 -33q-13 -45 -43 -70.5t-72 -25.5z" />
    <glyph glyph-name="Ograve" unicode="&#xd2;" horiz-adv-x="674" 
d="M334 -14q-119 0 -191 78t-72 195q0 145 102 249q102 105 250 105q121 0 192 -78q72 -77 72 -194q0 -145 -102 -250t-251 -105zM351 103q86 0 148 65t62 160q0 75 -43 121q-42 48 -112 48q-85 0 -147 -65q-61 -64 -61 -160q0 -74 42 -122q44 -47 111 -47zM386 646l-75 135
l139 20l17 -155h-81z" />
    <glyph glyph-name="Oacute" unicode="&#xd3;" horiz-adv-x="674" 
d="M590 778l-127 -132h-79l70 145zM334 -14q-119 0 -191 78t-72 195q0 145 102 249q102 105 250 105q121 0 192 -78q72 -77 72 -194q0 -145 -102 -250t-251 -105zM351 103q86 0 148 65t62 160q0 75 -43 121q-42 48 -112 48q-85 0 -147 -65q-61 -64 -61 -160q0 -74 42 -122
q44 -47 111 -47z" />
    <glyph glyph-name="Ocircumflex" unicode="&#xd4;" horiz-adv-x="674" 
d="M475 646l-37 62l-55 -62h-85l103 131h93l67 -131h-86zM334 -14q-119 0 -191 78t-72 195q0 145 102 249q102 105 250 105q121 0 192 -78q72 -77 72 -194q0 -145 -102 -250t-251 -105zM351 103q86 0 148 65t62 160q0 75 -43 121q-42 48 -112 48q-85 0 -147 -65
q-61 -64 -61 -160q0 -74 42 -122q44 -47 111 -47z" />
    <glyph glyph-name="Otilde" unicode="&#xd5;" horiz-adv-x="674" 
d="M334 -14q-119 0 -191 78t-72 195q0 145 102 249q102 105 250 105q121 0 192 -78q72 -77 72 -194q0 -145 -102 -250t-251 -105zM351 103q86 0 148 65t62 160q0 75 -43 121q-42 48 -112 48q-85 0 -147 -65q-61 -64 -61 -160q0 -74 42 -122q44 -47 111 -47zM502 649
q-34 0 -72 21q-37 22 -53 22q-25 0 -37 -31l-6 -16l-84 8l11 34q31 96 114 96q33 0 70 -22t54 -22q28 0 38 31l6 16l84 -8l-10 -33q-13 -45 -43 -70.5t-72 -25.5z" />
    <glyph glyph-name="Odieresis" unicode="&#xd6;" horiz-adv-x="674" 
d="M288 700q0 26 21 46.5t47 20.5q22 0 37.5 -16t15.5 -39q0 -26 -21.5 -46t-48.5 -20q-21 0 -36 16t-15 38zM464 700q0 26 21 46.5t47 20.5q22 0 37.5 -16t15.5 -38q0 -27 -21.5 -47t-48.5 -20q-21 0 -36 16t-15 38zM334 -14q-119 0 -191 78t-72 195q0 145 102 249
q102 105 250 105q121 0 192 -78q72 -77 72 -194q0 -145 -102 -250t-251 -105zM351 103q86 0 148 65t62 160q0 75 -43 121q-42 48 -112 48q-85 0 -147 -65q-61 -64 -61 -160q0 -74 42 -122q44 -47 111 -47z" />
    <glyph glyph-name="multiply" unicode="&#xd7;" horiz-adv-x="508" 
d="M125 90l-58 68l161 143l-121 144l78 68l121 -143l161 143l58 -68l-162 -144l122 -143l-78 -68l-120 143z" />
    <glyph glyph-name="Oslash" unicode="&#xd8;" horiz-adv-x="688" 
d="M342 -14q-104 0 -175 62l-53 -48h-125l126 113q-36 63 -36 146q0 145 102 249q102 105 250 105q104 0 173 -60l52 47h125l-124 -111q38 -65 38 -148q0 -145 -102 -250t-251 -105zM359 103q86 0 148 65t62 160q0 38 -12 70l-293 -263q38 -32 95 -32zM206 272q0 -33 11 -68
l291 262q-38 31 -94 31q-85 0 -147 -65q-61 -64 -61 -160z" />
    <glyph glyph-name="Ugrave" unicode="&#xd9;" horiz-adv-x="637" 
d="M316 -14q-117 0 -177 76q-59 76 -43 194l48 344h121l-48 -344q-9 -70 20.5 -111.5t94.5 -41.5q67 0 108.5 41t50.5 112l48 344h121l-48 -344q-16 -117 -97 -195q-79 -75 -199 -75zM364 635l-75 135l139 20l17 -155h-81z" />
    <glyph glyph-name="Uacute" unicode="&#xda;" horiz-adv-x="637" 
d="M570 767l-127 -132h-79l70 145zM316 -14q-117 0 -177 76q-59 76 -43 194l48 344h121l-48 -344q-9 -70 20.5 -111.5t94.5 -41.5q67 0 108.5 41t50.5 112l48 344h121l-48 -344q-16 -117 -97 -195q-79 -75 -199 -75z" />
    <glyph glyph-name="Ucircumflex" unicode="&#xdb;" horiz-adv-x="637" 
d="M455 635l-37 62l-55 -62h-85l103 131h93l67 -131h-86zM316 -14q-117 0 -177 76q-59 76 -43 194l48 344h121l-48 -344q-9 -70 20.5 -111.5t94.5 -41.5q67 0 108.5 41t50.5 112l48 344h121l-48 -344q-16 -117 -97 -195q-79 -75 -199 -75z" />
    <glyph glyph-name="Udieresis" unicode="&#xdc;" horiz-adv-x="637" 
d="M271 700q0 26 21 46.5t47 20.5q22 0 37.5 -16t15.5 -39q0 -26 -21.5 -46t-48.5 -20q-21 0 -36 16t-15 38zM447 700q0 26 21 46.5t47 20.5q22 0 37.5 -16t15.5 -38q0 -27 -21.5 -47t-48.5 -20q-21 0 -36 16t-15 38zM316 -14q-117 0 -177 76q-59 76 -43 194l48 344h121
l-48 -344q-9 -70 20.5 -111.5t94.5 -41.5q67 0 108.5 41t50.5 112l48 344h121l-48 -344q-16 -117 -97 -195q-79 -75 -199 -75z" />
    <glyph glyph-name="Yacute" unicode="&#xdd;" horiz-adv-x="542" 
d="M351 391l146 209h133l-266 -367l-32 -233h-121l32 231l-162 369h132l90 -209l16 -55zM531 800l-127 -132h-79l70 145z" />
    <glyph glyph-name="Thorn" unicode="&#xde;" horiz-adv-x="586" 
d="M273 600l-12 -91h142q98 0 153 -47t55 -130q0 -114 -77 -179q-76 -64 -198 -64h-134l-13 -89h-121l84 600h121zM484 313q0 44 -28.5 67t-79.5 23h-130l-30 -211h131q65 0 101 31t36 90z" />
    <glyph glyph-name="germandbls" unicode="&#xdf;" horiz-adv-x="499" 
d="M273 250l12 85q99 18 99 103q0 30 -17 46.5t-47 16.5q-34 0 -57.5 -23.5t-29.5 -63.5l-58 -414h-120l57 405q13 93 72 145.5t154 52.5q77 0 124 -43.5t47 -110.5q0 -48 -23 -85.5t-63 -58.5q68 -27 68 -116q0 -85 -59 -141q-58 -54 -150 -54q-37 0 -57 4l-4 2l14 79
q30 -2 36 -2q49 0 78 27.5t29 72.5q0 34 -22 53.5t-61 19.5h-22z" />
    <glyph glyph-name="agrave" unicode="&#xe0;" 
d="M413 362h5l28 58h79l-59 -420h-79l-11 58h-5q0 -1 -5 -7.5t-17 -16.5t-28 -20t-42 -17t-55 -7q-75 0 -121.5 51t-46.5 135q0 110 67 181q67 73 162 73q54 0 85 -20t40 -41zM384 231q0 46 -23.5 73t-63.5 27q-49 0 -83 -40t-34 -100q0 -45 22.5 -73.5t60.5 -28.5
q52 0 86.5 40t34.5 102zM282 497l-75 135l139 20l17 -155h-81z" />
    <glyph glyph-name="aacute" unicode="&#xe1;" 
d="M413 362h5l28 58h79l-59 -420h-79l-11 58h-5q0 -1 -5 -7.5t-17 -16.5t-28 -20t-42 -17t-55 -7q-75 0 -121.5 51t-46.5 135q0 110 67 181q67 73 162 73q54 0 85 -20t40 -41zM384 231q0 46 -23.5 73t-63.5 27q-49 0 -83 -40t-34 -100q0 -45 22.5 -73.5t60.5 -28.5
q52 0 86.5 40t34.5 102zM481 629l-127 -132h-79l70 145z" />
    <glyph glyph-name="acircumflex" unicode="&#xe2;" 
d="M413 362h5l28 58h79l-59 -420h-79l-11 58h-5q0 -1 -5 -7.5t-17 -16.5t-28 -20t-42 -17t-55 -7q-75 0 -121.5 51t-46.5 135q0 110 67 181q67 73 162 73q54 0 85 -20t40 -41zM384 231q0 46 -23.5 73t-63.5 27q-49 0 -83 -40t-34 -100q0 -45 22.5 -73.5t60.5 -28.5
q52 0 86.5 40t34.5 102zM368 508l-37 62l-55 -62h-85l103 131h93l67 -131h-86z" />
    <glyph glyph-name="atilde" unicode="&#xe3;" 
d="M413 362h5l28 58h79l-59 -420h-79l-11 58h-5q0 -1 -5 -7.5t-17 -16.5t-28 -20t-42 -17t-55 -7q-75 0 -121.5 51t-46.5 135q0 110 67 181q67 73 162 73q54 0 85 -20t40 -41zM384 231q0 46 -23.5 73t-63.5 27q-49 0 -83 -40t-34 -100q0 -45 22.5 -73.5t60.5 -28.5
q52 0 86.5 40t34.5 102zM394 501q-34 0 -72 21q-37 22 -53 22q-25 0 -37 -31l-6 -16l-84 8l11 34q31 96 114 96q33 0 70 -22t54 -22q28 0 38 31l6 16l84 -8l-10 -33q-13 -45 -43 -70.5t-72 -25.5z" />
    <glyph glyph-name="adieresis" unicode="&#xe4;" 
d="M413 362h5l28 58h79l-59 -420h-79l-11 58h-5q0 -1 -5 -7.5t-17 -16.5t-28 -20t-42 -17t-55 -7q-75 0 -121.5 51t-46.5 135q0 110 67 181q67 73 162 73q54 0 85 -20t40 -41zM384 231q0 46 -23.5 73t-63.5 27q-49 0 -83 -40t-34 -100q0 -45 22.5 -73.5t60.5 -28.5
q52 0 86.5 40t34.5 102zM177 551q0 26 21 46.5t47 20.5q22 0 37.5 -16t15.5 -39q0 -26 -21.5 -46t-48.5 -20q-21 0 -36 16t-15 38zM353 551q0 26 21 46.5t47 20.5q22 0 37.5 -16t15.5 -38q0 -27 -21.5 -47t-48.5 -20q-21 0 -36 16t-15 38z" />
    <glyph glyph-name="aring" unicode="&#xe5;" 
d="M413 362h5l28 58h79l-59 -420h-79l-11 58h-5q0 -1 -5 -7.5t-17 -16.5t-28 -20t-42 -17t-55 -7q-75 0 -121.5 51t-46.5 135q0 110 67 181q67 73 162 73q54 0 85 -20t40 -41zM384 231q0 46 -23.5 73t-63.5 27q-49 0 -83 -40t-34 -100q0 -45 22.5 -73.5t60.5 -28.5
q52 0 86.5 40t34.5 102zM216 573q0 45 34.5 73t92.5 28q48 0 74.5 -21.5t26.5 -57.5q0 -45 -34.5 -73t-92.5 -28q-48 0 -74.5 21t-26.5 58zM378 589q0 31 -43 31q-51 0 -51 -41q0 -31 41 -31q53 0 53 41z" />
    <glyph glyph-name="ae" unicode="&#xe6;" horiz-adv-x="733" 
d="M660 120l31 -79q-22 -19 -75 -37q-44 -14 -90 -14q-103 0 -154 60q-68 -60 -178 -60q-75 0 -115.5 31t-40.5 83q0 73 52 112.5t157 39.5q47 0 88 -12l2 15q5 38 -17.5 57.5t-70.5 19.5q-56 0 -99 -26l-16 -8l-26 90q73 38 168 38q102 0 146 -54q64 54 149 54
q80 0 125 -47t45 -128q0 -31 -7 -59l-2 -8h-287q-1 -103 102 -103q62 0 99 26zM220 72q43 0 70.5 24.5t32.5 63.5l2 17q-31 12 -77 12q-93 0 -93 -68q0 -49 65 -49zM555 340q-70 0 -97 -81h168q3 81 -71 81z" />
    <glyph glyph-name="ccedilla" unicode="&#xe7;" horiz-adv-x="408" 
d="M187 -73l-17 22l29 46q-66 14 -104 64t-38 121q0 108 72 178q73 72 183 72q37 0 69 -9t45 -19l12 -10l-43 -86q-34 25 -86 25q-55 0 -93 -39q-37 -38 -37 -101q0 -48 26 -75t70 -27q43 0 81 19l12 6l18 -85q-22 -16 -60 -28q-36 -11 -73 -11l-11 -20q25 -1 40.5 -15.5
t15.5 -40.5q0 -37 -27 -60.5t-72 -23.5q-53 0 -73 24l-8 8l33 42q23 -21 52 -21q38 0 38 28q0 20 -28 20z" />
    <glyph glyph-name="egrave" unicode="&#xe8;" horiz-adv-x="460" 
d="M388 118l31 -79q-22 -19 -75 -37q-44 -14 -90 -14q-92 0 -144.5 52.5t-52.5 138.5q0 106 69 178q70 73 173 73q80 0 124.5 -47t44.5 -128q0 -34 -6 -58l-2 -9h-287q-5 -105 102 -105q62 0 99 26zM283 340q-71 0 -97 -81h168q3 81 -71 81zM256 497l-75 135l139 20l17 -155
h-81z" />
    <glyph glyph-name="eacute" unicode="&#xe9;" horiz-adv-x="460" 
d="M476 629l-127 -132h-79l70 145zM388 118l31 -79q-22 -19 -75 -37q-44 -14 -90 -14q-92 0 -144.5 52.5t-52.5 138.5q0 106 69 178q70 73 173 73q80 0 124.5 -47t44.5 -128q0 -34 -6 -58l-2 -9h-287q-5 -105 102 -105q62 0 99 26zM283 340q-71 0 -97 -81h168q3 81 -71 81z
" />
    <glyph glyph-name="ecircumflex" unicode="&#xea;" horiz-adv-x="460" 
d="M353 497l-37 62l-55 -62h-85l103 131h93l67 -131h-86zM388 118l31 -79q-22 -19 -75 -37q-44 -14 -90 -14q-92 0 -144.5 52.5t-52.5 138.5q0 106 69 178q70 73 173 73q80 0 124.5 -47t44.5 -128q0 -34 -6 -58l-2 -9h-287q-5 -105 102 -105q62 0 99 26zM283 340
q-71 0 -97 -81h168q3 81 -71 81z" />
    <glyph glyph-name="edieresis" unicode="&#xeb;" horiz-adv-x="460" 
d="M165 529q0 26 21 46.5t47 20.5q22 0 37.5 -16t15.5 -39q0 -26 -21.5 -46t-48.5 -20q-21 0 -36 16t-15 38zM341 529q0 26 21 46.5t47 20.5q22 0 37.5 -16t15.5 -38q0 -27 -21.5 -47t-48.5 -20q-21 0 -36 16t-15 38zM388 118l31 -79q-22 -19 -75 -37q-44 -14 -90 -14
q-92 0 -144.5 52.5t-52.5 138.5q0 106 69 178q70 73 173 73q80 0 124.5 -47t44.5 -128q0 -34 -6 -58l-2 -9h-287q-5 -105 102 -105q62 0 99 26zM283 340q-71 0 -97 -81h168q3 81 -71 81z" />
    <glyph glyph-name="igrave" unicode="&#xec;" horiz-adv-x="231" 
d="M55 0l59 420h120l-59 -420h-120zM140 497l-75 135l139 20l17 -155h-81z" />
    <glyph glyph-name="iacute" unicode="&#xed;" horiz-adv-x="231" 
d="M353 629l-127 -132h-79l70 145zM55 0l59 420h120l-59 -420h-120z" />
    <glyph glyph-name="icircumflex" unicode="&#xee;" horiz-adv-x="231" 
d="M235 508l-37 62l-55 -62h-85l103 131h93l67 -131h-86zM55 0l59 420h120l-59 -420h-120z" />
    <glyph glyph-name="idieresis" unicode="&#xef;" horiz-adv-x="231" 
d="M51 561q0 26 21 46.5t47 20.5q22 0 37.5 -16t15.5 -39q0 -26 -21.5 -46t-48.5 -20q-21 0 -36 16t-15 38zM227 561q0 26 21 46.5t47 20.5q22 0 37.5 -16t15.5 -38q0 -27 -21.5 -47t-48.5 -20q-21 0 -36 16t-15 38zM55 0l59 420h120l-59 -420h-120z" />
    <glyph glyph-name="eth" unicode="&#xf0;" horiz-adv-x="507" 
d="M252 -11q-90 0 -142.5 51t-52.5 137q0 110 73 180q73 72 184 72q2 0 11.5 -0.5t12.5 -0.5v3q-15 21 -24 44l-21 47l-113 -64l-30 66l113 63l-58 130l2 11h115l39 -86l119 67l29 -65l-118 -67l85 -183q41 -99 32 -176l-1 -9q-12 -100 -82 -160q-71 -60 -173 -60zM388 231
q0 46 -23.5 72.5t-64.5 26.5q-52 0 -86.5 -39.5t-34.5 -100.5q0 -47 23.5 -74.5t63.5 -27.5q53 0 87.5 40t34.5 103z" />
    <glyph glyph-name="ntilde" unicode="&#xf1;" horiz-adv-x="515" 
d="M209 240l-34 -240h-120l59 420h75l9 -59h7q57 70 146 70q81 0 120.5 -51t27.5 -136l-34 -244h-120l33 234q5 40 -14.5 66t-57.5 26t-65 -25.5t-32 -60.5zM401 511q-35 0 -72 21q-37 22 -53 22q-25 0 -37 -31l-6 -16l-84 8l11 34q32 96 114 96q33 0 70 -22t54 -22
q28 0 38 31l6 16l84 -8l-10 -33q-13 -45 -43 -70.5t-72 -25.5z" />
    <glyph glyph-name="ograve" unicode="&#xf2;" horiz-adv-x="498" 
d="M500 237q0 -107 -75 -178q-73 -69 -177 -69q-85 0 -138 52q-54 52 -54 137q0 109 75 180q77 71 179 71q83 0 136 -53q54 -53 54 -140zM261 85q52 0 86.5 41t34.5 105q0 46 -24 75t-62 29q-52 0 -86 -42q-35 -41 -35 -105q0 -47 23 -75t63 -28zM275 497l-75 135l139 20
l17 -155h-81z" />
    <glyph glyph-name="oacute" unicode="&#xf3;" horiz-adv-x="498" 
d="M483 629l-127 -132h-79l70 145zM500 237q0 -107 -75 -178q-73 -69 -177 -69q-85 0 -138 52q-54 52 -54 137q0 109 75 180q77 71 179 71q83 0 136 -53q54 -53 54 -140zM261 85q52 0 86.5 41t34.5 105q0 46 -24 75t-62 29q-52 0 -86 -42q-35 -41 -35 -105q0 -47 23 -75
t63 -28z" />
    <glyph glyph-name="ocircumflex" unicode="&#xf4;" horiz-adv-x="498" 
d="M367 508l-37 62l-55 -62h-85l103 131h93l67 -131h-86zM500 237q0 -107 -75 -178q-73 -69 -177 -69q-85 0 -138 52q-54 52 -54 137q0 109 75 180q77 71 179 71q83 0 136 -53q54 -53 54 -140zM261 85q52 0 86.5 41t34.5 105q0 46 -24 75t-62 29q-52 0 -86 -42
q-35 -41 -35 -105q0 -47 23 -75t63 -28z" />
    <glyph glyph-name="otilde" unicode="&#xf5;" horiz-adv-x="498" 
d="M500 237q0 -107 -75 -178q-73 -69 -177 -69q-85 0 -138 52q-54 52 -54 137q0 109 75 180q77 71 179 71q83 0 136 -53q54 -53 54 -140zM261 85q52 0 86.5 41t34.5 105q0 46 -24 75t-62 29q-52 0 -86 -42q-35 -41 -35 -105q0 -47 23 -75t63 -28zM392 512q-34 0 -72 21
q-37 22 -53 22q-25 0 -37 -31l-6 -16l-84 8l11 34q31 96 114 96q33 0 70 -22t54 -22q28 0 38 31l6 16l84 -8l-10 -33q-13 -45 -43 -70.5t-72 -25.5z" />
    <glyph glyph-name="odieresis" unicode="&#xf6;" horiz-adv-x="498" 
d="M181 562q0 26 21 46.5t47 20.5q22 0 37.5 -16t15.5 -39q0 -26 -21.5 -46t-48.5 -20q-21 0 -36 16t-15 38zM357 562q0 26 21 46.5t47 20.5q22 0 37.5 -16t15.5 -38q0 -27 -21.5 -47t-48.5 -20q-21 0 -36 16t-15 38zM500 237q0 -107 -75 -178q-73 -69 -177 -69
q-85 0 -138 52q-54 52 -54 137q0 109 75 180q77 71 179 71q83 0 136 -53q54 -53 54 -140zM261 85q52 0 86.5 41t34.5 105q0 46 -24 75t-62 29q-52 0 -86 -42q-35 -41 -35 -105q0 -47 23 -75t63 -28z" />
    <glyph glyph-name="divide" unicode="&#xf7;" horiz-adv-x="485" 
d="M186 115q0 34 25 58.5t59 24.5q27 0 45.5 -19t18.5 -46q0 -33 -25.5 -57.5t-59.5 -24.5q-27 0 -45 18.5t-18 45.5zM235 464q0 34 25 58.5t59 24.5q28 0 46.5 -19t18.5 -46q0 -33 -25.5 -57.5t-59.5 -24.5q-28 0 -46 18.5t-18 45.5zM76 247l14 98h403l-14 -98h-403z" />
    <glyph glyph-name="oslash" unicode="&#xf8;" horiz-adv-x="498" 
d="M500 237q0 -107 -75 -178q-73 -69 -177 -69q-73 0 -124 39l-32 -29h-80l75 68q-31 46 -31 111q0 109 75 180q77 71 179 71q67 0 119 -38l30 28h81l-74 -67q34 -49 34 -116zM261 85q52 0 86.5 41t34.5 105q0 23 -6 42l-171 -167q21 -21 56 -21zM175 188q0 -24 4 -37
l170 164q-23 20 -53 20q-52 0 -86 -42q-35 -41 -35 -105z" />
    <glyph glyph-name="ugrave" unicode="&#xf9;" horiz-adv-x="513" 
d="M363 177l34 243h120l-59 -420h-80l-13 57h-5q-55 -67 -139 -67q-80 0 -119 50.5t-27 135.5l34 244h120l-33 -234q-6 -43 12 -69t56 -26t65.5 25.5t33.5 60.5zM277 497l-75 135l139 20l17 -155h-81z" />
    <glyph glyph-name="uacute" unicode="&#xfa;" horiz-adv-x="513" 
d="M484 629l-127 -132h-79l70 145zM363 177l34 243h120l-59 -420h-80l-13 57h-5q-55 -67 -139 -67q-80 0 -119 50.5t-27 135.5l34 244h120l-33 -234q-6 -43 12 -69t56 -26t65.5 25.5t33.5 60.5z" />
    <glyph glyph-name="ucircumflex" unicode="&#xfb;" horiz-adv-x="513" 
d="M364 497l-37 62l-55 -62h-85l103 131h93l67 -131h-86zM363 177l34 243h120l-59 -420h-80l-13 57h-5q-55 -67 -139 -67q-80 0 -119 50.5t-27 135.5l34 244h120l-33 -234q-6 -43 12 -69t56 -26t65.5 25.5t33.5 60.5z" />
    <glyph glyph-name="udieresis" unicode="&#xfc;" horiz-adv-x="513" 
d="M177 552q0 26 21 46.5t47 20.5q22 0 37.5 -16t15.5 -39q0 -26 -21.5 -46t-48.5 -20q-21 0 -36 16t-15 38zM353 552q0 26 21 46.5t47 20.5q22 0 37.5 -16t15.5 -38q0 -27 -21.5 -47t-48.5 -20q-21 0 -36 16t-15 38zM363 177l34 243h120l-59 -420h-80l-13 57h-5
q-55 -67 -139 -67q-80 0 -119 50.5t-27 135.5l34 244h120l-33 -234q-6 -43 12 -69t56 -26t65.5 25.5t33.5 60.5z" />
    <glyph glyph-name="yacute" unicode="&#xfd;" horiz-adv-x="511" 
d="M400 420h116l-56 -397q-12 -92 -75.5 -147.5t-164.5 -55.5q-57 0 -98.5 18.5t-61.5 46.5l67 74q37 -45 103 -45q98 0 114 105l3 20q-50 -49 -125 -49q-82 0 -121.5 50t-27.5 137l34 243h120l-33 -234q-6 -43 12 -69t56 -26q40 0 67.5 23t36.5 60zM491 629l-127 -132h-79
l70 145z" />
    <glyph glyph-name="thorn" unicode="&#xfe;" horiz-adv-x="521" 
d="M188 59h-5l-30 -215h-120l106 756h120l-33 -235h4q13 24 56 47q33 18 72 18q75 0 120 -50t45 -134q0 -110 -67 -183q-66 -73 -159 -73q-81 0 -107 62zM196 189q0 -46 23.5 -73t62.5 -27q50 0 84 40t34 100q0 45 -23 73.5t-61 28.5q-52 0 -86 -40t-34 -102z" />
    <glyph glyph-name="ydieresis" unicode="&#xff;" horiz-adv-x="511" 
d="M400 420h116l-56 -397q-12 -92 -75.5 -147.5t-164.5 -55.5q-57 0 -98.5 18.5t-61.5 46.5l67 74q37 -45 103 -45q98 0 114 105l3 20q-50 -49 -125 -49q-82 0 -121.5 50t-27.5 137l34 243h120l-33 -234q-6 -43 12 -69t56 -26q40 0 67.5 23t36.5 60zM185 551q0 26 21 46.5
t47 20.5q22 0 37.5 -16t15.5 -39q0 -26 -21.5 -46t-48.5 -20q-21 0 -36 16t-15 38zM361 551q0 26 21 46.5t47 20.5q22 0 37.5 -16t15.5 -38q0 -27 -21.5 -47t-48.5 -20q-21 0 -36 16t-15 38z" />
    <glyph glyph-name="dotlessi" unicode="&#x131;" horiz-adv-x="231" 
d="M55 0l59 420h120l-59 -420h-120z" />
    <glyph glyph-name="Lslash" unicode="&#x141;" horiz-adv-x="503" 
d="M43 200l18 128l63 35l33 237h121l-23 -164l127 71l-18 -127l-127 -71l-28 -203h282l-15 -106h-403l33 235z" />
    <glyph glyph-name="lslash" unicode="&#x142;" horiz-adv-x="248" 
d="M47 214l9 67l48 27l42 297h120l-31 -223l62 36l-10 -67l-62 -35l-44 -316h-120l34 241z" />
    <glyph glyph-name="OE" unicode="&#x152;" horiz-adv-x="1017" 
d="M334 -14q-119 0 -191 78t-72 195q0 145 102 249q102 105 250 105q127 0 200 -87l11 74h432l-15 -106h-311l-19 -141h262l-14 -98h-262l-21 -149h311l-15 -106h-432l9 67q-97 -81 -225 -81zM351 103q86 0 148 65t62 160q0 75 -43 121q-42 48 -112 48q-85 0 -147 -65
q-61 -64 -61 -160q0 -74 42 -122q44 -47 111 -47z" />
    <glyph glyph-name="oe" unicode="&#x153;" horiz-adv-x="814" 
d="M743 118l31 -79q-22 -19 -75 -37q-44 -14 -90 -14q-119 0 -170 85q-75 -83 -191 -83q-85 0 -138 52q-54 52 -54 137q0 109 75 180q77 71 179 71q52 0 94 -22t67 -62q71 84 183 84q80 0 124.5 -47t44.5 -128q0 -34 -6 -58l-2 -9h-287q-4 -105 102 -105q59 0 100 26z
M261 85q52 0 86.5 41t34.5 105q0 46 -24 75t-62 29q-52 0 -86 -42q-35 -41 -35 -105q0 -47 23 -75t63 -28zM638 340q-72 0 -97 -81h168q3 81 -71 81z" />
    <glyph glyph-name="Scaron" unicode="&#x160;" horiz-adv-x="525" 
d="M324 777l37 -63l55 63h85l-87 -109h-118l-58 109h86zM39 64l79 92q36 -26 78 -42q41 -16 82 -16q50 0 76 20t26 56q0 25 -23.5 43t-84.5 36q-91 28 -133 65.5t-42 95.5q0 89 67 144t185 55q64 0 117.5 -14.5t73.5 -32.5l17 -15l-78 -99q-18 18 -67 36q-39 14 -78 14
q-47 0 -72.5 -17.5t-25.5 -48.5q0 -23 22.5 -38.5t81.5 -33.5q95 -30 138.5 -68.5t43.5 -98.5q0 -89 -67 -150q-67 -60 -189 -60q-72 0 -128 19q-56 20 -78 39z" />
    <glyph glyph-name="scaron" unicode="&#x161;" horiz-adv-x="424" 
d="M249 606l37 -63l55 63h85l-87 -109h-118l-58 109h86zM35 37l51 82q58 -41 130 -41q69 0 69 39q0 31 -105 55q-43 10 -74 39.5t-31 73.5q0 64 50.5 104.5t136.5 40.5q108 0 160 -28l18 -9l-49 -89q-50 37 -127 37q-66 0 -66 -38q0 -15 22 -25t53.5 -18t63 -19.5
t53.5 -37.5t22 -65q0 -68 -51.5 -108t-150.5 -40q-52 0 -97 11.5t-63 24.5z" />
    <glyph glyph-name="Ydieresis" unicode="&#x178;" horiz-adv-x="542" 
d="M351 391l146 209h133l-266 -367l-32 -233h-121l32 231l-162 369h132l90 -209l16 -55zM225 700q0 26 21 46.5t47 20.5q22 0 37.5 -16t15.5 -39q0 -26 -21.5 -46t-48.5 -20q-21 0 -36 16t-15 38zM401 700q0 26 21 46.5t47 20.5q22 0 37.5 -16t15.5 -38q0 -27 -21.5 -47
t-48.5 -20q-21 0 -36 16t-15 38z" />
    <glyph glyph-name="Zcaron" unicode="&#x17d;" horiz-adv-x="544" 
d="M330 777l37 -63l55 63h85l-87 -109h-118l-58 109h86zM30 0l13 89l375 405h-308l15 106h468l-13 -93l-369 -401h311l-15 -106h-477z" />
    <glyph glyph-name="zcaron" unicode="&#x17e;" horiz-adv-x="428" 
d="M250 606l37 -63l55 63h85l-87 -109h-118l-58 109h86zM395 0h-362l9 66l242 257h-204l14 97h356l-1 -1l5 1l-8 -60l-239 -263h202z" />
    <glyph glyph-name="florin" unicode="&#x192;" horiz-adv-x="549" 
d="M196 143l64 184h-67l13 93h87l6 18q57 168 219 168q61 0 91 -16l11 -5l-62 -99q-22 13 -57 13q-61 0 -82 -60l-7 -19h126l-13 -93h-145l-68 -203q-24 -68 -63 -99.5t-107 -31.5q-55 0 -88 20l-10 7l50 94q20 -14 49 -14q38 0 53 43z" />
    <glyph glyph-name="circumflex" unicode="&#x2c6;" horiz-adv-x="371" 
d="M329 646l-37 62l-55 -62h-85l103 131h93l67 -131h-86z" />
    <glyph glyph-name="caron" unicode="&#x2c7;" horiz-adv-x="325" 
d="M223 777l37 -63l55 63h85l-87 -109h-118l-58 109h86z" />
    <glyph glyph-name="breve" unicode="&#x2d8;" horiz-adv-x="396" 
d="M376 818h95q-9 -64 -56 -111q-47 -45 -122 -45t-110 45q-34 46 -25 111h94q-4 -35 10 -54t42 -19t48 20t24 53z" />
    <glyph glyph-name="dotaccent" unicode="&#x2d9;" horiz-adv-x="331" 
d="M243 550q-27 0 -45 18.5t-18 45.5q0 34 25 58.5t59 24.5q27 0 45.5 -19t18.5 -46q0 -33 -25.5 -57.5t-59.5 -24.5z" />
    <glyph glyph-name="ring" unicode="&#x2da;" horiz-adv-x="288" 
d="M129 694q0 45 34.5 73t92.5 28q48 0 74.5 -21.5t26.5 -57.5q0 -45 -34.5 -73t-92.5 -28q-48 0 -74.5 21t-26.5 58zM291 710q0 31 -43 31q-51 0 -51 -41q0 -31 41 -31q53 0 53 41z" />
    <glyph glyph-name="ogonek" unicode="&#x2db;" horiz-adv-x="197" 
d="M144 -65l26 -42q-30 -33 -82 -33q-36 0 -55.5 18t-19.5 48q0 38 30.5 65.5t80.5 42.5l6 -34q-48 -28 -48 -55q0 -24 27 -24q12 0 35 14z" />
    <glyph glyph-name="tilde" unicode="&#x2dc;" horiz-adv-x="485" 
d="M404 649q-34 0 -72 21q-37 22 -53 22q-25 0 -37 -31l-6 -16l-84 8l11 34q31 96 114 96q33 0 70 -22t54 -22q28 0 38 31l6 16l84 -8l-10 -33q-13 -45 -43 -70.5t-72 -25.5z" />
    <glyph glyph-name="hungarumlaut" unicode="&#x2dd;" horiz-adv-x="395" 
d="M437 577l-101 -157h-78l56 157h123zM267 577l-101 -157h-78l56 157h123z" />
    <glyph glyph-name="pi" unicode="&#x3c0;" horiz-adv-x="557" 
d="M84 420h507l-13 -95h-67l-46 -325h-121l46 325h-131l-46 -325h-120l46 325h-68z" />
    <glyph glyph-name="endash" unicode="&#x2013;" horiz-adv-x="453" 
d="M92 239l14 97h335l-14 -97h-335z" />
    <glyph glyph-name="emdash" unicode="&#x2014;" horiz-adv-x="706" 
d="M92 239l14 97h588l-14 -97h-588z" />
    <glyph glyph-name="quoteleft" unicode="&#x2018;" horiz-adv-x="224" 
d="M266 537q-62 -14 -76 -52q20 -4 32 -20.5t12 -38.5q0 -32 -23.5 -55t-55.5 -23q-29 0 -47.5 21t-13.5 49l1 6q3 63 48 112q44 50 113 64z" />
    <glyph glyph-name="quoteright" unicode="&#x2019;" horiz-adv-x="225" 
d="M99 411q59 12 75 52q-20 4 -32 20.5t-12 38.5q0 32 24 55t56 23q29 0 47.5 -21t13.5 -49l-1 -6q-3 -64 -48 -113t-114 -63z" />
    <glyph glyph-name="quotesinglbase" unicode="&#x201a;" horiz-adv-x="221" 
d="M188 59l-1 -6q-10 -67 -53.5 -115.5t-108.5 -60.5l-9 63q62 14 76 52q-20 5 -32.5 21t-12.5 38q0 32 24 55t57 23q29 0 46.5 -20.5t13.5 -49.5z" />
    <glyph glyph-name="quotedblleft" unicode="&#x201c;" horiz-adv-x="406" 
d="M94 418l1 6q10 67 53 115t108 61l10 -63q-62 -14 -76 -52q20 -4 32 -20.5t12 -38.5q0 -32 -23.5 -55t-55.5 -23q-29 0 -47 20.5t-14 49.5zM447 537q-61 -13 -75 -52q20 -4 32 -20.5t12 -38.5q0 -32 -23.5 -55t-55.5 -23q-29 0 -47.5 21t-13.5 49l1 6q3 63 48 112
q44 50 113 64z" />
    <glyph glyph-name="quotedblright" unicode="&#x201d;" horiz-adv-x="397" 
d="M442 530v-6q0 -63 -46 -113q-47 -50 -116 -63l-9 63q59 12 75 52q-20 4 -32 20t-12 38q0 32 24 55.5t55 23.5q29 0 46 -20t15 -50zM99 411q59 12 75 52q-20 4 -32 20t-12 38q0 32 23.5 55.5t55.5 23.5q29 0 47.5 -21t13.5 -49l-1 -6q-3 -62 -48 -113q-45 -49 -113 -63z
" />
    <glyph glyph-name="quotedblbase" unicode="&#x201e;" horiz-adv-x="468" 
d="M188 59l-1 -6q-10 -67 -53.5 -115.5t-108.5 -60.5l-9 63q62 14 76 52q-20 5 -32.5 21t-12.5 38q0 32 24 55t57 23q29 0 46.5 -20.5t13.5 -49.5zM434 59l-1 -6q-10 -67 -53.5 -115.5t-108.5 -60.5l-9 63q62 14 76 52q-20 5 -32.5 21t-12.5 38q0 32 24 55t57 23
q29 0 46.5 -20.5t13.5 -49.5z" />
    <glyph glyph-name="dagger" unicode="&#x2020;" horiz-adv-x="425" 
d="M89 406l14 97h132l18 132h99l-18 -132h130l-14 -97h-130l-44 -250h-81l26 250h-132z" />
    <glyph glyph-name="daggerdbl" unicode="&#x2021;" horiz-adv-x="454" 
d="M111 439l14 97h132l18 132h99l-18 -132h130l-14 -97h-130l-21 -105l-8 -105h130l-14 -97h-130l-19 -132h-99l19 132h-132l14 97h132l20 105l9 105h-132z" />
    <glyph glyph-name="bullet" unicode="&#x2022;" horiz-adv-x="325" 
d="M206 317q35 0 58.5 -24t23.5 -59q0 -42 -33 -73q-31 -31 -75 -31q-36 0 -59 23.5t-23 58.5q0 41 32 73q34 32 76 32z" />
    <glyph glyph-name="ellipsis" unicode="&#x2026;" horiz-adv-x="751" 
d="M51 58q0 34 25.5 59.5t60.5 25.5q29 0 48 -19.5t19 -47.5q0 -34 -26.5 -59.5t-61.5 -25.5q-29 0 -47 19.5t-18 47.5zM308 58q0 34 26 59.5t61 25.5q28 0 47 -19.5t19 -47.5q0 -34 -26.5 -59.5t-60.5 -25.5q-29 0 -47.5 19.5t-18.5 47.5zM566 58q0 34 25.5 59.5t60.5 25.5
q29 0 48 -19.5t19 -47.5q0 -34 -26.5 -59.5t-61.5 -25.5q-28 0 -46.5 19.5t-18.5 47.5z" />
    <glyph glyph-name="perthousand" unicode="&#x2030;" horiz-adv-x="982" 
d="M258 613q55 0 86.5 -35.5t31.5 -91.5q0 -68 -45 -119t-115 -51q-54 0 -85.5 36.5t-31.5 92.5q0 69 45 118q45 50 114 50zM226 387q32 0 49 25.5t17 71.5q0 59 -44 59q-65 0 -65 -97q0 -59 43 -59zM606 600h101l-561 -600h-102zM541 289q55 0 86.5 -36.5t31.5 -92.5
q0 -68 -46 -118q-45 -50 -114 -50q-54 0 -86 36.5t-32 91.5q0 68 45 118q47 51 115 51zM531 219q-31 0 -48.5 -26t-17.5 -71q0 -59 44 -59q65 0 65 97q0 59 -43 59zM847 219q-32 0 -49 -25.5t-17 -71.5q0 -59 44 -59q65 0 65 97q0 59 -43 59zM857 289q54 0 85.5 -36
t31.5 -92q0 -67 -45 -118t-114 -51q-54 0 -86 36.5t-32 91.5q0 68 45 118q45 51 115 51z" />
    <glyph glyph-name="guilsinglleft" unicode="&#x2039;" horiz-adv-x="291" 
d="M60 197l3 22l154 189h100l-2 -9l-149 -186l-1 -8l97 -188l-2 -9h-100z" />
    <glyph glyph-name="guilsinglright" unicode="&#x203a;" horiz-adv-x="291" 
d="M290 219l-3 -22l-153 -189h-101l1 9l150 188l1 8l-97 186l1 9h101z" />
    <glyph glyph-name="fraction" unicode="&#x2044;" horiz-adv-x="571" 
d="M85 0h-96l587 632h96z" />
    <glyph glyph-name="Euro" unicode="&#x20ac;" horiz-adv-x="589" 
d="M444 274l-12 -83h-160q22 -87 121 -87q28 0 57.5 11.5t43.5 24.5l14 13l55 -92q-14 -14 -31 -26q-15 -10 -39 -22q-56 -25 -118 -25q-102 0 -161.5 54t-71.5 149h-80l12 83h65l4 27q1 15 6 30h-67l11 82h81q39 93 114 146.5t175 53.5q50 0 92.5 -17t59.5 -38l15 -18
l-81 -92q-15 21 -45 35q-26 14 -56 14q-94 0 -144 -84h159l-11 -82h-177q-5 -15 -6 -30q-2 -24 -2 -27h177z" />
    <glyph glyph-name="trademark" unicode="&#x2122;" horiz-adv-x="727" 
d="M458 281h-77l45 319h53l88 -141l131 141h51l-45 -319h-76l24 172l-83 -90h-30l-57 90zM374 600l-10 -68h-90l-35 -251h-76l35 251h-91l10 68h257z" />
    <glyph glyph-name="Omega" unicode="&#x2126;" horiz-adv-x="721" 
d="M47 0l15 105h108q-80 62 -80 180q0 133 99 230q101 98 257 98q130 0 202 -74q73 -73 73 -185q0 -75 -37 -141t-104 -108h109l-15 -105h-278l15 109q78 11 131 74q55 64 55 147q0 73 -46 119q-47 47 -121 47q-92 0 -156 -63q-63 -63 -63 -154q0 -66 36 -114t93 -56
l-15 -109h-278z" />
    <glyph glyph-name="partialdiff" unicode="&#x2202;" horiz-adv-x="508" 
d="M252 -11q-90 0 -142.5 51t-52.5 137q0 110 73 180q73 72 184 72q2 0 11.5 -0.5t12.5 -0.5v3q-15 21 -24 44l-109 242l2 11h115l154 -334q41 -99 32 -176l-1 -9q-12 -100 -82 -160q-71 -60 -173 -60zM388 231q0 46 -23.5 72.5t-64.5 26.5q-52 0 -86.5 -39.5t-34.5 -100.5
q0 -47 23.5 -74.5t63.5 -27.5q53 0 87.5 40t34.5 103z" />
    <glyph glyph-name="increment" unicode="&#x2206;" horiz-adv-x="658" 
d="M26 0l3 21l373 579h21l213 -579l-3 -21h-607zM473 105l-88 282h-7l-166 -282h261z" />
    <glyph glyph-name="product" unicode="&#x220f;" horiz-adv-x="636" 
d="M661 600l-84 -600h-121l70 495h-275l-70 -495h-121l84 600h517z" />
    <glyph glyph-name="summation" unicode="&#x2211;" horiz-adv-x="454" 
d="M130 600h365l-14 -105h-213l107 -166l-8 -61l-149 -163h208l-15 -105h-365l15 105l181 186l2 13l-128 191z" />
    <glyph glyph-name="minus" unicode="&#x2212;" horiz-adv-x="543" 
d="M90 250l14 97h434l-14 -97h-434z" />
    <glyph glyph-name="radical" unicode="&#x221a;" horiz-adv-x="625" 
d="M723 600l-517 -792h-23l-154 399h135l32 -100l22 -87h15l21 42q22 41 25 45l308 493h136z" />
    <glyph glyph-name="infinity" unicode="&#x221e;" horiz-adv-x="759" 
d="M225 113q-67 0 -107 43t-40 108q0 76 57 134q59 59 138 59q49 0 85.5 -26.5t71.5 -79.5q97 106 184 106q62 0 105 -42t43 -109q0 -76 -57 -135q-57 -58 -139 -58q-89 0 -158 105q-94 -105 -183 -105zM594 364q-51 0 -119 -77q26 -42 47.5 -61.5t49.5 -19.5q38 0 63.5 26
t25.5 63q0 30 -18.5 49.5t-48.5 19.5zM246 206q48 0 119 77q-26 42 -47.5 61.5t-49.5 19.5q-38 0 -63.5 -27t-25.5 -62q0 -30 18 -49.5t49 -19.5z" />
    <glyph glyph-name="integral" unicode="&#x222b;" horiz-adv-x="333" 
d="M111 32l68 485q9 62 45.5 97t98.5 35q49 0 75 -17l9 -6l-44 -89q-13 7 -30 7q-27 0 -35 -41l-68 -485q-9 -62 -45.5 -97t-97.5 -35q-48 0 -75 18l-9 5l44 89q13 -7 30 -7q29 0 34 41z" />
    <glyph glyph-name="approxequal" unicode="&#x2248;" horiz-adv-x="530" 
d="M369 155q-39 0 -81 19t-59 19q-27 0 -41 -27l-7 -15l-102 8l14 44q32 92 132 92q36 0 81 -20q42 -19 60 -19q26 0 40 27l7 15l103 -7l-15 -45q-31 -91 -132 -91zM397 351q-40 0 -82 19q-45 20 -59 20q-26 0 -40 -27l-7 -15l-103 7l15 45q31 91 132 91q39 0 81 -19t59 -19
q27 0 41 27l7 15l103 -8l-15 -44q-32 -92 -132 -92z" />
    <glyph glyph-name="notequal" unicode="&#x2260;" horiz-adv-x="487" 
d="M96 336l14 98h200l57 111l78 -28l-43 -83h97l-14 -98h-134l-52 -102h172l-14 -98h-209l-56 -109l-77 28l41 81h-88l14 98h125l52 102h-163z" />
    <glyph glyph-name="lessequal" unicode="&#x2264;" horiz-adv-x="391" 
d="M356 265l-79 -72l-171 188l2 21l225 192l60 -72l-156 -131zM370 148l-14 -98h-303l14 98h303z" />
    <glyph glyph-name="greaterequal" unicode="&#x2265;" horiz-adv-x="391" 
d="M169 193l-60 72l154 126l-119 131l80 72l171 -192l-2 -21zM49 50l14 98h302l-14 -98h-302z" />
    <glyph glyph-name="lozenge" unicode="&#x25ca;" horiz-adv-x="495" 
d="M373 600l133 -300l-217 -300h-83l-133 300l217 300h83zM206 300l55 -142h16l95 142l-55 142h-16z" />
    <glyph glyph-name="NULL" horiz-adv-x="0" 
 />
    <glyph glyph-name="CR.001" horiz-adv-x="333" 
 />
    </font>
</defs>
</svg>
