<?xml version="1.0" standalone="no"?>
<!DOCTYPE svg PUBLIC "-//W3C//DTD SVG 1.1//EN" "http://www.w3.org/Graphics/SVG/1.1/DTD/svg11.dtd" >
<svg xmlns="http://www.w3.org/2000/svg" xmlns:xlink="http://www.w3.org/1999/xlink" version="1.1">
<metadata>
Created by FontForge 20170731 at Mon Oct 20 12:31:00 2014
 By Aleksey,,,
Copyright (c) 2014 by Daniel Hernandez &#38; Miguel Hernandez. All rights reserved.
</metadata>
<defs>
<font id="Texta-MediumItalic" horiz-adv-x="523" >
  <font-face 
    font-family="Texta Medium"
    font-weight="500"
    font-style="italic"
    font-stretch="normal"
    units-per-em="1000"
    panose-1="2 0 0 0 0 0 0 0 0 0"
    ascent="800"
    descent="-200"
    x-height="420"
    cap-height="600"
    bbox="-17 -192 1069 813"
    underline-thickness="50"
    underline-position="-200"
    slope="-8"
    unicode-range="U+000D-25CA"
  />
<missing-glyph horiz-adv-x="564" 
 />
    <glyph glyph-name=".notdef" horiz-adv-x="564" 
 />
    <glyph glyph-name=".null" horiz-adv-x="0" 
 />
    <glyph glyph-name="nonmarkingreturn" horiz-adv-x="333" 
 />
    <glyph glyph-name="NUL" horiz-adv-x="0" 
 />
    <glyph glyph-name="NUL" horiz-adv-x="0" 
 />
    <glyph glyph-name="CR" unicode="&#xd;" horiz-adv-x="105" 
 />
    <glyph glyph-name="space" unicode=" " horiz-adv-x="220" 
 />
    <glyph glyph-name="exclam" unicode="!" horiz-adv-x="213" 
d="M240 600l-80 -425h-57l38 425h99zM59 41q0 25 19 43.5t43 18.5q21 0 34.5 -14t13.5 -35q0 -24 -19.5 -43t-43.5 -19q-20 0 -33.5 14.5t-13.5 34.5z" />
    <glyph glyph-name="quotedbl" unicode="&#x22;" horiz-adv-x="321" 
d="M241 684l-74 -209h-50l47 209h77zM385 684l-74 -209h-50l47 209h77z" />
    <glyph glyph-name="numbersign" unicode="#" horiz-adv-x="622" 
d="M589 583l-57 -159h119l-20 -51h-118l-58 -164h114l-17 -52h-115l-56 -157h-54l55 157h-156l-56 -157h-55l56 157h-118l19 52h117l59 164h-114l18 51h115l57 159h54l-57 -159h157l56 159h55zM302 373l-58 -164h156l59 164h-157z" />
    <glyph glyph-name="dollar" unicode="$" horiz-adv-x="511" 
d="M47 59l54 62q19 -19 61 -38q33 -14 75 -19l29 209q-86 28 -124.5 64t-38.5 91q0 78 56.5 127.5t154.5 56.5l15 104h59l-15 -104q50 -3 92 -17.5t58 -28.5l14 -13l-54 -68q-11 15 -54 32q-28 12 -67 17l-27 -189q90 -29 128.5 -66.5t38.5 -94.5q0 -81 -58 -135t-159 -62
l-13 -94h-59l13 94q-53 3 -98.5 20.5t-63.5 35.5zM412 170q0 27 -20 46t-69 38l-27 -190q57 6 86.5 34t29.5 72zM192 440q0 -24 20 -42t67 -35l24 171q-51 -5 -81 -30t-30 -64z" />
    <glyph glyph-name="percent" unicode="%" horiz-adv-x="656" 
d="M257 613q52 0 81.5 -35.5t29.5 -91.5q0 -70 -43 -122t-110 -52q-53 0 -83 36.5t-30 92.5q0 70 43 120q43 52 112 52zM249 553q-36 0 -57.5 -30.5t-21.5 -78.5q0 -32 14 -51.5t39 -19.5q33 0 55 31.5t22 77.5q0 33 -13.5 52t-37.5 19zM528 293q52 0 82 -36t30 -92
q0 -68 -44 -121q-43 -52 -110 -52q-52 0 -82 36.5t-30 92.5q0 70 43 120q43 52 111 52zM520 233q-35 0 -57 -31t-22 -77q0 -72 53 -72q35 0 56 31t21 78q0 71 -51 71zM605 600h84l-561 -600h-83z" />
    <glyph glyph-name="ampersand" unicode="&#x26;" horiz-adv-x="598" 
d="M507 287l74 -19q-28 -87 -80 -154l98 -114h-117l-44 52q-80 -62 -179 -62q-90 0 -141.5 41t-51.5 106q0 62 36.5 103.5t111.5 79.5l-12 15q-41 50 -41 110q0 68 53 118q55 50 134 50q66 0 105.5 -34t39.5 -91q0 -63 -37.5 -104.5t-117.5 -81.5l115 -133q32 49 54 118z
M267 61q68 0 127 44l-133 159q-54 -28 -78.5 -54t-24.5 -63q0 -39 30.5 -62.5t78.5 -23.5zM245 450q0 -38 37 -82l10 -12q63 29 90.5 55t27.5 64q0 32 -19 50.5t-53 18.5q-40 0 -66.5 -26t-26.5 -68z" />
    <glyph glyph-name="quotesingle" unicode="'" horiz-adv-x="177" 
d="M241 684l-74 -209h-50l47 209h77z" />
    <glyph glyph-name="parenleft" unicode="(" horiz-adv-x="266" 
d="M163 287q-32 -225 74 -371l-58 -53q-137 170 -101 424q36 255 220 424l43 -52q-147 -150 -178 -372z" />
    <glyph glyph-name="parenright" unicode=")" horiz-adv-x="266" 
d="M190 366q0 180 -81 293l59 52q107 -133 107 -343q0 -295 -226 -505l-44 53q185 182 185 450z" />
    <glyph glyph-name="asterisk" unicode="*" horiz-adv-x="387" 
d="M142 444l105 95l-125 21l31 66l105 -65l1 132h66l-42 -133l126 66l14 -66l-134 -21l81 -95l-62 -39l-42 118l-75 -118z" />
    <glyph glyph-name="plus" unicode="+" horiz-adv-x="511" 
d="M363 515l-26 -187h183l-10 -68h-183l-25 -179h-69l25 179h-182l10 68h182l26 187h69z" />
    <glyph glyph-name="comma" unicode="," horiz-adv-x="207" 
d="M161 42l-1 -8q-8 -61 -47.5 -103.5t-99.5 -53.5l-7 46q72 17 85 68q-36 9 -36 45q0 24 18 41t42 17q22 0 35.5 -15t10.5 -37z" />
    <glyph glyph-name="hyphen" unicode="-" horiz-adv-x="394" 
d="M84 195l10 68h280l-10 -68h-280z" />
    <glyph glyph-name="period" unicode="." horiz-adv-x="205" 
d="M100 -10q-19 0 -32 13t-13 33q0 24 18 41t42 17q20 0 33 -13t13 -33q0 -24 -18.5 -41t-42.5 -17z" />
    <glyph glyph-name="slash" unicode="/" horiz-adv-x="577" 
d="M92 -111l-87 -1l576 895h85z" />
    <glyph glyph-name="zero" unicode="0" horiz-adv-x="603" 
d="M301 -14q-104 0 -161 74t-57 188q0 151 85 257q86 108 221 108q105 0 160 -73q56 -74 56 -188q3 -147 -84 -257.5t-220 -108.5zM312 65q94 0 151 81q57 82 57 198q0 86 -37.5 138.5t-104.5 52.5q-95 0 -153 -82q-57 -83 -57 -198q0 -86 38 -138t106 -52z" />
    <glyph glyph-name="one" unicode="1" horiz-adv-x="302" 
d="M89 525l11 75h217l-85 -600h-83l74 525h-134z" />
    <glyph glyph-name="two" unicode="2" horiz-adv-x="497" 
d="M45 0l8 57l282 252q44 40 60 64q17 26 17 64q0 43 -29.5 70t-78.5 27q-73 0 -158 -70l-35 66q10 9 26 23q21 16 72 37q55 23 110 23q88 0 136 -43.5t48 -116.5q0 -51 -19 -90.5t-69 -83.5l-229 -204h279l-11 -75h-409z" />
    <glyph glyph-name="three" unicode="3" horiz-adv-x="502" 
d="M274 281h-79l9 63l193 175h-273l11 81h394l-9 -68l-191 -180q76 -6 116.5 -44t40.5 -105q0 -92 -67 -153q-67 -60 -186 -60q-71 0 -118 24t-65 48l-6 8l58 67q0 -3 14.5 -16.5t50 -29.5t76.5 -16q65 0 104 33t39 86q0 42 -29 64.5t-83 22.5z" />
    <glyph glyph-name="four" unicode="4" horiz-adv-x="555" 
d="M43 139l9 61l389 400h67l-54 -386h103l-11 -75h-103l-20 -139h-83l20 139h-317zM162 217v-3h209l35 255l-227 -237z" />
    <glyph glyph-name="five" unicode="5" horiz-adv-x="486" 
d="M491 525h-264l-28 -165q37 8 79 8q97 0 147 -41.5t50 -117.5q0 -97 -66 -160q-65 -62 -180 -62q-69 0 -114.5 25t-62.5 50l-6 8l55 60l4 -6q4 -5 6.5 -8t9 -8.5t16.5 -12t23 -13.5q36 -18 78 -18q68 0 109.5 36.5t41.5 96.5q0 45 -34.5 71t-96.5 26q-69 0 -120 -18
q-14 -4 -16 -7l-13 11l53 320h339z" />
    <glyph glyph-name="six" unicode="6" horiz-adv-x="527" 
d="M177 310l-1 -4q66 69 162 69q80 0 129 -47q49 -46 49 -117q0 -92 -70 -156q-71 -65 -170 -65q-91 0 -142.5 59t-51.5 178q0 181 82 282q82 103 212 103q66 0 106 -24.5t54 -49.5l4 -8l-56 -62q-1 1 -5.5 7t-10 13t-16 15.5t-22.5 15t-29 11t-36 4.5q-141 0 -188 -224z
M322 301q-55 0 -96.5 -31t-57.5 -82q5 -61 36 -91.5t82 -30.5q61 0 102 40q43 40 43 96q0 45 -29.5 72t-79.5 27z" />
    <glyph glyph-name="seven" unicode="7" horiz-adv-x="443" 
d="M102 525l10 75h401l-8 -57l-337 -543h-99l332 525h-299z" />
    <glyph glyph-name="eight" unicode="8" horiz-adv-x="521" 
d="M259 -14q-88 0 -139.5 45.5t-51.5 116.5q0 55 28.5 98t80.5 68q-55 40 -55 111q0 80 61 134t164 54q83 0 130 -41t47 -107q0 -95 -92 -151q69 -39 69 -124q0 -84 -67 -144q-68 -60 -175 -60zM415 182q0 43 -31 69.5t-84 26.5q-63 0 -104.5 -34.5t-41.5 -85.5
q0 -43 31.5 -69.5t84.5 -26.5q63 0 104 34.5t41 85.5zM310 346q58 0 93.5 30.5t35.5 76.5q0 37 -27 60.5t-75 23.5q-59 0 -94.5 -31t-35.5 -76q0 -38 27 -61t76 -23z" />
    <glyph glyph-name="nine" unicode="9" horiz-adv-x="525" 
d="M252 64q78 0 127.5 58.5t53.5 169.5v3q-63 -69 -161 -69q-80 0 -129 46t-49 119q0 91 69 155q71 66 170 66q92 0 143.5 -59.5t51.5 -178.5q0 -178 -80 -284q-80 -104 -207 -104q-112 0 -159 74l-5 8l57 62l6 -9q43 -57 112 -57zM287 300q54 0 95.5 30t57.5 81
q-10 124 -116 124q-59 0 -103 -41q-42 -40 -42 -95q0 -45 29 -72t79 -27z" />
    <glyph glyph-name="colon" unicode=":" horiz-adv-x="218" 
d="M96 3q-15 5 -20.5 20.5t2.5 31.5t24.5 23.5t31.5 2.5q16 -6 21 -21t-3 -32q-8 -16 -24.5 -23.5t-31.5 -1.5zM142 336q-15 6 -20 20.5t3 31.5q7 16 23.5 23t31.5 2q16 -6 21.5 -20.5t-2.5 -31.5t-24.5 -24t-32.5 -1z" />
    <glyph glyph-name="semicolon" unicode=";" horiz-adv-x="236" 
d="M24 -77q72 16 85 68q-36 8 -36 44q0 25 18 42t43 17q22 0 35.5 -15t9.5 -37l-1 -5v-3q-3 -60 -43.5 -103t-103.5 -54zM166 323q-20 0 -33 12.5t-13 32.5q0 24 18 41.5t43 17.5q19 0 32 -13.5t13 -33.5q0 -24 -18 -40.5t-42 -16.5z" />
    <glyph glyph-name="less" unicode="&#x3c;" horiz-adv-x="373" 
d="M75 277l6 44l299 190l-12 -86l-205 -126l169 -126l-12 -86z" />
    <glyph glyph-name="equal" unicode="=" horiz-adv-x="464" 
d="M110 354l9 68h344l-9 -68h-344zM83 163l10 68h344l-10 -68h-344z" />
    <glyph glyph-name="greater" unicode="&#x3e;" horiz-adv-x="373" 
d="M382 321l-6 -44l-299 -190l12 86l206 126l-170 126l12 86z" />
    <glyph glyph-name="question" unicode="?" horiz-adv-x="423" 
d="M134 491l-27 68q31 22 80 39q45 15 91 15q82 0 129 -37t47 -101q0 -46 -18.5 -81.5t-46 -58t-55.5 -42t-51 -43.5t-29 -51l-5 -25h-61l5 37q5 38 32.5 72t58 55t55.5 52t25 65q0 36 -27 57.5t-74 21.5q-61 0 -113 -32zM148 40q0 25 19 43t44 18q20 0 33.5 -14t13.5 -34
q0 -25 -19 -43t-44 -18q-20 0 -33.5 14t-13.5 34z" />
    <glyph glyph-name="at" unicode="@" horiz-adv-x="1005" 
d="M760 51q-57 0 -88 27.5t-35 69.5h-6q-72 -91 -180 -91q-70 0 -111.5 43t-41.5 116q0 120 81 200q81 81 185 81q58 0 90 -24.5t41 -61.5l28 76h63l-64 -249q-10 -31 -10 -54q0 -33 18 -52t51 -19q65 0 114 67t49 176q0 62 -21 120t-61 106t-106 77t-147 29
q-95 0 -184.5 -37.5t-154.5 -101.5q-64 -64 -101 -147.5t-37 -171.5q0 -153 101 -259q102 -106 256 -106q54 0 110 14q53 13 82 29l27 14l17 -51q-5 -3 -30 -17q-23 -12 -84 -28q-65 -17 -130 -17q-124 0 -218 58q-93 56 -143 150q-48 95 -48 205q0 101 41.5 196.5
t113.5 168.5q73 73 176 115.5t214 42.5q175 0 285 -110t110 -270q0 -131 -74 -223q-73 -91 -178 -91zM482 129q71 0 124 59q54 58 54 135q0 48 -27 75t-72 27q-67 0 -121 -55q-53 -56 -53 -137q0 -49 25.5 -76.5t69.5 -27.5z" />
    <glyph glyph-name="A" unicode="A" horiz-adv-x="596" 
d="M421 600l169 -600h-87l-35 129h-305l-71 -129h-86l336 600h79zM368 499l-165 -297h245z" />
    <glyph glyph-name="B" unicode="B" horiz-adv-x="603" 
d="M585 187q0 -89 -64 -138t-174 -49h-268l84 600h257q90 0 138 -36t48 -103q0 -55 -29.5 -95t-80.5 -58v-3q42 -11 65.5 -42t23.5 -76zM385 267h-186l-27 -192h187q62 0 101 29t39 79q0 39 -31.5 61.5t-82.5 22.5zM518 446q0 79 -109 79h-174l-26 -185h173q61 0 98.5 29
t37.5 77z" />
    <glyph glyph-name="C" unicode="C" horiz-adv-x="563" 
d="M509 126l39 -64q-8 -8 -35 -27q-13 -9 -43 -23q-58 -26 -132 -26q-119 0 -190 77t-71 194q0 149 100 252q101 104 249 104q70 0 117.5 -22.5t64.5 -45.5l7 -8l-57 -64q-27 27 -51 40q-37 22 -91 22q-95 0 -166 -68q-70 -67 -84 -168q-14 -100 37 -167q53 -68 147 -68
q39 0 79.5 14.5t60.5 31.5z" />
    <glyph glyph-name="D" unicode="D" horiz-adv-x="631" 
d="M637 343q0 -152 -100 -248q-100 -95 -253 -95h-205l84 600h205q125 0 196 -70q73 -70 73 -187zM353 525h-118l-63 -450h118q111 0 185 70q76 70 76 187q0 89 -54.5 141t-143.5 52z" />
    <glyph glyph-name="E" unicode="E" horiz-adv-x="542" 
d="M500 340l-10 -73h-291l-27 -192h341l-11 -75h-423l84 600h423l-10 -75h-341l-26 -185h291z" />
    <glyph glyph-name="F" unicode="F" horiz-adv-x="532" 
d="M500 340l-10 -73h-291l-38 -267h-82l84 600h424l-10 -75h-342l-26 -185h291z" />
    <glyph glyph-name="G" unicode="G" horiz-adv-x="639" 
d="M558 256l1 4h-200l11 73h285l-7 -50q-19 -136 -103 -217q-83 -80 -210 -80q-120 0 -189 76q-68 77 -68 193q0 149 99 253q99 105 249 105q77 0 126 -23t70 -47l6 -8l-58 -63q-22 25 -68 45q-40 18 -87 18q-108 0 -180 -80q-71 -80 -71 -191q0 -87 48 -144q48 -56 134 -56
q81 0 137.5 52.5t74.5 139.5z" />
    <glyph glyph-name="H" unicode="H" horiz-adv-x="647" 
d="M652 600l-84 -600h-83l37 260h-324l-37 -260h-82l84 600h82l-37 -267h324l37 267h83z" />
    <glyph glyph-name="I" unicode="I" horiz-adv-x="240" 
d="M245 600l-84 -600h-82l84 600h82z" />
    <glyph glyph-name="J" unicode="J" horiz-adv-x="436" 
d="M21 37l50 63q37 -34 96 -34q124 0 144 146l55 388h81l-57 -405q-14 -100 -72.5 -154.5t-155.5 -54.5q-90 0 -141 51z" />
    <glyph glyph-name="K" unicode="K" horiz-adv-x="576" 
d="M245 600l-44 -317l345 317h97l-1 -12l-260 -238l182 -338l-2 -12h-89l-157 289l-131 -120l-24 -169h-82l84 600h82z" />
    <glyph glyph-name="L" unicode="L" horiz-adv-x="491" 
d="M466 0h-387l84 600h82l-73 -525h305z" />
    <glyph glyph-name="M" unicode="M" horiz-adv-x="724" 
d="M564 0l63 446l-222 -242h-27l-155 240l-62 -444h-83l85 600h60l184 -288l263 288h60l-84 -600h-82z" />
    <glyph glyph-name="N" unicode="N" horiz-adv-x="666" 
d="M671 600l-84 -600h-61l-301 455l-64 -455h-82l84 600h61l301 -451l63 451h83z" />
    <glyph glyph-name="O" unicode="O" horiz-adv-x="676" 
d="M335 -14q-118 0 -188 76q-69 76 -69 194q0 148 99 252q99 105 246 105q119 0 190 -77q70 -76 70 -194q0 -148 -100 -252q-99 -104 -248 -104zM346 65q107 0 179 78q72 79 72 190q0 86 -50 144q-49 58 -135 58q-107 0 -177 -79q-71 -80 -71 -190q0 -88 49 -144
q49 -57 133 -57z" />
    <glyph glyph-name="P" unicode="P" horiz-adv-x="577" 
d="M404 600q96 0 149.5 -45t53.5 -126q0 -111 -72 -174q-73 -62 -192 -62h-155l-27 -193h-82l84 600h241zM522 417q0 53 -34.5 80.5t-97.5 27.5h-155l-36 -257h155q80 0 124 37.5t44 111.5z" />
    <glyph glyph-name="Q" unicode="Q" horiz-adv-x="676" 
d="M335 -14q-118 0 -188 76q-69 76 -69 194q0 148 99 252q99 105 246 105q119 0 190 -77q70 -76 70 -194q0 -106 -54 -191q-55 -87 -145 -131l63 -138h-93l-50 111q-35 -7 -69 -7zM346 65q107 0 179 78q72 79 72 190q0 86 -50 144q-49 58 -135 58q-107 0 -177 -79
q-71 -80 -71 -190q0 -88 49 -144q49 -57 133 -57z" />
    <glyph glyph-name="R" unicode="R" horiz-adv-x="598" 
d="M163 600h240q97 0 150.5 -45t53.5 -126q0 -80 -43 -136t-118 -80l-1 -4l120 -193l-2 -16h-89l-122 199h-163l-28 -199h-82zM521 417q0 53 -34 80.5t-97 27.5h-155l-36 -252h162q73 0 116.5 37.5t43.5 106.5z" />
    <glyph glyph-name="S" unicode="S" horiz-adv-x="513" 
d="M47 59l54 62q23 -23 73 -42q41 -16 90 -16q73 0 110.5 28.5t37.5 78.5q0 32 -29 54t-105 46q-93 30 -134 66t-41 92q0 83 65 134q64 51 176 51q59 0 108.5 -14t67.5 -31l17 -15l-54 -68q-17 19 -66 37q-40 14 -84 14q-64 0 -102.5 -26t-38.5 -70q0 -29 29 -49t105 -43
q95 -29 135.5 -67.5t40.5 -96.5q0 -86 -65 -142t-182 -56q-78 0 -130 21.5t-71 44.5z" />
    <glyph glyph-name="T" unicode="T" horiz-adv-x="521" 
d="M99 525l11 75h471l-11 -75h-195l-74 -525h-82l74 525h-194z" />
    <glyph glyph-name="U" unicode="U" horiz-adv-x="632" 
d="M314 -14q-115 0 -170 73t-38 193l49 348h82l-49 -348q-12 -85 23.5 -136t113.5 -51q79 0 127.5 50t60.5 137l49 348h83l-49 -348q-16 -119 -92 -193q-74 -73 -190 -73z" />
    <glyph glyph-name="V" unicode="V" horiz-adv-x="596" 
d="M258 0l-168 600h86l135 -500l276 500h87l-337 -600h-79z" />
    <glyph glyph-name="W" unicode="W" horiz-adv-x="805" 
d="M529 0l-62 466l-192 -466h-64l-112 600h87l72 -464l191 464h74l60 -464l204 464h87l-280 -600h-65z" />
    <glyph glyph-name="X" unicode="X" horiz-adv-x="538" 
d="M602 600l-230 -292l153 -308h-99l-105 216l-17 43l-29 -43l-163 -216h-99l237 308l-146 292h99l101 -207l15 -40l26 40l158 207h99z" />
    <glyph glyph-name="Y" unicode="Y" horiz-adv-x="533" 
d="M336 346l181 254h94l-271 -370l-32 -230h-83l32 230l-167 370h94l111 -254l13 -42h2z" />
    <glyph glyph-name="Z" unicode="Z" horiz-adv-x="527" 
d="M30 0l8 57l421 468h-343l10 75h453l-8 -58l-413 -467h341l-11 -75h-458z" />
    <glyph glyph-name="bracketleft" unicode="[" horiz-adv-x="323" 
d="M44 -130l117 830h244l-10 -68h-165l-97 -694h165l-10 -68h-244z" />
    <glyph glyph-name="backslash" unicode="\" horiz-adv-x="364" 
d="M231 -128l-87 926h83l86 -926h-82z" />
    <glyph glyph-name="bracketright" unicode="]" horiz-adv-x="323" 
d="M-2 -130l10 68h165l97 694h-165l10 68h245l-117 -830h-245z" />
    <glyph glyph-name="asciicircum" unicode="^" horiz-adv-x="428" 
d="M381 497l-78 139l-118 -139h-68l169 196h51l115 -196h-71z" />
    <glyph glyph-name="underscore" unicode="_" horiz-adv-x="544" 
d="M36 -108l10 68h442l-10 -68h-442z" />
    <glyph glyph-name="grave" unicode="`" horiz-adv-x="279" 
d="M214 497l-69 133l99 15l28 -148h-58z" />
    <glyph glyph-name="a" unicode="a" 
d="M438 355h3l21 65h56l-59 -420h-56l-2 65h-3q0 -1 -5.5 -7.5t-19.5 -18.5t-32 -23q-46 -26 -107 -26q-75 0 -122 51.5t-47 135.5q0 110 67 181q68 72 161 72q61 0 96.5 -22.5t44.5 -45.5zM415 234q0 59 -31.5 93.5t-82.5 34.5q-63 0 -108 -50t-45 -125q0 -57 31 -93
t80 -36q65 0 110 48q46 49 46 128z" />
    <glyph glyph-name="b" unicode="b" horiz-adv-x="522" 
d="M64 0l85 605h81l-34 -244h4l1 1q1 2 3 4.5t4.5 6t6.5 7.5t9 8t11.5 9t13.5 9q42 24 102 24q73 0 119 -52q47 -53 47 -136q0 -110 -68 -181t-161 -71q-61 0 -96 24t-44 48l-3 8h-3l-21 -70h-57zM168 186q0 -59 31 -93.5t82 -34.5q63 0 108 50q45 51 45 126
q0 57 -30.5 92.5t-79.5 35.5q-64 0 -110 -49t-46 -127z" />
    <glyph glyph-name="c" unicode="c" horiz-adv-x="410" 
d="M248 -10q-84 0 -134 51.5t-50 136.5q0 109 70 180q70 72 176 72q38 0 69.5 -8.5t44.5 -19.5l10 -9l-33 -61q-36 30 -96 30q-66 0 -112 -49q-45 -48 -45 -129q0 -59 31.5 -92.5t83.5 -33.5t91 22l13 8l13 -60q-14 -14 -57 -28q-33 -10 -75 -10z" />
    <glyph glyph-name="d" unicode="d" 
d="M426 367h4l33 238h81l-85 -605h-56l-2 65h-3q0 -1 -5.5 -7.5t-19.5 -18.5t-32 -23q-46 -26 -107 -26q-75 0 -122 51.5t-47 135.5q0 110 67 181q68 72 162 72q44 0 78.5 -15t44.5 -33zM415 234q0 59 -31.5 93.5t-82.5 34.5q-63 0 -108 -50t-45 -125q0 -57 31 -93t80 -36
q65 0 110 48q46 49 46 128z" />
    <glyph glyph-name="e" unicode="e" horiz-adv-x="458" 
d="M387 95l22 -57q-22 -20 -70 -36q-39 -13 -88 -13q-88 0 -138 50.5t-50 136.5q0 106 66 180q68 74 168 74q89 0 130 -59q42 -59 29 -150l-3 -21h-307q-7 -69 25.5 -106t94.5 -37q65 0 107 29zM287 363q-96 0 -129 -103h221q0 103 -92 103z" />
    <glyph glyph-name="f" unicode="f" horiz-adv-x="312" 
d="M350 355h-121l-50 -355h-82l50 355h-77l9 65h77l6 45q9 68 53.5 108t113.5 40q53 0 79 -15l9 -5l-34 -64q-23 13 -59 13q-32 0 -53 -19.5t-26 -54.5l-7 -48h121z" />
    <glyph glyph-name="g" unicode="g" horiz-adv-x="522" 
d="M517 420l-55 -392q-13 -94 -75 -150.5t-159 -56.5q-112 0 -159 65l51 53q13 -21 52 -38q29 -13 64 -13q126 0 145 138l5 33h-4q0 -1 -4.5 -7t-16.5 -17.5t-29 -20.5q-42 -24 -101 -24q-75 0 -121 52t-46 136q0 110 68 181t163 71q60 0 94.5 -24t43.5 -48l3 -8h4l20 70h57
zM414 234q0 59 -31.5 93.5t-82.5 34.5q-62 0 -108 -51q-45 -50 -45 -124q0 -58 30.5 -93.5t79.5 -35.5q65 0 111 49t46 127z" />
    <glyph glyph-name="h" unicode="h" horiz-adv-x="510" 
d="M64 0l85 605h82l-32 -225h3q50 50 137 50q80 0 119.5 -52t27.5 -139l-34 -239h-82l32 229q9 59 -15.5 95.5t-75.5 36.5q-54 0 -88 -36q-34 -34 -42 -76l-35 -249h-82z" />
    <glyph glyph-name="i" unicode="i" horiz-adv-x="213" 
d="M177 506q-20 0 -33 13t-13 32q0 24 18.5 41t42.5 17q20 0 33 -13t13 -33q0 -24 -18 -40.5t-43 -16.5zM66 0l59 420h81l-59 -420h-81z" />
    <glyph glyph-name="j" unicode="j" horiz-adv-x="213" 
d="M-17 -156l10 68h11q50 0 57 51l64 457h81l-65 -461q-18 -115 -128 -115h-30zM177 506q-20 0 -33 12.5t-13 32.5q0 24 18.5 41t42.5 17q20 0 33 -13t13 -33q0 -23 -18.5 -40t-42.5 -17z" />
    <glyph glyph-name="k" unicode="k" horiz-adv-x="447" 
d="M390 420h104l-209 -182l152 -238h-100l-120 185l-51 -44l-20 -141h-82l85 605h82l-52 -369z" />
    <glyph glyph-name="l" unicode="l" horiz-adv-x="215" 
d="M66 0l85 605h82l-85 -605h-82z" />
    <glyph glyph-name="m" unicode="m" horiz-adv-x="810" 
d="M64 0l59 420h55v-61h6q31 37 66 54t85 17q105 0 139 -78h5q60 78 160 78q80 0 119 -51.5t27 -139.5l-34 -239h-81l32 230q8 59 -15.5 95t-75.5 36q-49 0 -82.5 -31t-43.5 -76l-36 -254h-82l34 244q7 53 -17.5 85t-76.5 32q-51 0 -84 -33q-33 -34 -41 -74l-36 -254h-82z
" />
    <glyph glyph-name="n" unicode="n" horiz-adv-x="511" 
d="M64 0l59 420h55v-61h6q57 71 154 71q81 0 120.5 -52t27.5 -139l-34 -239h-81l32 230q8 59 -16.5 95t-76.5 36q-53 0 -88 -35q-33 -33 -41 -76l-35 -250h-82z" />
    <glyph glyph-name="o" unicode="o" horiz-adv-x="500" 
d="M496 238q0 -110 -73 -179t-174 -69q-81 0 -134 51q-51 51 -51 137q0 111 73 181q74 71 174 71q80 0 133 -53q52 -52 52 -139zM258 56q63 0 109 49q47 50 47 128q0 59 -31.5 95t-80.5 36q-64 0 -111 -50q-46 -49 -46 -129q0 -59 31 -94t82 -35z" />
    <glyph glyph-name="p" unicode="p" horiz-adv-x="522" 
d="M156 53h-3l-29 -209h-82l81 576h56l1 -61h7q0 1 5.5 7t19.5 17.5t31 21.5q46 25 106 25q75 0 121 -51q47 -52 47 -136q0 -110 -67 -181q-68 -72 -159 -72q-57 0 -89.5 19t-42.5 37zM168 186q0 -59 31 -93.5t82 -34.5q63 0 107 50q45 50 45 125q0 57 -30 93t-79 36
q-64 0 -110 -49t-46 -127z" />
    <glyph glyph-name="q" unicode="q" 
d="M518 420l-81 -576h-81l31 215h-4q0 -1 -4.5 -7t-16.5 -17.5t-29 -20.5q-42 -24 -101 -24q-75 0 -121 52t-46 136q0 110 68 181t163 71q60 0 94.5 -24t43.5 -48l3 -8h4l20 70h57zM415 234q0 59 -31.5 93.5t-82.5 34.5q-61 0 -108 -51q-45 -50 -45 -124q0 -58 30.5 -93.5
t79.5 -35.5q65 0 111 49t46 127z" />
    <glyph glyph-name="r" unicode="r" horiz-adv-x="289" 
d="M336 421l-9 -67h-23q-45 0 -81 -33q-35 -31 -43 -81l-34 -240h-82l59 420h55l-1 -71h5q42 72 131 72h23z" />
    <glyph glyph-name="s" unicode="s" horiz-adv-x="413" 
d="M43 41l41 56q16 -14 63 -30q36 -11 72 -11q96 0 96 61q0 21 -24 35t-58.5 23.5t-69.5 21.5t-59 36.5t-24 61.5q0 59 47 97t130 38q94 0 148 -26l17 -9l-40 -66q-49 35 -127 35q-95 0 -95 -57q0 -20 24.5 -32.5t59 -21t69 -20t59 -37.5t24.5 -65q0 -63 -48 -102t-138 -39
q-50 0 -92.5 12t-59.5 26z" />
    <glyph glyph-name="t" unicode="t" horiz-adv-x="325" 
d="M74 420h77l18 128h82l-18 -128h120l-9 -65h-120l-33 -232q-9 -63 50 -63q29 0 51 14l9 4l17 -58q-5 -4 -16 -10t-35 -13t-48 -7q-64 0 -91.5 34.5t-18.5 97.5l33 233h-77z" />
    <glyph glyph-name="u" unicode="u" horiz-adv-x="509" 
d="M387 173l35 247h82l-59 -420h-54l-6 59h-3q-52 -69 -154 -69q-80 0 -118 51.5t-26 139.5l34 239h81l-32 -230q-9 -61 13.5 -96t74.5 -35q55 0 90 36q36 36 42 78z" />
    <glyph glyph-name="v" unicode="v" horiz-adv-x="457" 
d="M507 420l-250 -420h-57l-132 420h90l79 -295q4 -17 2 -29h5q3 12 12 29l162 295h89z" />
    <glyph glyph-name="w" unicode="w" horiz-adv-x="656" 
d="M168 0l-95 420h85l51 -295q3 -27 2 -29h7q2 8 12 30l124 294h69l42 -294q4 -17 1 -30h8q6 20 10 29l136 295h81l-213 -420h-71l-40 289q-4 11 -2 32h-4q-3 -13 -11 -32l-123 -289h-69z" />
    <glyph glyph-name="x" unicode="x" horiz-adv-x="438" 
d="M14 0l186 218l-117 202h94l79 -151h3l123 151h93l-176 -202l126 -218h-93l-88 167h-3l-135 -167h-92z" />
    <glyph glyph-name="y" unicode="y" horiz-adv-x="506" 
d="M420 420h81l-57 -406q-12 -89 -70.5 -141t-152.5 -52q-48 0 -90 17q-39 16 -51 27q-10 11 -18 21l50 53l4 -5l5 -4q5 -5 7.5 -7t8.5 -6.5t10.5 -7t11.5 -6.5t14 -6t16 -4.5t19 -3.5t20 -1q116 0 135 124l5 32q-54 -54 -135 -54q-85 0 -124 51.5t-27 140.5l33 238h82
l-32 -230q-8 -60 14.5 -95.5t73.5 -35.5q55 0 89 34q36 36 43 77z" />
    <glyph glyph-name="z" unicode="z" horiz-adv-x="423" 
d="M387 0h-352l6 43l287 310h-242l9 67h341v-1l10 1l-5 -39l-284 -314h239z" />
    <glyph glyph-name="braceleft" unicode="{" horiz-adv-x="280" 
d="M61 321h25q63 0 77 92l24 169q16 122 148 133l3 -69q-34 -5 -48 -20t-19 -52l-23 -168q-14 -95 -78 -116l-1 -9q58 -19 45 -113l-24 -171q-5 -36 5.5 -51t41.5 -20l-23 -68q-127 9 -110 132l24 169q13 94 -52 94h-25z" />
    <glyph glyph-name="bar" unicode="|" horiz-adv-x="200" 
d="M235 687l-115 -815h-76l115 815h76z" />
    <glyph glyph-name="braceright" unicode="}" horiz-adv-x="280" 
d="M286 321h25l-10 -68h-25q-65 0 -78 -94l-24 -169q-16 -123 -148 -132l-3 68q33 5 47.5 20t19.5 51l24 171q13 94 77 113l1 9q-59 21 -45 116l24 168q5 37 -5 52t-42 20l23 69q126 -10 110 -133l-24 -169q-14 -92 53 -92z" />
    <glyph glyph-name="asciitilde" unicode="~" horiz-adv-x="479" 
d="M357 317q37 0 73 19l11 6l21 -50q-46 -39 -113 -39q-30 0 -69 16t-73 16q-39 0 -73 -18l-11 -6l-20 49q46 39 112 39q30 0 69 -16t73 -16z" />
    <glyph glyph-name="uni00A0" unicode="&#xa0;" horiz-adv-x="220" 
 />
    <glyph glyph-name="exclamdown" unicode="&#xa1;" horiz-adv-x="203" 
d="M164 248l-39 -425h-99l82 425h56zM99 369q0 25 19 43.5t43 18.5q21 0 34.5 -14t13.5 -35q0 -25 -18.5 -43.5t-44.5 -18.5q-20 0 -33.5 14.5t-13.5 34.5z" />
    <glyph glyph-name="cent" unicode="&#xa2;" horiz-adv-x="428" 
d="M180 0l23 87q-57 17 -90 65t-33 115q0 105 69 176q69 72 172 75l22 82h51l-23 -86q47 -7 75 -26l8 -7l-33 -61q-25 19 -68 27l-83 -301h12q50 0 92 22l13 8l13 -61q-49 -37 -132 -37h-16l-21 -78h-51zM164 274q0 -82 59 -114l79 288q-59 -9 -98.5 -57.5t-39.5 -116.5z
" />
    <glyph glyph-name="sterling" unicode="&#xa3;" horiz-adv-x="499" 
d="M457 75l-11 -75h-382l11 75h1l-1 1q1 0 7.5 3.5t19 12.5t22.5 21q18 26 23 53.5t-4 94.5h-63l9 63h46q-3 21 -3 53q0 97 66 163q67 67 181 67q47 0 87.5 -14.5t56.5 -32.5l14 -15l-58 -64q-14 19 -48 34q-27 13 -62 13q-70 0 -108 -42t-38 -112q0 -32 2 -50h208l-9 -63
h-190q4 -33 4 -59q0 -68 -50 -127h269z" />
    <glyph glyph-name="yen" unicode="&#xa5;" horiz-adv-x="581" 
d="M360 346l181 254h94l-227 -309h131l-9 -63h-167l-11 -79h167l-9 -62h-166l-12 -87h-83l12 87h-165l9 62h164l11 79h-164l9 63h128l-139 309h94l111 -254l13 -42h2z" />
    <glyph glyph-name="brokenbar" unicode="&#xa6;" horiz-adv-x="209" 
d="M188 330h-75l48 343h75zM120 -153h-75l48 343h75z" />
    <glyph glyph-name="section" unicode="&#xa7;" horiz-adv-x="518" 
d="M44 45l51 64q1 -1 8 -5.5t12 -7.5q16 -9 58 -22t92 -13q134 0 134 63q0 25 -25 38q-25 14 -98 38q-73 22 -108.5 48.5t-35.5 64.5q0 49 45 74q-56 32 -56 84q0 64 60.5 103t169.5 39q58 0 107 -11t68 -24l17 -12l-52 -65q-14 14 -66 29q-37 12 -84 12q-126 0 -126 -62
q0 -24 22.5 -38.5t79.5 -30.5q166 -46 166 -121q0 -48 -45 -79q57 -35 57 -84q0 -62 -62.5 -101t-175.5 -39q-64 0 -120 14q-53 15 -73 29zM281 349q-1 0 -9.5 2.5t-18.5 5t-15 4.5q-24 -13 -24 -37q0 -34 99 -62q43 -14 63 -21q22 22 22 39q0 20 -27 35.5t-90 33.5z" />
    <glyph glyph-name="dieresis" unicode="&#xa8;" horiz-adv-x="455" 
d="M193 708q0 21 17.5 38t38.5 17q18 0 31 -13t13 -32q0 -21 -18.5 -38.5t-39.5 -17.5q-17 0 -29.5 13.5t-12.5 32.5zM358 708q0 22 17.5 38.5t39.5 16.5q18 0 30.5 -13t12.5 -32q0 -22 -18 -39t-39 -17q-18 0 -30.5 13.5t-12.5 32.5z" />
    <glyph glyph-name="copyright" unicode="&#xa9;" horiz-adv-x="686" 
d="M428 605q121 0 190 -75t69 -189q0 -144 -97 -245q-98 -102 -248 -102q-120 0 -191 75q-70 76 -70 190q0 141 98 244q97 102 249 102zM422 563q-131 0 -213 -88q-83 -89 -83 -212q0 -98 59 -163q58 -64 163 -64q128 0 212 88t84 211q0 99 -60 163q-59 65 -162 65zM511 424
l-35 -44q-22 28 -67 28q-51 0 -85.5 -35.5t-34.5 -87.5q0 -41 24.5 -66.5t65.5 -25.5t65 20l9 7l23 -43q-13 -13 -48 -27q-27 -10 -60 -10q-64 0 -100.5 38t-36.5 100q0 77 50 130q51 53 132 53q30 0 55 -9t34 -19z" />
    <glyph glyph-name="ordfeminine" unicode="&#xaa;" horiz-adv-x="398" 
d="M88 360q0 52 42.5 84t110.5 32q70 0 96 -29l2 13q8 52 -8 75.5t-67 23.5q-44 0 -98 -23l-12 52q64 26 127 26q77 0 105.5 -38.5t16.5 -117.5l-26 -184h-45l-3 37h-3q-17 -19 -51 -32t-76 -13q-49 0 -80 26.5t-31 67.5zM153 368q0 -24 18.5 -39t50.5 -15q40 0 72 20
q33 21 33 45q0 23 -22 37.5t-59 14.5q-44 0 -68.5 -17t-24.5 -46z" />
    <glyph glyph-name="guillemotleft" unicode="&#xab;" horiz-adv-x="463" 
d="M67 197l3 23l149 188h70l-2 -10l-144 -186l-1 -6l92 -188l-2 -10h-70zM259 197l3 23l148 188h69l-2 -10l-144 -186l-1 -6l92 -188l-2 -10h-69z" />
    <glyph glyph-name="logicalnot" unicode="&#xac;" horiz-adv-x="547" 
d="M85 278l10 68h438l-49 -346h-69l39 278h-369z" />
    <glyph glyph-name="registered" unicode="&#xae;" horiz-adv-x="546" 
d="M555 411q0 -107 -74 -186q-73 -78 -188 -78q-91 0 -143 57q-52 58 -52 145q0 109 73 186q73 78 187 78q92 0 144 -58q53 -58 53 -144zM510 406q0 73 -43 118.5t-115 45.5q-90 0 -150 -62q-59 -62 -59 -154q0 -72 43 -118t113 -46q91 0 151 62q60 63 60 154zM256 485h92
q36 0 56 -17t20 -46q0 -49 -48 -70v-1l33 -58l-2 -10h-41l-34 59h-56l-8 -59h-40zM343 447h-52l-9 -68h51q22 0 35.5 10.5t13.5 28.5q0 29 -39 29z" />
    <glyph glyph-name="overscore" unicode="&#xaf;" horiz-adv-x="526" 
d="M215 668l7 53h295l-7 -53h-295z" />
    <glyph glyph-name="degree" unicode="&#xb0;" horiz-adv-x="297" 
d="M242 672q45 0 72 -26.5t27 -68.5q0 -51 -37 -85q-38 -35 -92 -35q-45 0 -72 26t-27 68q0 51 37 85q38 36 92 36zM236 628q-32 0 -52.5 -21t-20.5 -51q0 -24 15.5 -39t39.5 -15q32 0 53.5 20.5t21.5 49.5q0 25 -15.5 40.5t-41.5 15.5z" />
    <glyph glyph-name="plusminus" unicode="&#xb1;" horiz-adv-x="524" 
d="M322 173h-69l24 167h-168l9 67h168l24 172h69l-24 -172h165l-9 -67h-165zM478 104l-10 -68h-402l10 68h402z" />
    <glyph glyph-name="twosuperior" unicode="&#xb2;" horiz-adv-x="344" 
d="M100 342l7 48l155 120q43 33 43 69q0 45 -54 45q-25 0 -50.5 -12t-37.5 -24l-24 44q20 18 57 32q30 13 63 13q53 0 80 -24.5t27 -65.5q0 -32 -12.5 -56.5t-46.5 -50.5l-116 -88h155l-7 -50h-239z" />
    <glyph glyph-name="threesuperior" unicode="&#xb3;" horiz-adv-x="332" 
d="M138 618l7 50h226l-6 -38l-84 -91q73 -10 73 -81q0 -55 -39 -89.5t-107 -34.5q-70 0 -115 45l38 43q30 -37 82 -37q38 0 60.5 19t22.5 47q0 46 -58 46h-37l4 34l82 87h-149z" />
    <glyph glyph-name="acute" unicode="&#xb4;" horiz-adv-x="279" 
d="M297 629l-112 -132h-57l72 145z" />
    <glyph glyph-name="mu" unicode="&#xb5;" horiz-adv-x="505" 
d="M122 -128h-81l41 290q0 1 2 19l34 239h81l-32 -230q-9 -61 13.5 -96t74.5 -35q55 0 90 36q36 36 42 78l35 247h82l-59 -420h-54l-6 59h-3q-52 -69 -154 -69q-53 0 -88 22z" />
    <glyph glyph-name="paragraph" unicode="&#xb6;" horiz-adv-x="527" 
d="M364 -82l29 204h-62q-116 0 -184 55.5t-68 155.5q0 127 88 197q89 71 228 71h148l-96 -683h-83z" />
    <glyph glyph-name="middot" unicode="&#xb7;" horiz-adv-x="211" 
d="M101 353q0 25 19 43.5t43 18.5q21 0 34.5 -14t13.5 -35q0 -25 -18.5 -43.5t-44.5 -18.5q-20 0 -33.5 14.5t-13.5 34.5z" />
    <glyph glyph-name="cedilla" unicode="&#xb8;" horiz-adv-x="206" 
d="M66 -66l-12 18l32 51h43l-20 -34q25 -1 40.5 -15.5t15.5 -38.5q0 -36 -25 -58.5t-66 -22.5q-48 0 -66 22l-6 7l25 31l5 -4q21 -16 46 -16q44 0 44 37q0 25 -35 25z" />
    <glyph glyph-name="onesuperior" unicode="&#xb9;" horiz-adv-x="211" 
d="M111 618l7 50h125l-46 -326h-57l39 276h-68z" />
    <glyph glyph-name="ordmasculine" unicode="&#xba;" horiz-adv-x="405" 
d="M290 613q64 0 102.5 -40t38.5 -108q0 -86 -55 -141q-54 -55 -135 -55q-64 0 -103.5 40t-39.5 106q0 88 55 143t137 55zM282 557q-52 0 -85.5 -38t-33.5 -98q0 -44 23 -70t63 -26q52 0 85.5 37.5t33.5 97.5q0 45 -23 71t-63 26z" />
    <glyph glyph-name="guillemotright" unicode="&#xbb;" horiz-adv-x="462" 
d="M264 220l-3 -23l-149 -189h-71l1 10l146 188l1 6l-93 186l1 10h71zM454 220l-3 -23l-149 -189h-70l1 10l146 188l1 6l-93 186l1 10h70z" />
    <glyph glyph-name="onequarter" unicode="&#xbc;" horiz-adv-x="628" 
d="M325 84l5 36l207 206h43l-27 -194h59l-7 -48h-59l-12 -84h-55l12 84h-166zM101 0h-69l552 600h70zM119 550l7 50h125l-45 -326h-57l38 276h-68zM433 161l-29 -27l-6 -5l45 3h55l11 84l4 27h-1z" />
    <glyph glyph-name="onehalf" unicode="&#xbd;" horiz-adv-x="688" 
d="M101 0h-69l551 600h71zM419 48l-7 -48h239l7 50h-155l116 88q34 26 46.5 50.5t12.5 56.5q0 41 -27 65.5t-80 24.5q-30 0 -60 -10.5t-46 -23.5l-14 -11l24 -44q12 12 37.5 24t50.5 12q54 0 54 -45q0 -36 -43 -69zM122 550l7 50h125l-45 -326h-57l38 276h-68z" />
    <glyph glyph-name="threequarters" unicode="&#xbe;" horiz-adv-x="707" 
d="M406 83l5 36l207 206h43l-27 -194h58l-7 -48h-58l-12 -83h-55l12 83h-166zM186 0h-69l552 600h71zM125 550l7 50h225l-6 -38l-84 -91q74 -11 74 -81q0 -55 -39.5 -89.5t-107.5 -34.5q-70 0 -115 45l38 42q-1 -2 9 -10.5t31 -17t43 -8.5q37 0 59.5 19t22.5 47q0 46 -58 46
h-37l4 34l82 87h-148zM514 159q-5 -5 -29 -26l-6 -5l45 3h55l12 84l3 27h-1z" />
    <glyph glyph-name="questiondown" unicode="&#xbf;" horiz-adv-x="416" 
d="M346 -66l27 -67q-30 -22 -81 -39q-42 -16 -90 -16q-81 0 -128.5 37.5t-47.5 101.5q0 34 10 62t30 50.5t36.5 36t42.5 31.5q71 52 81 95l6 26h60l-5 -38q-5 -36 -31.5 -70t-60.5 -57q-79 -55 -79 -116q0 -36 27.5 -58t74.5 -22q30 0 62.5 10t49.5 22zM332 385
q0 -25 -18.5 -43t-43.5 -18q-20 0 -34 14t-14 34q0 25 19.5 43.5t44.5 18.5q20 0 33 -14t13 -35z" />
    <glyph glyph-name="Agrave" unicode="&#xc0;" horiz-adv-x="596" 
d="M421 600l169 -600h-87l-35 129h-305l-71 -129h-86l336 600h79zM368 499l-165 -297h245zM355 635l-69 133l99 15l28 -148h-58z" />
    <glyph glyph-name="Aacute" unicode="&#xc1;" horiz-adv-x="596" 
d="M421 600l169 -600h-87l-35 129h-305l-71 -129h-86l336 600h79zM368 499l-165 -297h245zM528 767l-112 -132h-57l72 145z" />
    <glyph glyph-name="Acircumflex" unicode="&#xc2;" horiz-adv-x="596" 
d="M421 600l169 -600h-87l-35 129h-305l-71 -129h-86l336 600h79zM368 499l-165 -297h245zM442 662l-42 62l-62 -62h-69l104 114h66l73 -114h-70z" />
    <glyph glyph-name="Atilde" unicode="&#xc3;" horiz-adv-x="596" 
d="M421 600l169 -600h-87l-35 129h-305l-71 -129h-86l336 600h79zM368 499l-165 -297h245zM469 663q-35 0 -75 27q-40 28 -59 28t-29 -9t-19 -31l-7 -16l-57 6l9 28q29 86 103 86q33 0 73 -28t60 -28q35 0 50 42l5 15l58 -6l-9 -27q-28 -87 -103 -87z" />
    <glyph glyph-name="Adieresis" unicode="&#xc4;" horiz-adv-x="596" 
d="M421 600l169 -600h-87l-35 129h-305l-71 -129h-86l336 600h79zM368 499l-165 -297h245zM265 708q0 21 17.5 38t38.5 17q18 0 31 -13t13 -32q0 -21 -18.5 -38.5t-39.5 -17.5q-17 0 -29.5 13.5t-12.5 32.5zM430 708q0 22 17.5 38.5t39.5 16.5q18 0 30.5 -13t12.5 -32
q0 -22 -18 -39t-39 -17q-18 0 -30.5 13.5t-12.5 32.5z" />
    <glyph glyph-name="Aring" unicode="&#xc5;" horiz-adv-x="596" 
d="M421 600l169 -600h-87l-35 129h-305l-71 -129h-86l336 600h79zM368 499l-165 -297h245zM290 693q0 43 33.5 70.5t85.5 27.5q42 0 67.5 -21.5t25.5 -56.5q0 -43 -33.5 -70.5t-84.5 -27.5q-43 0 -68.5 21.5t-25.5 56.5zM450 708q0 36 -47 36q-62 0 -62 -46q0 -36 50 -36
q59 0 59 46z" />
    <glyph glyph-name="AE" unicode="&#xc6;" horiz-adv-x="882" 
d="M-7 0l495 600h438l-10 -75h-344l-26 -185h291l-11 -74h-291l-26 -191h344l-11 -75h-427l18 130h-236l-104 -130h-100zM476 475l-219 -271h187l38 271h-6z" />
    <glyph glyph-name="Ccedilla" unicode="&#xc7;" horiz-adv-x="563" 
d="M286 -66l-12 18l23 37q-103 14 -161 87q-59 74 -59 181q0 149 100 252q101 104 249 104q70 0 117.5 -22.5t64.5 -45.5l7 -8l-57 -64q-27 27 -51 40q-37 22 -91 22q-95 0 -166 -68q-70 -67 -84 -168q-14 -100 37 -167q53 -68 147 -68q39 0 79.5 14.5t60.5 31.5l19 16
l39 -64l-24 -21q-16 -12 -71 -34q-54 -21 -114 -21l-10 -17q25 -1 40.5 -15.5t15.5 -38.5q0 -36 -25 -58.5t-66 -22.5q-48 0 -66 22l-6 7l25 31l5 -4q21 -16 46 -16q44 0 44 37q0 25 -35 25z" />
    <glyph glyph-name="Egrave" unicode="&#xc8;" horiz-adv-x="542" 
d="M500 340l-10 -73h-291l-27 -192h341l-11 -75h-423l84 600h423l-10 -75h-341l-26 -185h291zM361 635l-69 133l99 15l28 -148h-58z" />
    <glyph glyph-name="Eacute" unicode="&#xc9;" horiz-adv-x="542" 
d="M520 767l-112 -132h-57l72 145zM500 340l-10 -73h-291l-27 -192h341l-11 -75h-423l84 600h423l-10 -75h-341l-26 -185h291z" />
    <glyph glyph-name="Ecircumflex" unicode="&#xca;" horiz-adv-x="542" 
d="M442 662l-42 62l-62 -62h-69l104 114h66l73 -114h-70zM500 340l-10 -73h-291l-27 -192h341l-11 -75h-423l84 600h423l-10 -75h-341l-26 -185h291z" />
    <glyph glyph-name="Edieresis" unicode="&#xcb;" horiz-adv-x="542" 
d="M262 708q0 21 17.5 38t38.5 17q18 0 31 -13t13 -32q0 -21 -18.5 -38.5t-39.5 -17.5q-17 0 -29.5 13.5t-12.5 32.5zM427 708q0 22 17.5 38.5t39.5 16.5q18 0 30.5 -13t12.5 -32q0 -22 -18 -39t-39 -17q-18 0 -30.5 13.5t-12.5 32.5zM500 340l-10 -73h-291l-27 -192h341
l-11 -75h-423l84 600h423l-10 -75h-341l-26 -185h291z" />
    <glyph glyph-name="Igrave" unicode="&#xcc;" horiz-adv-x="240" 
d="M245 600l-84 -600h-82l84 600h82zM177 635l-69 133l99 15l28 -148h-58z" />
    <glyph glyph-name="Iacute" unicode="&#xcd;" horiz-adv-x="240" 
d="M245 600l-84 -600h-82l84 600h82zM350 767l-112 -132h-57l72 145z" />
    <glyph glyph-name="Icircumflex" unicode="&#xce;" horiz-adv-x="240" 
d="M245 600l-84 -600h-82l84 600h82zM266 662l-42 62l-62 -62h-69l104 114h66l73 -114h-70z" />
    <glyph glyph-name="Idieresis" unicode="&#xcf;" horiz-adv-x="240" 
d="M245 600l-84 -600h-82l84 600h82zM88 708q0 21 17.5 38t38.5 17q18 0 31 -13t13 -32q0 -21 -18.5 -38.5t-39.5 -17.5q-17 0 -29.5 13.5t-12.5 32.5zM253 708q0 22 17.5 38.5t39.5 16.5q18 0 30.5 -13t12.5 -32q0 -22 -18 -39t-39 -17q-18 0 -30.5 13.5t-12.5 32.5z" />
    <glyph glyph-name="Eth" unicode="&#xd0;" horiz-adv-x="632" 
d="M59 266l11 75h56l37 259h205q125 0 196 -70q73 -70 73 -187q0 -152 -100 -248q-100 -95 -253 -95h-205l37 266h-57zM353 525h-118l-26 -184h168l-11 -75h-168l-26 -191h118q111 0 185 70q76 70 76 187q0 89 -54.5 141t-143.5 52z" />
    <glyph glyph-name="Ntilde" unicode="&#xd1;" horiz-adv-x="666" 
d="M671 600l-84 -600h-61l-301 455l-64 -455h-82l84 600h61l301 -451l63 451h83zM505 663q-35 0 -75 27q-40 28 -59 28t-29 -9t-19 -31l-7 -16l-57 6l9 28q29 86 103 86q33 0 73 -28t60 -28q35 0 50 42l5 15l58 -6l-9 -27q-28 -87 -103 -87z" />
    <glyph glyph-name="Ograve" unicode="&#xd2;" horiz-adv-x="676" 
d="M335 -14q-118 0 -188 76q-69 76 -69 194q0 148 99 252q99 105 246 105q119 0 190 -77q70 -76 70 -194q0 -148 -100 -252q-99 -104 -248 -104zM346 65q107 0 179 78q72 79 72 190q0 86 -50 144q-49 58 -135 58q-107 0 -177 -79q-71 -80 -71 -190q0 -88 49 -144
q49 -57 133 -57zM403 662l-69 133l99 15l28 -148h-58z" />
    <glyph glyph-name="Oacute" unicode="&#xd3;" horiz-adv-x="676" 
d="M567 794l-112 -132h-57l72 145zM335 -14q-118 0 -188 76q-69 76 -69 194q0 148 99 252q99 105 246 105q119 0 190 -77q70 -76 70 -194q0 -148 -100 -252q-99 -104 -248 -104zM346 65q107 0 179 78q72 79 72 190q0 86 -50 144q-49 58 -135 58q-107 0 -177 -79
q-71 -80 -71 -190q0 -88 49 -144q49 -57 133 -57z" />
    <glyph glyph-name="Ocircumflex" unicode="&#xd4;" horiz-adv-x="676" 
d="M483 662l-42 62l-62 -62h-69l104 114h66l73 -114h-70zM335 -14q-118 0 -188 76q-69 76 -69 194q0 148 99 252q99 105 246 105q119 0 190 -77q70 -76 70 -194q0 -148 -100 -252q-99 -104 -248 -104zM346 65q107 0 179 78q72 79 72 190q0 86 -50 144q-49 58 -135 58
q-107 0 -177 -79q-71 -80 -71 -190q0 -88 49 -144q49 -57 133 -57z" />
    <glyph glyph-name="Otilde" unicode="&#xd5;" horiz-adv-x="676" 
d="M335 -14q-118 0 -188 76q-69 76 -69 194q0 148 99 252q99 105 246 105q119 0 190 -77q70 -76 70 -194q0 -148 -100 -252q-99 -104 -248 -104zM346 65q107 0 179 78q72 79 72 190q0 86 -50 144q-49 58 -135 58q-107 0 -177 -79q-71 -80 -71 -190q0 -88 49 -144
q49 -57 133 -57zM506 663q-34 0 -75 27q-40 28 -59 28t-29 -9t-19 -31l-7 -16l-57 6l9 28q29 86 103 86q33 0 73 -28t60 -28q35 0 50 42l5 15l58 -6l-9 -27q-29 -87 -103 -87z" />
    <glyph glyph-name="Odieresis" unicode="&#xd6;" horiz-adv-x="676" 
d="M305 708q0 21 17.5 38t38.5 17q18 0 31 -13t13 -32q0 -21 -18.5 -38.5t-39.5 -17.5q-17 0 -29.5 13.5t-12.5 32.5zM470 708q0 22 17.5 38.5t39.5 16.5q18 0 30.5 -13t12.5 -32q0 -22 -18 -39t-39 -17q-18 0 -30.5 13.5t-12.5 32.5zM335 -14q-118 0 -188 76
q-69 76 -69 194q0 148 99 252q99 105 246 105q119 0 190 -77q70 -76 70 -194q0 -148 -100 -252q-99 -104 -248 -104zM346 65q107 0 179 78q72 79 72 190q0 86 -50 144q-49 58 -135 58q-107 0 -177 -79q-71 -80 -71 -190q0 -88 49 -144q49 -57 133 -57z" />
    <glyph glyph-name="multiply" unicode="&#xd7;" horiz-adv-x="497" 
d="M117 99l-41 47l170 154l-127 154l55 47l124 -153l169 153l40 -47l-169 -154l126 -154l-54 -47l-125 153z" />
    <glyph glyph-name="Oslash" unicode="&#xd8;" horiz-adv-x="683" 
d="M339 -14q-114 0 -183 71l-64 -57h-89l117 105q-38 65 -38 151q0 148 99 252q99 105 246 105q111 0 182 -69l62 56h89l-114 -102q41 -70 41 -156q0 -148 -100 -252q-99 -104 -248 -104zM350 65q107 0 179 78q72 79 72 190q0 56 -23 104l-356 -321q50 -51 128 -51zM168 266
q0 -54 20 -100l356 319q-50 50 -128 50q-107 0 -177 -79q-71 -80 -71 -190z" />
    <glyph glyph-name="Ugrave" unicode="&#xd9;" horiz-adv-x="632" 
d="M314 -14q-115 0 -170 73t-38 193l49 348h82l-49 -348q-12 -85 23.5 -136t113.5 -51q79 0 127.5 50t60.5 137l49 348h83l-49 -348q-16 -119 -92 -193q-74 -73 -190 -73zM375 635l-69 133l99 15l28 -148h-58z" />
    <glyph glyph-name="Uacute" unicode="&#xda;" horiz-adv-x="632" 
d="M542 767l-112 -132h-57l72 145zM314 -14q-115 0 -170 73t-38 193l49 348h82l-49 -348q-12 -85 23.5 -136t113.5 -51q79 0 127.5 50t60.5 137l49 348h83l-49 -348q-16 -119 -92 -193q-74 -73 -190 -73z" />
    <glyph glyph-name="Ucircumflex" unicode="&#xdb;" horiz-adv-x="632" 
d="M458 634l-42 62l-62 -62h-69l104 114h66l73 -114h-70zM314 -14q-115 0 -170 73t-38 193l49 348h82l-49 -348q-12 -85 23.5 -136t113.5 -51q79 0 127.5 50t60.5 137l49 348h83l-49 -348q-16 -119 -92 -193q-74 -73 -190 -73z" />
    <glyph glyph-name="Udieresis" unicode="&#xdc;" horiz-adv-x="632" 
d="M285 708q0 21 17.5 38t38.5 17q18 0 31 -13t13 -32q0 -21 -18.5 -38.5t-39.5 -17.5q-17 0 -29.5 13.5t-12.5 32.5zM450 708q0 22 17.5 38.5t39.5 16.5q18 0 30.5 -13t12.5 -32q0 -22 -18 -39t-39 -17q-18 0 -30.5 13.5t-12.5 32.5zM314 -14q-115 0 -170 73t-38 193
l49 348h82l-49 -348q-12 -85 23.5 -136t113.5 -51q79 0 127.5 50t60.5 137l49 348h83l-49 -348q-16 -119 -92 -193q-74 -73 -190 -73z" />
    <glyph glyph-name="Yacute" unicode="&#xdd;" horiz-adv-x="533" 
d="M336 346l181 254h94l-271 -370l-32 -230h-83l32 230l-167 370h94l111 -254l13 -42h2zM500 800l-112 -132h-57l72 145z" />
    <glyph glyph-name="Thorn" unicode="&#xde;" horiz-adv-x="578" 
d="M245 600l-13 -96h160q97 0 150.5 -45t53.5 -127q0 -113 -73 -176t-194 -63h-155l-13 -93h-82l84 600h82zM510 319q0 53 -34.5 81t-98.5 28h-156l-36 -260h156q80 0 124.5 38.5t44.5 112.5z" />
    <glyph glyph-name="germandbls" unicode="&#xdf;" horiz-adv-x="498" 
d="M275 273l9 59q122 20 122 123q0 37 -22 59t-61 22q-46 0 -78 -31.5t-40 -86.5l-59 -418h-82l57 406q13 98 69 149.5t149 51.5q72 0 113.5 -39t41.5 -105q0 -50 -25 -88.5t-68 -59.5q41 -12 63 -47t22 -82q0 -87 -60 -141q-58 -54 -160 -54q-48 0 -64 7l-7 2l16 60
q25 -5 56 -5q59 0 97 34.5t38 89.5q0 45 -28 69.5t-77 24.5h-22z" />
    <glyph glyph-name="agrave" unicode="&#xe0;" 
d="M438 355h3l21 65h56l-59 -420h-56l-2 65h-3q0 -1 -5.5 -7.5t-19.5 -18.5t-32 -23q-46 -26 -107 -26q-75 0 -122 51.5t-47 135.5q0 110 67 181q68 72 161 72q61 0 96.5 -22.5t44.5 -45.5zM415 234q0 59 -31.5 93.5t-82.5 34.5q-63 0 -108 -50t-45 -125q0 -57 31 -93
t80 -36q65 0 110 48q46 49 46 128zM296 497l-69 133l99 15l28 -148h-58z" />
    <glyph glyph-name="aacute" unicode="&#xe1;" 
d="M438 355h3l21 65h56l-59 -420h-56l-2 65h-3q0 -1 -5.5 -7.5t-19.5 -18.5t-32 -23q-46 -26 -107 -26q-75 0 -122 51.5t-47 135.5q0 110 67 181q68 72 161 72q61 0 96.5 -22.5t44.5 -45.5zM415 234q0 59 -31.5 93.5t-82.5 34.5q-63 0 -108 -50t-45 -125q0 -57 31 -93
t80 -36q65 0 110 48q46 49 46 128zM456 629l-112 -132h-57l72 145z" />
    <glyph glyph-name="acircumflex" unicode="&#xe2;" 
d="M438 355h3l21 65h56l-59 -420h-56l-2 65h-3q0 -1 -5.5 -7.5t-19.5 -18.5t-32 -23q-46 -26 -107 -26q-75 0 -122 51.5t-47 135.5q0 110 67 181q68 72 161 72q61 0 96.5 -22.5t44.5 -45.5zM415 234q0 59 -31.5 93.5t-82.5 34.5q-63 0 -108 -50t-45 -125q0 -57 31 -93
t80 -36q65 0 110 48q46 49 46 128zM377 524l-42 62l-62 -62h-69l104 114h66l73 -114h-70z" />
    <glyph glyph-name="atilde" unicode="&#xe3;" 
d="M438 355h3l21 65h56l-59 -420h-56l-2 65h-3q0 -1 -5.5 -7.5t-19.5 -18.5t-32 -23q-46 -26 -107 -26q-75 0 -122 51.5t-47 135.5q0 110 67 181q68 72 161 72q61 0 96.5 -22.5t44.5 -45.5zM415 234q0 59 -31.5 93.5t-82.5 34.5q-63 0 -108 -50t-45 -125q0 -57 31 -93
t80 -36q65 0 110 48q46 49 46 128zM396 498q-34 0 -75 27q-40 28 -59 28t-29 -9t-19 -31l-7 -16l-57 6l9 28q29 86 103 86q33 0 73 -28t60 -28q35 0 50 42l5 15l58 -6l-9 -27q-29 -87 -103 -87z" />
    <glyph glyph-name="adieresis" unicode="&#xe4;" 
d="M438 355h3l21 65h56l-59 -420h-56l-2 65h-3q0 -1 -5.5 -7.5t-19.5 -18.5t-32 -23q-46 -26 -107 -26q-75 0 -122 51.5t-47 135.5q0 110 67 181q68 72 161 72q61 0 96.5 -22.5t44.5 -45.5zM415 234q0 59 -31.5 93.5t-82.5 34.5q-63 0 -108 -50t-45 -125q0 -57 31 -93
t80 -36q65 0 110 48q46 49 46 128zM193 542q0 21 17.5 38t38.5 17q18 0 31 -13t13 -32q0 -21 -18.5 -38.5t-39.5 -17.5q-17 0 -29.5 13.5t-12.5 32.5zM358 542q0 22 17.5 38.5t39.5 16.5q18 0 30.5 -13t12.5 -32q0 -22 -18 -39t-39 -17q-18 0 -30.5 13.5t-12.5 32.5z" />
    <glyph glyph-name="aring" unicode="&#xe5;" 
d="M438 355h3l21 65h56l-59 -420h-56l-2 65h-3q0 -1 -5.5 -7.5t-19.5 -18.5t-32 -23q-46 -26 -107 -26q-75 0 -122 51.5t-47 135.5q0 110 67 181q68 72 161 72q61 0 96.5 -22.5t44.5 -45.5zM415 234q0 59 -31.5 93.5t-82.5 34.5q-63 0 -108 -50t-45 -125q0 -57 31 -93
t80 -36q65 0 110 48q46 49 46 128zM225 573q0 43 33.5 70.5t85.5 27.5q42 0 67.5 -21.5t25.5 -56.5q0 -43 -33.5 -70.5t-84.5 -27.5q-43 0 -68.5 21.5t-25.5 56.5zM385 588q0 36 -47 36q-62 0 -62 -46q0 -36 50 -36q59 0 59 46z" />
    <glyph glyph-name="ae" unicode="&#xe6;" horiz-adv-x="745" 
d="M675 96l22 -57q-18 -18 -70 -36q-42 -14 -88 -14q-112 0 -162 77q-64 -76 -180 -76q-74 0 -113 32t-39 85q0 70 54.5 111.5t154.5 41.5q60 0 105 -16l2 15q13 102 -101 102q-57 0 -105 -25l-16 -9l-21 65q68 38 160 38q113 0 148 -68q66 68 160 68q88 0 129 -59
q41 -60 28 -150l-3 -21h-307q-7 -69 25.5 -106t94.5 -37q66 0 108 29zM210 52q56 0 92.5 30t43.5 77l4 26q-42 19 -97 19q-126 0 -126 -88q0 -30 21.5 -47t61.5 -17zM574 363q-97 0 -128 -103h221q0 103 -93 103z" />
    <glyph glyph-name="ccedilla" unicode="&#xe7;" horiz-adv-x="410" 
d="M204 -72l-12 18l28 46q-72 8 -114 58t-42 128q0 109 70 180q70 72 176 72q38 0 69.5 -8.5t44.5 -19.5l10 -9l-33 -61q-36 30 -96 30q-66 0 -112 -49q-45 -48 -45 -129q0 -59 31.5 -92.5t83.5 -33.5t91 22l13 8l13 -60q-35 -32 -117 -37l-16 -28q25 -1 40.5 -15.5
t15.5 -38.5q0 -36 -25 -58.5t-66 -22.5q-48 0 -66 22l-6 7l25 31l5 -4q21 -16 46 -16q44 0 44 37q0 25 -35 25z" />
    <glyph glyph-name="egrave" unicode="&#xe8;" horiz-adv-x="458" 
d="M387 95l22 -57q-22 -20 -70 -36q-39 -13 -88 -13q-88 0 -138 50.5t-50 136.5q0 106 66 180q68 74 168 74q89 0 130 -59q42 -59 29 -150l-3 -21h-307q-7 -69 25.5 -106t94.5 -37q65 0 107 29zM287 363q-96 0 -129 -103h221q0 103 -92 103zM274 497l-69 133l99 15l28 -148
h-58z" />
    <glyph glyph-name="eacute" unicode="&#xe9;" horiz-adv-x="458" 
d="M446 629l-112 -132h-57l72 145zM387 95l22 -57q-22 -20 -70 -36q-39 -13 -88 -13q-88 0 -138 50.5t-50 136.5q0 106 66 180q68 74 168 74q89 0 130 -59q42 -59 29 -150l-3 -21h-307q-7 -69 25.5 -106t94.5 -37q65 0 107 29zM287 363q-96 0 -129 -103h221q0 103 -92 103z
" />
    <glyph glyph-name="ecircumflex" unicode="&#xea;" horiz-adv-x="458" 
d="M357 496l-42 62l-62 -62h-69l104 114h66l73 -114h-70zM387 95l22 -57q-22 -20 -70 -36q-39 -13 -88 -13q-88 0 -138 50.5t-50 136.5q0 106 66 180q68 74 168 74q89 0 130 -59q42 -59 29 -150l-3 -21h-307q-7 -69 25.5 -106t94.5 -37q65 0 107 29zM287 363
q-96 0 -129 -103h221q0 103 -92 103z" />
    <glyph glyph-name="edieresis" unicode="&#xeb;" horiz-adv-x="458" 
d="M181 537q0 21 17.5 38t38.5 17q18 0 31 -13t13 -32q0 -21 -18.5 -38.5t-39.5 -17.5q-17 0 -29.5 13.5t-12.5 32.5zM346 537q0 22 17.5 38.5t39.5 16.5q18 0 30.5 -13t12.5 -32q0 -22 -18 -39t-39 -17q-18 0 -30.5 13.5t-12.5 32.5zM387 95l22 -57q-22 -20 -70 -36
q-39 -13 -88 -13q-88 0 -138 50.5t-50 136.5q0 106 66 180q68 74 168 74q89 0 130 -59q42 -59 29 -150l-3 -21h-307q-7 -69 25.5 -106t94.5 -37q65 0 107 29zM287 363q-96 0 -129 -103h221q0 103 -92 103z" />
    <glyph glyph-name="igrave" unicode="&#xec;" horiz-adv-x="213" 
d="M66 0l59 420h81l-59 -420h-81zM143 497l-69 133l99 15l28 -148h-58z" />
    <glyph glyph-name="iacute" unicode="&#xed;" horiz-adv-x="213" 
d="M317 629l-112 -132h-57l72 145zM66 0l59 420h81l-59 -420h-81z" />
    <glyph glyph-name="icircumflex" unicode="&#xee;" horiz-adv-x="213" 
d="M233 524l-42 62l-62 -62h-69l104 114h66l73 -114h-70zM66 0l59 420h81l-59 -420h-81z" />
    <glyph glyph-name="idieresis" unicode="&#xef;" horiz-adv-x="213" 
d="M56 569q0 21 17.5 38t38.5 17q18 0 31 -13t13 -32q0 -21 -18.5 -38.5t-39.5 -17.5q-17 0 -29.5 13.5t-12.5 32.5zM221 569q0 22 17.5 38.5t39.5 16.5q18 0 30.5 -13t12.5 -32q0 -22 -18 -39t-39 -17q-18 0 -30.5 13.5t-12.5 32.5zM66 0l59 420h81l-59 -420h-81z" />
    <glyph glyph-name="eth" unicode="&#xf0;" horiz-adv-x="503" 
d="M249 -10q-87 0 -136.5 49.5t-49.5 136.5q0 111 68 182q69 72 180 72q20 0 48 -5l1 4q-10 13 -22 38l-33 68l-127 -72l-21 48l125 70l-65 136l2 11h77l53 -109l131 74l21 -47l-130 -74l97 -198q29 -70 29 -125q0 -117 -68 -188t-180 -71zM413 236q0 59 -30 92.5t-82 33.5
q-67 0 -110.5 -48.5t-43.5 -128.5q0 -59 30.5 -93t81.5 -34q65 0 109 48q45 50 45 130z" />
    <glyph glyph-name="ntilde" unicode="&#xf1;" horiz-adv-x="511" 
d="M64 0l59 420h55v-61h6q57 71 154 71q81 0 120.5 -52t27.5 -139l-34 -239h-81l32 230q8 59 -16.5 95t-76.5 36q-53 0 -88 -35q-33 -33 -41 -76l-35 -250h-82zM404 525q-34 0 -75 27q-40 28 -59 28t-29 -9t-19 -31l-7 -16l-57 6l9 28q29 86 103 86q33 0 73 -28t60 -28
q35 0 50 42l5 15l58 -6l-9 -27q-29 -87 -103 -87z" />
    <glyph glyph-name="ograve" unicode="&#xf2;" horiz-adv-x="500" 
d="M496 238q0 -110 -73 -179t-174 -69q-81 0 -134 51q-51 51 -51 137q0 111 73 181q74 71 174 71q80 0 133 -53q52 -52 52 -139zM258 56q63 0 109 49q47 50 47 128q0 59 -31.5 95t-80.5 36q-64 0 -111 -50q-46 -49 -46 -129q0 -59 31 -94t82 -35zM289 497l-69 133l99 15
l28 -148h-58z" />
    <glyph glyph-name="oacute" unicode="&#xf3;" horiz-adv-x="500" 
d="M458 629l-112 -132h-57l72 145zM496 238q0 -110 -73 -179t-174 -69q-81 0 -134 51q-51 51 -51 137q0 111 73 181q74 71 174 71q80 0 133 -53q52 -52 52 -139zM258 56q63 0 109 49q47 50 47 128q0 59 -31.5 95t-80.5 36q-64 0 -111 -50q-46 -49 -46 -129q0 -59 31 -94
t82 -35z" />
    <glyph glyph-name="ocircumflex" unicode="&#xf4;" horiz-adv-x="500" 
d="M376 524l-42 62l-62 -62h-69l104 114h66l73 -114h-70zM496 238q0 -110 -73 -179t-174 -69q-81 0 -134 51q-51 51 -51 137q0 111 73 181q74 71 174 71q80 0 133 -53q52 -52 52 -139zM258 56q63 0 109 49q47 50 47 128q0 59 -31.5 95t-80.5 36q-64 0 -111 -50
q-46 -49 -46 -129q0 -59 31 -94t82 -35z" />
    <glyph glyph-name="otilde" unicode="&#xf5;" horiz-adv-x="500" 
d="M496 238q0 -110 -73 -179t-174 -69q-81 0 -134 51q-51 51 -51 137q0 111 73 181q74 71 174 71q80 0 133 -53q52 -52 52 -139zM258 56q63 0 109 49q47 50 47 128q0 59 -31.5 95t-80.5 36q-64 0 -111 -50q-46 -49 -46 -129q0 -59 31 -94t82 -35zM396 526q-34 0 -75 27
q-40 28 -59 28t-29 -9t-19 -31l-7 -16l-57 6l9 28q29 86 103 86q33 0 73 -28t60 -28q35 0 50 42l5 15l58 -6l-9 -27q-29 -87 -103 -87z" />
    <glyph glyph-name="odieresis" unicode="&#xf6;" horiz-adv-x="500" 
d="M198 570q0 21 17.5 38t38.5 17q18 0 31 -13t13 -32q0 -21 -18.5 -38.5t-39.5 -17.5q-17 0 -29.5 13.5t-12.5 32.5zM363 570q0 22 17.5 38.5t39.5 16.5q18 0 30.5 -13t12.5 -32q0 -22 -18 -39t-39 -17q-18 0 -30.5 13.5t-12.5 32.5zM496 238q0 -110 -73 -179t-174 -69
q-81 0 -134 51q-51 51 -51 137q0 111 73 181q74 71 174 71q80 0 133 -53q52 -52 52 -139zM258 56q63 0 109 49q47 50 47 128q0 59 -31.5 95t-80.5 36q-64 0 -111 -50q-46 -49 -46 -129q0 -59 31 -94t82 -35z" />
    <glyph glyph-name="divide" unicode="&#xf7;" horiz-adv-x="488" 
d="M209 135q0 25 18.5 44t44.5 19q20 0 34 -14.5t14 -35.5q0 -24 -19.5 -42.5t-44.5 -18.5q-21 0 -34 13.5t-13 34.5zM253 448q0 26 18.5 44.5t44.5 18.5q20 0 34 -14.5t14 -35.5q0 -24 -19.5 -42.5t-44.5 -18.5q-21 0 -34 13.5t-13 34.5zM91 262l10 68h380l-10 -68h-380z
" />
    <glyph glyph-name="oslash" unicode="&#xf8;" horiz-adv-x="501" 
d="M496 238q0 -110 -73 -179t-174 -69q-77 0 -127 44l-37 -34h-62l72 66q-31 46 -31 112q0 111 73 181q74 71 174 71q73 0 123 -44l36 34h62l-71 -64q35 -50 35 -118zM258 56q63 0 109 49q47 50 47 128q0 37 -14 68l-222 -213q30 -32 80 -32zM145 185q0 -37 12 -64l220 212
q-28 31 -75 31q-64 0 -111 -50q-46 -49 -46 -129z" />
    <glyph glyph-name="ugrave" unicode="&#xf9;" horiz-adv-x="509" 
d="M387 173l35 247h82l-59 -420h-54l-6 59h-3q-52 -69 -154 -69q-80 0 -118 51.5t-26 139.5l34 239h81l-32 -230q-9 -61 13.5 -96t74.5 -35q55 0 90 36q36 36 42 78zM291 497l-69 133l99 15l28 -148h-58z" />
    <glyph glyph-name="uacute" unicode="&#xfa;" horiz-adv-x="509" 
d="M459 629l-112 -132h-57l72 145zM387 173l35 247h82l-59 -420h-54l-6 59h-3q-52 -69 -154 -69q-80 0 -118 51.5t-26 139.5l34 239h81l-32 -230q-9 -61 13.5 -96t74.5 -35q55 0 90 36q36 36 42 78z" />
    <glyph glyph-name="ucircumflex" unicode="&#xfb;" horiz-adv-x="509" 
d="M370 496l-42 62l-62 -62h-69l104 114h66l73 -114h-70zM387 173l35 247h82l-59 -420h-54l-6 59h-3q-52 -69 -154 -69q-80 0 -118 51.5t-26 139.5l34 239h81l-32 -230q-9 -61 13.5 -96t74.5 -35q55 0 90 36q36 36 42 78z" />
    <glyph glyph-name="udieresis" unicode="&#xfc;" horiz-adv-x="509" 
d="M193 542q0 21 17.5 38t38.5 17q18 0 31 -13t13 -32q0 -21 -18.5 -38.5t-39.5 -17.5q-17 0 -29.5 13.5t-12.5 32.5zM358 542q0 22 17.5 38.5t39.5 16.5q18 0 30.5 -13t12.5 -32q0 -22 -18 -39t-39 -17q-18 0 -30.5 13.5t-12.5 32.5zM387 173l35 247h82l-59 -420h-54l-6 59
h-3q-52 -69 -154 -69q-80 0 -118 51.5t-26 139.5l34 239h81l-32 -230q-9 -61 13.5 -96t74.5 -35q55 0 90 36q36 36 42 78z" />
    <glyph glyph-name="yacute" unicode="&#xfd;" horiz-adv-x="506" 
d="M420 420h81l-57 -406q-12 -89 -70.5 -141t-152.5 -52q-48 0 -90 17q-39 16 -51 27q-10 11 -18 21l50 53l4 -5l5 -4q5 -5 7.5 -7t8.5 -6.5t10.5 -7t11.5 -6.5t14 -6t16 -4.5t19 -3.5t20 -1q116 0 135 124l5 32q-54 -54 -135 -54q-85 0 -124 51.5t-27 140.5l33 238h82
l-32 -230q-8 -60 14.5 -95.5t73.5 -35.5q55 0 89 34q36 36 43 77zM458 629l-112 -132h-57l72 145z" />
    <glyph glyph-name="thorn" unicode="&#xfe;" 
d="M160 79h-3l-33 -235h-82l106 756h82l-36 -257h3q8 14 22 30q15 16 30 26q45 31 102 31q75 0 121 -51t46 -135q0 -108 -68 -182q-68 -72 -160 -72q-58 0 -88.5 26t-39.5 54zM169 186q0 -59 31 -93.5t82 -34.5q63 0 107 50q45 50 45 125q0 57 -30 93t-79 36q-64 0 -110 -49
t-46 -127z" />
    <glyph glyph-name="ydieresis" unicode="&#xff;" horiz-adv-x="506" 
d="M420 420h81l-57 -406q-12 -89 -70.5 -141t-152.5 -52q-48 0 -90 17q-39 16 -51 27q-10 11 -18 21l50 53l4 -5l5 -4q5 -5 7.5 -7t8.5 -6.5t10.5 -7t11.5 -6.5t14 -6t16 -4.5t19 -3.5t20 -1q116 0 135 124l5 32q-54 -54 -135 -54q-85 0 -124 51.5t-27 140.5l33 238h82
l-32 -230q-8 -60 14.5 -95.5t73.5 -35.5q55 0 89 34q36 36 43 77zM193 543q0 21 17.5 38t38.5 17q18 0 31 -13t13 -32q0 -21 -18.5 -38.5t-39.5 -17.5q-17 0 -29.5 13.5t-12.5 32.5zM358 543q0 22 17.5 38.5t39.5 16.5q18 0 30.5 -13t12.5 -32q0 -22 -18 -39t-39 -17
q-18 0 -30.5 13.5t-12.5 32.5z" />
    <glyph glyph-name="dotlessi" unicode="&#x131;" horiz-adv-x="213" 
d="M66 0l59 420h81l-59 -420h-81z" />
    <glyph glyph-name="Lslash" unicode="&#x141;" horiz-adv-x="494" 
d="M49 228l10 69l70 39l37 264h82l-30 -213l162 91l-10 -69l-161 -91l-34 -243h305l-11 -75h-387l37 267z" />
    <glyph glyph-name="lslash" unicode="&#x142;" horiz-adv-x="232" 
d="M52 222l7 52l59 33l42 298h82l-35 -247l63 36l-7 -51l-63 -36l-43 -307h-82l36 256z" />
    <glyph glyph-name="OE" unicode="&#x152;" horiz-adv-x="1025" 
d="M335 -14q-118 0 -188 76q-69 76 -69 194q0 148 99 252q99 105 246 105q138 0 210 -102l13 89h423l-10 -75h-341l-26 -185h291l-10 -73h-291l-27 -192h341l-11 -75h-423l11 80q-98 -94 -238 -94zM346 65q107 0 179 78q72 79 72 190q0 86 -50 144q-49 58 -135 58
q-107 0 -177 -79q-71 -80 -71 -190q0 -88 49 -144q49 -57 133 -57z" />
    <glyph glyph-name="oe" unicode="&#x153;" horiz-adv-x="810" 
d="M741 95l22 -57q-22 -20 -70 -36q-39 -13 -88 -13q-119 0 -165 88q-73 -87 -191 -87q-81 0 -134 51q-51 51 -51 137q0 111 73 181q74 71 174 71q52 0 94 -23.5t65 -65.5q68 89 181 89q89 0 130 -59q42 -59 29 -150l-3 -21h-307q-7 -69 25.5 -106t94.5 -37q65 0 107 29z
M258 56q63 0 109 49q47 50 47 128q0 59 -31.5 95t-80.5 36q-64 0 -111 -50q-46 -49 -46 -129q0 -59 31 -94t82 -35zM641 363q-96 0 -129 -103h221q0 103 -92 103z" />
    <glyph glyph-name="Scaron" unicode="&#x160;" horiz-adv-x="513" 
d="M310 777l42 -62l62 62h69l-100 -109h-72l-71 109h70zM47 59l54 62q23 -23 73 -42q41 -16 90 -16q73 0 110.5 28.5t37.5 78.5q0 32 -29 54t-105 46q-93 30 -134 66t-41 92q0 83 65 134q64 51 176 51q59 0 108.5 -14t67.5 -31l17 -15l-54 -68q-17 19 -66 37q-40 14 -84 14
q-64 0 -102.5 -26t-38.5 -70q0 -29 29 -49t105 -43q95 -29 135.5 -67.5t40.5 -96.5q0 -86 -65 -142t-182 -56q-78 0 -130 21.5t-71 44.5z" />
    <glyph glyph-name="scaron" unicode="&#x161;" horiz-adv-x="413" 
d="M243 606l42 -62l62 62h69l-100 -109h-72l-71 109h70zM43 41l41 56q16 -14 63 -30q36 -11 72 -11q96 0 96 61q0 21 -24 35t-58.5 23.5t-69.5 21.5t-59 36.5t-24 61.5q0 59 47 97t130 38q94 0 148 -26l17 -9l-40 -66q-49 35 -127 35q-95 0 -95 -57q0 -20 24.5 -32.5t59 -21
t69 -20t59 -37.5t24.5 -65q0 -63 -48 -102t-138 -39q-50 0 -92.5 12t-59.5 26z" />
    <glyph glyph-name="Ydieresis" unicode="&#x178;" horiz-adv-x="533" 
d="M336 346l181 254h94l-271 -370l-32 -230h-83l32 230l-167 370h94l111 -254l13 -42h2zM236 708q0 21 17.5 38t38.5 17q18 0 31 -13t13 -32q0 -21 -18.5 -38.5t-39.5 -17.5q-17 0 -29.5 13.5t-12.5 32.5zM401 708q0 22 17.5 38.5t39.5 16.5q18 0 30.5 -13t12.5 -32
q0 -22 -18 -39t-39 -17q-18 0 -30.5 13.5t-12.5 32.5z" />
    <glyph glyph-name="Zcaron" unicode="&#x17d;" horiz-adv-x="527" 
d="M316 777l42 -62l62 62h69l-100 -109h-72l-71 109h70zM30 0l8 57l421 468h-343l10 75h453l-8 -58l-413 -467h341l-11 -75h-458z" />
    <glyph glyph-name="zcaron" unicode="&#x17e;" horiz-adv-x="423" 
d="M243 606l42 -62l62 62h69l-100 -109h-72l-71 109h70zM387 0h-352l6 43l287 310h-242l9 67h341v-1l10 1l-5 -39l-284 -314h239z" />
    <glyph glyph-name="florin" unicode="&#x192;" horiz-adv-x="515" 
d="M184 122l80 234h-84l9 64h97l10 29q56 159 206 159q42 0 76 -14l9 -5l-44 -67q-19 12 -55 12q-43 0 -69.5 -20t-41.5 -65l-10 -29h146l-9 -64h-159l-85 -252q-20 -55 -50 -80.5t-85 -25.5q-46 0 -73 18l-9 6l34 63q20 -14 45 -14q24 0 38 11.5t24 39.5z" />
    <glyph glyph-name="circumflex" unicode="&#x2c6;" horiz-adv-x="371" 
d="M336 662l-42 62l-62 -62h-69l104 114h66l73 -114h-70z" />
    <glyph glyph-name="caron" unicode="&#x2c7;" horiz-adv-x="325" 
d="M218 777l42 -62l62 62h69l-100 -109h-72l-71 109h70z" />
    <glyph glyph-name="breve" unicode="&#x2d8;" horiz-adv-x="396" 
d="M386 810h64q-8 -60 -54 -102q-45 -42 -103 -42q-60 0 -94 42q-33 41 -25 102h65q-5 -34 12.5 -57.5t49.5 -23.5q31 0 55.5 23.5t29.5 57.5z" />
    <glyph glyph-name="dotaccent" unicode="&#x2d9;" horiz-adv-x="331" 
d="M243 550q-24 0 -39 16t-15 40q0 28 21.5 48.5t50.5 20.5q24 0 39.5 -16t15.5 -39q0 -28 -22 -49t-51 -21z" />
    <glyph glyph-name="ring" unicode="&#x2da;" horiz-adv-x="288" 
d="M137 693q0 43 33.5 70.5t85.5 27.5q42 0 67.5 -21.5t25.5 -56.5q0 -43 -33.5 -70.5t-84.5 -27.5q-43 0 -68.5 21.5t-25.5 56.5zM297 708q0 36 -47 36q-62 0 -62 -46q0 -36 50 -36q59 0 59 46z" />
    <glyph glyph-name="ogonek" unicode="&#x2db;" horiz-adv-x="193" 
d="M134 -79l21 -32q-25 -27 -69 -27q-30 0 -48 16.5t-18 43.5q0 70 105 105l5 -27l-3 -2q-16 -5 -36 -22t-20 -40q0 -28 30 -28q20 0 33 13z" />
    <glyph glyph-name="tilde" unicode="&#x2dc;" horiz-adv-x="485" 
d="M407 663q-35 0 -75 27q-40 28 -59 28t-29 -9t-19 -31l-7 -16l-57 6l9 28q29 86 103 86q33 0 73 -28t60 -28q35 0 50 42l5 15l58 -6l-9 -27q-28 -87 -103 -87z" />
    <glyph glyph-name="hungarumlaut" unicode="&#x2dd;" horiz-adv-x="395" 
d="M415 577l-102 -158h-55l65 158h92zM258 577l-102 -158h-55l65 158h92z" />
    <glyph glyph-name="pi" unicode="&#x3c0;" horiz-adv-x="504" 
d="M88 420h446l-9 -66h-64l-50 -354h-82l50 354h-154l-50 -354h-81l50 354h-65z" />
    <glyph glyph-name="endash" unicode="&#x2013;" horiz-adv-x="462" 
d="M96 254l10 68h335l-10 -68h-335z" />
    <glyph glyph-name="emdash" unicode="&#x2014;" horiz-adv-x="715" 
d="M96 254l10 68h588l-10 -68h-588z" />
    <glyph glyph-name="quoteleft" unicode="&#x2018;" horiz-adv-x="217" 
d="M106 435l1 8q8 61 47.5 103.5t99.5 53.5l7 -46q-73 -17 -86 -68q17 -4 27 -16.5t10 -28.5q0 -24 -18 -41t-42 -17q-22 0 -35.5 15t-10.5 37z" />
    <glyph glyph-name="quoteright" unicode="&#x2019;" horiz-adv-x="220" 
d="M104 428q71 15 85 69q-36 7 -36 43q0 24 18.5 42t42.5 18q22 0 35.5 -16t9.5 -37l-1 -5v-2q-3 -59 -43.5 -102t-102.5 -55z" />
    <glyph glyph-name="quotesinglbase" unicode="&#x201a;" horiz-adv-x="207" 
d="M161 42l-1 -8q-8 -61 -47.5 -103.5t-99.5 -53.5l-7 46q72 17 85 68q-36 9 -36 45q0 24 18 41t42 17q22 0 35.5 -15t10.5 -37z" />
    <glyph glyph-name="quotedblleft" unicode="&#x201c;" horiz-adv-x="371" 
d="M106 435l1 8q8 61 47.5 103.5t99.5 53.5l7 -46q-73 -17 -86 -68q17 -4 27 -16.5t10 -28.5q0 -24 -18 -41t-42 -17q-22 0 -35.5 15t-10.5 37zM415 554q-73 -17 -86 -68q17 -3 27 -15.5t10 -29.5q0 -24 -18 -41t-42 -17q-22 0 -36 15.5t-10 36.5l1 4v4q3 60 43.5 103
t103.5 54z" />
    <glyph glyph-name="quotedblright" unicode="&#x201d;" horiz-adv-x="371" 
d="M259 547l-1 -7q-9 -62 -48 -104t-99 -53l-8 45q71 16 85 69q-16 3 -26 15t-10 29q0 24 18.5 41.5t42.5 17.5q22 0 35.5 -15.5t10.5 -37.5zM410 547l-1 -7q-9 -62 -48 -104t-99 -53l-7 45q71 16 85 69q-36 7 -36 43q0 24 18.5 42t42.5 18q22 0 35 -15.5t10 -37.5z" />
    <glyph glyph-name="quotedblbase" unicode="&#x201e;" horiz-adv-x="438" 
d="M161 42l-1 -8q-8 -61 -47.5 -103.5t-99.5 -53.5l-7 46q72 17 85 68q-36 9 -36 45q0 24 18 41t42 17q22 0 35.5 -15t10.5 -37zM392 42l-1 -8q-8 -61 -47.5 -103.5t-99.5 -53.5l-7 46q72 17 85 68q-36 9 -36 45q0 24 18 41t42 17q22 0 35.5 -15t10.5 -37z" />
    <glyph glyph-name="dagger" unicode="&#x2020;" horiz-adv-x="399" 
d="M94 431l10 68h132l19 136h69l-19 -136h132l-10 -68h-132l-44 -262h-54l29 262h-132z" />
    <glyph glyph-name="daggerdbl" unicode="&#x2021;" horiz-adv-x="431" 
d="M115 464l10 68h132l19 136h69l-19 -136h132l-10 -68h-132l-24 -130l-12 -130h132l-10 -68h-132l-19 -136h-69l19 136h-132l10 68h132l24 130l12 130h-132z" />
    <glyph glyph-name="bullet" unicode="&#x2022;" horiz-adv-x="314" 
d="M201 301q28 0 48 -20t20 -49q0 -36 -28 -61t-62 -25q-30 0 -49.5 19.5t-19.5 48.5q0 35 27.5 61t63.5 26z" />
    <glyph glyph-name="ellipsis" unicode="&#x2026;" horiz-adv-x="718" 
d="M60 44q0 28 21 49t50 21q23 0 38.5 -16t15.5 -39q0 -28 -21.5 -48.5t-49.5 -20.5q-24 0 -39 15.5t-15 38.5zM304 44q0 28 21 49t49 21q24 0 39.5 -16t15.5 -39q0 -28 -21.5 -48.5t-50.5 -20.5q-23 0 -38 15.5t-15 38.5zM547 44q0 28 21 49t50 21q23 0 38.5 -16t15.5 -39
q0 -28 -21.5 -48.5t-49.5 -20.5q-24 0 -39 15.5t-15 38.5z" />
    <glyph glyph-name="perthousand" unicode="&#x2030;" horiz-adv-x="956" 
d="M257 613q52 0 81.5 -35.5t29.5 -91.5q0 -70 -43 -122t-110 -52q-53 0 -83 36.5t-30 92.5q0 70 43 120q43 52 112 52zM223 373q33 0 55 31.5t22 77.5q0 33 -13.5 52t-37.5 19q-36 0 -57.5 -30.5t-21.5 -78.5q0 -32 14 -51.5t39 -19.5zM605 600h84l-561 -600h-83zM528 293
q52 0 82 -36t30 -92q0 -68 -44 -121q-43 -52 -110 -52q-52 0 -82 36.5t-30 92.5q0 70 43 120q43 52 111 52zM520 233q-35 0 -57 -31t-22 -77q0 -72 53 -72q35 0 56 31t21 78q0 71 -51 71zM827 233q-35 0 -56.5 -30.5t-21.5 -78.5q0 -33 14 -52t38 -19q35 0 56.5 30.5
t21.5 78.5q0 71 -52 71zM835 293q52 0 82 -36t30 -92q0 -68 -44 -121q-43 -52 -110 -52q-52 0 -82 36.5t-30 92.5q0 70 43 120q43 52 111 52z" />
    <glyph glyph-name="guilsinglleft" unicode="&#x2039;" horiz-adv-x="272" 
d="M67 197l3 23l149 188h70l-2 -10l-144 -186l-1 -6l92 -188l-2 -10h-70z" />
    <glyph glyph-name="guilsinglright" unicode="&#x203a;" horiz-adv-x="271" 
d="M264 220l-3 -23l-149 -189h-71l1 10l146 188l1 6l-93 186l1 10h71z" />
    <glyph glyph-name="fraction" unicode="&#x2044;" horiz-adv-x="579" 
d="M59 0h-69l625 683h71z" />
    <glyph glyph-name="Euro" unicode="&#x20ac;" horiz-adv-x="570" 
d="M435 261l-9 -61h-196q16 -136 144 -136q33 0 65.5 13t49.5 29l15 14l33 -60q1 -1 -6 -8t-23 -18.5t-36 -21.5q-50 -25 -111 -25q-96 0 -151.5 57t-65.5 156h-77l9 61h68q0 20 3 41q4 26 9 44h-68l8 61h78q38 96 108.5 151t166.5 55q59 0 99 -22t53 -43l5 -7l-52 -63
q-14 22 -50 41q-28 16 -64 16q-126 0 -179 -128h194l-8 -61h-205q-6 -21 -9 -44q-4 -25 -4 -41h206z" />
    <glyph glyph-name="trademark" unicode="&#x2122;" horiz-adv-x="711" 
d="M431 281h-56l45 319h40l92 -147l136 147h38l-45 -319h-55l30 215l-105 -115h-18l-72 114zM363 600l-7 -49h-96l-38 -270h-55l38 270h-95l7 49h246z" />
    <glyph glyph-name="Omega" unicode="&#x2126;" horiz-adv-x="713" 
d="M51 0l10 72h132q-47 30 -73.5 85.5t-26.5 119.5q0 135 97 235q98 101 252 101q126 0 196 -76q70 -74 70 -187q0 -86 -45.5 -161t-122.5 -117h132l-10 -72h-270l10 74q89 8 155 85q66 78 66 175q0 86 -51 143t-141 57q-109 0 -183 -78q-73 -76 -73 -182q0 -79 43 -137
q44 -59 114 -63l-10 -74h-271z" />
    <glyph glyph-name="partialdiff" unicode="&#x2202;" horiz-adv-x="503" 
d="M249 -10q-87 0 -136.5 49.5t-49.5 136.5q0 111 68 182q69 72 180 72q20 0 48 -5l1 4q-10 13 -22 38l-121 250l2 11h77l172 -354q29 -70 29 -125q0 -117 -68 -188t-180 -71zM413 236q0 59 -30 92.5t-82 33.5q-67 0 -110.5 -48.5t-43.5 -128.5q0 -59 30.5 -93t81.5 -34
q65 0 109 48q45 50 45 130z" />
    <glyph glyph-name="increment" unicode="&#x2206;" horiz-adv-x="628" 
d="M27 0l2 17l361 583h16l197 -583l-2 -17h-574zM494 72l-116 381h-3l-222 -381h341z" />
    <glyph glyph-name="product" unicode="&#x220f;" horiz-adv-x="619" 
d="M638 600l-84 -600h-83l74 528h-323l-74 -528h-83l84 600h489z" />
    <glyph glyph-name="summation" unicode="&#x2211;" horiz-adv-x="445" 
d="M128 600h356l-10 -72h-252l132 -209l-6 -40l-188 -207h250l-10 -72h-356l10 72l207 220l2 13l-145 223z" />
    <glyph glyph-name="minus" unicode="&#x2212;" horiz-adv-x="554" 
d="M97 265l10 68h434l-10 -68h-434z" />
    <glyph glyph-name="radical" unicode="&#x221a;" horiz-adv-x="605" 
d="M698 600l-501 -792h-18l-145 399h92l62 -188q19 -51 19 -71h5q4 19 37 71l358 581h91z" />
    <glyph glyph-name="infinity" unicode="&#x221e;" horiz-adv-x="755" 
d="M226 116q-64 0 -103 42t-39 106q0 76 55 134t135 58q50 0 85 -30t67 -92q92 122 184 122q60 0 101 -41q40 -40 40 -106q0 -77 -53 -136q-52 -57 -136 -57q-51 0 -86.5 30t-65.5 89q-48 -60 -90.5 -89.5t-93.5 -29.5zM596 390q-67 0 -140 -103q25 -55 49.5 -80.5
t60.5 -25.5q50 0 83 35t33 84q0 40 -24 65t-62 25zM240 181q36 0 68.5 25.5t71.5 77.5q-23 54 -48 80t-62 26q-51 0 -84 -36q-32 -35 -32 -82q0 -40 23 -65.5t63 -25.5z" />
    <glyph glyph-name="integral" unicode="&#x222b;" horiz-adv-x="307" 
d="M115 13l73 517q17 119 121 119q39 0 64 -16l8 -5l-31 -61q-16 10 -35 10q-40 0 -47 -55l-72 -517q-17 -119 -123 -119q-41 0 -63 16l-8 5l32 61q16 -10 34 -10q40 0 47 55z" />
    <glyph glyph-name="approxequal" unicode="&#x2248;" horiz-adv-x="474" 
d="M336 170q-33 0 -73 22q-41 23 -57 23q-32 0 -45 -33l-5 -14l-69 6l11 33q27 77 106 77q32 0 73 -23q40 -22 58 -22q29 0 44 34l6 13l68 -6l-11 -33q-26 -77 -106 -77zM363 362q-33 0 -73 22q-41 23 -57 23q-32 0 -45 -34l-5 -13l-69 6l11 33q26 77 106 77q32 0 73 -23
q40 -22 58 -22q30 0 44 33l6 14l68 -6l-11 -33q-26 -77 -106 -77z" />
    <glyph glyph-name="notequal" unicode="&#x2260;" horiz-adv-x="465" 
d="M105 359l10 67h193l58 115l55 -20l-48 -95h97l-10 -67h-122l-74 -148h176l-10 -68h-201l-57 -112l-55 20l47 92h-89l10 68h114l74 148h-168z" />
    <glyph glyph-name="lessequal" unicode="&#x2264;" horiz-adv-x="387" 
d="M338 253l-55 -50l-163 180l3 17l214 185l41 -50l-167 -144zM359 143l-10 -68h-284l10 68h284z" />
    <glyph glyph-name="greaterequal" unicode="&#x2265;" horiz-adv-x="386" 
d="M162 203l-42 50l165 138l-125 144l55 50l162 -185l-3 -17zM60 75l10 68h283l-10 -68h-283z" />
    <glyph glyph-name="lozenge" unicode="&#x25ca;" horiz-adv-x="452" 
d="M338 600l124 -300l-208 -300h-56l-124 300l208 300h56zM167 299l69 -185h12l120 185l-68 187h-12z" />
    <glyph glyph-name="NULL" horiz-adv-x="0" 
 />
    <glyph glyph-name="CR.001" horiz-adv-x="333" 
 />
    </font>
</defs>
</svg>
