<?xml version="1.0" standalone="no"?>
<!DOCTYPE svg PUBLIC "-//W3C//DTD SVG 1.1//EN" "http://www.w3.org/Graphics/SVG/1.1/DTD/svg11.dtd" >
<svg xmlns="http://www.w3.org/2000/svg" xmlns:xlink="http://www.w3.org/1999/xlink" version="1.1">
<metadata>
Created by FontForge 20170731 at Mon Oct 20 12:31:22 2014
 By Aleksey,,,
Copyright (c) 2014 by Daniel Hernandez &#38; Miguel Hernandez. All rights reserved.
</metadata>
<defs>
<font id="Texta-Thin" horiz-adv-x="574" >
  <font-face 
    font-family="Texta Thin"
    font-weight="250"
    font-stretch="normal"
    units-per-em="1000"
    panose-1="2 0 0 0 0 0 0 0 0 0"
    ascent="800"
    descent="-200"
    x-height="420"
    cap-height="600"
    bbox="-1.89474 -192 1005 822"
    underline-thickness="50"
    underline-position="-200"
    unicode-range="U+000D-25CA"
  />
<missing-glyph horiz-adv-x="564" 
 />
    <glyph glyph-name=".notdef" horiz-adv-x="564" 
 />
    <glyph glyph-name=".null" horiz-adv-x="0" 
 />
    <glyph glyph-name="nonmarkingreturn" horiz-adv-x="333" 
 />
    <glyph glyph-name="NUL" horiz-adv-x="0" 
 />
    <glyph glyph-name="NUL" horiz-adv-x="0" 
 />
    <glyph glyph-name="CR" unicode="&#xd;" horiz-adv-x="0" 
 />
    <glyph glyph-name="space" unicode=" " horiz-adv-x="243" 
 />
    <glyph glyph-name="exclam" unicode="!" horiz-adv-x="173" 
d="M97 600l-5 -468h-12l-4 468h21zM68 0q-8 8 -7.5 19t7.5 17t16.5 8t19.5 -8q8 -8 7.5 -19t-7.5 -17t-16.5 -8t-19.5 8z" />
    <glyph glyph-name="quotedbl" unicode="&#x22;" horiz-adv-x="261" 
d="M108 684l-33 -209h-12l14 209h31zM212 684l-34 -209h-12l15 209h31z" />
    <glyph glyph-name="numbersign" unicode="#" horiz-adv-x="593" 
d="M474 583l-40 -175h123l-4 -20h-123l-45 -197h117l-4 -20h-118l-38 -171h-22l38 171h-174l-38 -171h-22l38 171h-126l4 20h127l44 197h-120l4 20h120l40 175h23l-40 -175h173l40 175h23zM234 388l-45 -197h174l44 197h-173z" />
    <glyph glyph-name="dollar" unicode="$" horiz-adv-x="507" 
d="M53 51l13 17q7 -7 20 -17q15 -10 59 -26q47 -17 97 -18v296q-81 23 -127 51q-59 37 -59 106q0 67 51 108t135 44v104h21v-103q53 -1 99 -13.5t66 -26.5l17 -13l-12 -18q-22 19 -74 36q-43 14 -96 15v-275q69 -22 109 -42q28 -14 46 -32q40 -40 40 -99q0 -71 -49.5 -112.5
t-145.5 -45.5v-94h-21v94q-51 1 -98.5 16t-70.5 33zM437 145q0 66 -55 100q-43 28 -119 52v-290q86 4 130 39.5t44 98.5zM77 461q0 -52 39 -81.5t126 -55.5v268q-73 -3 -119 -38t-46 -93z" />
    <glyph glyph-name="percent" unicode="%" horiz-adv-x="643" 
d="M278 466q0 -63 -32.5 -105t-85.5 -42t-85 42t-32 105q0 64 31.5 105.5t85.5 41.5t86 -41.5t32 -105.5zM64 466q0 -55 26 -91t70 -36t70.5 36t26.5 91t-26.5 91t-70.5 36t-70 -36t-26 -91zM598 139q0 -63 -32.5 -105t-85.5 -42t-85 42t-32 105q0 64 31.5 105.5t85.5 41.5
t86 -41.5t32 -105.5zM384 139q0 -55 26 -91t70 -36t70.5 36t26.5 91t-26.5 91t-70.5 36t-70 -36t-26 -91zM551 600h26l-476 -600h-26z" />
    <glyph glyph-name="ampersand" unicode="&#x26;" 
d="M512 305l21 -4q0 -116 -74 -213l87 -88h-28l-72 73q-74 -86 -191 -86q-91 0 -146 45q-56 45 -56 118q0 60 34.5 99t109.5 78v1q-27 28 -45 50q-14 17 -28 46q-12 28 -12 60q0 57 37.5 93t97.5 36q58 0 95 -36t37 -93q0 -58 -48 -99l-45 -33q-14 -9 -57 -31l215 -218
q68 91 68 202zM255 6q108 0 177 81l-220 225q-50 -27 -73.5 -44.5t-43.5 -47.5q-21 -32 -21 -70q0 -64 52 -104t129 -40zM133 484q0 -39 17 -68q17 -30 60 -74l5 -6q43 22 55 30q24 15 42 29q46 35 46 89q0 50 -30.5 80t-81.5 30q-49 0 -81 -31t-32 -79z" />
    <glyph glyph-name="quotesingle" unicode="'" horiz-adv-x="157" 
d="M108 684l-33 -209h-12l14 209h31z" />
    <glyph glyph-name="parenleft" unicode="(" horiz-adv-x="270" 
d="M69 287q0 -252 191 -407l-10 -15q-57 48 -83 78q-119 140 -119 344q0 261 195 415l7 6l10 -15q-191 -155 -191 -406z" />
    <glyph glyph-name="parenright" unicode=")" horiz-adv-x="270" 
d="M201 287q0 251 -191 406l10 15q54 -45 77 -71q125 -140 125 -350q0 -260 -195 -416l-7 -6l-10 15q191 155 191 407z" />
    <glyph glyph-name="asterisk" unicode="*" horiz-adv-x="402" 
d="M99 428l90 113l-137 35l11 36l131 -56l-11 144h37l-11 -144l130 56l10 -36l-134 -34l89 -114l-30 -22l-72 127l-73 -127z" />
    <glyph glyph-name="plus" unicode="+" horiz-adv-x="457" 
d="M240 484v-172h164v-20h-164v-169h-21v169h-166v20h166v172h21z" />
    <glyph glyph-name="comma" unicode="," horiz-adv-x="192" 
d="M97 -8q-18 0 -24 16t5 28q13 12 29 5.5t16 -23.5v-12q0 -41 -24 -69.5t-69 -37.5l-4 18q33 6 54 27.5t21 45.5v2h-4z" />
    <glyph glyph-name="hyphen" unicode="-" horiz-adv-x="401" 
d="M67 220v20h267v-20h-267z" />
    <glyph glyph-name="period" unicode="." horiz-adv-x="186" 
d="M111 0q-10 -12 -24.5 -7t-18.5 18.5t6 24.5q12 12 26 7t17 -18t-6 -25z" />
    <glyph glyph-name="slash" unicode="/" horiz-adv-x="516" 
d="M45 -111h-22l447 894h22z" />
    <glyph glyph-name="zero" unicode="0" horiz-adv-x="573" 
d="M287 -14q-109 0 -170 87q-62 89 -62 225q0 138 62 227q61 88 170 88q107 0 169 -89t62 -226q0 -135 -62 -224q-61 -88 -169 -88zM287 6q102 0 156 83q54 84 54 209q0 127 -54 211t-156 84q-103 0 -157 -84t-54 -211q0 -124 54.5 -208t156.5 -84z" />
    <glyph glyph-name="one" unicode="1" horiz-adv-x="253" 
d="M11 580v20h163v-600h-21v580h-142z" />
    <glyph glyph-name="two" unicode="2" horiz-adv-x="474" 
d="M49 0v19l278 273q36 36 51 70.5t15 81.5q0 66 -44.5 107.5t-115.5 41.5q-47 0 -91 -21q-40 -18 -62 -40l-19 -20l-14 15q25 25 31 30q22 17 39 26q54 30 116 30q83 0 132 -46.5t49 -122.5q0 -51 -17.5 -89.5t-59.5 -80.5l-260 -255h348v-19h-376z" />
    <glyph glyph-name="three" unicode="3" horiz-adv-x="474" 
d="M240 311h-81v17l230 252h-333v20h363v-16l-237 -256h57q85 0 135 -43t50 -122q0 -75 -54 -125q-52 -48 -138 -48q-65 0 -110 22.5t-66 45.5l-6 8l14 14q0 -1 6 -7.5t20.5 -18t31.5 -21.5q48 -24 110 -24q78 0 124 43q47 44 47 111q0 70 -43.5 109t-119.5 39z" />
    <glyph glyph-name="four" unicode="4" horiz-adv-x="508" 
d="M25 158v16l340 426h19v-422h91v-20h-91v-158h-21v158h-338zM53 179v-1h310v385l-305 -380z" />
    <glyph glyph-name="five" unicode="5" horiz-adv-x="471" 
d="M400 580h-296l-7 -253q54 18 136 18t137 -47q54 -46 54 -126q0 -89 -56 -137t-141 -48q-48 0 -93 18t-65 39l-18 19l14 14q29 -29 58 -46q48 -24 104 -24q80 0 127.5 43.5t47.5 121.5q0 71 -48 112q-48 42 -121 42q-77 0 -131 -18l-18 -5l-8 6l8 291h316v-20z" />
    <glyph glyph-name="six" unicode="6" horiz-adv-x="516" 
d="M77 290q0 -44 4 -68q18 59 69 96t122 37q88 0 142 -56q54 -55 54 -132q0 -73 -56 -127q-56 -53 -140 -53q-101 0 -158.5 77.5t-57.5 224.5q0 162 64 242q64 82 156 82q64 0 107.5 -25.5t60.5 -51.5l5 -9l-14 -15q-11 15 -25 28q-12 12 -31 24q-44 29 -103 29
q-84 0 -142 -76q-57 -76 -57 -227zM272 334q-73 0 -127 -45q-54 -46 -58 -109q18 -87 66 -130t119 -43q74 0 123 45q51 45 51 115q0 69 -49 118t-125 49z" />
    <glyph glyph-name="seven" unicode="7" horiz-adv-x="414" 
d="M26 580v20h375v-19l-274 -581h-25l275 580h-351z" />
    <glyph glyph-name="eight" unicode="8" horiz-adv-x="503" 
d="M56 155q0 55 34.5 96.5t91.5 59.5q-53 17 -83.5 56t-30.5 90q0 67 51 111q51 45 132 45q80 0 131 -45q51 -44 51 -111q0 -50 -30.5 -89.5t-83.5 -56.5q58 -18 93 -59.5t35 -96.5q0 -70 -56 -120q-55 -49 -140 -49t-140 49t-55 120zM425 155q0 65 -51 105q-52 41 -123 41
q-74 0 -124 -41q-49 -40 -49 -105q0 -63 49 -106t124 -43t124 43q50 44 50 106zM90 457q0 -56 44 -97q45 -39 117 -39t115 39q45 40 45 97q0 58 -45 97t-115 39q-69 0 -116 -39q-45 -39 -45 -97z" />
    <glyph glyph-name="nine" unicode="9" horiz-adv-x="520" 
d="M442 296q0 36 -5 84q-18 -60 -71 -97.5t-124 -37.5q-85 0 -140 54t-55 129q0 77 55 131t140 54q106 0 163.5 -80t57.5 -236q0 -159 -63 -235t-162 -76q-45 0 -87 16.5t-61 36.5l-18 18l14 14q1 -1 3.5 -4t4.5 -5t6 -5.5t8.5 -6.5t11 -7.5t15 -9t19.5 -9.5q40 -18 84 -18
q94 0 149 73.5t55 216.5zM242 266q74 0 130 47q55 48 57 113q-41 167 -187 167q-72 0 -124 -47q-50 -47 -50 -118q0 -67 51 -115q52 -47 123 -47z" />
    <glyph glyph-name="colon" unicode=":" horiz-adv-x="186" 
d="M74 8q-11 10 -6 24.5t18 18.5t25 -7q11 -11 6 -25t-17.5 -17.5t-25.5 6.5zM74 376q-11 10 -6 24.5t18 18.5t25 -7q11 -11 6 -25t-17.5 -17.5t-25.5 6.5z" />
    <glyph glyph-name="semicolon" unicode=";" horiz-adv-x="236" 
d="M126 0q-17 0 -23.5 16t5.5 28t28 5.5t16 -23.5v-12q0 -41 -24 -69.5t-69 -37.5l-4 18q33 6 54 27.5t21 45.5v2h-4zM144 376q-8 -8 -19 -7.5t-17 7.5t-8 16.5t8 19.5q8 8 19 7.5t17 -7.5t8 -16.5t-8 -19.5z" />
    <glyph glyph-name="less" unicode="&#x3c;" horiz-adv-x="376" 
d="M47 275v24l259 206v-28l-241 -190l241 -190v-28z" />
    <glyph glyph-name="equal" unicode="=" horiz-adv-x="449" 
d="M69 376v20h311v-20h-311zM69 185v20h311v-20h-311z" />
    <glyph glyph-name="greater" unicode="&#x3e;" horiz-adv-x="376" 
d="M329 299v-24l-259 -206v28l241 190l-241 190v28z" />
    <glyph glyph-name="question" unicode="?" horiz-adv-x="406" 
d="M41 544l-10 16q20 18 67 32q39 13 85 13q85 0 135 -40t50 -110q0 -31 -9 -56.5t-27.5 -46.5t-32.5 -32.5t-38 -28.5q-58 -43 -59 -91l-1 -77h-12v81q0 25 11.5 46t29 35.5t38 32t38 34.5t29 43.5t11.5 59.5q0 61 -43 96t-120 35q-39 0 -75 -10t-52 -22zM176 -9
q-11 11 -5.5 25.5t18 18t24.5 -7.5q12 -10 7 -24.5t-18 -18t-26 6.5z" />
    <glyph glyph-name="at" unicode="@" horiz-adv-x="992" 
d="M736 51q-51 0 -89 35q-37 34 -37 89h-2q-56 -113 -167 -113q-69 0 -117 51q-47 52 -47 132q0 113 61 180q62 69 152 69q54 0 91 -26t52 -70l17 89h15l-32 -250q-3 -29 -3 -62q0 -47 31 -76.5t77 -29.5q86 0 134 71q49 71 49 177q0 163 -120 279q-119 116 -297 116
q-191 0 -315 -127q-123 -127 -123 -306q0 -115 54.5 -213.5t154.5 -158.5q100 -61 225 -61q60 0 116 14q52 13 77 28l23 15l12 -16q-5 -4 -27 -17q-18 -10 -77 -27q-60 -17 -124 -17q-96 0 -181.5 37t-146.5 101q-60 63 -93 145t-33 170q0 90 33 172.5t93 145.5t147 99
t185 36q186 0 311 -122q126 -121 126 -293q0 -114 -55 -190q-54 -76 -150 -76zM447 82q85 0 131 73q48 74 48 194q0 49 -37 86q-36 39 -99 39q-82 0 -138 -63q-55 -62 -55 -166q0 -74 42 -118.5t108 -44.5z" />
    <glyph glyph-name="A" unicode="A" 
d="M299 600l245 -600h-22l-73 178h-325l-72 -178h-22l245 600h24zM287 579l-155 -381h309z" />
    <glyph glyph-name="B" unicode="B" horiz-adv-x="592" 
d="M539 158q0 -76 -53 -117t-144 -41h-247v600h230q91 0 141.5 -42t50.5 -119q0 -103 -102 -136v-2q57 -15 90.5 -52t33.5 -91zM518 158q0 62 -46.5 96t-125.5 36h-230v-270h227q80 0 127.5 36t47.5 102zM496 439q0 68 -45.5 104.5t-124.5 36.5h-210v-270h210q82 0 126 33
t44 96z" />
    <glyph glyph-name="C" unicode="C" horiz-adv-x="577" 
d="M527 85l12 -16q-21 -21 -31 -29q-22 -16 -39 -25q-54 -29 -125 -29q-126 0 -210 89q-84 90 -84 223q0 134 83 225q84 90 211 90q57 0 106 -20q48 -19 69 -40l20 -20l-12 -16q-8 10 -29 26q-15 12 -37 24q-50 26 -117 26q-120 0 -196 -87q-76 -85 -76 -208q0 -121 76 -206
q77 -86 196 -86q52 0 100 20q44 19 64 40z" />
    <glyph glyph-name="D" unicode="D" horiz-adv-x="626" 
d="M261 0h-166v600h166q136 0 225 -80t89 -220t-89 -220t-225 -80zM262 580h-146v-560h146q125 0 208 76q84 76 84 204q0 126 -84 203q-85 77 -208 77z" />
    <glyph glyph-name="E" unicode="E" horiz-adv-x="537" 
d="M446 313v-20h-330v-273h376v-20h-397v600h397v-20h-376v-267h330z" />
    <glyph glyph-name="F" unicode="F" horiz-adv-x="520" 
d="M445 313v-20h-329v-293h-21v600h397v-20h-376v-267h329z" />
    <glyph glyph-name="G" unicode="G" horiz-adv-x="644" 
d="M324 293v20h278v-29q0 -140 -69 -219t-188 -79q-131 0 -213 88q-81 88 -81 224q0 138 81 226q83 89 213 89q63 0 115 -21q50 -19 73 -40l21 -20l-12 -16q-16 16 -32 27q-14 10 -39 23q-58 27 -126 27q-126 0 -200 -86q-73 -85 -73 -209q0 -122 73 -207t200 -85
q107 0 171 70q63 69 65 194v23h-257z" />
    <glyph glyph-name="H" unicode="H" horiz-adv-x="634" 
d="M539 600v-600h-21v293h-402v-293h-21v600h21v-287h402v287h21z" />
    <glyph glyph-name="I" unicode="I" horiz-adv-x="211" 
d="M116 600v-600h-21v600h21z" />
    <glyph glyph-name="J" unicode="J" horiz-adv-x="408" 
d="M320 181l-21 2v417h21v-419zM23 25l12 20q13 -13 50 -28q27 -10 61 -10q153 0 153 176l21 -2q0 -194 -173 -194q-69 0 -111 29z" />
    <glyph glyph-name="K" unicode="K" horiz-adv-x="540" 
d="M116 600v-381l379 381h20v-7l-237 -238l237 -348v-7h-19l-233 339l-147 -148v-191h-21v600h21z" />
    <glyph glyph-name="L" unicode="L" horiz-adv-x="478" 
d="M458 0h-363v600h21v-580h342v-20z" />
    <glyph glyph-name="M" unicode="M" horiz-adv-x="722" 
d="M605 0v572l-234 -313h-20l-235 314v-573h-21v600h28l238 -318l238 318h28v-600h-22z" />
    <glyph glyph-name="N" unicode="N" horiz-adv-x="664" 
d="M569 600v-600h-28l-425 575v-575h-21v600h29l424 -574v574h21z" />
    <glyph glyph-name="O" unicode="O" horiz-adv-x="680" 
d="M51 298q0 137 80 226t209 89t209 -89t80 -226q0 -135 -80 -224q-79 -88 -209 -88t-209 88q-80 89 -80 224zM340 6q124 0 196 85t72 207q0 124 -72 209q-72 86 -196 86t-196 -86q-72 -85 -72 -209q0 -122 72 -207q73 -85 196 -85z" />
    <glyph glyph-name="P" unicode="P" horiz-adv-x="564" 
d="M95 0v600h211q104 0 162 -55q60 -54 60 -139q0 -88 -60 -143q-59 -56 -162 -56h-190v-207h-21zM507 406q0 77 -55 125q-55 49 -145 49h-191v-353h191q89 0 145 50q55 49 55 129z" />
    <glyph glyph-name="Q" unicode="Q" horiz-adv-x="680" 
d="M340 -14q-130 0 -209 88q-80 89 -80 224q0 137 80 226t209 89t209 -89t80 -226q0 -111 -55 -191q-54 -81 -147 -108l74 -121h-24l-70 116q-37 -8 -67 -8zM340 6q124 0 196 85t72 207q0 124 -72 209q-72 86 -196 86t-196 -86q-72 -85 -72 -209q0 -122 72 -207
q73 -85 196 -85z" />
    <glyph glyph-name="R" unicode="R" horiz-adv-x="585" 
d="M95 600h211q105 0 163.5 -51.5t58.5 -142.5q0 -74 -43.5 -123.5t-117.5 -61.5v-2l167 -212v-7h-20l-172 217h-226v-217h-21v600zM507 406q0 83 -53.5 128.5t-146.5 45.5h-191v-343h205q82 0 134 45.5t52 123.5z" />
    <glyph glyph-name="S" unicode="S" horiz-adv-x="502" 
d="M50 51l13 17q3 -3 21 -17q13 -10 61 -27t99 -17q94 0 142 36t48 102q0 68 -57 103q-44 27 -124 51l-38 11q-13 5 -35 12q-19 6 -64 30q-21 11 -45 43q-18 26 -18 65q0 71 56 112t144 41q55 0 103 -12.5t68 -27.5l18 -13l-12 -18q-8 8 -19 14q-16 10 -59 23q-47 14 -99 14
q-75 0 -128 -35q-51 -34 -51 -97q4 -40 21.5 -63.5t55.5 -40.5q22 -10 47 -20l55 -17q19 -5 60 -19q16 -5 53 -23q29 -14 47 -32q42 -38 42 -101q0 -74 -53 -116t-158 -42q-57 0 -105 16q-50 17 -69 32z" />
    <glyph glyph-name="T" unicode="T" horiz-adv-x="497" 
d="M473 600v-20h-214v-580h-21v580h-214v20h449z" />
    <glyph glyph-name="U" unicode="U" horiz-adv-x="624" 
d="M86 246v354h21v-354q0 -112 53 -175.5t152 -63.5t152 63.5t53 175.5v354h21v-354q0 -121 -59.5 -190t-166.5 -69t-166.5 69t-59.5 190z" />
    <glyph glyph-name="V" unicode="V" 
d="M275 0l-245 600h22l235 -578l235 578h22l-245 -600h-24z" />
    <glyph glyph-name="W" unicode="W" horiz-adv-x="770" 
d="M552 0l-167 563l-167 -563h-22l-165 600h22l154 -562l167 562h22l166 -562l155 562h22l-165 -600h-22z" />
    <glyph glyph-name="X" unicode="X" horiz-adv-x="496" 
d="M465 600l-205 -292l216 -308h-25l-181 260l-22 35l-22 -35l-181 -260h-24l214 308l-204 292h25l175 -251l17 -28l17 28l175 251h25z" />
    <glyph glyph-name="Y" unicode="Y" horiz-adv-x="543" 
d="M289 278l196 322h25l-228 -368v-232h-21v232l-228 368h25l197 -322l16 -29h2z" />
    <glyph glyph-name="Z" unicode="Z" horiz-adv-x="508" 
d="M33 0v17l417 563h-414v20h444v-17l-418 -563h405v-20h-434z" />
    <glyph glyph-name="bracketleft" unicode="[" horiz-adv-x="261" 
d="M72 -130v830h174v-20h-154v-790h154v-20h-174z" />
    <glyph glyph-name="backslash" unicode="\" horiz-adv-x="319" 
d="M258 -128l-219 927h21l220 -927h-22z" />
    <glyph glyph-name="bracketright" unicode="]" horiz-adv-x="261" 
d="M15 -130v20h154v790h-154v20h174v-830h-174z" />
    <glyph glyph-name="asciicircum" unicode="^" horiz-adv-x="383" 
d="M300 497l-108 145l-108 -145h-21l118 171h22l117 -171h-20z" />
    <glyph glyph-name="underscore" unicode="_" horiz-adv-x="525" 
d="M41 -60v20h442v-20h-442z" />
    <glyph glyph-name="grave" unicode="`" horiz-adv-x="242" 
d="M166 497l-74 138l31 4l58 -142h-15z" />
    <glyph glyph-name="a" unicode="a" horiz-adv-x="466" 
d="M393 246v-246h-15l-3 89h-2q-22 -42 -70.5 -70.5t-106.5 -28.5q-75 0 -116 35t-41 92q0 58 46 93.5t136 35.5q91 0 152 -34v35q0 164 -159 164q-62 0 -114 -27l-18 -9l-9 18q64 37 145 37q86 0 130.5 -49t44.5 -135zM373 132v59q-63 36 -150 36q-82 0 -123 -30t-41 -80
q0 -48 36.5 -78t103.5 -30q70 0 119 43q51 43 55 80z" />
    <glyph glyph-name="b" unicode="b" horiz-adv-x="526" 
d="M79 0v605h20v-297h1q11 26 22 42q14 20 33 37q45 43 124 43q84 0 141 -62q58 -61 58 -158q0 -98 -58 -159q-57 -61 -140 -61q-80 0 -125 43q-37 36 -50 65l-5 13h-1l-5 -111h-15zM151 356q-53 -55 -53 -146t53 -147q54 -54 129 -54t126 56q51 57 51 145t-51 144
q-51 57 -126 57t-129 -55z" />
    <glyph glyph-name="c" unicode="c" horiz-adv-x="425" 
d="M252 -10q-87 0 -146 59q-58 58 -58 158t58 161q59 62 146 62q69 0 113 -28l14 -10l-8 -17q-47 36 -120 36q-74 0 -128 -57q-54 -56 -54 -147q0 -90 54 -144t128 -54q63 0 106 27l14 9l8 -17q-47 -38 -127 -38z" />
    <glyph glyph-name="d" unicode="d" horiz-adv-x="526" 
d="M426 307h1v298h20v-605h-15l-5 112h-1q-9 -22 -23 -42q-14 -22 -33 -38q-48 -42 -123 -42q-84 0 -142 61q-57 61 -57 159q0 96 57 158q59 62 142 62q72 0 115 -36.5t59 -73.5zM246 411q-75 0 -126 -57q-51 -56 -51 -144t51 -145q51 -56 126 -56q76 0 129 54q53 56 53 147
t-53 146q-52 55 -129 55z" />
    <glyph glyph-name="e" unicode="e" horiz-adv-x="460" 
d="M383 52l10 -17q-20 -17 -67 -33q-38 -12 -78 -12q-87 0 -143 59t-56 158q0 105 53 164q54 59 136 59q84 0 131.5 -54.5t47.5 -147.5v-6h-347v-15q0 -90 51 -144q53 -54 127 -54q37 0 70.5 10t49.5 22zM238 411q-65 0 -111 -45t-55 -124h324q-1 69 -44 119q-41 50 -114 50
z" />
    <glyph glyph-name="f" unicode="f" horiz-adv-x="267" 
d="M18 420h84v45q0 67 35.5 106t93.5 39q39 0 57 -8l7 -2l-7 -18q-22 9 -60 9q-48 0 -77 -33t-29 -93v-45h132v-19h-132v-401h-20v401h-84v19z" />
    <glyph glyph-name="g" unicode="g" horiz-adv-x="451" 
d="M427 402h-113v-2q1 0 7 -2.5t16.5 -10.5t19.5 -19t16 -31t7 -45q0 -57 -41 -98q-41 -39 -109 -39q-59 0 -97 28q-67 -22 -67 -60q0 -62 170 -62q91 0 143 -32t52 -86q0 -55 -52.5 -88.5t-142.5 -33.5q-93 0 -144 29.5t-51 82.5q0 80 112 114q-106 13 -106 77q0 40 72 72
q-39 36 -39 95t40 98t110 39q26 0 53 -8h144v-18zM236 43q-33 0 -55 2q-120 -36 -120 -112q0 -93 175 -93q82 0 128.5 28t46.5 76q0 45 -46.5 72t-128.5 27zM325 375q-34 34 -95 34t-95 -34q-35 -35 -35 -84t35 -84q35 -33 95 -33t95 33q35 35 35 84t-35 84z" />
    <glyph glyph-name="h" unicode="h" horiz-adv-x="505" 
d="M79 0v605h20v-275h1l12 24q49 76 148 76q80 0 126.5 -55t46.5 -144v-231h-20v230q0 83 -40.5 132t-114.5 49q-49 0 -87.5 -25t-55.5 -61q-14 -30 -16 -63v-262h-20z" />
    <glyph glyph-name="i" unicode="i" horiz-adv-x="182" 
d="M107 566q-9 -9 -22 -5t-16.5 15t5.5 22q10 10 23 5.5t16 -16t-6 -21.5zM81 0v420h20v-420h-20z" />
    <glyph glyph-name="j" unicode="j" horiz-adv-x="182" 
d="M0 -156v18h12q69 0 69 83v475h20v-475q0 -53 -21.5 -77t-68.5 -24h-11zM107 566q-9 -9 -22 -5t-16.5 15t5.5 22q10 10 23 5.5t16 -16t-6 -21.5z" />
    <glyph glyph-name="k" unicode="k" horiz-adv-x="417" 
d="M363 420h30l-206 -175l214 -245h-28l-202 231l-72 -61v-170h-20v605h20v-408z" />
    <glyph glyph-name="l" unicode="l" horiz-adv-x="186" 
d="M83 0v605h20v-605h-20z" />
    <glyph glyph-name="m" unicode="m" horiz-adv-x="838" 
d="M79 0v420h15l5 -88h1l1 2q3 9 12 22t27 31t50 30.5t70 12.5q64 0 107.5 -31.5t58.5 -86.5h4q18 73 86 103q34 15 78 15q80 0 126 -55t46 -144v-231h-20v230q0 83 -40 132t-114 49q-49 0 -87.5 -28.5t-55.5 -68.5q-14 -35 -16 -71v-243h-20v255q0 71 -41 113.5t-114 42.5
q-49 0 -87.5 -25t-55.5 -61q-14 -30 -16 -63v-262h-20z" />
    <glyph glyph-name="n" unicode="n" horiz-adv-x="505" 
d="M79 0v420h15l5 -88h1l1 2q3 9 12.5 22.5t27.5 31.5t49.5 30t69.5 12q80 0 126.5 -55t46.5 -144v-231h-20v230q0 83 -40.5 132t-114.5 49q-49 0 -87.5 -25t-55.5 -61q-14 -30 -16 -63v-262h-20z" />
    <glyph glyph-name="o" unicode="o" horiz-adv-x="503" 
d="M252 -10q-87 0 -146 59q-58 59 -58 159q0 99 58 160q59 62 146 62q85 0 144 -62t59 -160t-59 -159q-59 -59 -144 -59zM252 9q74 0 128 54t54 144q0 91 -54 147q-54 57 -128 57q-75 0 -129 -57q-54 -56 -54 -147q0 -90 54 -144t129 -54z" />
    <glyph glyph-name="p" unicode="p" horiz-adv-x="526" 
d="M100 113h-1v-269h-20v576h15l5 -112h1q11 26 22 42q14 20 33 37q47 43 125 43q83 0 140 -62q58 -61 58 -158q0 -98 -58 -159q-57 -61 -141 -61q-72 0 -115 36.5t-59 73.5zM151 356q-53 -55 -53 -146t53 -147q54 -54 129 -54t126 56q51 57 51 145t-51 144q-51 57 -126 57
t-129 -55z" />
    <glyph glyph-name="q" unicode="q" horiz-adv-x="526" 
d="M447 420v-576h-20v268h-1q-10 -25 -23 -42q-14 -21 -32 -38q-48 -42 -124 -42q-84 0 -142 61q-57 61 -57 159q0 96 57 158q59 62 142 62q72 0 115.5 -35.5t58.5 -72.5l5 -13h1l5 111h15zM246 411q-75 0 -126 -57q-51 -56 -51 -144t51 -145q51 -56 126 -56q76 0 129 54
q53 56 53 147t-53 146q-52 55 -129 55z" />
    <glyph glyph-name="r" unicode="r" horiz-adv-x="256" 
d="M245 420v-19h-14q-59 0 -94.5 -41.5t-37.5 -104.5v-255h-20v420h15l5 -88h1l2 4q5 23 39 53.5t90 30.5h14z" />
    <glyph glyph-name="s" unicode="s" horiz-adv-x="392" 
d="M47 29l9 17q54 -36 136 -36q68 0 103.5 26t35.5 70q0 13 -3.5 24t-11 19.5t-14.5 15.5t-21 13t-23 10.5t-26.5 9t-27 7t-29 6.5t-27.5 6q-100 27 -100 103q0 52 38.5 81t109.5 29q78 0 122 -24l14 -9l-8 -18q-47 32 -129 32q-128 0 -128 -91q0 -36 29 -56t71 -29
t83.5 -19.5t70.5 -37.5t29 -72q0 -54 -39 -84.5t-115 -30.5q-41 0 -79 9t-55 20z" />
    <glyph glyph-name="t" unicode="t" horiz-adv-x="277" 
d="M16 420h84v128h20v-128h132v-19h-132v-304q0 -88 78 -88q32 0 55 13l7 4l7 -17q-22 -19 -71 -19q-45 0 -70.5 27.5t-25.5 75.5v308h-84v19z" />
    <glyph glyph-name="u" unicode="u" horiz-adv-x="499" 
d="M400 162v258h20v-420h-15l-6 89h-1l-1 -3q-3 -13 -18 -33t-53 -41.5t-87 -21.5q-80 0 -123.5 54t-43.5 145v231h20v-230q0 -84 37.5 -132.5t110.5 -48.5q41 0 73.5 16t50.5 40.5t27 49.5t9 47z" />
    <glyph glyph-name="v" unicode="v" horiz-adv-x="451" 
d="M219 0l-195 420h24l170 -375q7 -11 7 -22h2q0 7 7 22l170 375h23l-195 -420h-13z" />
    <glyph glyph-name="w" unicode="w" horiz-adv-x="639" 
d="M175 0l-145 420h23l127 -375q6 -21 6 -22h2q0 1 6 22l114 375h24l113 -375q6 -21 6 -22h2q0 7 7 22l126 375h23l-145 -420h-25l-115 383q-3 9 -3 14h-2q0 -3 -4 -14l-116 -383h-24z" />
    <glyph glyph-name="x" unicode="x" horiz-adv-x="403" 
d="M21 0l167 223l-149 197h26l135 -185h3l136 185h24l-148 -196l167 -224h-27l-152 211h-3l-154 -211h-25z" />
    <glyph glyph-name="y" unicode="y" horiz-adv-x="431" 
d="M420 420l-193 -355l-120 -221h-24l127 228l-192 348h25l170 -310q7 -15 7 -22h2q0 11 7 22l170 310h21z" />
    <glyph glyph-name="z" unicode="z" horiz-adv-x="410" 
d="M40 18l306 383h-306v19h330v-18l-304 -383h304v-19h-330v18z" />
    <glyph glyph-name="braceleft" unicode="{" horiz-adv-x="205" 
d="M31 303h8q25 0 43 24.5t18 62.5v246q0 71 59 79l3 -19q-23 -3 -32 -18t-9 -49v-236q0 -84 -47 -101v-5q47 -17 47 -100v-243q0 -34 9 -49t32 -18l-3 -19q-59 8 -59 79v253q0 38 -18 62.5t-43 24.5h-8v26z" />
    <glyph glyph-name="bar" unicode="|" horiz-adv-x="164" 
d="M92 687v-815h-20v815h20z" />
    <glyph glyph-name="braceright" unicode="}" horiz-adv-x="205" 
d="M166 303h8v-26h-8q-25 0 -43 -24.5t-18 -62.5v-253q0 -71 -59 -79l-3 19q23 3 32 18t9 49v243q0 83 47 100v5q-47 17 -47 101v236q0 34 -9 49t-32 18l3 19q59 -8 59 -79v-246q0 -38 18 -62.5t43 -24.5z" />
    <glyph glyph-name="asciitilde" unicode="~" horiz-adv-x="435" 
d="M288 290q39 0 64 14l6 5l9 -13q-21 -26 -79 -26q-21 0 -69 14q-47 14 -71 14q-39 0 -64 -14l-6 -5l-9 13q21 26 79 26q21 0 68 -14q48 -14 72 -14z" />
    <glyph glyph-name="uni00A0" unicode="&#xa0;" horiz-adv-x="244" 
 />
    <glyph glyph-name="exclamdown" unicode="&#xa1;" horiz-adv-x="162" 
d="M87 292l5 -468h-21l4 468h12zM62 388q-11 10 -6 24.5t18 18.5t25 -7q11 -11 6 -25t-17.5 -17.5t-25.5 6.5z" />
    <glyph glyph-name="cent" unicode="&#xa2;" horiz-adv-x="435" 
d="M184 0l11 85q-66 18 -105.5 73.5t-39.5 135.5q0 99 58 160q58 62 144 63l11 83h20l-11 -84q61 -4 97 -29l12 -8l-8 -17q-41 31 -104 35l-52 -398q17 -3 36 -3q63 0 106 27l14 9l8 -17q-47 -38 -127 -38q-20 0 -40 3l-10 -80h-20zM71 294q0 -71 35 -121.5t92 -68.5l51 394
q-72 -1 -125 -58q-53 -56 -53 -146z" />
    <glyph glyph-name="sterling" unicode="&#xa3;" horiz-adv-x="496" 
d="M429 20v-20h-361v20q1 0 4 2.5t5 4t5.5 5t6 7.5t6.5 9.5t8.5 13.5t9.5 18q18 36 18 76q0 27 -8 59q-5 27 -16 68h-67v20h63q-12 55 -12 108q0 82 49 137q50 57 145 57q45 0 85.5 -16.5t57.5 -35.5l16 -17l-15 -15q-1 1 -4 5t-5 6t-7.5 6.5t-11 8t-15.5 9t-22 11.5
q-37 18 -80 18q-85 0 -129 -50q-43 -49 -43 -124q0 -51 12 -108h258v-20h-253q23 -103 23 -126q0 -85 -55 -137h332z" />
    <glyph glyph-name="yen" unicode="&#xa5;" horiz-adv-x="544" 
d="M290 278l196 322h25l-219 -353h170v-20h-179v-88h179v-20h-179v-119h-21v119h-183v20h183v88h-183v20h173l-218 353h25l197 -322l16 -29h2z" />
    <glyph glyph-name="brokenbar" unicode="&#xa6;" horiz-adv-x="165" 
d="M93 330h-21v343h21v-343zM93 -153h-21v343h21v-343z" />
    <glyph glyph-name="section" unicode="&#xa7;" horiz-adv-x="503" 
d="M49 38l13 18l21 -14q17 -9 63 -22q48 -13 107 -13q87 0 132.5 27t45.5 72q0 44 -34 68q-35 26 -139 57q-75 23 -103.5 43t-28.5 48q0 40 40 58q-109 42 -109 115q0 54 52.5 86t149.5 32q52 0 100 -10t69 -21l19 -11l-13 -18q-2 2 -19 11q-12 8 -58 18q-47 11 -98 11
q-88 0 -133.5 -26t-45.5 -72q0 -39 35.5 -65t117.5 -50q149 -41 149 -100q0 -37 -34 -59q59 -24 82 -49.5t23 -65.5q0 -53 -50.5 -86t-149.5 -33q-57 0 -108.5 12t-74.5 26zM225 361q-25 7 -36 11q-41 -15 -41 -50q0 -21 24.5 -36t93.5 -36l62 -22q32 20 32 52q0 44 -135 81
z" />
    <glyph glyph-name="dieresis" unicode="&#xa8;" horiz-adv-x="384" 
d="M77 676q-13 11 -7 27t20 20t26 -8q13 -11 7.5 -26.5t-19.5 -19.5t-27 7zM206 676q-13 11 -7 27t20 20t26 -8q13 -11 7.5 -26.5t-19.5 -19.5t-27 7z" />
    <glyph glyph-name="copyright" unicode="&#xa9;" horiz-adv-x="702" 
d="M351 600q134 0 217 -87q82 -86 82 -214t-82 -214q-83 -87 -217 -87q-135 0 -217 87q-82 86 -82 214t82 214q82 87 217 87zM552 499q-76 81 -201 81t-201 -81q-76 -80 -76 -200t76 -200q76 -81 201 -81t201 81q77 82 77 200t-77 200zM463 426l-12 -15q-31 33 -95 33
t-102 -42q-38 -41 -38 -102q0 -62 38.5 -103t101.5 -41q53 0 86 24l10 8l11 -15q-13 -13 -47 -27q-27 -10 -60 -10q-74 0 -118 47q-43 46 -43 117q0 69 44 116q43 48 117 48q30 0 57.5 -9t38.5 -19z" />
    <glyph glyph-name="ordfeminine" unicode="&#xaa;" horiz-adv-x="406" 
d="M50 370q0 49 37 78t99 29q94 0 128 -54v37q0 134 -122 134q-58 0 -96 -18l-12 -7l-8 19q50 26 116 26q144 0 144 -154v-186h-14l-4 57h-1q-29 -65 -132 -65q-61 0 -98 28.5t-37 75.5zM71 370q0 -39 31.5 -62t82.5 -23q57 0 92 24.5t37 60.5v3q0 37 -35.5 61t-92.5 24
q-51 0 -83 -24t-32 -64z" />
    <glyph glyph-name="guillemotleft" unicode="&#xab;" horiz-adv-x="370" 
d="M51 200v17l101 156h21v-7l-101 -155v-3l101 -157v-7h-21zM188 200v17l101 156h21v-7l-101 -155v-3l101 -157v-7h-21z" />
    <glyph glyph-name="logicalnot" unicode="&#xac;" horiz-adv-x="562" 
d="M58 326v20h431v-346h-20v326h-411z" />
    <glyph glyph-name="registered" unicode="&#xae;" horiz-adv-x="569" 
d="M56 380q0 96 63 164q63 67 165 67t165 -67q64 -67 64 -164t-64 -164q-63 -66 -165 -66t-165 67t-63 163zM78 380q0 -88 57 -149t149 -61t149 60q58 61 58 150t-58 150q-57 61 -149 61t-149 -61q-57 -62 -57 -150zM202 485h86q36 0 56.5 -17.5t20.5 -47.5q0 -46 -41 -63
v-2l50 -65v-7h-19l-53 68q-2 0 -8 -0.5t-8 -0.5h-63v-67h-21v202zM288 465h-65v-95h63q27 0 42.5 14t15.5 36q0 45 -56 45z" />
    <glyph glyph-name="overscore" unicode="&#xaf;" horiz-adv-x="487" 
d="M127 668v19h239v-19h-239z" />
    <glyph glyph-name="degree" unicode="&#xb0;" horiz-adv-x="318" 
d="M78 641q32 30 81 30q50 0 80 -30q31 -30 31 -76t-31 -76q-31 -29 -80 -29t-81 29q-30 30 -30 76t30 76zM225 626q-25 25 -66 25t-66 -25q-25 -24 -25 -61t25 -61t66 -24t66 24t25 61t-25 61z" />
    <glyph glyph-name="plusminus" unicode="&#xb1;" horiz-adv-x="566" 
d="M296 192h-20v192h-192v20h192v194h20v-194h187v-20h-187v-192zM483 113v-20h-399v20h399z" />
    <glyph glyph-name="twosuperior" unicode="&#xb2;" horiz-adv-x="367" 
d="M59 342v14l164 139q46 42 46 84q0 78 -93 78q-51 0 -86 -26l-11 -9l-11 15q28 20 50 29q30 11 58 11q55 0 83.5 -26t28.5 -72q0 -55 -53 -100l-139 -117h211v-20h-248z" />
    <glyph glyph-name="threesuperior" unicode="&#xb3;" horiz-adv-x="347" 
d="M63 648v20h217v-24l-95 -112h1q51 0 80 -25.5t29 -70.5t-32 -73.5t-89 -28.5q-30 0 -60 10.5t-46 23.5l-14 12l13 14q41 -40 107 -40q47 0 74 22.5t27 59.5q0 36 -23.5 56t-65.5 20h-28v18l101 118h-196z" />
    <glyph glyph-name="acute" unicode="&#xb4;" horiz-adv-x="235" 
d="M169 635l-74 -138h-15l58 142z" />
    <glyph glyph-name="mu" unicode="&#xb5;" horiz-adv-x="484" 
d="M396 162v258h20v-420h-15l-6 89h-1l-1 -3q-3 -13 -18 -33t-53 -41.5t-87 -21.5q-109 0 -149 97l2 -279h-20v612h20v-230q0 -84 37.5 -132.5t110.5 -48.5q41 0 73.5 16t50.5 40.5t27 49.5t9 47z" />
    <glyph glyph-name="paragraph" unicode="&#xb6;" horiz-adv-x="471" 
d="M374 -82v290h-119q-104 0 -163 53t-59 146q0 91 58.5 142.5t163.5 51.5h140v-683h-21z" />
    <glyph glyph-name="middot" unicode="&#xb7;" horiz-adv-x="188" 
d="M75 342q-19 19 0 38t38 0t0 -38t-38 0z" />
    <glyph glyph-name="cedilla" unicode="&#xb8;" horiz-adv-x="206" 
d="M79 -59l-7 11l23 51h21l-18 -41q74 0 74 -62q0 -29 -21 -47t-57 -18q-38 0 -57 17l-7 6l10 15q20 -19 55 -19q26 0 41.5 12.5t15.5 33.5q0 20 -15.5 31.5t-39.5 11.5z" />
    <glyph glyph-name="onesuperior" unicode="&#xb9;" horiz-adv-x="201" 
d="M22 648v20h106v-326h-21v306h-85z" />
    <glyph glyph-name="ordmasculine" unicode="&#xba;" horiz-adv-x="427" 
d="M377 441q0 -77 -45.5 -123.5t-117.5 -46.5q-71 0 -118 47q-46 46 -46 123t45.5 124.5t118.5 47.5q72 0 117.5 -47t45.5 -125zM72 441q0 -68 39.5 -109t102.5 -41t102.5 41t39.5 109q0 69 -39 110.5t-103 41.5t-103 -41.5t-39 -110.5z" />
    <glyph glyph-name="guillemotright" unicode="&#xbb;" horiz-adv-x="370" 
d="M182 217v-17l-101 -156h-21v7l101 157v3l-101 155v7h21zM319 217v-17l-101 -156h-21v7l101 157v3l-101 155v7h21z" />
    <glyph glyph-name="onequarter" unicode="&#xbc;" horiz-adv-x="604" 
d="M296 101v18l187 207h15v-205h63v-20h-63v-101h-20v101h-182zM72 0h-26l476 600h26zM323 121v-3l80 3h75v168h-2l-110 -121zM35 580v20h106v-326h-21v306h-85z" />
    <glyph glyph-name="onehalf" unicode="&#xbd;" horiz-adv-x="675" 
d="M390 14v-14h249v20h-212l139 117q54 43 54 100q0 46 -28.5 72t-84.5 26q-27 0 -54 -9.5t-41 -20.5l-13 -10l11 -15q40 35 97 35q93 0 93 -78q0 -42 -46 -84zM69 0h-26l476 600h26zM37 580v20h106v-326h-21v306h-85z" />
    <glyph glyph-name="threequarters" unicode="&#xbe;" horiz-adv-x="721" 
d="M420 101v18l187 207h15v-205h63v-20h-63v-101h-20v101h-182zM55 580v20h217v-24l-95 -112h1q51 0 80 -25.5t29 -70.5t-32 -73.5t-89 -28.5q-30 0 -60 10.5t-46 23.5l-14 12l13 14q41 -40 107 -40q47 0 74 22.5t27 59.5q0 36 -23.5 56t-65.5 20h-28v18l101 118h-196z
M165 0h-26l476 600h26zM447 121v-3l80 3h75v168h-2l-110 -121z" />
    <glyph glyph-name="questiondown" unicode="&#xbf;" horiz-adv-x="399" 
d="M361 -129l10 -16q-20 -18 -68 -32q-38 -13 -84 -13q-85 0 -135 40t-50 110q0 31 9 56.5t28 46.5t31.5 32t37.5 29q59 43 60 91l1 77h12v-81q0 -25 -11.5 -46t-29 -35.5t-38 -32t-38 -34.5t-29 -43.5t-11.5 -59.5q0 -61 43 -96t120 -35q79 0 127 31zM225 424q11 -11 6 -25
t-17.5 -17.5t-25.5 6.5q-11 10 -6 24.5t18 18.5t25 -7z" />
    <glyph glyph-name="Agrave" unicode="&#xc0;" 
d="M299 600l245 -600h-22l-73 178h-325l-72 -178h-22l245 600h24zM287 579l-155 -381h309zM278 635l-74 138l31 4l58 -142h-15z" />
    <glyph glyph-name="Aacute" unicode="&#xc1;" 
d="M299 600l245 -600h-22l-73 178h-325l-72 -178h-22l245 600h24zM287 579l-155 -381h309zM368 773l-74 -138h-15l58 142z" />
    <glyph glyph-name="Acircumflex" unicode="&#xc2;" 
d="M299 600l245 -600h-22l-73 178h-325l-72 -178h-22l245 600h24zM287 579l-155 -381h309zM351 668l-64 91l-63 -91h-22l70 109h29l72 -109h-22z" />
    <glyph glyph-name="Atilde" unicode="&#xc3;" 
d="M299 600l245 -600h-22l-73 178h-325l-72 -178h-22l245 600h24zM287 579l-155 -381h309zM350 668q-26 0 -66 27q-40 28 -59 28q-15 0 -24.5 -7t-13 -14.5t-7.5 -20.5l-3 -11l-15 2l3 15q10 55 59 55q25 0 65 -28q40 -27 61 -27q20 0 29 10t16 32l3 11l15 -2l-3 -15
q-10 -55 -60 -55z" />
    <glyph glyph-name="Adieresis" unicode="&#xc4;" 
d="M299 600l245 -600h-22l-73 178h-325l-72 -178h-22l245 600h24zM287 579l-155 -381h309zM203 676q-13 11 -7 27t20 20t26 -8q13 -11 7.5 -26.5t-19.5 -19.5t-27 7zM332 676q-13 11 -7 27t20 20t26 -8q13 -11 7.5 -26.5t-19.5 -19.5t-27 7z" />
    <glyph glyph-name="Aring" unicode="&#xc5;" 
d="M299 600l245 -600h-22l-73 178h-325l-72 -178h-22l245 600h24zM287 579l-155 -381h309zM228 635q-23 20 -23 52t23 52q24 20 59 20t58 -20q24 -20 24 -52t-24 -52q-23 -20 -58 -20t-59 20zM331 648q17 14 17 39t-17 39q-16 14 -44 14t-45 -14q-16 -14 -16 -39t16 -39
q17 -14 45 -14t44 14z" />
    <glyph glyph-name="AE" unicode="&#xc6;" horiz-adv-x="867" 
d="M3 0l422 600h397v-20h-376v-267h330v-20h-330v-273h376v-20h-397v178h-274l-125 -178h-23zM420 558l-255 -360h260v360h-5z" />
    <glyph glyph-name="Ccedilla" unicode="&#xc7;" horiz-adv-x="577" 
d="M301 -62l-7 11l17 39q-114 11 -188 98q-73 88 -73 212q0 134 83 225q84 90 211 90q57 0 106 -20q48 -19 69 -40l20 -20l-12 -16q-8 10 -29 26q-15 12 -37 24q-50 26 -117 26q-120 0 -196 -87q-76 -85 -76 -208q0 -121 76 -206q77 -86 196 -86q52 0 100 20q44 19 64 40
l19 19l12 -16q-21 -21 -31 -29q-22 -16 -39 -25q-54 -29 -125 -29q-2 0 -6.5 0.5t-5.5 0.5l-12 -28q74 0 74 -62q0 -29 -21 -47t-57 -18q-37 0 -57 18l-7 5l10 15q20 -19 55 -19q26 0 41.5 12.5t15.5 33.5q0 20 -15.5 31.5t-39.5 11.5z" />
    <glyph glyph-name="Egrave" unicode="&#xc8;" horiz-adv-x="537" 
d="M446 313v-20h-330v-273h376v-20h-397v600h397v-20h-376v-267h330zM291 634l-74 138l31 4l58 -142h-15z" />
    <glyph glyph-name="Eacute" unicode="&#xc9;" horiz-adv-x="537" 
d="M446 313v-20h-330v-273h376v-20h-397v600h397v-20h-376v-267h330zM372 773l-74 -138h-15l58 142z" />
    <glyph glyph-name="Ecircumflex" unicode="&#xca;" horiz-adv-x="537" 
d="M446 313v-20h-330v-273h376v-20h-397v600h397v-20h-376v-267h330zM356 668l-64 91l-63 -91h-22l70 109h29l72 -109h-22z" />
    <glyph glyph-name="Edieresis" unicode="&#xcb;" horiz-adv-x="537" 
d="M446 313v-20h-330v-273h376v-20h-397v600h397v-20h-376v-267h330zM210 676q-13 11 -7 27t20 20t26 -8q13 -11 7.5 -26.5t-19.5 -19.5t-27 7zM339 676q-13 11 -7 27t20 20t26 -8q13 -11 7.5 -26.5t-19.5 -19.5t-27 7z" />
    <glyph glyph-name="Igrave" unicode="&#xcc;" horiz-adv-x="211" 
d="M116 600v-600h-21v600h21zM97 635l-74 138l31 4l58 -142h-15z" />
    <glyph glyph-name="Iacute" unicode="&#xcd;" horiz-adv-x="211" 
d="M116 600v-600h-21v600h21zM187 773l-74 -138h-15l58 142z" />
    <glyph glyph-name="Icircumflex" unicode="&#xce;" horiz-adv-x="211" 
d="M116 600v-600h-21v600h21zM170 668l-64 91l-63 -91h-22l70 109h29l72 -109h-22z" />
    <glyph glyph-name="Idieresis" unicode="&#xcf;" horiz-adv-x="211" 
d="M116 600v-600h-21v600h21zM22 676q-13 11 -7 27t20 20t26 -8q13 -11 7.5 -26.5t-19.5 -19.5t-27 7zM151 676q-13 11 -7 27t20 20t26 -8q13 -11 7.5 -26.5t-19.5 -19.5t-27 7z" />
    <glyph glyph-name="Eth" unicode="&#xd0;" horiz-adv-x="626" 
d="M32 293v20h63v287h166q136 0 225 -80t89 -220t-89 -220t-225 -80h-166v293h-63zM262 580h-146v-267h206v-20h-206v-273h146q125 0 208 76q84 76 84 204q0 126 -84 203q-85 77 -208 77z" />
    <glyph glyph-name="Ntilde" unicode="&#xd1;" horiz-adv-x="664" 
d="M569 600v-600h-28l-425 575v-575h-21v600h29l424 -574v574h21zM400 668q-26 0 -66 27q-40 28 -59 28q-15 0 -24.5 -7t-13 -14.5t-7.5 -20.5l-3 -11l-15 2l3 15q10 55 59 55q25 0 65 -28q41 -27 61 -27t29 10t16 32l3 11l15 -2l-3 -15q-10 -55 -60 -55z" />
    <glyph glyph-name="Ograve" unicode="&#xd2;" horiz-adv-x="680" 
d="M51 298q0 137 80 226t209 89t209 -89t80 -226q0 -135 -80 -224q-79 -88 -209 -88t-209 88q-80 89 -80 224zM340 6q124 0 196 85t72 207q0 124 -72 209q-72 86 -196 86t-196 -86q-72 -85 -72 -209q0 -122 72 -207q73 -85 196 -85zM333 668l-74 138l31 4l58 -142h-15z" />
    <glyph glyph-name="Oacute" unicode="&#xd3;" horiz-adv-x="680" 
d="M51 298q0 137 80 226t209 89t209 -89t80 -226q0 -135 -80 -224q-79 -88 -209 -88t-209 88q-80 89 -80 224zM340 6q124 0 196 85t72 207q0 124 -72 209q-72 86 -196 86t-196 -86q-72 -85 -72 -209q0 -122 72 -207q73 -85 196 -85zM420 806l-74 -138h-15l58 142z" />
    <glyph glyph-name="Ocircumflex" unicode="&#xd4;" horiz-adv-x="680" 
d="M51 298q0 137 80 226t209 89t209 -89t80 -226q0 -135 -80 -224q-79 -88 -209 -88t-209 88q-80 89 -80 224zM340 6q124 0 196 85t72 207q0 124 -72 209q-72 86 -196 86t-196 -86q-72 -85 -72 -209q0 -122 72 -207q73 -85 196 -85zM404 668l-64 91l-63 -91h-22l70 109h29
l72 -109h-22z" />
    <glyph glyph-name="Otilde" unicode="&#xd5;" horiz-adv-x="680" 
d="M51 298q0 137 80 226t209 89t209 -89t80 -226q0 -135 -80 -224q-79 -88 -209 -88t-209 88q-80 89 -80 224zM340 6q124 0 196 85t72 207q0 124 -72 209q-72 86 -196 86t-196 -86q-72 -85 -72 -209q0 -122 72 -207q73 -85 196 -85zM402 694q-26 0 -66 27q-40 28 -59 28
q-15 0 -24.5 -7t-13 -14.5t-7.5 -20.5l-3 -11l-15 2l3 15q10 55 59 55q25 0 65 -28q40 -27 61 -27q20 0 29 10t16 32l3 11l15 -2l-3 -15q-10 -55 -60 -55z" />
    <glyph glyph-name="Odieresis" unicode="&#xd6;" horiz-adv-x="680" 
d="M51 298q0 137 80 226t209 89t209 -89t80 -226q0 -135 -80 -224q-79 -88 -209 -88t-209 88q-80 89 -80 224zM340 6q124 0 196 85t72 207q0 124 -72 209q-72 86 -196 86t-196 -86q-72 -85 -72 -209q0 -122 72 -207q73 -85 196 -85zM255 676q-13 11 -7 27t20 20t26 -8
q13 -11 7.5 -26.5t-19.5 -19.5t-27 7zM384 676q-13 11 -7 27t20 20t26 -8q13 -11 7.5 -26.5t-19.5 -19.5t-27 7z" />
    <glyph glyph-name="multiply" unicode="&#xd7;" horiz-adv-x="496" 
d="M86 119l-14 14l163 170l-163 171l14 14l162 -171l163 171l13 -14l-163 -171l163 -170l-13 -14l-163 170z" />
    <glyph glyph-name="Oslash" unicode="&#xd8;" horiz-adv-x="680" 
d="M340 -14q-124 0 -204 83l-66 -69h-33l83 87q-69 86 -69 211q0 137 80 226t209 89q122 0 202 -81l64 68h34l-82 -86q71 -89 71 -216q0 -135 -80 -224q-79 -88 -209 -88zM340 6q124 0 196 85t72 207q0 117 -65 200l-393 -414q75 -78 190 -78zM72 298q0 -115 62 -195
l393 414q-73 76 -187 76q-124 0 -196 -86q-72 -85 -72 -209z" />
    <glyph glyph-name="Ugrave" unicode="&#xd9;" horiz-adv-x="624" 
d="M86 246v354h21v-354q0 -112 53 -175.5t152 -63.5t152 63.5t53 175.5v354h21v-354q0 -121 -59.5 -190t-166.5 -69t-166.5 69t-59.5 190zM304 635l-74 138l31 4l58 -142h-15z" />
    <glyph glyph-name="Uacute" unicode="&#xda;" horiz-adv-x="624" 
d="M86 246v354h21v-354q0 -112 53 -175.5t152 -63.5t152 63.5t53 175.5v354h21v-354q0 -121 -59.5 -190t-166.5 -69t-166.5 69t-59.5 190zM392 773l-74 -138h-15l58 142z" />
    <glyph glyph-name="Ucircumflex" unicode="&#xdb;" horiz-adv-x="624" 
d="M86 246v354h21v-354q0 -112 53 -175.5t152 -63.5t152 63.5t53 175.5v354h21v-354q0 -121 -59.5 -190t-166.5 -69t-166.5 69t-59.5 190zM376 635l-64 91l-63 -91h-22l70 109h29l72 -109h-22z" />
    <glyph glyph-name="Udieresis" unicode="&#xdc;" horiz-adv-x="624" 
d="M86 246v354h21v-354q0 -112 53 -175.5t152 -63.5t152 63.5t53 175.5v354h21v-354q0 -121 -59.5 -190t-166.5 -69t-166.5 69t-59.5 190zM228 676q-13 11 -7 27t20 20t26 -8q13 -11 7.5 -26.5t-19.5 -19.5t-27 7zM357 676q-13 11 -7 27t20 20t26 -8q13 -11 7.5 -26.5
t-19.5 -19.5t-27 7z" />
    <glyph glyph-name="Yacute" unicode="&#xdd;" horiz-adv-x="543" 
d="M289 278l196 322h25l-228 -368v-232h-21v232l-228 368h25l197 -322l16 -29h2zM353 773l-74 -138h-15l58 142z" />
    <glyph glyph-name="Thorn" unicode="&#xde;" horiz-adv-x="562" 
d="M116 600v-103h190q104 0 162 -55q60 -54 60 -139q0 -88 -60 -143q-59 -56 -162 -56h-190v-104h-21v600h21zM507 303q0 77 -55 125q-55 49 -145 49h-191v-353h191q89 0 145 50q55 49 55 129z" />
    <glyph glyph-name="germandbls" unicode="&#xdf;" horiz-adv-x="455" 
d="M231 281v19q69 1 110 39.5t41 99.5q0 56 -41 99q-40 43 -101 43q-60 0 -101 -42q-40 -41 -40 -107v-432h-20v436q0 70 45 117q47 47 116 47t116 -47q46 -46 46 -114q0 -54 -28.5 -93.5t-77.5 -54.5q49 -15 77.5 -52t28.5 -92q0 -68 -45 -111t-116 -43q-43 0 -70 10l-8 3
l6 18q31 -12 74 -12q60 0 99 39q40 40 40 96q0 58 -41 96t-101 38h-9z" />
    <glyph glyph-name="agrave" unicode="&#xe0;" horiz-adv-x="466" 
d="M393 246v-246h-15l-3 89h-2q-22 -42 -70.5 -70.5t-106.5 -28.5q-75 0 -116 35t-41 92q0 58 46 93.5t136 35.5q91 0 152 -34v35q0 164 -159 164q-62 0 -114 -27l-18 -9l-9 18q64 37 145 37q86 0 130.5 -49t44.5 -135zM373 132v59q-63 36 -150 36q-82 0 -123 -30t-41 -80
q0 -48 36.5 -78t103.5 -30q70 0 119 43q51 43 55 80zM217 497l-74 138l31 4l58 -142h-15z" />
    <glyph glyph-name="aacute" unicode="&#xe1;" horiz-adv-x="466" 
d="M393 246v-246h-15l-3 89h-2q-22 -42 -70.5 -70.5t-106.5 -28.5q-75 0 -116 35t-41 92q0 58 46 93.5t136 35.5q91 0 152 -34v35q0 164 -159 164q-62 0 -114 -27l-18 -9l-9 18q64 37 145 37q86 0 130.5 -49t44.5 -135zM373 132v59q-63 36 -150 36q-82 0 -123 -30t-41 -80
q0 -48 36.5 -78t103.5 -30q70 0 119 43q51 43 55 80zM313 635l-74 -138h-15l58 142z" />
    <glyph glyph-name="acircumflex" unicode="&#xe2;" horiz-adv-x="466" 
d="M393 246v-246h-15l-3 89h-2q-22 -42 -70.5 -70.5t-106.5 -28.5q-75 0 -116 35t-41 92q0 58 46 93.5t136 35.5q91 0 152 -34v35q0 164 -159 164q-62 0 -114 -27l-18 -9l-9 18q64 37 145 37q86 0 130.5 -49t44.5 -135zM373 132v59q-63 36 -150 36q-82 0 -123 -30t-41 -80
q0 -48 36.5 -78t103.5 -30q70 0 119 43q51 43 55 80zM280 497l-64 91l-63 -91h-22l70 109h29l72 -109h-22z" />
    <glyph glyph-name="atilde" unicode="&#xe3;" horiz-adv-x="466" 
d="M393 246v-246h-15l-3 89h-2q-22 -42 -70.5 -70.5t-106.5 -28.5q-75 0 -116 35t-41 92q0 58 46 93.5t136 35.5q91 0 152 -34v35q0 164 -159 164q-62 0 -114 -27l-18 -9l-9 18q64 37 145 37q86 0 130.5 -49t44.5 -135zM373 132v59q-63 36 -150 36q-82 0 -123 -30t-41 -80
q0 -48 36.5 -78t103.5 -30q70 0 119 43q51 43 55 80zM280 497q-26 0 -66 27q-40 28 -59 28q-15 0 -24.5 -7t-13 -14.5t-7.5 -20.5l-3 -11l-15 2l3 15q10 55 59 55q25 0 65 -28q41 -27 61 -27t29 10t16 32l3 11l15 -2l-3 -15q-10 -55 -60 -55z" />
    <glyph glyph-name="adieresis" unicode="&#xe4;" horiz-adv-x="466" 
d="M393 246v-246h-15l-3 89h-2q-22 -42 -70.5 -70.5t-106.5 -28.5q-75 0 -116 35t-41 92q0 58 46 93.5t136 35.5q91 0 152 -34v35q0 164 -159 164q-62 0 -114 -27l-18 -9l-9 18q64 37 145 37q86 0 130.5 -49t44.5 -135zM373 132v59q-63 36 -150 36q-82 0 -123 -30t-41 -80
q0 -48 36.5 -78t103.5 -30q70 0 119 43q51 43 55 80zM133 505q-13 11 -7 27t20 20t26 -8q13 -11 7.5 -26.5t-19.5 -19.5t-27 7zM262 505q-13 11 -7 27t20 20t26 -8q13 -11 7.5 -26.5t-19.5 -19.5t-27 7z" />
    <glyph glyph-name="aring" unicode="&#xe5;" horiz-adv-x="466" 
d="M393 246v-246h-15l-3 89h-2q-22 -42 -70.5 -70.5t-106.5 -28.5q-75 0 -116 35t-41 92q0 58 46 93.5t136 35.5q91 0 152 -34v35q0 164 -159 164q-62 0 -114 -27l-18 -9l-9 18q64 37 145 37q86 0 130.5 -49t44.5 -135zM373 132v59q-63 36 -150 36q-82 0 -123 -30t-41 -80
q0 -48 36.5 -78t103.5 -30q70 0 119 43q51 43 55 80zM163 517q-23 20 -23 52t23 52q24 20 59 20t58 -20q24 -20 24 -52t-24 -52q-23 -20 -58 -20t-59 20zM266 530q17 14 17 39t-17 39q-16 14 -44 14t-45 -14q-16 -14 -16 -39t16 -39q17 -14 45 -14t44 14z" />
    <glyph glyph-name="ae" unicode="&#xe6;" horiz-adv-x="799" 
d="M723 53l10 -18q-20 -17 -67 -33q-38 -12 -77 -12q-68 0 -120.5 35t-75.5 97q-15 -54 -70 -93q-54 -39 -124 -39q-76 0 -118 37t-42 94q0 59 47.5 95.5t132.5 36.5q90 0 159 -32v26q0 164 -159 164q-61 0 -115 -27l-17 -9l-9 18q59 37 145 37q145 0 170 -130
q21 62 67.5 96t107.5 34q90 0 139.5 -54t49.5 -148v-6h-357v-15q0 -89 55 -143t133 -54q37 0 70.5 10t49.5 22zM205 10q69 0 121 44q52 45 52 90v56q-67 35 -157 35q-80 0 -121 -31.5t-41 -84.5q0 -48 37.5 -78.5t108.5 -30.5zM568 411q-65 0 -111 -45t-55 -124h334
q-2 70 -45 120q-43 49 -123 49z" />
    <glyph glyph-name="ccedilla" unicode="&#xe7;" horiz-adv-x="425" 
d="M224 -66l-7 11l20 46q-82 4 -136 63q-53 59 -53 153q0 100 58 161q59 62 146 62q69 0 113 -28l14 -10l-8 -17q-47 36 -120 36q-74 0 -128 -57q-54 -56 -54 -147q0 -90 54 -144t128 -54q63 0 106 27l14 9l8 -17q-46 -37 -121 -38l-15 -35q74 0 74 -62q0 -29 -21 -47
t-57 -18q-37 0 -57 18l-7 5l10 15q20 -19 55 -19q26 0 41.5 12.5t15.5 33.5q0 20 -15.5 31.5t-39.5 11.5z" />
    <glyph glyph-name="egrave" unicode="&#xe8;" horiz-adv-x="460" 
d="M383 52l10 -17q-20 -17 -67 -33q-38 -12 -78 -12q-87 0 -143 59t-56 158q0 105 53 164q54 59 136 59q84 0 131.5 -54.5t47.5 -147.5v-6h-347v-15q0 -90 51 -144q53 -54 127 -54q37 0 70.5 10t49.5 22zM238 411q-65 0 -111 -45t-55 -124h324q-1 69 -44 119q-41 50 -114 50
zM221 497l-74 138l31 4l58 -142h-15z" />
    <glyph glyph-name="eacute" unicode="&#xe9;" horiz-adv-x="460" 
d="M383 52l10 -17q-20 -17 -67 -33q-38 -12 -78 -12q-87 0 -143 59t-56 158q0 105 53 164q54 59 136 59q84 0 131.5 -54.5t47.5 -147.5v-6h-347v-15q0 -90 51 -144q53 -54 127 -54q37 0 70.5 10t49.5 22zM238 411q-65 0 -111 -45t-55 -124h324q-1 69 -44 119q-41 50 -114 50
zM308 635l-74 -138h-15l58 142z" />
    <glyph glyph-name="ecircumflex" unicode="&#xea;" horiz-adv-x="460" 
d="M383 52l10 -17q-20 -17 -67 -33q-38 -12 -78 -12q-87 0 -143 59t-56 158q0 105 53 164q54 59 136 59q84 0 131.5 -54.5t47.5 -147.5v-6h-347v-15q0 -90 51 -144q53 -54 127 -54q37 0 70.5 10t49.5 22zM238 411q-65 0 -111 -45t-55 -124h324q-1 69 -44 119q-41 50 -114 50
zM295 497l-64 91l-63 -91h-22l70 109h29l72 -109h-22z" />
    <glyph glyph-name="edieresis" unicode="&#xeb;" horiz-adv-x="460" 
d="M383 52l10 -17q-20 -17 -67 -33q-38 -12 -78 -12q-87 0 -143 59t-56 158q0 105 53 164q54 59 136 59q84 0 131.5 -54.5t47.5 -147.5v-6h-347v-15q0 -90 51 -144q53 -54 127 -54q37 0 70.5 10t49.5 22zM238 411q-65 0 -111 -45t-55 -124h324q-1 69 -44 119q-41 50 -114 50
zM144 505q-13 11 -7 27t20 20t26 -8q13 -11 7.5 -26.5t-19.5 -19.5t-27 7zM273 505q-13 11 -7 27t20 20t26 -8q13 -11 7.5 -26.5t-19.5 -19.5t-27 7z" />
    <glyph glyph-name="igrave" unicode="&#xec;" horiz-adv-x="182" 
d="M81 0v420h20v-420h-20zM84 497l-74 138l31 4l58 -142h-15z" />
    <glyph glyph-name="iacute" unicode="&#xed;" horiz-adv-x="182" 
d="M81 0v420h20v-420h-20zM172 635l-74 -138h-15l58 142z" />
    <glyph glyph-name="icircumflex" unicode="&#xee;" horiz-adv-x="182" 
d="M81 0v420h20v-420h-20zM155 497l-64 91l-63 -91h-22l70 109h29l72 -109h-22z" />
    <glyph glyph-name="idieresis" unicode="&#xef;" horiz-adv-x="182" 
d="M81 0v420h20v-420h-20zM7 505q-13 11 -7 27t20 20t26 -8q13 -11 7.5 -26.5t-19.5 -19.5t-27 7zM136 505q-13 11 -7 27t20 20t26 -8q13 -11 7.5 -26.5t-19.5 -19.5t-27 7z" />
    <glyph glyph-name="eth" unicode="&#xf0;" horiz-adv-x="495" 
d="M247 430q70 0 123 -44v2q-16 21 -19 26l-98 157l-119 -74l-11 18l119 74l-84 135v4h20l81 -129l117 73l11 -18l-117 -72l104 -163q67 -107 71 -189v-1q1 -4 1 -18v-1q0 -98 -58 -159q-57 -61 -141 -61t-142 61q-57 61 -57 159q0 96 57 158q59 62 142 62zM246 411
q-75 0 -126 -57q-51 -56 -51 -144t51 -145q51 -56 126 -56q76 0 129 54q53 56 53 147t-53 146q-52 55 -129 55z" />
    <glyph glyph-name="ntilde" unicode="&#xf1;" horiz-adv-x="505" 
d="M79 0v420h15l5 -88h1l1 2q3 9 12.5 22.5t27.5 31.5t49.5 30t69.5 12q80 0 126.5 -55t46.5 -144v-231h-20v230q0 83 -40.5 132t-114.5 49q-49 0 -87.5 -25t-55.5 -61q-14 -30 -16 -63v-262h-20zM319 497q-25 0 -66 27q-40 28 -59 28q-15 0 -24.5 -7t-13 -14.5t-7.5 -20.5
l-3 -11l-15 2l3 15q10 55 59 55q25 0 65 -28q40 -27 61 -27q20 0 29 10t16 32l3 11l15 -2l-3 -15q-10 -55 -60 -55z" />
    <glyph glyph-name="ograve" unicode="&#xf2;" horiz-adv-x="503" 
d="M252 -10q-87 0 -146 59q-58 59 -58 159q0 99 58 160q59 62 146 62q85 0 144 -62t59 -160t-59 -159q-59 -59 -144 -59zM252 9q74 0 128 54t54 144q0 91 -54 147q-54 57 -128 57q-75 0 -129 -57q-54 -56 -54 -147q0 -90 54 -144t129 -54zM245 497l-74 138l31 4l58 -142h-15
z" />
    <glyph glyph-name="oacute" unicode="&#xf3;" horiz-adv-x="503" 
d="M252 -10q-87 0 -146 59q-58 59 -58 159q0 99 58 160q59 62 146 62q85 0 144 -62t59 -160t-59 -159q-59 -59 -144 -59zM252 9q74 0 128 54t54 144q0 91 -54 147q-54 57 -128 57q-75 0 -129 -57q-54 -56 -54 -147q0 -90 54 -144t129 -54zM332 635l-74 -138h-15l58 142z" />
    <glyph glyph-name="ocircumflex" unicode="&#xf4;" horiz-adv-x="503" 
d="M252 -10q-87 0 -146 59q-58 59 -58 159q0 99 58 160q59 62 146 62q85 0 144 -62t59 -160t-59 -159q-59 -59 -144 -59zM252 9q74 0 128 54t54 144q0 91 -54 147q-54 57 -128 57q-75 0 -129 -57q-54 -56 -54 -147q0 -90 54 -144t129 -54zM316 497l-64 91l-63 -91h-22
l70 109h29l72 -109h-22z" />
    <glyph glyph-name="otilde" unicode="&#xf5;" horiz-adv-x="503" 
d="M252 -10q-87 0 -146 59q-58 59 -58 159q0 99 58 160q59 62 146 62q85 0 144 -62t59 -160t-59 -159q-59 -59 -144 -59zM252 9q74 0 128 54t54 144q0 91 -54 147q-54 57 -128 57q-75 0 -129 -57q-54 -56 -54 -147q0 -90 54 -144t129 -54zM314 497q-26 0 -66 27
q-40 28 -59 28q-15 0 -24.5 -7t-13 -14.5t-7.5 -20.5l-3 -11l-15 2l3 15q10 55 59 55q25 0 65 -28q40 -27 61 -27q20 0 29 10t16 32l3 11l15 -2l-3 -15q-10 -55 -60 -55z" />
    <glyph glyph-name="odieresis" unicode="&#xf6;" horiz-adv-x="503" 
d="M252 -10q-87 0 -146 59q-58 59 -58 159q0 99 58 160q59 62 146 62q85 0 144 -62t59 -160t-59 -159q-59 -59 -144 -59zM252 9q74 0 128 54t54 144q0 91 -54 147q-54 57 -128 57q-75 0 -129 -57q-54 -56 -54 -147q0 -90 54 -144t129 -54zM167 505q-13 11 -7 27t20 20t26 -8
q13 -11 7.5 -26.5t-19.5 -19.5t-27 7zM296 505q-13 11 -7 27t20 20t26 -8q13 -11 7.5 -26.5t-19.5 -19.5t-27 7z" />
    <glyph glyph-name="divide" unicode="&#xf7;" horiz-adv-x="489" 
d="M225 152q-13 11 -7 27t20 20t26 -8q13 -11 7.5 -26.5t-19.5 -19.5t-27 7zM225 403q-13 11 -7 27t20 20t26 -8q13 -11 7.5 -26.5t-19.5 -19.5t-27 7zM69 284v20h351v-20h-351z" />
    <glyph glyph-name="oslash" unicode="&#xf8;" horiz-adv-x="504" 
d="M456 208q0 -98 -59 -159q-59 -59 -144 -59q-83 0 -139 53l-40 -43h-30l54 59q-49 58 -49 149q0 99 58 160q59 62 146 62q81 0 137 -55l42 45h29l-56 -60q51 -62 51 -152zM253 9q74 0 128 54t54 144q0 79 -45 137l-261 -286q50 -49 124 -49zM70 207q0 -80 43 -132l262 286
q-53 50 -122 50q-75 0 -129 -57q-54 -56 -54 -147z" />
    <glyph glyph-name="ugrave" unicode="&#xf9;" horiz-adv-x="499" 
d="M400 162v258h20v-420h-15l-6 89h-1l-1 -3q-3 -13 -18 -33t-53 -41.5t-87 -21.5q-80 0 -123.5 54t-43.5 145v231h20v-230q0 -84 37.5 -132.5t110.5 -48.5q41 0 73.5 16t50.5 40.5t27 49.5t9 47zM233 497l-74 138l31 4l58 -142h-15z" />
    <glyph glyph-name="uacute" unicode="&#xfa;" horiz-adv-x="499" 
d="M400 162v258h20v-420h-15l-6 89h-1l-1 -3q-3 -13 -18 -33t-53 -41.5t-87 -21.5q-80 0 -123.5 54t-43.5 145v231h20v-230q0 -84 37.5 -132.5t110.5 -48.5q41 0 73.5 16t50.5 40.5t27 49.5t9 47zM321 635l-74 -138h-15l58 142z" />
    <glyph glyph-name="ucircumflex" unicode="&#xfb;" horiz-adv-x="499" 
d="M400 162v258h20v-420h-15l-6 89h-1l-1 -3q-3 -13 -18 -33t-53 -41.5t-87 -21.5q-80 0 -123.5 54t-43.5 145v231h20v-230q0 -84 37.5 -132.5t110.5 -48.5q41 0 73.5 16t50.5 40.5t27 49.5t9 47zM304 497l-64 91l-63 -91h-22l70 109h29l72 -109h-22z" />
    <glyph glyph-name="udieresis" unicode="&#xfc;" horiz-adv-x="499" 
d="M400 162v258h20v-420h-15l-6 89h-1l-1 -3q-3 -13 -18 -33t-53 -41.5t-87 -21.5q-80 0 -123.5 54t-43.5 145v231h20v-230q0 -84 37.5 -132.5t110.5 -48.5q41 0 73.5 16t50.5 40.5t27 49.5t9 47zM156 505q-13 11 -7 27t20 20t26 -8q13 -11 7.5 -26.5t-19.5 -19.5t-27 7z
M285 505q-13 11 -7 27t20 20t26 -8q13 -11 7.5 -26.5t-19.5 -19.5t-27 7z" />
    <glyph glyph-name="yacute" unicode="&#xfd;" horiz-adv-x="431" 
d="M420 420l-193 -355l-120 -221h-24l127 228l-192 348h25l170 -310q7 -15 7 -22h2q0 11 7 22l170 310h21zM302 635l-74 -138h-15l58 142z" />
    <glyph glyph-name="thorn" unicode="&#xfe;" horiz-adv-x="526" 
d="M100 111h-1v-267h-20v756h20v-291h1q11 26 22 42q14 20 33 37q50 42 125 42q83 0 140 -62q58 -61 58 -158q0 -98 -58 -159q-57 -61 -140 -61q-39 0 -72 12t-53.5 31t-32 35t-17.5 30zM151 356q-53 -55 -53 -146t53 -147q54 -54 129 -54t126 56q51 57 51 145t-51 144
q-51 57 -126 57t-129 -55z" />
    <glyph glyph-name="ydieresis" unicode="&#xff;" horiz-adv-x="431" 
d="M420 420l-193 -355l-120 -221h-24l127 228l-192 348h25l170 -310q7 -15 7 -22h2q0 11 7 22l170 310h21zM137 506q-13 11 -7 27t20 20t26 -8q13 -11 7.5 -26.5t-19.5 -19.5t-27 7zM266 506q-13 11 -7 27t20 20t26 -8q13 -11 7.5 -26.5t-19.5 -19.5t-27 7z" />
    <glyph glyph-name="dotlessi" unicode="&#x131;" horiz-adv-x="182" 
d="M81 0v420h20v-420h-20z" />
    <glyph glyph-name="Lslash" unicode="&#x141;" horiz-adv-x="480" 
d="M18 252v25l79 49v274h21v-261l176 110v-26l-176 -109v-294h342v-20h-363v301z" />
    <glyph glyph-name="lslash" unicode="&#x142;" horiz-adv-x="217" 
d="M20 229v25l80 49v302h20v-289l81 50v-24l-81 -51v-291h-20v279z" />
    <glyph glyph-name="OE" unicode="&#x152;" horiz-adv-x="1051" 
d="M340 -14q-130 0 -209 88q-80 89 -80 224q0 137 80 226t209 89q95 0 166 -50.5t102 -138.5v176h397v-20h-376v-267h330v-20h-330v-273h376v-20h-397v173q-31 -87 -102 -137t-166 -50zM340 6q120 0 194 81q74 83 74 199v24q0 118 -74 201q-73 82 -194 82q-124 0 -196 -86
q-72 -85 -72 -209q0 -122 72 -207q73 -85 196 -85z" />
    <glyph glyph-name="oe" unicode="&#x153;" horiz-adv-x="844" 
d="M455 222v-24q3 -86 53 -138q51 -51 125 -51q78 0 121 32l14 11l10 -17q-20 -17 -67 -33q-37 -12 -78 -12q-69 0 -119.5 38t-69.5 104q-21 -67 -72.5 -104.5t-119.5 -37.5q-87 0 -146 59q-58 59 -58 159q0 99 58 160q59 62 146 62q67 0 119 -39t72 -106q18 68 66.5 106.5
t113.5 38.5q84 0 131.5 -54.5t47.5 -147.5v-6h-347zM252 9q74 0 128 54t54 144v9q-3 87 -57 141q-53 54 -125 54q-75 0 -129 -57q-54 -56 -54 -147q0 -90 54 -144t129 -54zM623 411q-65 0 -111 -45t-55 -124h324q-1 69 -44 119q-41 50 -114 50z" />
    <glyph glyph-name="Scaron" unicode="&#x160;" horiz-adv-x="502" 
d="M50 51l13 17q3 -3 21 -17q13 -10 61 -27t99 -17q94 0 142 36t48 102q0 68 -57 103q-44 27 -124 51l-38 11q-13 5 -35 12q-19 6 -64 30q-21 11 -45 43q-18 26 -18 65q0 71 56 112t144 41q55 0 103 -12.5t68 -27.5l18 -13l-12 -18q-8 8 -19 14q-16 10 -59 23q-47 14 -99 14
q-75 0 -128 -35q-51 -34 -51 -97q4 -40 21.5 -63.5t55.5 -40.5q22 -10 47 -20l55 -17q19 -5 60 -19q16 -5 53 -23q29 -14 47 -32q42 -38 42 -101q0 -74 -53 -116t-158 -42q-57 0 -105 16q-50 17 -69 32zM189 777l64 -91l63 91h22l-70 -109h-29l-72 109h22z" />
    <glyph glyph-name="scaron" unicode="&#x161;" horiz-adv-x="392" 
d="M47 29l9 17q54 -36 136 -36q68 0 103.5 26t35.5 70q0 13 -3.5 24t-11 19.5t-14.5 15.5t-21 13t-23 10.5t-26.5 9t-27 7t-29 6.5t-27.5 6q-100 27 -100 103q0 52 38.5 81t109.5 29q78 0 122 -24l14 -9l-8 -18q-47 32 -129 32q-128 0 -128 -91q0 -36 29 -56t71 -29
t83.5 -19.5t70.5 -37.5t29 -72q0 -54 -39 -84.5t-115 -30.5q-41 0 -79 9t-55 20zM136 606l64 -91l63 91h22l-70 -109h-29l-72 109h22z" />
    <glyph glyph-name="Ydieresis" unicode="&#x178;" horiz-adv-x="543" 
d="M289 278l196 322h25l-228 -368v-232h-21v232l-228 368h25l197 -322l16 -29h2zM188 676q-13 11 -7 27t20 20t26 -8q13 -11 7.5 -26.5t-19.5 -19.5t-27 7zM317 676q-13 11 -7 27t20 20t26 -8q13 -11 7.5 -26.5t-19.5 -19.5t-27 7z" />
    <glyph glyph-name="Zcaron" unicode="&#x17d;" horiz-adv-x="508" 
d="M33 0v17l417 563h-414v20h444v-17l-418 -563h405v-20h-434zM189 777l64 -91l63 91h22l-70 -109h-29l-72 109h22z" />
    <glyph glyph-name="zcaron" unicode="&#x17e;" horiz-adv-x="410" 
d="M40 18l306 383h-306v19h330v-18l-304 -383h304v-19h-330v18zM137 606l64 -91l63 91h22l-70 -109h-29l-72 109h22z" />
    <glyph glyph-name="florin" unicode="&#x192;" horiz-adv-x="515" 
d="M199 93l64 308h-79v19h83l10 45q15 70 57.5 107.5t104.5 37.5q37 0 55 -9l7 -3l-8 -18q-22 11 -59 11q-50 0 -87.5 -33t-49.5 -93l-10 -45h132v-19h-136l-65 -312q-10 -47 -31 -68.5t-62 -21.5q-31 0 -51 11l-6 4l9 19q20 -14 48 -14q32 0 49 17.5t25 56.5z" />
    <glyph glyph-name="circumflex" unicode="&#x2c6;" horiz-adv-x="314" 
d="M224 668l-64 91l-63 -91h-22l70 109h29l72 -109h-22z" />
    <glyph glyph-name="caron" unicode="&#x2c7;" horiz-adv-x="325" 
d="M96 777l64 -91l63 91h22l-70 -109h-29l-72 109h22z" />
    <glyph glyph-name="breve" unicode="&#x2d8;" horiz-adv-x="349" 
d="M279 822h21q-2 -73 -38 -113.5t-97 -40.5q-60 0 -96 41t-39 113h21q2 -64 32 -99.5t82 -35.5t82 35t32 100z" />
    <glyph glyph-name="dotaccent" unicode="&#x2d9;" horiz-adv-x="327" 
d="M190 560q-10 -10 -25 -10t-25 10t-10 25t10 25q10 11 25 11t25 -11q11 -10 11 -25t-11 -25z" />
    <glyph glyph-name="ring" unicode="&#x2da;" horiz-adv-x="281" 
d="M84 635q-23 20 -23 52t23 52q24 20 59 20t58 -20q24 -20 24 -52t-24 -52q-23 -20 -58 -20t-59 20zM187 648q17 14 17 39t-17 39q-16 14 -44 14t-45 -14q-16 -14 -16 -39t16 -39q17 -14 45 -14t44 14z" />
    <glyph glyph-name="ogonek" unicode="&#x2db;" horiz-adv-x="192" 
d="M151 -102l9 -14q-19 -17 -57 -17q-28 0 -46 16t-18 43t20 50t44 32l21 9l5 -15q-25 -9 -51 -33q-19 -19 -19 -43q0 -19 12 -30t32 -11q23 0 43 10z" />
    <glyph glyph-name="tilde" unicode="&#x2dc;" horiz-adv-x="410" 
d="M261 668q-25 0 -66 27q-40 28 -59 28q-15 0 -24.5 -7t-13 -14.5t-7.5 -20.5l-3 -11l-15 2l3 15q10 55 59 55q25 0 65 -28q40 -27 61 -27q20 0 29 10t16 32l3 11l15 -2l-3 -15q-10 -55 -60 -55z" />
    <glyph glyph-name="hungarumlaut" unicode="&#x2dd;" horiz-adv-x="396" 
d="M286 577l-72 -158h-15l56 158h31zM176 577l-72 -158h-15l56 158h31z" />
    <glyph glyph-name="pi" unicode="&#x3c0;" horiz-adv-x="452" 
d="M27 420h397v-20h-69v-400h-20v400h-218v-400h-20v400h-70v20z" />
    <glyph glyph-name="endash" unicode="&#x2013;" horiz-adv-x="458" 
d="M67 278v20h313v-20h-313z" />
    <glyph glyph-name="emdash" unicode="&#x2014;" horiz-adv-x="729" 
d="M67 278v20h584v-20h-584z" />
    <glyph glyph-name="quoteleft" unicode="&#x2018;" horiz-adv-x="199" 
d="M87 507q17 0 24 -16t-6 -29q-11 -11 -27.5 -4.5t-16.5 23.5v12q0 41 24 69.5t69 37.5l4 -18q-33 -6 -54 -27.5t-21 -45.5v-2h4z" />
    <glyph glyph-name="quoteright" unicode="&#x2019;" horiz-adv-x="207" 
d="M130 548q-17 0 -23.5 16t5.5 28t28 5.5t16 -23.5v-12q0 -41 -24 -69.5t-69 -37.5l-4 18q33 6 54 27.5t21 45.5v2h-4z" />
    <glyph glyph-name="quotesinglbase" unicode="&#x201a;" horiz-adv-x="192" 
d="M97 -8q-18 0 -24 16t5 28q13 12 29 5.5t16 -23.5v-12q0 -41 -24 -69.5t-69 -37.5l-4 18q33 6 54 27.5t21 45.5v2h-4z" />
    <glyph glyph-name="quotedblleft" unicode="&#x201c;" horiz-adv-x="333" 
d="M222 507q17 0 23.5 -16t-5.5 -29q-12 -11 -28 -5t-16 24v12q0 41 24 69.5t69 37.5l4 -18q-33 -6 -54 -27.5t-21 -45.5v-2h4zM86 507q17 0 23.5 -16t-5.5 -29q-12 -11 -28 -5t-16 24v12q0 41 24 69.5t69 37.5l4 -18q-33 -6 -54 -27.5t-21 -45.5v-2h4z" />
    <glyph glyph-name="quotedblright" unicode="&#x201d;" horiz-adv-x="341" 
d="M130 548q-17 0 -23.5 16t5.5 28t28 5.5t16 -23.5v-12q0 -41 -24 -69.5t-69 -37.5l-4 18q33 6 54 27.5t21 45.5v2h-4zM266 548q-17 0 -23.5 16t5.5 28t28 5.5t16 -23.5v-12q0 -41 -24 -69.5t-69 -37.5l-4 18q33 6 54 27.5t21 45.5v2h-4z" />
    <glyph glyph-name="quotedblbase" unicode="&#x201e;" horiz-adv-x="327" 
d="M96 -8q-17 0 -23.5 16t5.5 28t28 5.5t16 -23.5v-12q0 -41 -24 -69.5t-69 -37.5l-4 18q33 6 54 27.5t21 45.5v2h-4zM232 -8q-17 0 -23.5 16t5.5 28t28 5.5t16 -23.5v-12q0 -41 -24 -69.5t-69 -37.5l-4 18q33 6 54 27.5t21 45.5v2h-4z" />
    <glyph glyph-name="dagger" unicode="&#x2020;" horiz-adv-x="388" 
d="M37 442v20h146v173h21v-173h147v-20h-147l-5 -295h-11l-5 295h-146z" />
    <glyph glyph-name="daggerdbl" unicode="&#x2021;" horiz-adv-x="417" 
d="M52 450v20h145v198h21v-198h147v-20h-148l-4 -101l4 -104h148v-20h-147v-225h-21v225h-145v20h145l5 104l-5 101h-145z" />
    <glyph glyph-name="bullet" unicode="&#x2022;" horiz-adv-x="282" 
d="M104 260q15 15 37 15t37 -15t15 -37t-15 -37t-37 -15t-37 15t-15 37t15 37z" />
    <glyph glyph-name="ellipsis" unicode="&#x2026;" horiz-adv-x="526" 
d="M74 0q-11 10 -6 24.5t18 18.5t25 -7q11 -11 6 -25t-17.5 -17.5t-25.5 6.5zM244 0q-11 10 -6 24.5t18 18.5t25 -7q11 -11 6 -25t-17.5 -17.5t-25.5 6.5zM414 0q-11 10 -6 24.5t18 18.5t25 -7q11 -11 6 -25t-17.5 -17.5t-25.5 6.5z" />
    <glyph glyph-name="perthousand" unicode="&#x2030;" horiz-adv-x="937" 
d="M278 466q0 -63 -32.5 -105t-85.5 -42t-85 42t-32 105q0 64 31.5 105.5t85.5 41.5t86 -41.5t32 -105.5zM257 466q0 55 -26.5 91t-70.5 36t-70 -36t-26 -91t26 -91t70 -36t70.5 36t26.5 91zM551 600h26l-476 -600h-26zM598 139q0 -63 -32.5 -105t-85.5 -42t-85 42t-32 105
q0 64 31.5 105.5t85.5 41.5t86 -41.5t32 -105.5zM384 139q0 -55 26 -91t70 -36t70.5 36t26.5 91t-26.5 91t-70.5 36t-70 -36t-26 -91zM690 139q0 -55 26 -91t70 -36t70.5 36t26.5 91t-26.5 91t-70.5 36t-70 -36t-26 -91zM904 139q0 -63 -32.5 -105t-85.5 -42t-85 42t-32 105
q0 64 31.5 105.5t85.5 41.5t86 -41.5t32 -105.5z" />
    <glyph glyph-name="guilsinglleft" unicode="&#x2039;" horiz-adv-x="233" 
d="M51 200v17l101 156h21v-7l-101 -155v-3l101 -157v-7h-21z" />
    <glyph glyph-name="guilsinglright" unicode="&#x203a;" horiz-adv-x="233" 
d="M182 217v-17l-101 -156h-21v7l101 157v3l-101 155v7h21z" />
    <glyph glyph-name="fraction" unicode="&#x2044;" horiz-adv-x="501" 
d="M25 0h-25l475 600h26z" />
    <glyph glyph-name="Euro" unicode="&#x20ac;" horiz-adv-x="606" 
d="M406 240v-20h-235q19 -94 75 -148.5t146 -54.5q40 0 76.5 15t53.5 33l14 16l14 -14l-2 -1q-1 -2 -3 -4.5t-5 -6t-8 -7.5l-10 -8t-12.5 -9t-15.5 -10q-42 -24 -102 -24q-99 0 -161.5 60t-81.5 163h-102v20h99q-4 23 -4 60q0 35 4 58h-99v20h101q18 104 81.5 165t162.5 61
q58 0 96 -20t57 -42l6 -7l-15 -15q0 1 -5 7t-17.5 16t-29.5 18q-38 23 -92 23q-90 0 -146.5 -55t-75.5 -151h236v-20h-238q-4 -23 -4 -58q0 -37 4 -60h238z" />
    <glyph glyph-name="trademark" unicode="&#x2122;" horiz-adv-x="703" 
d="M359 281h-22v319h30l114 -181l114 181h30v-319h-22v292l-116 -185h-12l-116 185v-292zM268 600v-20h-107v-299h-21v299h-106v20h234z" />
    <glyph glyph-name="Omega" unicode="&#x2126;" horiz-adv-x="714" 
d="M54 0v20h182q-81 32 -130 109q-49 79 -49 171q0 129 80 221t220 92t220 -92t80 -221q0 -91 -50 -171q-49 -79 -130 -109h183v-20h-268v20q102 0 173 86q72 85 72 194q0 122 -75 207q-74 86 -205 86t-206 -86q-74 -86 -74 -207q0 -109 72 -194q72 -86 174 -86v-20h-269z
" />
    <glyph glyph-name="partialdiff" unicode="&#x2202;" horiz-adv-x="495" 
d="M247 430q70 0 123 -44v2q-16 21 -19 26l-193 310v4h20l196 -309q67 -107 71 -189v-1q1 -4 1 -18v-1q0 -98 -58 -159q-57 -61 -141 -61t-142 61q-57 61 -57 159q0 96 57 158q59 62 142 62zM246 411q-75 0 -126 -57q-51 -56 -51 -144t51 -145q51 -56 126 -56q76 0 129 54
q53 56 53 147t-53 146q-52 55 -129 55z" />
    <glyph glyph-name="increment" unicode="&#x2206;" horiz-adv-x="597" 
d="M28 0v9l266 591h8l267 -591v-9h-541zM539 20l-240 538h-3l-240 -538h483z" />
    <glyph glyph-name="product" unicode="&#x220f;" horiz-adv-x="592" 
d="M518 600v-600h-21v580h-402v-580h-21v600h444z" />
    <glyph glyph-name="summation" unicode="&#x2211;" horiz-adv-x="442" 
d="M40 600h353v-20h-327l218 -276v-7l-218 -277h327v-20h-353v20l220 279v2l-220 279v20z" />
    <glyph glyph-name="minus" unicode="&#x2212;" horiz-adv-x="489" 
d="M69 289v20h351v-20h-351z" />
    <glyph glyph-name="radical" unicode="&#x221a;" horiz-adv-x="589" 
d="M203 -192l-190 399h24l166 -353q6 -12 6 -19h2q0 7 6 19l350 746h25l-376 -792h-13z" />
    <glyph glyph-name="infinity" unicode="&#x221e;" horiz-adv-x="771" 
d="M216 121q-74 0 -118 47q-43 47 -43 118q0 70 43 117q43 49 118 49q57 0 95.5 -35.5t73.5 -108.5q33 72 72.5 108t96.5 36q70 0 116 -46q46 -45 46 -120q0 -70 -43 -117q-43 -48 -119 -48q-57 0 -96.5 35.5t-72.5 106.5q-35 -72 -73.5 -107t-95.5 -35zM554 432
q-52 0 -89 -36.5t-69 -109.5q33 -72 70 -108.5t88 -36.5q64 0 103 41.5t39 103.5q0 65 -40 105.5t-102 40.5zM216 141q52 0 89 36.5t69 108.5q-33 74 -69 110t-89 36q-64 0 -102.5 -41.5t-38.5 -104.5q0 -64 38 -104.5t103 -40.5z" />
    <glyph glyph-name="integral" unicode="&#x222b;" horiz-adv-x="267" 
d="M123 -16v567q0 52 18 75t59 23q25 0 48 -13l7 -4l-9 -17q-22 15 -46 15q-57 0 -57 -79v-567q0 -52 -18 -75t-58 -23q-26 0 -48 12l-7 5l9 17q23 -15 46 -15q56 0 56 79z" />
    <glyph glyph-name="approxequal" unicode="&#x2248;" horiz-adv-x="392" 
d="M261 194q-27 0 -67 27q-40 28 -59 28q-20 0 -29 -10t-16 -32l-3 -11l-15 2l3 15q10 55 60 55q25 0 65 -28q40 -27 61 -27q20 0 29 10t15 32l3 11l15 -2l-2 -15q-10 -55 -60 -55zM261 378q-27 0 -67 27q-40 28 -59 28q-20 0 -29 -10t-16 -32l-3 -11l-15 2l3 15
q10 55 60 55q25 0 65 -28q40 -27 61 -27q20 0 29 10t15 32l3 11l15 -2l-2 -15q-10 -55 -60 -55z" />
    <glyph glyph-name="notequal" unicode="&#x2260;" horiz-adv-x="439" 
d="M64 376v20h180l51 139l22 -8l-48 -131h106v-20h-113l-62 -171h175v-20h-183l-53 -148l-22 8l51 140h-104v20h111l62 171h-173z" />
    <glyph glyph-name="lessequal" unicode="&#x2264;" horiz-adv-x="397" 
d="M285 233l-14 -14l-178 167v9l178 175l14 -14l-167 -165zM333 134v-20h-263v20h263z" />
    <glyph glyph-name="greaterequal" unicode="&#x2265;" horiz-adv-x="395" 
d="M125 219l-14 14l167 158l-167 165l14 14l178 -175v-9zM64 114v20h262v-20h-262z" />
    <glyph glyph-name="lozenge" unicode="&#x25ca;" horiz-adv-x="402" 
d="M206 600l156 -300l-156 -300h-10l-156 300l156 300h10zM66 299l132 -257h6l131 257l-131 259h-6z" />
    <glyph glyph-name="NULL" horiz-adv-x="0" 
 />
    <glyph glyph-name="CR.001" horiz-adv-x="333" 
 />
    </font>
</defs>
</svg>
