<?xml version="1.0" standalone="no"?>
<!DOCTYPE svg PUBLIC "-//W3C//DTD SVG 1.1//EN" "http://www.w3.org/Graphics/SVG/1.1/DTD/svg11.dtd" >
<svg xmlns="http://www.w3.org/2000/svg" xmlns:xlink="http://www.w3.org/1999/xlink" version="1.1">
<metadata>
Created by FontForge 20170731 at Mon Oct 20 12:31:20 2014
 By Aleksey,,,
Copyright (c) 2014 by Daniel Hernandez &#38; Miguel Hernandez. All rights reserved.
</metadata>
<defs>
<font id="Texta-ThinItalic" horiz-adv-x="574" >
  <font-face 
    font-family="Texta Thin"
    font-weight="250"
    font-style="italic"
    font-stretch="normal"
    units-per-em="1000"
    panose-1="2 0 0 0 0 0 0 0 0 0"
    ascent="800"
    descent="-200"
    x-height="420"
    cap-height="600"
    bbox="-22 -192 1089 822"
    underline-thickness="50"
    underline-position="-200"
    slope="-8"
    unicode-range="U+000D-25CA"
  />
<missing-glyph horiz-adv-x="564" 
 />
    <glyph glyph-name=".notdef" horiz-adv-x="564" 
 />
    <glyph glyph-name=".null" horiz-adv-x="0" 
 />
    <glyph glyph-name="nonmarkingreturn" horiz-adv-x="333" 
 />
    <glyph glyph-name="NUL" horiz-adv-x="0" 
 />
    <glyph glyph-name="NUL" horiz-adv-x="0" 
 />
    <glyph glyph-name="CR" unicode="&#xd;" horiz-adv-x="0" 
 />
    <glyph glyph-name="space" unicode=" " horiz-adv-x="243" 
 />
    <glyph glyph-name="exclam" unicode="!" horiz-adv-x="173" 
d="M181 600l-70 -468h-12l61 468h21zM62 15q0 11 9.5 20t20.5 9q10 0 16.5 -7t6.5 -16q0 -11 -9.5 -20t-20.5 -9q-10 0 -16.5 7t-6.5 16z" />
    <glyph glyph-name="quotedbl" unicode="&#x22;" horiz-adv-x="261" 
d="M204 684l-62 -209h-12l43 209h31zM308 684l-63 -209h-12l44 209h31z" />
    <glyph glyph-name="numbersign" unicode="#" horiz-adv-x="593" 
d="M556 583l-65 -175h123l-7 -20h-123l-72 -197h117l-7 -20h-118l-62 -171h-22l62 171h-174l-62 -171h-22l62 171h-126l7 20h127l71 197h-120l7 20h120l65 175h23l-65 -175h173l65 175h23zM288 388l-72 -197h174l71 197h-173z" />
    <glyph glyph-name="dollar" unicode="$" horiz-adv-x="507" 
d="M60 51l15 17q20 -22 74 -44q45 -17 95 -17l41 295q-68 22 -114 48q-52 33 -52 94q0 75 59 120q58 46 151 49l15 103h20l-15 -103q53 -1 98 -13.5t62 -26.5l15 -13l-15 -18q-19 19 -69 36q-42 14 -94 15l-38 -275q73 -23 117 -52q55 -34 55 -102q0 -77 -56.5 -125
t-162.5 -52l-13 -94h-20l13 94q-51 1 -97.5 16t-65.5 33zM459 161q0 56 -48 88q-39 26 -106 47l-41 -289q95 4 145 44.5t50 109.5zM140 448q0 -55 63 -91q28 -15 85 -33l38 268q-77 -3 -132 -41q-54 -37 -54 -103z" />
    <glyph glyph-name="percent" unicode="%" horiz-adv-x="643" 
d="M246 613q47 0 73.5 -33.5t26.5 -88.5q0 -68 -39 -121q-39 -51 -102 -51q-46 0 -72.5 35t-26.5 88q0 69 39 120t101 51zM243 593q-52 0 -83 -45q-32 -44 -32 -104q0 -47 21 -76t59 -29q52 0 84 45q32 46 32 104q0 47 -21.5 76t-59.5 29zM520 286q47 0 73.5 -33.5
t26.5 -88.5q0 -68 -39 -121q-39 -51 -102 -51q-46 0 -72.5 34t-26.5 89q0 69 39 120t101 51zM517 266q-51 0 -83 -45q-32 -44 -32 -104q0 -47 21 -76t59 -29q52 0 84 45q33 45 33 104q0 47 -21.5 76t-60.5 29zM635 600h26l-560 -600h-26z" />
    <glyph glyph-name="ampersand" unicode="&#x26;" 
d="M555 305l19 -2q-16 -117 -103 -213l75 -90h-26l-63 74q-87 -87 -204 -87q-82 0 -131.5 39.5t-49.5 104.5q0 76 55 122q41 35 117 74q-36 44 -51 73.5t-15 64.5q0 65 44 106q45 42 111 42q52 0 83.5 -31t31.5 -81q0 -68 -56 -111q-25 -19 -52 -35q-18 -11 -66 -34
l184 -218q39 44 65 98.5t32 103.5zM255 6q108 0 190 82l-189 225q-72 -37 -112 -70q-51 -41 -51 -108q0 -56 45.5 -92.5t116.5 -36.5zM199 466q0 -54 58 -124l5 -6q44 20 66 33q26 15 50 33q49 39 49 98q0 42 -26.5 68t-71.5 26q-55 0 -92.5 -36t-37.5 -92z" />
    <glyph glyph-name="quotesingle" unicode="'" horiz-adv-x="157" 
d="M204 684l-62 -209h-12l43 209h31z" />
    <glyph glyph-name="parenleft" unicode="(" horiz-adv-x="270" 
d="M103 218q0 -210 140 -338l-12 -15q-50 48 -79 92q-70 109 -70 259q0 305 258 485q6 3 10 7l7 -15l-3 -1l-4 -4q-247 -175 -247 -470z" />
    <glyph glyph-name="parenright" unicode=")" horiz-adv-x="270" 
d="M247 356q0 214 -140 337l12 15q58 -55 85 -100q65 -107 65 -249q0 -306 -259 -487l-9 -7l-8 15q77 54 120 105q134 155 134 371z" />
    <glyph glyph-name="asterisk" unicode="*" horiz-adv-x="402" 
d="M159 428l106 113l-132 35l16 36l123 -56l9 144h37l-31 -144l138 56l5 -36l-139 -34l73 -114l-33 -22l-54 127l-91 -127z" />
    <glyph glyph-name="plus" unicode="+" horiz-adv-x="457" 
d="M308 484l-24 -172h164l-3 -20h-164l-24 -169h-21l24 169h-166l3 20h166l24 172h21z" />
    <glyph glyph-name="comma" unicode="," horiz-adv-x="192" 
d="M100 -8h-3q-15 0 -21 13t1 26t24 13q10 0 17 -7t7 -19q0 -45 -28.5 -76t-81.5 -43l-1 18q34 6 58.5 27.5t27.5 45.5v2z" />
    <glyph glyph-name="hyphen" unicode="-" horiz-adv-x="401" 
d="M98 220l3 20h267l-3 -20h-267z" />
    <glyph glyph-name="period" unicode="." horiz-adv-x="186" 
d="M92 -8q-10 0 -16.5 7t-6.5 16q0 11 9.5 20t20.5 9q9 0 15.5 -7t6.5 -16q0 -11 -9 -20t-20 -9z" />
    <glyph glyph-name="slash" unicode="/" horiz-adv-x="516" 
d="M29 -111h-22l573 894h22z" />
    <glyph glyph-name="zero" unicode="0" horiz-adv-x="573" 
d="M285 -14q-92 0 -143 70q-50 71 -50 184q0 157 78 265t203 108q92 0 142 -71t50 -184q0 -157 -79 -264q-78 -108 -201 -108zM288 6q80 0 139 51q60 52 88 130q29 81 29 169q0 103 -44 170q-43 67 -129 67q-82 0 -141 -52q-61 -54 -89 -131t-28 -169q0 -101 44 -169
q43 -66 131 -66z" />
    <glyph glyph-name="one" unicode="1" horiz-adv-x="253" 
d="M93 580l3 20h163l-85 -600h-21l82 580h-142z" />
    <glyph glyph-name="two" unicode="2" horiz-adv-x="474" 
d="M49 0l3 19l316 273q50 44 69.5 82.5t19.5 88.5q0 58 -39 94t-102 36q-48 0 -94 -21q-42 -18 -68 -40l-21 -20l-12 15q16 16 35 30q23 17 42 26q58 30 121 30q74 0 116.5 -39.5t42.5 -106.5q0 -53 -21 -97t-82 -96l-296 -255h349l-3 -19h-376z" />
    <glyph glyph-name="three" unicode="3" horiz-adv-x="474" 
d="M283 311h-81l3 17l266 253h-334l3 19h363l-2 -16l-273 -256h57q76 0 119.5 -36.5t43.5 -104.5q0 -85 -63 -141q-62 -56 -155 -56q-52 0 -95.5 18t-60.5 39l-15 19l16 14q0 -1 5 -7t17.5 -18t29.5 -22q46 -24 106 -24q84 0 139 50q55 49 55 126q0 60 -38 93t-106 33z" />
    <glyph glyph-name="four" unicode="4" horiz-adv-x="508" 
d="M47 158l2 16l400 426h19l-59 -422h91l-3 -20h-91l-22 -158h-21l22 158h-338zM78 179v-1h310l54 385l-359 -380z" />
    <glyph glyph-name="five" unicode="5" horiz-adv-x="471" 
d="M482 580h-296l-43 -254q61 19 139 19q76 0 122 -41.5t46 -110.5q0 -97 -66 -152q-64 -54 -159 -54q-61 0 -102 22t-57 45l-6 8l16 14q0 -1 5 -7t17.5 -17.5t29.5 -20.5q42 -24 100 -24q89 0 144 49q56 50 56 135q0 62 -40.5 98.5t-107.5 36.5q-84 0 -136 -18l-17 -6l-7 6
l49 292h316z" />
    <glyph glyph-name="six" unicode="6" horiz-adv-x="516" 
d="M359 593q-91 0 -164 -87q-79 -93 -84 -282q25 55 85 93q58 37 129 37q79 0 126 -47q46 -46 46 -114q0 -85 -63 -146q-62 -61 -156 -61q-90 0 -138.5 59t-48.5 175q0 96 23.5 174.5t63.5 125.5q81 93 184 93q64 0 104.5 -26t51.5 -51l5 -9l-17 -14l-2 5q-3 4 -8.5 11
t-13 15.5t-19.5 17t-26.5 15.5t-35 11.5t-42.5 4.5zM322 333q-76 0 -138 -48q-60 -47 -71 -113q16 -166 169 -166q78 0 136 53q58 54 58 130q0 64 -41.5 104t-112.5 40z" />
    <glyph glyph-name="seven" unicode="7" horiz-adv-x="414" 
d="M108 580l2 20h375l-2 -19l-356 -581h-25l357 580h-351z" />
    <glyph glyph-name="eight" unicode="8" horiz-adv-x="503" 
d="M249 -14q-78 0 -125 43q-48 43 -48 108q0 62 41.5 109t108.5 65q-45 16 -70.5 50.5t-25.5 78.5q0 73 59 123q61 50 148 50q72 0 117 -39t45 -99q0 -56 -37.5 -101t-98.5 -63q49 -16 78 -53t29 -85q0 -76 -65 -132q-64 -55 -156 -55zM448 171q0 57 -45 93q-43 37 -110 37
h-8q-76 -2 -131 -48q-56 -45 -56 -113q0 -56 43 -95t111 -39q80 0 138 48q58 49 58 117zM296 321h7q72 1 123 46q50 44 50 105q0 52 -39.5 86.5t-102.5 34.5q-76 0 -129 -44q-52 -43 -52 -107q0 -53 39.5 -87t103.5 -34z" />
    <glyph glyph-name="nine" unicode="9" horiz-adv-x="520" 
d="M239 6q110 0 180 91q72 91 72 274v9q-26 -59 -85 -97t-130 -38q-77 0 -124 45t-47 117q0 83 63 145q64 61 160 61q89 0 136.5 -61.5t47.5 -179.5q0 -194 -79 -290t-197 -96q-56 0 -96 21.5t-54 42.5l-6 7l16 14q0 -1 5 -6.5t17.5 -16.5t27.5 -20q40 -22 93 -22zM279 266
q74 0 136 47q63 49 73 113q-8 83 -50.5 125t-112.5 42q-81 0 -140 -53q-58 -52 -58 -129q0 -68 41 -106.5t111 -38.5z" />
    <glyph glyph-name="colon" unicode=":" horiz-adv-x="186" 
d="M70 23q0 11 9.5 20t20.5 9q10 0 16.5 -7t6.5 -16q0 -11 -9.5 -20t-20.5 -9q-10 0 -16.5 7t-6.5 16zM122 391q0 11 9.5 20t20.5 9q10 0 16.5 -7t6.5 -16q0 -11 -9.5 -20t-20.5 -9q-10 0 -16.5 7t-6.5 16z" />
    <glyph glyph-name="semicolon" unicode=";" horiz-adv-x="236" 
d="M130 0h-3q-14 0 -20.5 13t0 26t24.5 13q10 0 17 -7t7 -19q0 -45 -28.5 -76t-81.5 -43l-1 18q34 6 58.5 27.5t27.5 45.5v2zM155 391q0 11 9.5 20t20.5 9q10 0 16.5 -7t6.5 -16q0 -11 -9.5 -20t-20.5 -9q-10 0 -16.5 7t-6.5 16z" />
    <glyph glyph-name="less" unicode="&#x3c;" horiz-adv-x="376" 
d="M86 275l3 24l288 206l-4 -28l-267 -190l214 -190l-4 -28z" />
    <glyph glyph-name="equal" unicode="=" horiz-adv-x="449" 
d="M122 376l3 20h311l-3 -20h-311zM95 185l3 20h311l-3 -20h-311z" />
    <glyph glyph-name="greater" unicode="&#x3e;" horiz-adv-x="376" 
d="M371 299l-3 -24l-288 -206l4 28l268 190l-215 190l4 28z" />
    <glyph glyph-name="question" unicode="?" horiz-adv-x="406" 
d="M121 544l-11 16q19 17 72 32q39 13 86 13q77 0 121.5 -35t44.5 -96q0 -46 -19 -81.5t-47.5 -57t-57.5 -40t-52 -42.5t-27 -53l-12 -77h-15l13 81q3 19 11.5 35t25 31.5t28 24.5t35 25t31.5 22q64 50 64 130q0 52 -38 82.5t-107 30.5q-38 0 -75 -10t-55 -21zM170 6
q0 11 9.5 20t20.5 9q10 0 16.5 -7t6.5 -16q0 -11 -9.5 -20t-20.5 -9q-10 0 -16.5 7t-6.5 16z" />
    <glyph glyph-name="at" unicode="@" horiz-adv-x="992" 
d="M743 51q-48 0 -78.5 28.5t-30.5 75.5l1 20h-3q-75 -113 -182 -113q-62 0 -101.5 43t-39.5 113q0 118 75 197t176 79q110 0 130 -95l29 88h15l-70 -262q-10 -36 -10 -64q0 -41 26.5 -66.5t67.5 -25.5q98 0 160 87q62 89 62 206q0 149 -103 249q-103 101 -263 101
q-102 0 -197 -39.5t-162 -106.5t-105.5 -156t-38.5 -181q0 -158 104 -271q103 -112 274 -112q60 0 118 14q52 13 81 28l25 15l9 -16q-8 -6 -29 -17q-19 -10 -81 -27q-63 -17 -126 -17q-176 0 -286 117q-109 116 -109 284q0 97 40 189t110 162q71 71 170 112.5t206 41.5
q169 0 276 -107t107 -261q0 -128 -69 -221q-68 -92 -178 -92zM454 82q60 0 113 48q54 51 80 113q28 63 28 120q0 52 -30.5 81.5t-87.5 29.5q-93 0 -160 -73q-68 -73 -68 -181q0 -64 34 -101t91 -37z" />
    <glyph glyph-name="A" unicode="A" 
d="M383 600l161 -600h-22l-48 178h-325l-97 -178h-22l329 600h24zM368 579l-208 -381h309z" />
    <glyph glyph-name="B" unicode="B" horiz-adv-x="592" 
d="M563 176q0 -83 -62 -130q-61 -46 -159 -46h-247l84 600h230q82 0 127 -36t45 -102q0 -120 -123 -159l-1 -2q49 -12 77.5 -45t28.5 -80zM542 174q0 53 -42.5 84.5t-112.5 31.5h-230l-38 -270h227q89 0 142.5 40.5t53.5 113.5zM559 459q0 59 -40.5 90t-110.5 31h-210
l-38 -270h210q89 0 139 40t50 109z" />
    <glyph glyph-name="C" unicode="C" horiz-adv-x="577" 
d="M539 85l9 -16q-14 -14 -25 -23q-20 -16 -70 -37q-54 -23 -111 -23q-114 0 -184 76t-70 195q0 148 101 252t241 104q116 0 178 -72l6 -8l-15 -16q-9 13 -26 26q-15 13 -33 24q-48 26 -113 26q-131 0 -224 -100q-93 -101 -93 -232q0 -108 64 -181q65 -74 171 -74
q53 0 102 20q46 18 71 40z" />
    <glyph glyph-name="D" unicode="D" horiz-adv-x="626" 
d="M621 342q0 -156 -105 -249q-104 -93 -255 -93h-166l84 600h166q123 0 199 -69q77 -69 77 -189zM344 580h-146l-79 -560h146q139 0 236 87q98 89 98 230q0 111 -72 177t-183 66z" />
    <glyph glyph-name="E" unicode="E" horiz-adv-x="537" 
d="M490 313l-3 -20h-330l-38 -273h376l-3 -20h-397l84 600h397l-2 -20h-376l-38 -267h330z" />
    <glyph glyph-name="F" unicode="F" horiz-adv-x="520" 
d="M489 313l-3 -20h-329l-41 -293h-21l84 600h397l-2 -20h-376l-38 -267h329z" />
    <glyph glyph-name="G" unicode="G" horiz-adv-x="644" 
d="M365 293l3 20h278l-4 -29q-20 -140 -100 -219q-79 -79 -199 -79q-117 0 -186 75q-68 77 -68 193q0 151 98 255t244 104q72 0 123.5 -25t67.5 -48l7 -8l-15 -16q0 1 -6.5 8.5t-21.5 19t-35.5 22.5t-53 19t-69.5 8q-142 0 -230 -100t-88 -236q0 -106 62 -179
q62 -72 174 -72q108 0 181 70q76 71 92 194l3 23h-257z" />
    <glyph glyph-name="H" unicode="H" horiz-adv-x="634" 
d="M623 600l-84 -600h-21l41 293h-402l-41 -293h-21l84 600h21l-40 -287h402l40 287h21z" />
    <glyph glyph-name="I" unicode="I" horiz-adv-x="211" 
d="M200 600l-84 -600h-21l84 600h21z" />
    <glyph glyph-name="J" unicode="J" horiz-adv-x="408" 
d="M405 600l-59 -419q-28 -195 -200 -195q-33 0 -63 10t-43 22l-11 11l13 16q15 -15 46 -28q28 -11 59 -11q153 0 178 177l59 417h21z" />
    <glyph glyph-name="K" unicode="K" horiz-adv-x="540" 
d="M200 600l-53 -381l432 381h20l-1 -7l-270 -238l190 -352l-1 -3h-19l-186 340l-169 -149l-27 -191h-21l84 600h21z" />
    <glyph glyph-name="L" unicode="L" horiz-adv-x="478" 
d="M458 0h-363l84 600h21l-81 -580h342z" />
    <glyph glyph-name="M" unicode="M" horiz-adv-x="722" 
d="M605 0l80 572l-278 -313h-20l-190 314l-81 -573h-21l84 600h28l194 -318l282 318h28l-84 -600h-22z" />
    <glyph glyph-name="N" unicode="N" horiz-adv-x="664" 
d="M653 600l-84 -600h-28l-344 575l-81 -575h-21l84 600h29l344 -574l80 574h21z" />
    <glyph glyph-name="O" unicode="O" horiz-adv-x="680" 
d="M338 -14q-114 0 -182 75q-67 76 -67 193q0 152 96 255q98 104 241 104q114 0 182 -75q67 -74 67 -194q0 -151 -97 -254q-96 -104 -240 -104zM341 6q139 0 226 99q87 101 87 236q0 109 -61 180q-60 72 -170 72q-138 0 -226 -100q-87 -101 -87 -236q0 -108 61 -179
q61 -72 170 -72z" />
    <glyph glyph-name="P" unicode="P" horiz-adv-x="564" 
d="M95 0l84 600h211q92 0 144.5 -47t52.5 -123q0 -95 -70 -159q-68 -64 -182 -64h-190l-29 -207h-21zM566 427q0 69 -48 111t-129 42h-191l-50 -353h191q97 0 162 57t65 143z" />
    <glyph glyph-name="Q" unicode="Q" horiz-adv-x="680" 
d="M338 -14q-114 0 -182 75q-67 76 -67 193q0 152 96 255q98 104 241 104q114 0 182 -75q67 -74 67 -194q0 -126 -69 -220q-66 -93 -179 -125l57 -121h-24l-54 116q-37 -8 -68 -8zM341 6q139 0 226 99q87 101 87 236q0 109 -61 180q-60 72 -170 72q-138 0 -226 -100
q-87 -101 -87 -236q0 -108 61 -179q61 -72 170 -72z" />
    <glyph glyph-name="R" unicode="R" horiz-adv-x="585" 
d="M179 600h211q94 0 146 -44t52 -122q0 -85 -52 -142t-138 -71v-2l139 -215l-1 -4h-20l-141 217h-229l-30 -217h-21zM566 430q0 71 -47 110.5t-130 39.5h-191l-49 -343h205q89 0 150 52q62 53 62 141z" />
    <glyph glyph-name="S" unicode="S" horiz-adv-x="502" 
d="M57 51l15 17l6.5 -6.5t20.5 -15t34.5 -18.5t48.5 -14.5t63 -6.5q103 0 157 40.5t54 113.5q0 52 -38.5 82t-122.5 56l-54 17q-25 9 -46 19q-30 14 -43 27q-36 36 -36 82q0 78 63 123q64 46 160 46q55 0 102 -12.5t65 -27.5l15 -13l-15 -18q-2 2 -6 5.5t-19 12.5t-33 15.5
t-48 12t-64 5.5q-82 0 -141 -39q-58 -37 -58 -106q3 -35 19 -56.5t51 -37.5q25 -12 42 -18l49 -16q74 -25 101 -39t41 -29q37 -35 37 -88q0 -81 -60.5 -129t-174.5 -48q-52 0 -99 15t-67 33z" />
    <glyph glyph-name="T" unicode="T" horiz-adv-x="497" 
d="M558 600l-3 -20h-214l-82 -580h-21l82 580h-214l3 20h449z" />
    <glyph glyph-name="U" unicode="U" horiz-adv-x="624" 
d="M120 246l50 354h21l-50 -354q-15 -112 29 -175.5t143 -63.5t161 63.5t77 175.5l50 354h21l-50 -354q-17 -121 -86 -190t-176 -69t-157 69t-33 190z" />
    <glyph glyph-name="V" unicode="V" 
d="M275 0l-161 600h22l154 -578l316 578h22l-329 -600h-24z" />
    <glyph glyph-name="W" unicode="W" horiz-adv-x="770" 
d="M552 0l-88 563l-246 -563h-22l-81 600h22l75 -562l246 562h22l87 -562l234 562h22l-249 -600h-22z" />
    <glyph glyph-name="X" unicode="X" horiz-adv-x="496" 
d="M549 600l-246 -292l173 -308h-25l-144 260l-18 35l-26 -35l-218 -260h-24l257 308l-163 292h25l140 -251l13 -28l21 28l210 251h25z" />
    <glyph glyph-name="Y" unicode="Y" horiz-adv-x="543" 
d="M328 278l241 322h25l-280 -368l-32 -232h-21l32 232l-176 368h25l152 -322l12 -29h2z" />
    <glyph glyph-name="Z" unicode="Z" horiz-adv-x="508" 
d="M33 0l2 17l497 563h-414l2 20h444l-2 -17l-497 -563h405l-3 -20h-434z" />
    <glyph glyph-name="bracketleft" unicode="[" horiz-adv-x="261" 
d="M54 -130l117 830h174l-3 -20h-154l-111 -790h154l-3 -20h-174z" />
    <glyph glyph-name="backslash" unicode="\" horiz-adv-x="319" 
d="M240 -128l-89 927h21l90 -927h-22z" />
    <glyph glyph-name="bracketright" unicode="]" horiz-adv-x="261" 
d="M-3 -130l3 20h154l111 790h-154l3 20h174l-117 -830h-174z" />
    <glyph glyph-name="asciicircum" unicode="^" horiz-adv-x="383" 
d="M370 497l-88 145l-128 -145h-21l142 171h22l93 -171h-20z" />
    <glyph glyph-name="underscore" unicode="_" horiz-adv-x="525" 
d="M33 -60l3 20h442l-3 -20h-442z" />
    <glyph glyph-name="grave" unicode="`" horiz-adv-x="242" 
d="M236 497l-55 138l32 4l38 -142h-15z" />
    <glyph glyph-name="a" unicode="a" horiz-adv-x="525" 
d="M470 308h1l20 112h15l-59 -420h-15l10 105h-1q-6 -14 -28 -40q-18 -22 -37 -35q-54 -40 -130 -40q-75 0 -123 52q-48 53 -48 137q0 109 69 179q70 72 164 72q38 0 69 -12t49 -31t27.5 -35.5t13.5 -31.5zM460 240q0 80 -42 125.5t-112 45.5q-84 0 -147 -66t-63 -164
q0 -75 44 -124q44 -48 110 -48q86 0 147 64q63 65 63 167z" />
    <glyph glyph-name="b" unicode="b" horiz-adv-x="526" 
d="M79 0l85 605h20l-41 -290h1q5 12 27 40q16 19 37 35q56 40 131 40t123 -53q48 -52 48 -136q0 -109 -70 -180q-69 -71 -161 -71q-40 0 -71.5 12.5t-49.5 31.5t-27 35t-13 31l-2 13h-2l-20 -113h-15zM125 180q0 -79 42 -125t114 -46q85 0 146 66q62 67 62 164q0 74 -44 123
q-43 49 -107 49q-86 0 -150 -64q-63 -63 -63 -167z" />
    <glyph glyph-name="c" unicode="c" horiz-adv-x="425" 
d="M250 -10q-77 0 -127 50q-49 49 -49 135q0 113 70 183q70 72 168 72q70 0 110 -28l12 -10l-11 -17q-42 36 -115 36q-82 0 -148 -66q-65 -65 -65 -166q0 -78 45 -124q46 -46 112 -46q65 0 110 27l15 9l6 -17q-53 -38 -133 -38z" />
    <glyph glyph-name="d" unicode="d" horiz-adv-x="526" 
d="M469 307h1l42 298h20l-85 -605h-15l10 105h-1q-6 -14 -28 -40q-18 -22 -37 -35q-54 -40 -130 -40q-75 0 -123 52q-48 53 -48 137q0 109 69 179q70 72 164 72q40 0 71 -12t48 -32t25.5 -35.5t13.5 -30.5zM460 240q0 80 -42 125.5t-114 45.5q-84 0 -146 -66
q-62 -67 -62 -164q0 -75 43 -124q43 -48 108 -48q86 0 149 63q64 64 64 168z" />
    <glyph glyph-name="e" unicode="e" horiz-adv-x="460" 
d="M390 52l8 -17q-21 -16 -73 -33q-39 -12 -79 -12q-78 0 -124.5 49.5t-46.5 133.5q0 116 65 187q64 70 158 70q85 0 125.5 -55t25.5 -147l-1 -6h-347l-2 -15q-12 -91 31 -144q44 -54 119 -54q37 0 72.5 10t52.5 22zM296 411q-65 0 -118.5 -46t-71.5 -123h324q7 70 -27 119
q-35 50 -107 50z" />
    <glyph glyph-name="f" unicode="f" horiz-adv-x="267" 
d="M77 420h84l7 46q9 67 49.5 105.5t98.5 38.5q36 0 56 -9l6 -3l-10 -18q-17 11 -56 11q-48 0 -81.5 -32t-42.5 -93l-7 -46h132l-3 -19h-132l-56 -401h-20l56 401h-84z" />
    <glyph glyph-name="g" unicode="g" horiz-adv-x="526" 
d="M506 420l-55 -394q-13 -94 -71.5 -149.5t-150.5 -55.5q-82 0 -137 45l-5 6l15 14q19 -19 56 -33q33 -13 73 -13q83 0 136 53t64 133l11 79h-1q-7 -17 -27 -40q-18 -21 -36 -35q-54 -40 -132 -40q-75 0 -123 52q-48 53 -48 137q0 109 69 179q70 72 164 72q71 0 110.5 -36
t48.5 -72l3 -13h1l20 111h15zM460 240q0 79 -42 124.5t-113 45.5q-84 0 -147 -66q-62 -65 -62 -163q0 -75 44 -124q45 -48 111 -48q83 0 146 63q63 64 63 168z" />
    <glyph glyph-name="h" unicode="h" horiz-adv-x="505" 
d="M79 0l85 605h20l-39 -275h1l19 28q62 71 155 72q80 0 118.5 -55t26.5 -144l-32 -231h-20l32 230q11 83 -22 132t-107 49q-75 0 -123 -49q-48 -48 -57 -100l-37 -262h-20z" />
    <glyph glyph-name="i" unicode="i" horiz-adv-x="182" 
d="M170 560q-20 0 -20 19q0 11 7.5 18.5t18.5 7.5q9 0 14.5 -6t5.5 -14q0 -11 -7.5 -18t-18.5 -7zM81 0l59 420h20l-59 -420h-20z" />
    <glyph glyph-name="j" unicode="j" horiz-adv-x="182" 
d="M-22 -156l3 18h12q68 0 80 83l67 475h20l-67 -475q-7 -53 -32 -77t-72 -24h-11zM170 560q-21 0 -21 19q0 11 8 18.5t19 7.5q9 0 14.5 -6t5.5 -14q0 -11 -7.5 -18t-18.5 -7z" />
    <glyph glyph-name="k" unicode="k" horiz-adv-x="417" 
d="M422 420h30l-231 -175l180 -245h-24l-171 234l-83 -64l-24 -170h-20l85 605h20l-57 -408z" />
    <glyph glyph-name="l" unicode="l" horiz-adv-x="186" 
d="M83 0l85 605h20l-85 -605h-20z" />
    <glyph glyph-name="m" unicode="m" horiz-adv-x="838" 
d="M79 0l59 420h15l-7 -88h1l1 2q1 1 11.5 14.5t23 25.5t31.5 25.5t46.5 22t59.5 8.5q64 0 103.5 -31.5t46.5 -86.5h4l13 28q59 89 167 90q80 0 118 -54.5t26 -144.5l-32 -231h-20l32 230q12 83 -21.5 132t-106.5 49q-75 0 -124 -55q-48 -54 -59 -113l-34 -243h-20l36 255
q9 71 -25.5 113.5t-107.5 42.5q-75 0 -123 -49q-48 -48 -57 -100l-37 -262h-20z" />
    <glyph glyph-name="n" unicode="n" horiz-adv-x="505" 
d="M79 0l59 420h15l-7 -88h1q16 33 58 63q50 35 115 35q80 0 118.5 -55t26.5 -144l-32 -231h-20l32 230q11 83 -22 132t-107 49q-75 0 -123 -49q-48 -48 -57 -100l-37 -262h-20z" />
    <glyph glyph-name="o" unicode="o" horiz-adv-x="503" 
d="M487 240q0 -111 -70 -181q-71 -69 -167 -69q-79 0 -127.5 51t-48.5 135q0 111 70 182q70 72 168 72q76 0 126 -53q49 -52 49 -137zM253 9q83 0 147 63q65 63 65 164q0 79 -45 127t-111 48q-83 0 -149 -66q-65 -65 -65 -166q0 -78 45 -124q46 -46 113 -46z" />
    <glyph glyph-name="p" unicode="p" horiz-adv-x="526" 
d="M117 113h-2l-38 -269h-20l81 576h15l-10 -105h1q5 12 27 40q16 19 37 35q56 40 132 40q74 0 122 -53q48 -52 48 -136q0 -109 -70 -180q-69 -71 -162 -71q-40 0 -71 12t-48 32t-25.5 35.5t-13.5 30.5zM125 180q0 -80 43.5 -125.5t112.5 -45.5q85 0 146 66q62 67 62 164
q0 77 -43 124q-42 48 -108 48q-85 0 -149 -64q-64 -63 -64 -167z" />
    <glyph glyph-name="q" unicode="q" horiz-adv-x="526" 
d="M506 420l-81 -576h-20l37 261h-1q-6 -14 -28 -40q-18 -22 -37 -35q-54 -40 -130 -40q-75 0 -123 52q-48 53 -48 137q0 109 69 179q70 72 164 72q71 0 110.5 -36t48.5 -72l3 -13h1l20 111h15zM460 240q0 79 -42 125t-112 46q-84 0 -147 -66t-63 -164q0 -75 44 -124
q44 -48 110 -48q84 0 147 63q63 64 63 168z" />
    <glyph glyph-name="r" unicode="r" horiz-adv-x="256" 
d="M304 420l-3 -19h-14q-59 0 -99.5 -41t-52.5 -105l-36 -255h-20l59 420h15l-7 -88h1l2 4q6 13 20 30t47.5 35.5t73.5 18.5h14z" />
    <glyph glyph-name="s" unicode="s" horiz-adv-x="392" 
d="M51 29l11 17q50 -36 131 -36q72 0 112 29.5t40 78.5q0 37 -26.5 54.5t-90.5 31.5q-53 12 -78 22q-20 8 -32 18q-27 23 -27 62q0 58 43.5 91t121.5 33q81 0 118 -24l14 -9l-11 -18q-41 32 -124 32q-68 0 -104.5 -26.5t-36.5 -75.5q4 -27 15.5 -41t39.5 -24q28 -9 73 -19
q66 -14 96 -36.5t30 -67.5q0 -57 -46.5 -93.5t-124.5 -36.5q-41 0 -77.5 9t-52.5 20z" />
    <glyph glyph-name="t" unicode="t" horiz-adv-x="277" 
d="M75 420h84l19 128h19l-18 -128h132l-3 -19h-132l-43 -304q-12 -88 66 -88q28 0 57 13l7 4l5 -17q-25 -19 -74 -19q-45 0 -66.5 27.5t-14.5 75.5l43 308h-84z" />
    <glyph glyph-name="u" unicode="u" horiz-adv-x="499" 
d="M423 162l36 258h20l-59 -420h-15l7 89h-1l-1 -3q-5 -10 -16 -23t-31.5 -31t-53.5 -30t-71 -12q-80 0 -116 54t-23 145l32 231h20l-32 -230q-12 -84 19 -132.5t104 -48.5q78 0 125 50q49 52 56 103z" />
    <glyph glyph-name="v" unicode="v" horiz-adv-x="451" 
d="M219 0l-134 420h21l118 -375q4 -12 4 -22h2q2 8 10 22l225 375h21l-254 -420h-13z" />
    <glyph glyph-name="w" unicode="w" horiz-adv-x="639" 
d="M176 0l-87 420h21l76 -375q3 -16 3 -22h2l9 22l167 375h24l60 -375q3 -21 3 -22h2l10 22l181 375h21l-204 -420h-24l-62 383q-1 4 -1 14h-2l-6 -14l-170 -383h-23z" />
    <glyph glyph-name="x" unicode="x" horiz-adv-x="403" 
d="M21 0l198 223l-121 197h22l113 -185h3l162 185h24l-176 -196l136 -224h-21l-128 211h-3l-186 -211h-23z" />
    <glyph glyph-name="y" unicode="y" horiz-adv-x="496" 
d="M420 162l36 258h20l-59 -419q-12 -86 -65 -133t-140 -47q-41 0 -77 12.5t-50 26.5l-13 13l15 14q20 -20 56 -34q33 -13 72 -13q77 0 124 41.5t58 119.5l13 88h-2q-11 -18 -25 -35q-15 -16 -33 -30q-48 -34 -116 -34q-80 0 -116 54t-23 145l32 231h21l-32 -230
q-12 -84 19 -132t103 -48q78 0 126 50q49 50 56 102z" />
    <glyph glyph-name="z" unicode="z" horiz-adv-x="410" 
d="M43 18l358 383h-305l3 19h330l-3 -18l-356 -383h303l-3 -19h-330z" />
    <glyph glyph-name="braceleft" unicode="{" horiz-adv-x="205" 
d="M74 303h8q25 0 46 24t27 63l34 246q11 71 71 79v-19q-23 -3 -34.5 -18t-16.5 -49l-33 -236q-10 -84 -61 -101l-1 -5q45 -16 33 -100l-34 -243q-5 -35 2.5 -49.5t29.5 -17.5l-6 -19q-59 8 -48 79l36 253q6 38 -8.5 62.5t-40.5 24.5h-8z" />
    <glyph glyph-name="bar" unicode="|" horiz-adv-x="164" 
d="M189 687l-115 -815h-20l115 815h20z" />
    <glyph glyph-name="braceright" unicode="}" horiz-adv-x="205" 
d="M209 303h8l-4 -26h-8q-25 0 -46 -24t-27 -63l-36 -253q-5 -37 -21.5 -56t-48.5 -23v19q23 3 34.5 18t15.5 49l35 243q12 84 61 100v5q-42 16 -32 101l33 236q5 35 -2.5 49.5t-29.5 17.5l6 19q59 -8 48 -79l-35 -246q-6 -38 8.5 -62.5t40.5 -24.5z" />
    <glyph glyph-name="asciitilde" unicode="~" horiz-adv-x="435" 
d="M329 290q40 0 65 14l7 5l8 -13q-26 -26 -83 -26q-22 0 -67 14t-69 14q-41 0 -66 -14l-7 -5l-7 13q26 26 83 26q21 0 66 -14t70 -14z" />
    <glyph glyph-name="uni00A0" unicode="&#xa0;" horiz-adv-x="244" 
 />
    <glyph glyph-name="exclamdown" unicode="&#xa1;" horiz-adv-x="162" 
d="M128 292l-61 -468h-21l70 468h12zM112 403q0 11 9 20t20 9q10 0 16.5 -7t6.5 -16q0 -11 -9.5 -20t-20.5 -9q-9 0 -15.5 7t-6.5 16z" />
    <glyph glyph-name="cent" unicode="&#xa2;" horiz-adv-x="435" 
d="M184 0l23 85q-55 15 -87 62t-32 115q0 112 70 182q70 72 167 73l22 83h20l-22 -84q60 -4 93 -29l10 -8l-10 -17q-37 31 -99 35l-108 -398q17 -3 35 -3q65 0 110 27l16 9l5 -17q-53 -38 -132 -38q-20 0 -40 3l-21 -80h-20zM110 266q0 -60 28.5 -103.5t74.5 -58.5l106 394
q-79 -1 -145 -67q-64 -64 -64 -165z" />
    <glyph glyph-name="sterling" unicode="&#xa3;" horiz-adv-x="496" 
d="M432 20l-3 -20h-361l3 20q18 14 29 25q16 15 26 32q29 44 29 103q0 1 -8 103h-67l3 20h63q-2 34 -2 52q0 109 58 179q59 71 168 71q45 0 83.5 -16.5t52.5 -35.5l13 -17l-17 -14q-1 1 -3.5 4.5t-4 6t-6 6.5t-10 8t-14.5 9t-20 11q-34 18 -78 18q-96 0 -148.5 -62.5
t-52.5 -167.5q0 -18 2 -52h258l-3 -20h-253q7 -77 7 -101q0 -98 -76 -162h332z" />
    <glyph glyph-name="yen" unicode="&#xa5;" horiz-adv-x="544" 
d="M328 278l241 322h25l-269 -353h172l-3 -20h-181l-12 -88h181l-3 -20h-181l-16 -119h-21l16 119h-181l3 20h181l12 88h-181l3 20h172l-169 353h25l152 -322l12 -29h2z" />
    <glyph glyph-name="brokenbar" unicode="&#xa6;" horiz-adv-x="165" 
d="M139 330h-21l48 343h21zM71 -153h-21l48 343h21z" />
    <glyph glyph-name="section" unicode="&#xa7;" horiz-adv-x="503" 
d="M54 38l16 18q16 -12 19 -14q17 -10 60 -22q46 -13 105 -13q95 0 144 30.5t49 81.5q0 37 -33 60q-36 25 -124 52q-67 21 -93.5 40t-26.5 44q0 44 49 65q-94 37 -94 103q0 58 58 94t162 36q52 0 98.5 -10t66.5 -21l17 -11l-16 -18l-18 11q-10 7 -55 18q-46 11 -96 11
q-94 0 -144 -29t-50 -79q0 -35 32.5 -59.5t105.5 -45.5q135 -39 135 -94q0 -40 -42 -65q48 -22 69 -45.5t21 -55.5q0 -59 -55.5 -96t-162.5 -37q-57 0 -107.5 12t-71.5 26zM275 361q-25 7 -34 11q-48 -15 -48 -54q0 -19 24 -34t84 -34q39 -13 59 -22q39 22 39 56
q0 43 -124 77z" />
    <glyph glyph-name="dieresis" unicode="&#xa8;" horiz-adv-x="384" 
d="M167 693q0 12 10 21.5t22 9.5q10 0 17 -7t7 -18q0 -12 -10 -21.5t-22 -9.5q-10 0 -17 7t-7 18zM296 693q0 12 10 21.5t22 9.5q10 0 17 -7t7 -18q0 -12 -10 -21.5t-22 -9.5q-10 0 -17 7t-7 18z" />
    <glyph glyph-name="copyright" unicode="&#xa9;" horiz-adv-x="702" 
d="M436 600q121 0 190 -75q70 -73 70 -187q0 -139 -98 -240q-97 -100 -247 -100q-119 0 -190 74q-70 74 -70 188q0 138 98 239q99 101 247 101zM433 580q-138 0 -229 -94q-91 -92 -91 -224q0 -105 64 -175q65 -69 177 -69q138 0 229 93q92 95 92 225q0 104 -65 174
q-64 70 -177 70zM523 426l-14 -15q-11 13 -39 24q-22 9 -51 9q-72 0 -117 -48t-45 -116q0 -55 32.5 -89.5t88.5 -34.5q54 0 89 24l12 8l9 -15q-40 -37 -113 -37t-110 46.5t-27 117.5q9 70 60 116q51 48 124 48q30 0 56 -9t36 -19z" />
    <glyph glyph-name="ordfeminine" unicode="&#xaa;" horiz-adv-x="406" 
d="M101 358q0 53 42.5 86t109.5 33q92 0 121 -54l3 23q4 21 4 50q0 98 -106 98q-55 0 -97 -20l-13 -7l-6 21q54 26 119 26q126 0 126 -115q0 -19 -3 -39l-26 -186h-14l4 57h-2q-17 -27 -53.5 -46t-87.5 -19q-55 0 -88 25t-33 67zM122 361q0 -35 28 -55.5t75 -20.5
q56 0 99 31t43 67q0 34 -29.5 54.5t-84.5 20.5q-58 0 -94.5 -27t-36.5 -70z" />
    <glyph glyph-name="guillemotleft" unicode="&#xab;" horiz-adv-x="370" 
d="M79 200l2 17l123 156h21l-1 -7l-122 -155l-1 -3l79 -157l-1 -7h-21zM216 200l2 17l123 156h21l-1 -7l-122 -155l-1 -3l79 -157l-1 -7h-21z" />
    <glyph glyph-name="logicalnot" unicode="&#xac;" horiz-adv-x="562" 
d="M104 326l3 20h431l-49 -346h-20l46 326h-411z" />
    <glyph glyph-name="registered" unicode="&#xae;" horiz-adv-x="569" 
d="M569 410q0 -107 -76 -183q-75 -77 -188 -77q-91 0 -145 57q-53 59 -53 144q0 107 75 183q75 77 188 77q93 0 145 -58q54 -57 54 -143zM547 408q0 79 -49 131q-48 52 -131 52q-102 0 -170 -71t-68 -167q0 -79 48 -131t131 -52q103 0 170 70q69 70 69 168zM270 485h86
q32 0 50.5 -16t18.5 -41q0 -50 -51 -71v-2l43 -69v-3h-22l-44 68q-5 -1 -22 -1h-57l-9 -67h-21zM353 465h-65l-13 -95h63q30 0 48 16t18 40q0 39 -51 39z" />
    <glyph glyph-name="overscore" unicode="&#xaf;" horiz-adv-x="487" 
d="M221 668l3 19h239l-3 -19h-239z" />
    <glyph glyph-name="degree" unicode="&#xb0;" horiz-adv-x="318" 
d="M253 671q45 0 71 -25.5t26 -67.5q0 -50 -36 -84t-91 -34q-44 0 -70.5 26t-26.5 66q0 50 36 84q38 35 91 35zM250 651q-44 0 -74 -28.5t-30 -68.5q0 -33 22 -53.5t58 -20.5q45 0 74.5 28t29.5 68q0 33 -22 54t-58 21z" />
    <glyph glyph-name="plusminus" unicode="&#xb1;" horiz-adv-x="566" 
d="M323 192h-20l27 192h-192l3 20h192l27 194h20l-27 -194h187l-3 -20h-187zM499 113l-3 -20h-399l3 20h399z" />
    <glyph glyph-name="twosuperior" unicode="&#xb2;" horiz-adv-x="367" 
d="M107 342l2 14l184 139q58 43 58 95q0 67 -83 67q-53 0 -90 -26l-12 -9l-9 15q47 40 114 40q49 0 74.5 -22.5t25.5 -60.5q0 -64 -69 -115l-155 -117h211l-3 -20h-248z" />
    <glyph glyph-name="threesuperior" unicode="&#xb3;" horiz-adv-x="347" 
d="M154 648l2 20h217l-3 -24l-111 -112h1q46 0 71.5 -21.5t25.5 -60.5q0 -50 -37 -83t-99 -33q-30 0 -58.5 10.5t-42.5 23.5l-13 12l15 14q16 -16 46 -29q27 -11 55 -11q52 0 83 26t31 67q0 31 -21 48t-58 17h-28l2 18l118 118h-196z" />
    <glyph glyph-name="acute" unicode="&#xb4;" horiz-adv-x="235" 
d="M258 635l-93 -138h-15l78 142z" />
    <glyph glyph-name="mu" unicode="&#xb5;" horiz-adv-x="484" 
d="M61 -192h-20l54 381l32 231h20l-32 -230q-12 -84 19 -132.5t104 -48.5q78 0 125 50q49 52 56 103l36 258h20l-59 -420h-15l7 89h-1l-1 -3q-5 -10 -16 -23t-31.5 -31t-53.5 -30t-71 -12q-110 0 -135 97z" />
    <glyph glyph-name="paragraph" unicode="&#xb6;" horiz-adv-x="471" 
d="M363 -82l41 290h-119q-94 0 -145.5 45t-51.5 125q0 103 67.5 163t184.5 60h140l-96 -683h-21z" />
    <glyph glyph-name="middot" unicode="&#xb7;" horiz-adv-x="188" 
d="M117 358q0 12 10 21t22 9q23 0 23 -24q0 -12 -9.5 -21t-21.5 -9q-11 0 -17.5 7t-6.5 17z" />
    <glyph glyph-name="cedilla" unicode="&#xb8;" horiz-adv-x="206" 
d="M71 -59l-6 11l30 51h21l-23 -41q66 0 66 -53q0 -33 -24.5 -53.5t-63.5 -20.5q-38 0 -55 17l-6 6l12 15q18 -19 52 -19q29 0 46.5 14t17.5 37q0 18 -13.5 28t-35.5 10z" />
    <glyph glyph-name="onesuperior" unicode="&#xb9;" horiz-adv-x="201" 
d="M113 648l3 20h106l-46 -326h-21l43 306h-85z" />
    <glyph glyph-name="ordmasculine" unicode="&#xba;" horiz-adv-x="427" 
d="M300 613q64 0 102.5 -39.5t38.5 -106.5q0 -87 -54 -142q-54 -54 -135 -54q-64 0 -103 39.5t-39 105.5q0 88 54 142q55 55 136 55zM298 593q-71 0 -119 -49q-47 -49 -47 -125q0 -58 33.5 -93t89.5 -35q71 0 117 48q48 49 48 125q0 60 -33 94.5t-89 34.5z" />
    <glyph glyph-name="guillemotright" unicode="&#xbb;" horiz-adv-x="370" 
d="M212 217l-2 -17l-123 -156h-21l1 7l123 157v3l-79 155l1 7h21zM349 217l-2 -17l-123 -156h-21l1 7l123 157v3l-79 155l1 7h21z" />
    <glyph glyph-name="onequarter" unicode="&#xbc;" horiz-adv-x="604" 
d="M310 101l3 18l216 207h15l-29 -205h63l-3 -20h-63l-14 -101h-20l14 101h-182zM72 0h-26l560 600h26zM340 121v-3l80 3h75l24 168h-2l-127 -121zM117 580l2 20h106l-45 -326h-21l43 306h-85z" />
    <glyph glyph-name="onehalf" unicode="&#xbd;" horiz-adv-x="675" 
d="M392 14l-2 -14h249l3 20h-213l156 117q70 54 70 114q0 39 -25.5 61.5t-75.5 22.5q-56 0 -100 -30l-14 -10l9 -15q44 35 102 35q83 0 83 -67q0 -52 -58 -95zM69 0h-26l560 600h26zM119 580l2 20h106l-45 -326h-21l43 306h-85z" />
    <glyph glyph-name="threequarters" unicode="&#xbe;" horiz-adv-x="721" 
d="M434 101l3 18l216 207h15l-29 -205h63l-3 -20h-63l-14 -101h-20l14 101h-182zM137 580l2 20h217l-3 -24l-111 -112h1q46 0 71.5 -21.5t25.5 -60.5q0 -50 -37 -83t-99 -33q-30 0 -59 10.5t-43 23.5l-12 12l15 14q16 -16 46 -29q27 -11 55 -11q52 0 83 26t31 67
q0 31 -21 48t-58 17h-28l2 18l118 118h-196zM165 0h-26l560 600h26zM464 121v-3l80 3h75l24 168h-2l-127 -121z" />
    <glyph glyph-name="questiondown" unicode="&#xbf;" horiz-adv-x="399" 
d="M340 -129l11 -16q-19 -17 -72 -32q-39 -13 -86 -13q-77 0 -121.5 35t-44.5 96q0 46 19 81.5t47.5 57t57.5 40t52 42.5t27 53l12 77h15l-13 -81q-4 -23 -19.5 -45t-28.5 -33t-44 -32.5t-39 -28.5q-64 -48 -64 -129q0 -52 38 -82.5t107 -30.5q38 0 75 9.5t55 20.5zM291 409
q0 -11 -9.5 -20t-20.5 -9q-10 0 -16.5 7t-6.5 16q0 11 9.5 20t20.5 9q10 0 16.5 -7t6.5 -16z" />
    <glyph glyph-name="Agrave" unicode="&#xc0;" 
d="M383 600l161 -600h-22l-48 178h-325l-97 -178h-22l329 600h24zM368 579l-208 -381h309zM368 635l-55 138l32 4l38 -142h-15z" />
    <glyph glyph-name="Aacute" unicode="&#xc1;" 
d="M383 600l161 -600h-22l-48 178h-325l-97 -178h-22l329 600h24zM368 579l-208 -381h309zM476 773l-93 -138h-15l78 142z" />
    <glyph glyph-name="Acircumflex" unicode="&#xc2;" 
d="M383 600l161 -600h-22l-48 178h-325l-97 -178h-22l329 600h24zM368 579l-208 -381h309zM445 668l-51 91l-76 -91h-22l85 109h29l57 -109h-22z" />
    <glyph glyph-name="Atilde" unicode="&#xc3;" 
d="M383 600l161 -600h-22l-48 178h-325l-97 -178h-22l329 600h24zM368 579l-208 -381h309zM443 668q-25 0 -62 27q-37 28 -55 28q-15 0 -25.5 -7t-14.5 -13.5t-11 -21.5l-5 -11l-14 2l5 15q18 55 67 55q26 0 61 -28q37 -27 57 -27t30.5 10t20.5 32l5 11l14 -2l-5 -15
q-18 -55 -68 -55z" />
    <glyph glyph-name="Adieresis" unicode="&#xc4;" 
d="M383 600l161 -600h-22l-48 178h-325l-97 -178h-22l329 600h24zM368 579l-208 -381h309zM293 693q0 12 10 21.5t22 9.5q10 0 17 -7t7 -18q0 -12 -10 -21.5t-22 -9.5q-10 0 -17 7t-7 18zM422 693q0 12 10 21.5t22 9.5q10 0 17 -7t7 -18q0 -12 -10 -21.5t-22 -9.5
q-10 0 -17 7t-7 18z" />
    <glyph glyph-name="Aring" unicode="&#xc5;" 
d="M383 600l161 -600h-22l-48 178h-325l-97 -178h-22l329 600h24zM368 579l-208 -381h309zM394 759q32 0 52.5 -17t20.5 -45q0 -35 -27.5 -58.5t-66.5 -23.5q-32 0 -52 16.5t-20 43.5q0 37 27.5 60.5t65.5 23.5zM445 695q0 45 -54 45q-31 0 -50 -17t-19 -46q0 -43 54 -43
q30 0 49.5 17t19.5 44z" />
    <glyph glyph-name="AE" unicode="&#xc6;" horiz-adv-x="867" 
d="M3 0l506 600h397l-2 -20h-376l-38 -267h330l-3 -20h-330l-38 -273h376l-3 -20h-397l25 178h-274l-150 -178h-23zM498 558l-305 -360h260l50 360h-5z" />
    <glyph glyph-name="Ccedilla" unicode="&#xc7;" horiz-adv-x="577" 
d="M293 -62l-6 11l23 39q-100 10 -162 85q-60 75 -60 184q0 148 101 252t241 104q116 0 178 -72l6 -8l-15 -16q-9 13 -26 26q-15 13 -33 24q-48 26 -113 26q-131 0 -224 -100q-93 -101 -93 -232q0 -108 64 -181q65 -74 171 -74q53 0 102 20q46 18 71 40l21 19l9 -16
q-14 -14 -25 -23q-20 -16 -70 -37q-54 -23 -111 -23h-12l-15 -27q66 0 66 -53q0 -33 -24.5 -53.5t-63.5 -20.5q-37 0 -55 18l-6 5l12 15q18 -19 52 -19q29 0 46.5 14t17.5 37q0 18 -13.5 28t-35.5 10z" />
    <glyph glyph-name="Egrave" unicode="&#xc8;" horiz-adv-x="537" 
d="M490 313l-3 -20h-330l-38 -273h376l-3 -20h-397l84 600h397l-2 -20h-376l-38 -267h330zM380 634l-55 138l32 4l38 -142h-15z" />
    <glyph glyph-name="Eacute" unicode="&#xc9;" horiz-adv-x="537" 
d="M490 313l-3 -20h-330l-38 -273h376l-3 -20h-397l84 600h397l-2 -20h-376l-38 -267h330zM480 773l-93 -138h-15l78 142z" />
    <glyph glyph-name="Ecircumflex" unicode="&#xca;" horiz-adv-x="537" 
d="M490 313l-3 -20h-330l-38 -273h376l-3 -20h-397l84 600h397l-2 -20h-376l-38 -267h330zM450 668l-51 91l-76 -91h-22l85 109h29l57 -109h-22z" />
    <glyph glyph-name="Edieresis" unicode="&#xcb;" horiz-adv-x="537" 
d="M490 313l-3 -20h-330l-38 -273h376l-3 -20h-397l84 600h397l-2 -20h-376l-38 -267h330zM300 693q0 12 10 21.5t22 9.5q10 0 17 -7t7 -18q0 -12 -10 -21.5t-22 -9.5q-10 0 -17 7t-7 18zM429 693q0 12 10 21.5t22 9.5q10 0 17 -7t7 -18q0 -12 -10 -21.5t-22 -9.5
q-10 0 -17 7t-7 18z" />
    <glyph glyph-name="Igrave" unicode="&#xcc;" horiz-adv-x="211" 
d="M200 600l-84 -600h-21l84 600h21zM187 635l-55 138l32 4l38 -142h-15z" />
    <glyph glyph-name="Iacute" unicode="&#xcd;" horiz-adv-x="211" 
d="M200 600l-84 -600h-21l84 600h21zM295 773l-93 -138h-15l78 142z" />
    <glyph glyph-name="Icircumflex" unicode="&#xce;" horiz-adv-x="211" 
d="M200 600l-84 -600h-21l84 600h21zM264 668l-51 91l-76 -91h-22l85 109h29l57 -109h-22z" />
    <glyph glyph-name="Idieresis" unicode="&#xcf;" horiz-adv-x="211" 
d="M200 600l-84 -600h-21l84 600h21zM112 693q0 12 10 21.5t22 9.5q10 0 17 -7t7 -18q0 -12 -10 -21.5t-22 -9.5q-10 0 -17 7t-7 18zM241 693q0 12 10 21.5t22 9.5q10 0 17 -7t7 -18q0 -12 -10 -21.5t-22 -9.5q-10 0 -17 7t-7 18z" />
    <glyph glyph-name="Eth" unicode="&#xd0;" horiz-adv-x="626" 
d="M73 293l3 20h63l40 287h166q123 0 199 -69q77 -69 77 -189q0 -156 -105 -249q-104 -93 -255 -93h-166l41 293h-63zM344 580h-146l-38 -267h206l-3 -20h-206l-38 -273h146q139 0 236 87q98 89 98 230q0 111 -72 177t-183 66z" />
    <glyph glyph-name="Ntilde" unicode="&#xd1;" horiz-adv-x="664" 
d="M653 600l-84 -600h-28l-344 575l-81 -575h-21l84 600h29l344 -574l80 574h21zM493 668q-25 0 -62 27q-37 28 -55 28q-15 0 -25.5 -7t-14.5 -13.5t-11 -21.5l-5 -11l-14 2l5 15q18 55 67 55q26 0 61 -28q37 -27 57 -27t30.5 10t20.5 32l5 11l14 -2l-5 -15q-18 -55 -68 -55
z" />
    <glyph glyph-name="Ograve" unicode="&#xd2;" horiz-adv-x="680" 
d="M338 -14q-114 0 -182 75q-67 76 -67 193q0 152 96 255q98 104 241 104q114 0 182 -75q67 -74 67 -194q0 -151 -97 -254q-96 -104 -240 -104zM341 6q139 0 226 99q87 101 87 236q0 109 -61 180q-60 72 -170 72q-138 0 -226 -100q-87 -101 -87 -236q0 -108 61 -179
q61 -72 170 -72zM427 668l-55 138l32 4l38 -142h-15z" />
    <glyph glyph-name="Oacute" unicode="&#xd3;" horiz-adv-x="680" 
d="M338 -14q-114 0 -182 75q-67 76 -67 193q0 152 96 255q98 104 241 104q114 0 182 -75q67 -74 67 -194q0 -151 -97 -254q-96 -104 -240 -104zM341 6q139 0 226 99q87 101 87 236q0 109 -61 180q-60 72 -170 72q-138 0 -226 -100q-87 -101 -87 -236q0 -108 61 -179
q61 -72 170 -72zM533 806l-93 -138h-15l78 142z" />
    <glyph glyph-name="Ocircumflex" unicode="&#xd4;" horiz-adv-x="680" 
d="M338 -14q-114 0 -182 75q-67 76 -67 193q0 152 96 255q98 104 241 104q114 0 182 -75q67 -74 67 -194q0 -151 -97 -254q-96 -104 -240 -104zM341 6q139 0 226 99q87 101 87 236q0 109 -61 180q-60 72 -170 72q-138 0 -226 -100q-87 -101 -87 -236q0 -108 61 -179
q61 -72 170 -72zM498 668l-51 91l-76 -91h-22l85 109h29l57 -109h-22z" />
    <glyph glyph-name="Otilde" unicode="&#xd5;" horiz-adv-x="680" 
d="M338 -14q-114 0 -182 75q-67 76 -67 193q0 152 96 255q98 104 241 104q114 0 182 -75q67 -74 67 -194q0 -151 -97 -254q-96 -104 -240 -104zM341 6q139 0 226 99q87 101 87 236q0 109 -61 180q-60 72 -170 72q-138 0 -226 -100q-87 -101 -87 -236q0 -108 61 -179
q61 -72 170 -72zM499 694q-25 0 -62 27q-37 28 -55 28q-15 0 -25.5 -7t-14.5 -13.5t-11 -21.5l-5 -11l-14 2l5 15q18 55 67 55q26 0 61 -28q37 -27 57 -27t30.5 10t20.5 32l5 11l14 -2l-5 -15q-18 -55 -68 -55z" />
    <glyph glyph-name="Odieresis" unicode="&#xd6;" horiz-adv-x="680" 
d="M338 -14q-114 0 -182 75q-67 76 -67 193q0 152 96 255q98 104 241 104q114 0 182 -75q67 -74 67 -194q0 -151 -97 -254q-96 -104 -240 -104zM341 6q139 0 226 99q87 101 87 236q0 109 -61 180q-60 72 -170 72q-138 0 -226 -100q-87 -101 -87 -236q0 -108 61 -179
q61 -72 170 -72zM345 693q0 12 10 21.5t22 9.5q10 0 17 -7t7 -18q0 -12 -10 -21.5t-22 -9.5q-10 0 -17 7t-7 18zM474 693q0 12 10 21.5t22 9.5q10 0 17 -7t7 -18q0 -12 -10 -21.5t-22 -9.5q-10 0 -17 7t-7 18z" />
    <glyph glyph-name="multiply" unicode="&#xd7;" horiz-adv-x="496" 
d="M103 119l-12 14l187 170l-139 171l16 14l138 -171l187 171l11 -14l-187 -171l139 -170l-15 -14l-139 170z" />
    <glyph glyph-name="Oslash" unicode="&#xd8;" horiz-adv-x="680" 
d="M338 -14q-122 0 -191 85l-77 -71h-33l97 89q-45 71 -45 165q0 152 96 255q98 104 241 104q119 0 188 -83l76 70h34l-96 -88q47 -71 47 -168q0 -151 -97 -254q-96 -104 -240 -104zM341 6q139 0 226 99q87 101 87 236q0 91 -43 156l-447 -411q62 -80 177 -80zM110 257
q0 -88 41 -153l447 411q-63 78 -175 78q-138 0 -226 -100q-87 -101 -87 -236z" />
    <glyph glyph-name="Ugrave" unicode="&#xd9;" horiz-adv-x="624" 
d="M120 246l50 354h21l-50 -354q-15 -112 29 -175.5t143 -63.5t161 63.5t77 175.5l50 354h21l-50 -354q-17 -121 -86 -190t-176 -69t-157 69t-33 190zM394 635l-55 138l32 4l38 -142h-15z" />
    <glyph glyph-name="Uacute" unicode="&#xda;" horiz-adv-x="624" 
d="M120 246l50 354h21l-50 -354q-15 -112 29 -175.5t143 -63.5t161 63.5t77 175.5l50 354h21l-50 -354q-17 -121 -86 -190t-176 -69t-157 69t-33 190zM500 773l-93 -138h-15l78 142z" />
    <glyph glyph-name="Ucircumflex" unicode="&#xdb;" horiz-adv-x="624" 
d="M120 246l50 354h21l-50 -354q-15 -112 29 -175.5t143 -63.5t161 63.5t77 175.5l50 354h21l-50 -354q-17 -121 -86 -190t-176 -69t-157 69t-33 190zM465 635l-51 91l-76 -91h-22l85 109h29l57 -109h-22z" />
    <glyph glyph-name="Udieresis" unicode="&#xdc;" horiz-adv-x="624" 
d="M120 246l50 354h21l-50 -354q-15 -112 29 -175.5t143 -63.5t161 63.5t77 175.5l50 354h21l-50 -354q-17 -121 -86 -190t-176 -69t-157 69t-33 190zM318 693q0 12 10 21.5t22 9.5q10 0 17 -7t7 -18q0 -12 -10 -21.5t-22 -9.5q-10 0 -17 7t-7 18zM447 693q0 12 10 21.5
t22 9.5q10 0 17 -7t7 -18q0 -12 -10 -21.5t-22 -9.5q-10 0 -17 7t-7 18z" />
    <glyph glyph-name="Yacute" unicode="&#xdd;" horiz-adv-x="543" 
d="M328 278l241 322h25l-280 -368l-32 -232h-21l32 232l-176 368h25l152 -322l12 -29h2zM461 773l-93 -138h-15l78 142z" />
    <glyph glyph-name="Thorn" unicode="&#xde;" horiz-adv-x="562" 
d="M200 600l-14 -103h190q92 0 144.5 -47t52.5 -123q0 -95 -70 -159q-68 -64 -182 -64h-190l-15 -104h-21l84 600h21zM551 324q0 69 -48 111t-129 42h-191l-50 -353h191q98 0 163 57q64 57 64 143z" />
    <glyph glyph-name="germandbls" unicode="&#xdf;" horiz-adv-x="455" 
d="M270 281l3 19q77 1 124.5 44.5t47.5 110.5q0 51 -35 89q-34 37 -88 37q-60 0 -107 -42q-46 -41 -55 -107l-61 -432h-20l61 436q11 72 62 117q53 47 122 47q62 0 101.5 -40t39.5 -101t-34.5 -105.5t-93.5 -62.5q40 -12 63.5 -44t23.5 -79q0 -76 -53 -126q-52 -49 -131 -49
q-46 0 -68 10l-8 3l8 18q30 -12 73 -12q65 0 112 45t47 106q0 52 -34.5 85t-90.5 33h-9z" />
    <glyph glyph-name="agrave" unicode="&#xe0;" horiz-adv-x="525" 
d="M470 308h1l20 112h15l-59 -420h-15l10 105h-1q-6 -14 -28 -40q-18 -22 -37 -35q-54 -40 -130 -40q-75 0 -123 52q-48 53 -48 137q0 109 69 179q70 72 164 72q38 0 69 -12t49 -31t27.5 -35.5t13.5 -31.5zM460 240q0 80 -42 125.5t-112 45.5q-84 0 -147 -66t-63 -164
q0 -75 44 -124q44 -48 110 -48q86 0 147 64q63 65 63 167zM312 497l-55 138l32 4l38 -142h-15z" />
    <glyph glyph-name="aacute" unicode="&#xe1;" horiz-adv-x="525" 
d="M470 308h1l20 112h15l-59 -420h-15l10 105h-1q-6 -14 -28 -40q-18 -22 -37 -35q-54 -40 -130 -40q-75 0 -123 52q-48 53 -48 137q0 109 69 179q70 72 164 72q38 0 69 -12t49 -31t27.5 -35.5t13.5 -31.5zM460 240q0 80 -42 125.5t-112 45.5q-84 0 -147 -66t-63 -164
q0 -75 44 -124q44 -48 110 -48q86 0 147 64q63 65 63 167zM423 635l-93 -138h-15l78 142z" />
    <glyph glyph-name="acircumflex" unicode="&#xe2;" horiz-adv-x="525" 
d="M470 308h1l20 112h15l-59 -420h-15l10 105h-1q-6 -14 -28 -40q-18 -22 -37 -35q-54 -40 -130 -40q-75 0 -123 52q-48 53 -48 137q0 109 69 179q70 72 164 72q38 0 69 -12t49 -31t27.5 -35.5t13.5 -31.5zM460 240q0 80 -42 125.5t-112 45.5q-84 0 -147 -66t-63 -164
q0 -75 44 -124q44 -48 110 -48q86 0 147 64q63 65 63 167zM389 530l-51 91l-76 -91h-22l85 109h29l57 -109h-22z" />
    <glyph glyph-name="atilde" unicode="&#xe3;" horiz-adv-x="525" 
d="M470 308h1l20 112h15l-59 -420h-15l10 105h-1q-6 -14 -28 -40q-18 -22 -37 -35q-54 -40 -130 -40q-75 0 -123 52q-48 53 -48 137q0 109 69 179q70 72 164 72q38 0 69 -12t49 -31t27.5 -35.5t13.5 -31.5zM460 240q0 80 -42 125.5t-112 45.5q-84 0 -147 -66t-63 -164
q0 -75 44 -124q44 -48 110 -48q86 0 147 64q63 65 63 167zM379 497q-25 0 -62 27q-37 28 -55 28q-15 0 -25.5 -7t-14.5 -13.5t-11 -21.5l-5 -11l-14 2l5 15q18 55 67 55q26 0 61 -28q37 -27 57 -27t30.5 10t20.5 32l5 11l14 -2l-5 -15q-18 -55 -68 -55z" />
    <glyph glyph-name="adieresis" unicode="&#xe4;" horiz-adv-x="525" 
d="M470 308h1l20 112h15l-59 -420h-15l10 105h-1q-6 -14 -28 -40q-18 -22 -37 -35q-54 -40 -130 -40q-75 0 -123 52q-48 53 -48 137q0 109 69 179q70 72 164 72q38 0 69 -12t49 -31t27.5 -35.5t13.5 -31.5zM460 240q0 80 -42 125.5t-112 45.5q-84 0 -147 -66t-63 -164
q0 -75 44 -124q44 -48 110 -48q86 0 147 64q63 65 63 167zM231 522q0 12 10 21.5t22 9.5q10 0 17 -7t7 -18q0 -12 -10 -21.5t-22 -9.5q-10 0 -17 7t-7 18zM360 522q0 12 10 21.5t22 9.5q10 0 17 -7t7 -18q0 -12 -10 -21.5t-22 -9.5q-10 0 -17 7t-7 18z" />
    <glyph glyph-name="aring" unicode="&#xe5;" horiz-adv-x="525" 
d="M470 308h1l20 112h15l-59 -420h-15l10 105h-1q-6 -14 -28 -40q-18 -22 -37 -35q-54 -40 -130 -40q-75 0 -123 52q-48 53 -48 137q0 109 69 179q70 72 164 72q38 0 69 -12t49 -31t27.5 -35.5t13.5 -31.5zM460 240q0 80 -42 125.5t-112 45.5q-84 0 -147 -66t-63 -164
q0 -75 44 -124q44 -48 110 -48q86 0 147 64q63 65 63 167zM335 641q32 0 52.5 -17t20.5 -45q0 -35 -27.5 -58.5t-66.5 -23.5q-32 0 -52 16.5t-20 43.5q0 37 27.5 60.5t65.5 23.5zM386 577q0 45 -54 45q-31 0 -50 -17t-19 -46q0 -43 54 -43q30 0 49.5 17t19.5 44z" />
    <glyph glyph-name="ae" unicode="&#xe6;" horiz-adv-x="799" 
d="M731 53l7 -18q-22 -17 -71 -33q-39 -12 -79 -12q-68 0 -115.5 35t-62.5 97q-23 -54 -82 -93q-60 -39 -130 -39q-69 0 -106 32.5t-37 83.5q0 65 53.5 106t146.5 41q92 0 154 -32l4 26q24 164 -136 164q-63 0 -119 -27l-18 -9l-6 18q64 37 150 37q144 0 151 -130
q30 62 81.5 96t112.5 34q90 0 132 -54t28 -148l-1 -6h-357l-2 -15q-12 -89 36 -143t125 -54q37 0 72.5 10t52.5 22zM207 10q69 0 127 44q57 44 65 90l8 56q-62 35 -153 35q-93 0 -136 -37q-43 -36 -43 -91q0 -44 33.5 -70.5t98.5 -26.5zM626 411q-63 0 -117 -45
q-53 -44 -73 -124h334q9 71 -28 120q-36 49 -116 49z" />
    <glyph glyph-name="ccedilla" unicode="&#xe7;" horiz-adv-x="425" 
d="M215 -66l-6 11l26 46q-72 5 -116.5 54.5t-44.5 129.5q0 113 70 183q70 72 168 72q70 0 110 -28l12 -10l-11 -17q-42 36 -115 36q-82 0 -148 -66q-65 -65 -65 -166q0 -78 45 -124q46 -46 112 -46q65 0 110 27l15 9l6 -17q-50 -36 -127 -38l-19 -35q66 0 66 -53
q0 -33 -24.5 -53.5t-63.5 -20.5q-37 0 -55 18l-6 5l12 15q18 -19 52 -19q29 0 46.5 14t17.5 37q0 18 -13.5 28t-35.5 10z" />
    <glyph glyph-name="egrave" unicode="&#xe8;" horiz-adv-x="460" 
d="M390 52l8 -17q-21 -16 -73 -33q-39 -12 -79 -12q-78 0 -124.5 49.5t-46.5 133.5q0 116 65 187q64 70 158 70q85 0 125.5 -55t25.5 -147l-1 -6h-347l-2 -15q-12 -91 31 -144q44 -54 119 -54q37 0 72.5 10t52.5 22zM296 411q-65 0 -118.5 -46t-71.5 -123h324q7 70 -27 119
q-35 50 -107 50zM291 497l-55 138l32 4l38 -142h-15z" />
    <glyph glyph-name="eacute" unicode="&#xe9;" horiz-adv-x="460" 
d="M390 52l8 -17q-21 -16 -73 -33q-39 -12 -79 -12q-78 0 -124.5 49.5t-46.5 133.5q0 116 65 187q64 70 158 70q85 0 125.5 -55t25.5 -147l-1 -6h-347l-2 -15q-12 -91 31 -144q44 -54 119 -54q37 0 72.5 10t52.5 22zM296 411q-65 0 -118.5 -46t-71.5 -123h324q7 70 -27 119
q-35 50 -107 50zM397 635l-93 -138h-15l78 142z" />
    <glyph glyph-name="ecircumflex" unicode="&#xea;" horiz-adv-x="460" 
d="M390 52l8 -17q-21 -16 -73 -33q-39 -12 -79 -12q-78 0 -124.5 49.5t-46.5 133.5q0 116 65 187q64 70 158 70q85 0 125.5 -55t25.5 -147l-1 -6h-347l-2 -15q-12 -91 31 -144q44 -54 119 -54q37 0 72.5 10t52.5 22zM296 411q-65 0 -118.5 -46t-71.5 -123h324q7 70 -27 119
q-35 50 -107 50zM365 497l-51 91l-76 -91h-22l85 109h29l57 -109h-22z" />
    <glyph glyph-name="edieresis" unicode="&#xeb;" horiz-adv-x="460" 
d="M390 52l8 -17q-21 -16 -73 -33q-39 -12 -79 -12q-78 0 -124.5 49.5t-46.5 133.5q0 116 65 187q64 70 158 70q85 0 125.5 -55t25.5 -147l-1 -6h-347l-2 -15q-12 -91 31 -144q44 -54 119 -54q37 0 72.5 10t52.5 22zM296 411q-65 0 -118.5 -46t-71.5 -123h324q7 70 -27 119
q-35 50 -107 50zM210 522q0 12 10 21.5t22 9.5q10 0 17 -7t7 -18q0 -12 -10 -21.5t-22 -9.5q-10 0 -17 7t-7 18zM339 522q0 12 10 21.5t22 9.5q10 0 17 -7t7 -18q0 -12 -10 -21.5t-22 -9.5q-10 0 -17 7t-7 18z" />
    <glyph glyph-name="igrave" unicode="&#xec;" horiz-adv-x="182" 
d="M81 0l59 420h20l-59 -420h-20zM154 497l-55 138l32 4l38 -142h-15z" />
    <glyph glyph-name="iacute" unicode="&#xed;" horiz-adv-x="182" 
d="M81 0l59 420h20l-59 -420h-20zM261 635l-93 -138h-15l78 142z" />
    <glyph glyph-name="icircumflex" unicode="&#xee;" horiz-adv-x="182" 
d="M81 0l59 420h20l-59 -420h-20zM225 497l-51 91l-76 -91h-22l85 109h29l57 -109h-22z" />
    <glyph glyph-name="idieresis" unicode="&#xef;" horiz-adv-x="182" 
d="M81 0l59 420h20l-59 -420h-20zM73 522q0 12 10 21.5t22 9.5q10 0 17 -7t7 -18q0 -12 -10 -21.5t-22 -9.5q-10 0 -17 7t-7 18zM202 522q0 12 10 21.5t22 9.5q10 0 17 -7t7 -18q0 -12 -10 -21.5t-22 -9.5q-10 0 -17 7t-7 18z" />
    <glyph glyph-name="eth" unicode="&#xf0;" horiz-adv-x="495" 
d="M245 -10q-75 0 -123 52q-48 53 -48 137q0 110 67 180q68 71 166 71q68 0 115 -44l2 2q-10 13 -16 26l-76 156l-129 -73l-8 18l129 73l-65 136l1 4h20l63 -129l127 73l9 -18l-127 -73l80 -162q46 -92 46 -179q0 -105 -68 -178q-68 -72 -165 -72zM456 232q0 82 -41.5 130.5
t-111.5 48.5q-85 0 -146 -66q-62 -67 -62 -164q0 -76 42 -124q43 -48 109 -48q86 0 148 63q62 65 62 160z" />
    <glyph glyph-name="ntilde" unicode="&#xf1;" horiz-adv-x="505" 
d="M79 0l59 420h15l-7 -88h1q16 33 58 63q50 35 115 35q80 0 118.5 -55t26.5 -144l-32 -231h-20l32 230q11 83 -22 132t-107 49q-75 0 -123 -49q-48 -48 -57 -100l-37 -262h-20zM388 497q-24 0 -62 27q-37 28 -55 28q-15 0 -25.5 -7t-14.5 -13.5t-11 -21.5l-5 -11l-14 2
l5 15q18 55 67 55q26 0 61 -28q38 -27 57 -27q20 0 30.5 10t20.5 32l5 11l14 -2l-5 -15q-18 -55 -68 -55z" />
    <glyph glyph-name="ograve" unicode="&#xf2;" horiz-adv-x="503" 
d="M487 240q0 -111 -70 -181q-71 -69 -167 -69q-79 0 -127.5 51t-48.5 135q0 111 70 182q70 72 168 72q76 0 126 -53q49 -52 49 -137zM253 9q83 0 147 63q65 63 65 164q0 79 -45 127t-111 48q-83 0 -149 -66q-65 -65 -65 -166q0 -78 45 -124q46 -46 113 -46zM315 497
l-55 138l32 4l38 -142h-15z" />
    <glyph glyph-name="oacute" unicode="&#xf3;" horiz-adv-x="503" 
d="M487 240q0 -111 -70 -181q-71 -69 -167 -69q-79 0 -127.5 51t-48.5 135q0 111 70 182q70 72 168 72q76 0 126 -53q49 -52 49 -137zM253 9q83 0 147 63q65 63 65 164q0 79 -45 127t-111 48q-83 0 -149 -66q-65 -65 -65 -166q0 -78 45 -124q46 -46 113 -46zM421 635
l-93 -138h-15l78 142z" />
    <glyph glyph-name="ocircumflex" unicode="&#xf4;" horiz-adv-x="503" 
d="M487 240q0 -111 -70 -181q-71 -69 -167 -69q-79 0 -127.5 51t-48.5 135q0 111 70 182q70 72 168 72q76 0 126 -53q49 -52 49 -137zM253 9q83 0 147 63q65 63 65 164q0 79 -45 127t-111 48q-83 0 -149 -66q-65 -65 -65 -166q0 -78 45 -124q46 -46 113 -46zM386 497l-51 91
l-76 -91h-22l85 109h29l57 -109h-22z" />
    <glyph glyph-name="otilde" unicode="&#xf5;" horiz-adv-x="503" 
d="M487 240q0 -111 -70 -181q-71 -69 -167 -69q-79 0 -127.5 51t-48.5 135q0 111 70 182q70 72 168 72q76 0 126 -53q49 -52 49 -137zM253 9q83 0 147 63q65 63 65 164q0 79 -45 127t-111 48q-83 0 -149 -66q-65 -65 -65 -166q0 -78 45 -124q46 -46 113 -46zM383 497
q-25 0 -62 27q-37 28 -55 28q-15 0 -25.5 -7t-14.5 -13.5t-11 -21.5l-5 -11l-14 2l5 15q18 55 67 55q26 0 61 -28q37 -27 57 -27t30.5 10t20.5 32l5 11l14 -2l-5 -15q-18 -55 -68 -55z" />
    <glyph glyph-name="odieresis" unicode="&#xf6;" horiz-adv-x="503" 
d="M487 240q0 -111 -70 -181q-71 -69 -167 -69q-79 0 -127.5 51t-48.5 135q0 111 70 182q70 72 168 72q76 0 126 -53q49 -52 49 -137zM253 9q83 0 147 63q65 63 65 164q0 79 -45 127t-111 48q-83 0 -149 -66q-65 -65 -65 -166q0 -78 45 -124q46 -46 113 -46zM233 522
q0 12 10 21.5t22 9.5q10 0 17 -7t7 -18q0 -12 -10 -21.5t-22 -9.5q-10 0 -17 7t-7 18zM362 522q0 12 10 21.5t22 9.5q10 0 17 -7t7 -18q0 -12 -10 -21.5t-22 -9.5q-10 0 -17 7t-7 18z" />
    <glyph glyph-name="divide" unicode="&#xf7;" horiz-adv-x="489" 
d="M241 169q0 12 10 21.5t22 9.5q25 0 25 -25q0 -12 -10 -21.5t-23 -9.5q-10 0 -17 7.5t-7 17.5zM276 420q0 12 10 21.5t22 9.5q10 0 17.5 -7.5t7.5 -17.5q0 -12 -10 -21.5t-22 -9.5q-11 0 -18 7.5t-7 17.5zM109 284l3 20h351l-3 -20h-351z" />
    <glyph glyph-name="oslash" unicode="&#xf8;" horiz-adv-x="504" 
d="M487 240q0 -111 -70 -181q-71 -69 -167 -69q-80 0 -130 53l-46 -43h-30l63 60q-33 47 -33 116q0 111 70 182q70 72 168 72q78 0 129 -56l50 46h29l-67 -62q34 -47 34 -118zM95 179q0 -60 29 -104l299 284q-43 52 -114 52q-83 0 -149 -66q-65 -65 -65 -166zM253 9
q83 0 147 63q65 63 65 164q0 60 -29 106l-299 -284q43 -49 116 -49z" />
    <glyph glyph-name="ugrave" unicode="&#xf9;" horiz-adv-x="499" 
d="M423 162l36 258h20l-59 -420h-15l7 89h-1l-1 -3q-5 -10 -16 -23t-31.5 -31t-53.5 -30t-71 -12q-80 0 -116 54t-23 145l32 231h20l-32 -230q-12 -84 19 -132.5t104 -48.5q78 0 125 50q49 52 56 103zM303 497l-55 138l32 4l38 -142h-15z" />
    <glyph glyph-name="uacute" unicode="&#xfa;" horiz-adv-x="499" 
d="M423 162l36 258h20l-59 -420h-15l7 89h-1l-1 -3q-5 -10 -16 -23t-31.5 -31t-53.5 -30t-71 -12q-80 0 -116 54t-23 145l32 231h20l-32 -230q-12 -84 19 -132.5t104 -48.5q78 0 125 50q49 52 56 103zM410 635l-93 -138h-15l78 142z" />
    <glyph glyph-name="ucircumflex" unicode="&#xfb;" horiz-adv-x="499" 
d="M423 162l36 258h20l-59 -420h-15l7 89h-1l-1 -3q-5 -10 -16 -23t-31.5 -31t-53.5 -30t-71 -12q-80 0 -116 54t-23 145l32 231h20l-32 -230q-12 -84 19 -132.5t104 -48.5q78 0 125 50q49 52 56 103zM374 497l-51 91l-76 -91h-22l85 109h29l57 -109h-22z" />
    <glyph glyph-name="udieresis" unicode="&#xfc;" horiz-adv-x="499" 
d="M423 162l36 258h20l-59 -420h-15l7 89h-1l-1 -3q-5 -10 -16 -23t-31.5 -31t-53.5 -30t-71 -12q-80 0 -116 54t-23 145l32 231h20l-32 -230q-12 -84 19 -132.5t104 -48.5q78 0 125 50q49 52 56 103zM222 522q0 12 10 21.5t22 9.5q10 0 17 -7t7 -18q0 -12 -10 -21.5
t-22 -9.5q-10 0 -17 7t-7 18zM351 522q0 12 10 21.5t22 9.5q10 0 17 -7t7 -18q0 -12 -10 -21.5t-22 -9.5q-10 0 -17 7t-7 18z" />
    <glyph glyph-name="yacute" unicode="&#xfd;" horiz-adv-x="496" 
d="M420 162l36 258h20l-59 -419q-12 -86 -65 -133t-140 -47q-41 0 -77 12.5t-50 26.5l-13 13l15 14q20 -20 56 -34q33 -13 72 -13q77 0 124 41.5t58 119.5l13 88h-2q-11 -18 -25 -35q-15 -16 -33 -30q-48 -34 -116 -34q-80 0 -116 54t-23 145l32 231h21l-32 -230
q-12 -84 19 -132t103 -48q78 0 126 50q49 50 56 102zM413 635l-93 -138h-15l78 142z" />
    <glyph glyph-name="thorn" unicode="&#xfe;" horiz-adv-x="526" 
d="M116 111h-1l-38 -267h-20l106 756h20l-41 -291h1q7 17 28 42q15 18 38 37q56 42 131 42q74 0 122 -53q48 -52 48 -136q0 -107 -69 -179t-162 -72q-117 0 -160 108zM125 180q0 -79 45 -125t111 -46q85 0 146 66q62 67 62 164q0 77 -43 124q-42 48 -108 48q-85 0 -149 -64
q-64 -63 -64 -167z" />
    <glyph glyph-name="ydieresis" unicode="&#xff;" horiz-adv-x="496" 
d="M420 162l36 258h20l-59 -419q-12 -86 -65 -133t-140 -47q-41 0 -77 12.5t-50 26.5l-13 13l15 14q20 -20 56 -34q33 -13 72 -13q77 0 124 41.5t58 119.5l13 88h-2q-11 -18 -25 -35q-15 -16 -33 -30q-48 -34 -116 -34q-80 0 -116 54t-23 145l32 231h21l-32 -230
q-12 -84 19 -132t103 -48q78 0 126 50q49 50 56 102zM225 522q0 12 10 21.5t22 9.5q10 0 17 -7t7 -18q0 -12 -10 -21.5t-22 -9.5q-10 0 -17 7t-7 18zM354 522q0 12 10 21.5t22 9.5q10 0 17 -7t7 -18q0 -12 -10 -21.5t-22 -9.5q-10 0 -17 7t-7 18z" />
    <glyph glyph-name="dotlessi" unicode="&#x131;" horiz-adv-x="182" 
d="M81 0l59 420h20l-59 -420h-20z" />
    <glyph glyph-name="Lslash" unicode="&#x141;" horiz-adv-x="480" 
d="M53 252l4 25l83 48l39 275h21l-37 -262l194 111l-4 -26l-193 -110l-41 -293h342l-3 -20h-363l42 300z" />
    <glyph glyph-name="lslash" unicode="&#x142;" horiz-adv-x="217" 
d="M52 229l4 25l86 49l43 302h20l-41 -289l88 50l-3 -24l-88 -51l-41 -291h-20l39 279z" />
    <glyph glyph-name="OE" unicode="&#x152;" horiz-adv-x="1051" 
d="M335 -14q-115 0 -182 75q-67 76 -67 193q0 152 96 255q98 104 241 104q95 0 159.5 -54.5t82.5 -146.5l27 188h397l-2 -20h-376l-38 -267h330l-3 -20h-330l-38 -273h376l-3 -20h-397l24 170q-43 -85 -122 -134.5t-175 -49.5zM338 6q139 0 226 99q87 101 87 236
q0 109 -61 180q-60 72 -170 72q-138 0 -226 -100q-87 -101 -87 -236q0 -108 61 -179q61 -72 170 -72z" />
    <glyph glyph-name="oe" unicode="&#x153;" horiz-adv-x="844" 
d="M775 52l8 -17q-21 -16 -73 -33q-39 -12 -79 -12q-66 0 -111.5 37.5t-56.5 103.5q-29 -65 -87.5 -103t-127.5 -38q-79 0 -127.5 51t-48.5 135q0 111 70 182q70 72 168 72q65 0 111 -38.5t59 -104.5q27 66 82 104.5t121 38.5q85 0 125.5 -55t25.5 -147l-1 -6h-347l-2 -15
q-12 -91 31 -144q43 -54 119 -54q37 0 72.5 10t52.5 22zM251 9q83 0 147 63q65 63 65 164q0 79 -45 127t-111 48q-83 0 -149 -66q-65 -65 -65 -166q0 -78 45 -124q46 -46 113 -46zM681 411q-65 0 -118.5 -46t-71.5 -123h324q7 70 -27 119q-35 50 -107 50z" />
    <glyph glyph-name="Scaron" unicode="&#x160;" horiz-adv-x="502" 
d="M57 51l15 17l6.5 -6.5t20.5 -15t34.5 -18.5t48.5 -14.5t63 -6.5q103 0 157 40.5t54 113.5q0 52 -38.5 82t-122.5 56l-54 17q-25 9 -46 19q-30 14 -43 27q-36 36 -36 82q0 78 63 123q64 46 160 46q55 0 102 -12.5t65 -27.5l15 -13l-15 -18q-2 2 -6 5.5t-19 12.5t-33 15.5
t-48 12t-64 5.5q-82 0 -141 -39q-58 -37 -58 -106q3 -35 19 -56.5t51 -37.5q25 -12 42 -18l49 -16q74 -25 101 -39t41 -29q37 -35 37 -88q0 -81 -60.5 -129t-174.5 -48q-52 0 -99 15t-67 33zM298 777l51 -91l76 91h22l-85 -109h-29l-57 109h22z" />
    <glyph glyph-name="scaron" unicode="&#x161;" horiz-adv-x="392" 
d="M51 29l11 17q50 -36 131 -36q72 0 112 29.5t40 78.5q0 37 -26.5 54.5t-90.5 31.5q-53 12 -78 22q-20 8 -32 18q-27 23 -27 62q0 58 43.5 91t121.5 33q81 0 118 -24l14 -9l-11 -18q-41 32 -124 32q-68 0 -104.5 -26.5t-36.5 -75.5q4 -27 15.5 -41t39.5 -24q28 -9 73 -19
q66 -14 96 -36.5t30 -67.5q0 -57 -46.5 -93.5t-124.5 -36.5q-41 0 -77.5 9t-52.5 20zM221 606l51 -91l76 91h22l-85 -109h-29l-57 109h22z" />
    <glyph glyph-name="Ydieresis" unicode="&#x178;" horiz-adv-x="543" 
d="M328 278l241 322h25l-280 -368l-32 -232h-21l32 232l-176 368h25l152 -322l12 -29h2zM278 693q0 12 10 21.5t22 9.5q10 0 17 -7t7 -18q0 -12 -10 -21.5t-22 -9.5q-10 0 -17 7t-7 18zM407 693q0 12 10 21.5t22 9.5q10 0 17 -7t7 -18q0 -12 -10 -21.5t-22 -9.5q-10 0 -17 7
t-7 18z" />
    <glyph glyph-name="Zcaron" unicode="&#x17d;" horiz-adv-x="508" 
d="M33 0l2 17l497 563h-414l2 20h444l-2 -17l-497 -563h405l-3 -20h-434zM298 777l51 -91l76 91h22l-85 -109h-29l-57 109h22z" />
    <glyph glyph-name="zcaron" unicode="&#x17e;" horiz-adv-x="410" 
d="M43 18l358 383h-305l3 19h330l-3 -18l-356 -383h303l-3 -19h-330zM222 606l51 -91l76 91h22l-85 -109h-29l-57 109h22z" />
    <glyph glyph-name="florin" unicode="&#x192;" horiz-adv-x="515" 
d="M212 93l107 308h-79l3 19h83l16 45q53 145 179 145q39 0 57 -10l6 -3l-9 -17q-20 11 -58 11q-50 0 -92 -33t-63 -93l-16 -45h132l-3 -19h-135l-109 -312q-16 -47 -40.5 -68.5t-65.5 -21.5q-31 0 -49 11l-6 4l12 19q19 -14 46 -14q32 0 51.5 17.5t32.5 56.5z" />
    <glyph glyph-name="circumflex" unicode="&#x2c6;" horiz-adv-x="314" 
d="M318 668l-51 91l-76 -91h-22l85 109h29l57 -109h-22z" />
    <glyph glyph-name="caron" unicode="&#x2c7;" horiz-adv-x="325" 
d="M205 777l51 -91l76 91h22l-85 -109h-29l-57 109h22z" />
    <glyph glyph-name="breve" unicode="&#x2d8;" horiz-adv-x="349" 
d="M395 822h21q-13 -73 -54.5 -113.5t-102.5 -40.5q-54 0 -84.5 33t-30.5 95q0 2 2 26h21q-2 -24 -2 -26q0 -52 25 -80.5t72 -28.5q52 0 86.5 34.5t46.5 100.5z" />
    <glyph glyph-name="dotaccent" unicode="&#x2d9;" horiz-adv-x="327" 
d="M242 550q-13 0 -21.5 8.5t-8.5 22.5q0 17 12 28.5t28 11.5q14 0 23 -9.5t9 -22.5q0 -16 -12.5 -27.5t-29.5 -11.5z" />
    <glyph glyph-name="ring" unicode="&#x2da;" horiz-adv-x="281" 
d="M250 759q32 0 52.5 -17t20.5 -45q0 -35 -27.5 -58.5t-66.5 -23.5q-32 0 -52 16.5t-20 43.5q0 37 27.5 60.5t65.5 23.5zM301 695q0 45 -54 45q-31 0 -50 -17t-19 -46q0 -43 54 -43q30 0 49.5 17t19.5 44z" />
    <glyph glyph-name="ogonek" unicode="&#x2db;" horiz-adv-x="192" 
d="M137 -102l7 -14q-22 -17 -60 -17q-25 0 -40.5 13.5t-15.5 37.5q0 32 25 57q26 24 49 33l25 9l2 -15q-3 -1 -8.5 -3.5t-19.5 -10t-24.5 -16.5t-19.5 -23.5t-9 -30.5q0 -15 10.5 -24t28.5 -9q24 0 44 10z" />
    <glyph glyph-name="tilde" unicode="&#x2dc;" horiz-adv-x="410" 
d="M354 668q-24 0 -62 27q-37 28 -55 28q-15 0 -25.5 -7t-14.5 -13.5t-11 -21.5l-5 -11l-14 2l5 15q18 55 67 55q26 0 61 -28q38 -27 57 -27q20 0 30.5 10t20.5 32l5 11l14 -2l-5 -15q-18 -55 -68 -55z" />
    <glyph glyph-name="hungarumlaut" unicode="&#x2dd;" horiz-adv-x="396" 
d="M367 577l-94 -158h-15l78 158h31zM257 577l-94 -158h-15l78 158h31z" />
    <glyph glyph-name="pi" unicode="&#x3c0;" horiz-adv-x="452" 
d="M86 420h397l-3 -20h-69l-56 -400h-20l56 400h-218l-56 -400h-20l56 400h-70z" />
    <glyph glyph-name="endash" unicode="&#x2013;" horiz-adv-x="458" 
d="M106 278l3 20h313l-3 -20h-313z" />
    <glyph glyph-name="emdash" unicode="&#x2014;" horiz-adv-x="729" 
d="M106 278l3 20h584l-3 -20h-584z" />
    <glyph glyph-name="quoteleft" unicode="&#x2018;" horiz-adv-x="199" 
d="M158 507q10 0 16.5 -7t6.5 -16q0 -11 -9.5 -20t-20.5 -9q-10 0 -16.5 7.5t-5.5 18.5l1 12q4 40 32.5 68.5t75.5 38.5l2 -18q-35 -6 -59.5 -28t-25.5 -45v-2h3z" />
    <glyph glyph-name="quoteright" unicode="&#x2019;" horiz-adv-x="207" 
d="M207 548q-10 0 -16.5 7t-6.5 16q0 11 9.5 20t20.5 9q10 0 16.5 -7.5t5.5 -18.5l-1 -12q-4 -40 -32.5 -68.5t-76.5 -38.5l-1 18q35 6 59.5 28t25.5 45v2h-3z" />
    <glyph glyph-name="quotesinglbase" unicode="&#x201a;" horiz-adv-x="192" 
d="M100 -8h-3q-15 0 -21 13t1 26t24 13q10 0 17 -7t7 -19q0 -45 -28.5 -76t-81.5 -43l-1 18q34 6 58.5 27.5t27.5 45.5v2z" />
    <glyph glyph-name="quotedblleft" unicode="&#x201c;" horiz-adv-x="333" 
d="M293 507q10 0 16.5 -7t6.5 -16q0 -11 -9.5 -20t-20.5 -9q-10 0 -16.5 7.5t-5.5 18.5l1 12q4 40 32.5 68.5t75.5 38.5l2 -18q-35 -6 -59.5 -28t-25.5 -45v-2h3zM157 507q10 0 16.5 -7t6.5 -16q0 -11 -9.5 -20t-20.5 -9q-10 0 -16.5 7.5t-5.5 18.5l1 12q4 40 32.5 68.5
t75.5 38.5l2 -18q-35 -6 -59.5 -28t-25.5 -45v-2h3z" />
    <glyph glyph-name="quotedblright" unicode="&#x201d;" horiz-adv-x="341" 
d="M207 548q-10 0 -16.5 7t-6.5 16q0 11 9.5 20t20.5 9q10 0 16.5 -7.5t5.5 -18.5l-1 -12q-4 -40 -32.5 -68.5t-76.5 -38.5l-1 18q35 6 59.5 28t25.5 45v2h-3zM343 548q-10 0 -16.5 7t-6.5 16q0 11 9.5 20t20.5 9q10 0 16.5 -7.5t5.5 -18.5l-1 -12q-4 -40 -32.5 -68.5
t-76.5 -38.5l-1 18q35 6 59.5 28t25.5 45v2h-3z" />
    <glyph glyph-name="quotedblbase" unicode="&#x201e;" horiz-adv-x="327" 
d="M100 -8h-3q-15 0 -21 13t1 26t24 13q10 0 17 -7t7 -19q0 -45 -28.5 -76t-81.5 -43l-1 18q34 6 58.5 27.5t27.5 45.5v2zM235 -8h-3q-15 0 -21 13t1 26t24 13q10 0 17 -7t7 -19q0 -45 -28.5 -76t-81.5 -43l-1 18q34 6 58.5 27.5t27.5 45.5v2z" />
    <glyph glyph-name="dagger" unicode="&#x2020;" horiz-adv-x="388" 
d="M99 442l3 20h146l24 173h21l-24 -173h147l-3 -20h-147l-46 -295h-11l36 295h-146z" />
    <glyph glyph-name="daggerdbl" unicode="&#x2021;" horiz-adv-x="417" 
d="M116 450l2 20h145l28 198h21l-28 -198h147l-2 -20h-148l-19 -101l-10 -104h148l-3 -20h-147l-32 -225h-21l32 225h-145l3 20h145l19 104l10 101h-145z" />
    <glyph glyph-name="bullet" unicode="&#x2022;" horiz-adv-x="282" 
d="M180 275q19 0 32 -13t13 -33q0 -24 -18 -41t-42 -17q-19 0 -32 13t-13 33q0 24 18 41t42 17z" />
    <glyph glyph-name="ellipsis" unicode="&#x2026;" horiz-adv-x="526" 
d="M69 15q0 11 9.5 20t20.5 9q10 0 16.5 -7t6.5 -16q0 -11 -9.5 -20t-20.5 -9q-10 0 -16.5 7t-6.5 16zM239 15q0 11 9.5 20t20.5 9q10 0 16.5 -7t6.5 -16q0 -11 -9.5 -20t-20.5 -9q-10 0 -16.5 7t-6.5 16zM409 15q0 11 9.5 20t20.5 9q10 0 16.5 -7t6.5 -16q0 -11 -9.5 -20
t-20.5 -9q-10 0 -16.5 7t-6.5 16z" />
    <glyph glyph-name="perthousand" unicode="&#x2030;" horiz-adv-x="937" 
d="M246 613q47 0 73.5 -33.5t26.5 -88.5q0 -68 -39 -121q-39 -51 -102 -51q-46 0 -72.5 35t-26.5 88q0 69 39 120t101 51zM208 339q52 0 84 45q32 46 32 104q0 47 -21.5 76t-59.5 29q-52 0 -83 -45q-32 -44 -32 -104q0 -47 21 -76t59 -29zM635 600h26l-560 -600h-26z
M520 286q47 0 73.5 -33.5t26.5 -88.5q0 -68 -39 -121q-39 -51 -102 -51q-46 0 -72.5 34t-26.5 89q0 69 39 120t101 51zM517 266q-51 0 -83 -45q-32 -44 -32 -104q0 -47 21 -76t59 -29q52 0 84 45q33 45 33 104q0 47 -21.5 76t-60.5 29zM823 266q-51 0 -83 -45
q-32 -44 -32 -104q0 -47 21 -76t59 -29q52 0 84 45q33 45 33 104q0 47 -21.5 76t-60.5 29zM826 286q47 0 73.5 -33.5t26.5 -88.5q0 -68 -39 -121q-39 -51 -102 -51q-46 0 -72.5 34t-26.5 89q0 69 39 120t101 51z" />
    <glyph glyph-name="guilsinglleft" unicode="&#x2039;" horiz-adv-x="233" 
d="M79 200l2 17l123 156h21l-1 -7l-122 -155l-1 -3l79 -157l-1 -7h-21z" />
    <glyph glyph-name="guilsinglright" unicode="&#x203a;" horiz-adv-x="233" 
d="M212 217l-2 -17l-123 -156h-21l1 7l123 157v3l-79 155l1 7h21z" />
    <glyph glyph-name="fraction" unicode="&#x2044;" horiz-adv-x="501" 
d="M25 0h-25l559 600h26z" />
    <glyph glyph-name="Euro" unicode="&#x20ac;" horiz-adv-x="606" 
d="M440 240l-3 -20h-234q6 -93 55.5 -148t135.5 -55q40 0 79 15t57 33l17 16l12 -14q-6 -8 -27 -24q-15 -11 -34 -22q-48 -24 -106 -24q-96 0 -150.5 60.5t-60.5 162.5h-103l3 20h99v5q0 62 13 113h-96l3 20h98q30 102 102 163q72 63 177 63q98 0 144 -62l5 -7l-17 -15
q0 1 -4 7t-15.5 16t-26.5 18q-36 23 -89 23q-93 0 -158.5 -55.5t-95.5 -150.5h239l-3 -20h-241q-13 -49 -13 -111v-7h238z" />
    <glyph glyph-name="trademark" unicode="&#x2122;" horiz-adv-x="703" 
d="M399 281h-22l45 319h30l88 -181l140 181h30l-45 -319h-22l41 292l-142 -185h-12l-90 185zM353 600l-3 -20h-107l-42 -299h-21l42 299h-106l3 20h234z" />
    <glyph glyph-name="Omega" unicode="&#x2126;" horiz-adv-x="714" 
d="M54 0l3 20h182q-66 27 -105 95q-38 68 -38 149q0 89 41.5 167.5t120.5 129.5q80 52 185 52q125 0 192 -79q68 -79 68 -192q0 -105 -64 -196q-63 -92 -159 -126h183l-3 -20h-268l3 20q71 -2 139.5 45.5t109.5 123t39 151.5q0 106 -63 180q-63 73 -180 73q-145 0 -235 -99
q-89 -100 -89 -227q0 -99 59 -173t151 -74l-3 -20h-269z" />
    <glyph glyph-name="partialdiff" unicode="&#x2202;" horiz-adv-x="495" 
d="M245 -10q-75 0 -123 52q-48 53 -48 137q0 110 67 180q68 71 166 71q68 0 115 -44l2 2q-10 13 -16 26l-149 310l1 4h20l152 -309q46 -92 46 -179q0 -105 -68 -178q-68 -72 -165 -72zM456 232q0 82 -41.5 130.5t-111.5 48.5q-85 0 -146 -66q-62 -67 -62 -164q0 -76 42 -124
q43 -48 109 -48q86 0 148 63q62 65 62 160z" />
    <glyph glyph-name="increment" unicode="&#x2206;" horiz-adv-x="597" 
d="M28 0l1 9l349 591h8l184 -591l-1 -9h-541zM542 20l-165 538h-3l-315 -538h483z" />
    <glyph glyph-name="product" unicode="&#x220f;" horiz-adv-x="592" 
d="M602 600l-84 -600h-21l82 580h-402l-82 -580h-21l84 600h444z" />
    <glyph glyph-name="summation" unicode="&#x2211;" horiz-adv-x="442" 
d="M124 600h353l-2 -20h-327l179 -276l-1 -7l-257 -277h327l-3 -20h-353l3 20l259 279v2l-180 279z" />
    <glyph glyph-name="minus" unicode="&#x2212;" horiz-adv-x="489" 
d="M110 289l3 20h351l-3 -20h-351z" />
    <glyph glyph-name="radical" unicode="&#x221a;" horiz-adv-x="589" 
d="M176 -192l-134 399h24l116 -353q4 -11 4 -19h2q0 6 8 19l455 746h25l-487 -792h-13z" />
    <glyph glyph-name="infinity" unicode="&#x221e;" horiz-adv-x="771" 
d="M233 121q-65 0 -102.5 40t-37.5 102q0 77 51 133q53 56 135 56q57 0 91.5 -36t57.5 -108q45 72 88.5 108t100.5 36q63 0 102 -39t39 -104q0 -77 -52 -132q-51 -56 -135 -56q-57 0 -92 36t-57 106q-45 -72 -88.5 -107t-100.5 -35zM436 286q24 -72 55.5 -108.5t82.5 -36.5
q74 0 119 49q45 50 45 116q0 57 -34.5 91.5t-89.5 34.5q-52 0 -93.5 -36.5t-84.5 -109.5zM236 141q52 0 94 36.5t84 108.5q-23 74 -54 110t-84 36q-73 0 -118 -49t-45 -117q0 -56 32.5 -90.5t90.5 -34.5z" />
    <glyph glyph-name="integral" unicode="&#x222b;" horiz-adv-x="267" 
d="M120 -16l80 567q7 52 28.5 75t62.5 23q25 0 46 -13l6 -4l-11 -17q-20 15 -44 15q-58 0 -68 -79l-80 -567q-8 -52 -29 -75t-60 -23q-25 0 -47 12l-6 5l11 17q19 -15 44 -15q57 0 67 79z" />
    <glyph glyph-name="approxequal" unicode="&#x2248;" horiz-adv-x="392" 
d="M288 194q-26 0 -63 27q-37 28 -55 28q-20 0 -30.5 -10t-20.5 -32l-5 -11l-14 2l5 15q19 55 68 55q26 0 61 -28q38 -27 57 -27q33 0 50 42l4 11l15 -2l-4 -15q-18 -55 -68 -55zM314 378q-26 0 -63 27q-37 28 -55 28q-20 0 -30.5 -10t-20.5 -32l-5 -11l-14 2l5 15
q18 55 68 55q26 0 61 -28q38 -27 57 -27q33 0 50 42l4 11l16 -2l-5 -15q-18 -55 -68 -55z" />
    <glyph glyph-name="notequal" unicode="&#x2260;" horiz-adv-x="439" 
d="M117 376l3 20h180l70 139l21 -8l-66 -131h106l-3 -20h-113l-86 -171h175l-3 -20h-183l-74 -148l-21 8l71 140h-104l3 20h111l86 171h-173z" />
    <glyph glyph-name="lessequal" unicode="&#x2264;" horiz-adv-x="397" 
d="M318 233l-16 -14l-155 167l1 9l203 175l12 -14l-190 -165zM352 134l-3 -20h-263l3 20h263z" />
    <glyph glyph-name="greaterequal" unicode="&#x2265;" horiz-adv-x="395" 
d="M156 219l-12 14l189 158l-144 165l16 14l153 -175l-1 -9zM80 114l3 20h262l-3 -20h-262z" />
    <glyph glyph-name="lozenge" unicode="&#x25ca;" horiz-adv-x="402" 
d="M290 600l114 -300l-198 -300h-10l-114 300l198 300h10zM108 299l96 -257h6l167 257l-95 259h-6z" />
    <glyph glyph-name="NULL" horiz-adv-x="0" 
 />
    <glyph glyph-name="CR.001" horiz-adv-x="333" 
 />
    </font>
</defs>
</svg>
