<?xml version="1.0" encoding="UTF-8"?>
<svg width="259px" height="34px" viewBox="0 0 259 34" version="1.1" xmlns="http://www.w3.org/2000/svg" xmlns:xlink="http://www.w3.org/1999/xlink">
    <!-- Generator: Sketch 49.2 (51160) - http://www.bohemiancoding.com/sketch -->
    <title>logo</title>
    <desc>Created with Sketch.</desc>
    <defs></defs>
    <g id="10-Year-Book-micro-site" stroke="none" stroke-width="1" fill="none" fill-rule="evenodd">
        <g id="10yearbook-web" transform="translate(-590.000000, -14.000000)" fill="#333333">
            <g id="header">
                <g id="logo" transform="translate(590.000000, 12.000000)">
                    <path d="M0.42,21.7 L0.42,18.2 L7.896,18.2 L7.896,35 L3.836,35 L3.836,21.7 L0.42,21.7 Z M18.596,35.364 C16.104,35.364 14.172,34.524 12.8,32.844 C11.456,31.136 10.784,29.064 10.784,26.6 C10.784,24.136 11.456,22.064 12.8,20.384 C14.172,18.676 16.104,17.836 18.596,17.836 C23.776,17.836 26.52,21.98 26.408,26.6 C26.52,31.22 23.776,35.364 18.596,35.364 Z M15.908,30.156 C16.524,31.024 17.42,31.444 18.596,31.444 C19.772,31.444 20.668,31.024 21.284,30.156 C21.9,29.288 22.208,28.084 22.208,26.6 C22.208,25.116 21.9,23.94 21.284,23.072 C20.668,22.204 19.772,21.756 18.596,21.756 C17.42,21.756 16.524,22.204 15.908,23.072 C15.292,23.94 14.984,25.116 14.984,26.6 C14.984,28.084 15.292,29.288 15.908,30.156 Z M40.836,23.296 L43.664,18.2 L48.032,18.2 L42.152,28.476 L42.152,35 L38.092,35 L38.092,28.532 L32.184,18.2 L36.552,18.2 L39.38,23.296 L40.108,25.004 L40.836,23.296 Z M60.608,24.892 L60.608,28.084 L53.776,28.084 L53.776,31.5 L61.924,31.5 L61.924,35 L49.716,35 L49.716,18.2 L61.924,18.2 L61.924,21.7 L53.776,21.7 L53.776,24.892 L60.608,24.892 Z M73.688,18.2 L80.1,35 L75.732,35 L74.696,31.976 L68.256,31.976 L67.22,35 L62.852,35 L69.264,18.2 L73.688,18.2 Z M71.476,22.568 L69.348,28.784 L73.604,28.784 L71.476,22.568 Z M81.784,18.2 L89.204,18.2 C91.108,18.2 92.648,18.732 93.852,19.796 C95.056,20.86 95.672,22.204 95.672,23.856 C95.672,26.124 94.524,27.944 92.536,28.84 L92.536,29.148 L96.316,34.72 L96.316,35 L91.696,35 L88.196,29.484 L85.844,29.484 L85.844,35 L81.784,35 L81.784,18.2 Z M91.472,23.856 C91.472,22.428 90.464,21.7 88.924,21.7 L85.844,21.7 L85.844,26.04 L88.952,26.04 C90.436,26.04 91.472,25.228 91.472,23.856 Z M97.72,33.124 L99.932,30.016 C100.296,30.24 100.716,30.604 102.368,31.192 C103.18,31.5 103.936,31.64 104.608,31.64 C105.84,31.64 106.456,31.164 106.456,30.24 C106.456,29.344 105.896,28.896 103.572,28.224 C99.848,27.132 98.028,25.704 98.028,23.044 C98.028,19.88 100.24,17.836 104.524,17.836 C107.212,17.836 109.508,18.592 110.264,19.18 L110.852,19.628 L108.668,22.932 C108.416,22.708 108.108,22.456 106.652,21.924 C105.952,21.672 105.224,21.532 104.524,21.532 C103.32,21.532 102.704,21.952 102.704,22.764 C102.704,23.576 103.32,23.912 105.364,24.5 C109.284,25.592 111.216,27.104 111.216,29.792 C111.216,33.04 108.976,35.364 104.748,35.364 C103.376,35.364 102.088,35.168 100.912,34.804 C99.764,34.44 98.924,34.048 98.448,33.684 L97.72,33.124 Z M127.296,35.392 C124.804,35.392 122.732,34.552 121.108,32.844 C119.512,31.136 118.7,29.036 118.7,26.6 C118.7,24.164 119.512,22.092 121.108,20.384 C122.732,18.676 124.804,17.836 127.296,17.836 C129.816,17.836 131.888,18.676 133.512,20.384 C135.136,22.092 135.948,24.164 135.948,26.6 C135.948,29.036 135.136,31.136 133.512,32.844 C131.888,34.552 129.816,35.392 127.296,35.392 Z M127.296,31.444 C128.556,31.444 129.62,30.996 130.46,30.1 C131.328,29.204 131.748,28.028 131.748,26.6 C131.748,25.172 131.328,23.996 130.46,23.1 C129.62,22.204 128.556,21.756 127.296,21.756 C126.036,21.756 125,22.204 124.16,23.1 C123.32,23.996 122.9,25.172 122.9,26.6 C122.9,28.028 123.32,29.204 124.16,30.1 C125,30.996 126.036,31.444 127.296,31.444 Z M149.56,24.92 L149.56,28.112 L142.728,28.112 L142.728,35 L138.668,35 L138.668,18.2 L150.988,18.2 L150.988,21.7 L142.728,21.7 L142.728,24.92 L149.56,24.92 Z M166.564,18.2 C168.468,18.2 170.008,18.732 171.212,19.796 C172.416,20.86 173.032,22.204 173.032,23.856 C173.032,25.564 172.444,26.936 171.24,27.972 C170.064,28.98 168.496,29.484 166.564,29.484 L163.204,29.484 L163.204,35 L159.144,35 L159.144,18.2 L166.564,18.2 Z M168.832,23.856 C168.832,22.428 167.824,21.7 166.284,21.7 L163.204,21.7 L163.204,26.04 L166.312,26.04 C167.796,26.04 168.832,25.228 168.832,23.856 Z M190.536,18.2 L190.536,35.028 L186.476,35.028 L186.476,28.196 L179.588,28.196 L179.588,35.028 L175.528,35.028 L175.528,18.2 L179.588,18.2 L179.588,25.004 L186.476,25.004 L186.476,18.2 L190.536,18.2 Z M201.852,35.392 C199.36,35.392 197.288,34.552 195.664,32.844 C194.068,31.136 193.256,29.036 193.256,26.6 C193.256,24.164 194.068,22.092 195.664,20.384 C197.288,18.676 199.36,17.836 201.852,17.836 C204.372,17.836 206.444,18.676 208.068,20.384 C209.692,22.092 210.504,24.164 210.504,26.6 C210.504,29.036 209.692,31.136 208.068,32.844 C206.444,34.552 204.372,35.392 201.852,35.392 Z M201.852,31.444 C203.112,31.444 204.176,30.996 205.016,30.1 C205.884,29.204 206.304,28.028 206.304,26.6 C206.304,25.172 205.884,23.996 205.016,23.1 C204.176,22.204 203.112,21.756 201.852,21.756 C200.592,21.756 199.556,22.204 198.716,23.1 C197.876,23.996 197.456,25.172 197.456,26.6 C197.456,28.028 197.876,29.204 198.716,30.1 C199.556,30.996 200.592,31.444 201.852,31.444 Z M211.544,21.7 L211.544,18.2 L225.068,18.2 L225.068,21.7 L220.336,21.7 L220.336,35 L216.276,35 L216.276,21.7 L211.544,21.7 Z M234.704,35.392 C232.212,35.392 230.14,34.552 228.516,32.844 C226.92,31.136 226.108,29.036 226.108,26.6 C226.108,24.164 226.92,22.092 228.516,20.384 C230.14,18.676 232.212,17.836 234.704,17.836 C237.224,17.836 239.296,18.676 240.92,20.384 C242.544,22.092 243.356,24.164 243.356,26.6 C243.356,29.036 242.544,31.136 240.92,32.844 C239.296,34.552 237.224,35.392 234.704,35.392 Z M234.704,31.444 C235.964,31.444 237.028,30.996 237.868,30.1 C238.736,29.204 239.156,28.028 239.156,26.6 C239.156,25.172 238.736,23.996 237.868,23.1 C237.028,22.204 235.964,21.756 234.704,21.756 C233.444,21.756 232.408,22.204 231.568,23.1 C230.728,23.996 230.308,25.172 230.308,26.6 C230.308,28.028 230.728,29.204 231.568,30.1 C232.408,30.996 233.444,31.444 234.704,31.444 Z M245.012,33.124 L247.224,30.016 C247.588,30.24 248.008,30.604 249.66,31.192 C250.472,31.5 251.228,31.64 251.9,31.64 C253.132,31.64 253.748,31.164 253.748,30.24 C253.748,29.344 253.188,28.896 250.864,28.224 C247.14,27.132 245.32,25.704 245.32,23.044 C245.32,19.88 247.532,17.836 251.816,17.836 C254.504,17.836 256.8,18.592 257.556,19.18 L258.144,19.628 L255.96,22.932 C255.708,22.708 255.4,22.456 253.944,21.924 C253.244,21.672 252.516,21.532 251.816,21.532 C250.612,21.532 249.996,21.952 249.996,22.764 C249.996,23.576 250.612,23.912 252.656,24.5 C256.576,25.592 258.508,27.104 258.508,29.792 C258.508,33.04 256.268,35.364 252.04,35.364 C250.668,35.364 249.38,35.168 248.204,34.804 C247.056,34.44 246.216,34.048 245.74,33.684 L245.012,33.124 Z" id="10-YEARS-OF-PHOTOS"></path>
                    <path d="M0.80859375,5.0234375 C0.80859375,3.45898438 1.98632812,2.375 3.66796875,2.375 C5.33789062,2.375 6.46875,3.35351562 6.46875,4.79492188 C6.46875,5.69726562 6.01757812,6.453125 4.62304688,7.86523438 L2.8359375,9.6875 L2.8359375,9.79296875 L6.60351562,9.79296875 L6.60351562,11 L0.884765625,11 L0.884765625,10.0214844 L3.6796875,7.109375 C4.79882812,5.93164062 5.0859375,5.48632812 5.0859375,4.87695312 C5.0859375,4.06835938 4.50585938,3.54101562 3.62695312,3.54101562 C2.73046875,3.54101562 2.13867188,4.1328125 2.13867188,5.01757812 L2.13867188,5.05859375 L0.80859375,5.05859375 L0.80859375,5.0234375 Z M12.9792969,6.27148438 L9.86796875,8.56835938 C10.1199219,9.50585938 10.6179688,9.99804688 11.3328125,9.99804688 C12.4109375,9.99804688 12.9910156,8.87304688 12.9910156,6.76953125 C12.9910156,6.59375 12.9851563,6.4296875 12.9792969,6.27148438 Z M9.68046875,7.2734375 L12.7976563,4.98828125 C12.5457031,4.04492188 12.0476563,3.546875 11.3328125,3.546875 C10.2488281,3.546875 9.66875,4.671875 9.66875,6.76953125 C9.66875,6.9453125 9.67460938,7.11523438 9.68046875,7.2734375 Z M11.3328125,2.36328125 C13.2839844,2.36328125 14.3796875,3.9453125 14.3796875,6.76953125 C14.3796875,9.59960938 13.2839844,11.1816406 11.3328125,11.1816406 C9.37578125,11.1816406 8.28007813,9.59960938 8.28007813,6.76953125 C8.28007813,3.9453125 9.37578125,2.36328125 11.3328125,2.36328125 Z M20.5972656,6.27148438 L17.4859375,8.56835938 C17.7378906,9.50585938 18.2359375,9.99804688 18.9507813,9.99804688 C20.0289063,9.99804688 20.6089844,8.87304688 20.6089844,6.76953125 C20.6089844,6.59375 20.603125,6.4296875 20.5972656,6.27148438 Z M17.2984375,7.2734375 L20.415625,4.98828125 C20.1636719,4.04492188 19.665625,3.546875 18.9507813,3.546875 C17.8667969,3.546875 17.2867188,4.671875 17.2867188,6.76953125 C17.2867188,6.9453125 17.2925781,7.11523438 17.2984375,7.2734375 Z M18.9507813,2.36328125 C20.9019531,2.36328125 21.9976563,3.9453125 21.9976563,6.76953125 C21.9976563,9.59960938 20.9019531,11.1816406 18.9507813,11.1816406 C16.99375,11.1816406 15.8980469,9.59960938 15.8980469,6.76953125 C15.8980469,3.9453125 16.99375,2.36328125 18.9507813,2.36328125 Z M24.3832031,11 L28.1097656,3.828125 L28.1097656,3.74023438 L23.6742188,3.74023438 L23.6742188,2.5390625 L29.5453125,2.5390625 L29.5453125,3.7578125 L25.8773438,11 L24.3832031,11 Z M37.2804688,7.859375 L31.08125,7.859375 L31.08125,6.62890625 L37.2804688,6.62890625 L37.2804688,7.859375 Z M38.8984375,5.0234375 C38.8984375,3.45898438 40.0761719,2.375 41.7578125,2.375 C43.4277344,2.375 44.5585938,3.35351562 44.5585938,4.79492188 C44.5585938,5.69726562 44.1074219,6.453125 42.7128906,7.86523438 L40.9257813,9.6875 L40.9257813,9.79296875 L44.6933594,9.79296875 L44.6933594,11 L38.9746094,11 L38.9746094,10.0214844 L41.7695313,7.109375 C42.8886719,5.93164062 43.1757813,5.48632812 43.1757813,4.87695312 C43.1757813,4.06835938 42.5957031,3.54101562 41.7167969,3.54101562 C40.8203125,3.54101562 40.2285156,4.1328125 40.2285156,5.01757812 L40.2285156,5.05859375 L38.8984375,5.05859375 L38.8984375,5.0234375 Z M51.0691406,6.27148438 L47.9578125,8.56835938 C48.2097656,9.50585938 48.7078125,9.99804688 49.4226563,9.99804688 C50.5007813,9.99804688 51.0808594,8.87304688 51.0808594,6.76953125 C51.0808594,6.59375 51.075,6.4296875 51.0691406,6.27148438 Z M47.7703125,7.2734375 L50.8875,4.98828125 C50.6355469,4.04492188 50.1375,3.546875 49.4226563,3.546875 C48.3386719,3.546875 47.7585938,4.671875 47.7585938,6.76953125 C47.7585938,6.9453125 47.7644531,7.11523438 47.7703125,7.2734375 Z M49.4226563,2.36328125 C51.3738281,2.36328125 52.4695313,3.9453125 52.4695313,6.76953125 C52.4695313,9.59960938 51.3738281,11.1816406 49.4226563,11.1816406 C47.465625,11.1816406 46.3699219,9.59960938 46.3699219,6.76953125 C46.3699219,3.9453125 47.465625,2.36328125 49.4226563,2.36328125 Z M58.0308594,9.81054688 L60.2808594,9.81054688 L60.2808594,11 L54.2808594,11 L54.2808594,9.81054688 L56.6421875,9.81054688 L56.6421875,3.99804688 L56.5425781,3.99804688 L54.2691406,5.4921875 L54.2691406,4.11523438 L56.6480469,2.54492188 L58.0308594,2.54492188 L58.0308594,9.81054688 Z M62.4730469,11 L66.1996094,3.828125 L66.1996094,3.74023438 L61.7640625,3.74023438 L61.7640625,2.5390625 L67.6351563,2.5390625 L67.6351563,3.7578125 L63.9671875,11 L62.4730469,11 Z" id="2007-2017"></path>
                </g>
            </g>
        </g>
    </g>
</svg>